<?xml version="1.0" encoding="UTF-8"?>
<svg id="Layer_2" xmlns="http://www.w3.org/2000/svg" version="1.1" viewBox="0 0 270 270">
  <!-- Generator: Adobe Illustrator 29.5.0, SVG Export Plug-In . SVG Version: 2.1.0 Build 137)  -->
  <defs>
    <style>
      .st0 {
        fill: none;
        stroke-width: 6px;
      }

      .st0, .st1 {
        stroke: #fff;
        stroke-miterlimit: 10;
      }

      .st2 {
        fill: #fff;
      }
    </style>
  </defs>
  <rect class="st1" width="270" height="270"/>
  <g id="Components">
    <g id="_04af3997-e6d6-4b9d-ba1f-c432636c43cf_4">
      <rect class="st2" x="-306" y="101" width="124.8" height="73.9" rx="-28.2" ry="-28.2"/>
      <path d="M-188.1,176.9h-110.9c-4.9,0-8.9-4-8.9-8.9v-60c0-4.9,4-8.9,8.9-8.9h110.9c4.9,0,8.9,4,8.9,8.9v60c0,4.9-4,8.9-8.9,8.9h0ZM-299.1,103c-2.7,0-4.9,2.2-4.9,4.9v60c0,2.7,2.2,4.9,4.9,4.9h110.9c2.7,0,4.9-2.2,4.9-4.9v-60c0-2.7-2.2-4.9-4.9-4.9h-110.9Z"/>
      <path d="M-265.9,133.5c0,7-3.8,10.5-11.3,10.5h-6.9v18.1h-5.8v-46.6h12.6c7.6,0,11.5,3.5,11.5,10.4v7.6h0ZM-271.6,134.2v-8.9c0-1.7-.4-2.9-1.2-3.7-.8-.8-2-1.1-3.7-1.1h-7.6v18.5h7.6c1.7,0,2.9-.4,3.7-1.2s1.2-2,1.2-3.7h0Z"/>
      <path d="M-232,151.6c0,3.7-.9,6.4-2.7,8-1.8,1.7-4.7,2.5-8.7,2.5h-8.7v-5h9.3c1.7,0,2.9-.4,3.7-1.2.8-.8,1.2-2,1.2-3.7v-8.5c0-1.5-.4-2.6-1.3-3.5-.9-.9-2.1-1.3-3.5-1.3h-8.7v-23.5h18.4v5h-12.7v13.5h2.7c3.4,0,6.1.8,8.1,2.5,2,1.7,2.9,4.3,2.9,7.9v7.2h0Z"/>
      <path d="M-217,120.5v-5h21.6v6.5l-11.7,40.2h-5.9l12.1-41.6s-16.1,0-16.1,0Z"/>
    </g>
  </g>
  <circle class="st0" cx="135" cy="135" r="104.7"/>
  <path class="st2" d="M98.6,128.5c0,12.4-5.6,18.7-16.8,18.7h-10.3v32.1h-8.6v-82.7h18.7c11.4,0,17,6.1,17,18.4v13.5h0ZM90,129.7v-15.7c0-3-.6-5.2-1.7-6.5-1.2-1.3-3-2-5.5-2h-11.3v32.8h11.3c2.5,0,4.3-.7,5.5-2.1s1.7-3.6,1.7-6.6h0Z"/>
  <path class="st2" d="M149.1,160.6c0,6.5-1.3,11.3-4,14.2-2.6,3-6.9,4.4-12.9,4.4h-13v-8.9h13.9c2.5,0,4.4-.7,5.5-2.1,1.2-1.4,1.8-3.6,1.8-6.6v-15c0-2.6-.7-4.7-2-6.2-1.3-1.5-3.1-2.3-5.2-2.3h-13v-41.7h27.3v8.9h-18.9v24h4.1c5.1,0,9.1,1.5,12,4.5,2.9,3,4.4,7.6,4.4,13.9v12.8h0Z"/>
  <path class="st2" d="M171.3,105.5v-8.9h32.2v11.5l-17.4,71.2h-8.8l18-73.8s-24,0-24,0Z"/>
</svg>