<?xml version="1.0" encoding="iso-8859-1"?>
<!-- Generator: Adobe Illustrator 19.0.0, SVG Export Plug-In . SVG Version: 6.00 Build 0)  -->
<svg version="1.1" id="Capa_1" xmlns="http://www.w3.org/2000/svg" xmlns:xlink="http://www.w3.org/1999/xlink" x="0px" y="0px"
	 viewBox="0 0 512 512" style="enable-background:new 0 0 512 512;" xml:space="preserve">
<g>
	<g>
		<g>
			<path d="M486.4,136.533c14.132-0.015,25.585-11.468,25.6-25.6V25.6C511.985,11.468,500.532,0.015,486.4,0H366.933
				c-14.132,0.015-25.585,11.468-25.6,25.6v85.333c0.015,14.132,11.468,25.585,25.6,25.6H409.6v34.133h-8.533
				c-14.132,0.015-25.585,11.468-25.6,25.6v51.2h-34.133c-3.253,0.047-6.483,0.566-9.588,1.54l-1.929-3.215
				c-5.614-9.331-15.616-15.136-26.502-15.383s-21.141,5.099-27.172,14.166l-4.546,6.84c-4.804-2.556-10.155-3.911-15.596-3.948
				h-9.3c-3.64,0.001-6.879,2.309-8.067,5.75c-0.747,1.508-2.284,2.462-3.967,2.462s-3.22-0.954-3.967-2.462
				c-1.188-3.441-4.427-5.749-8.067-5.75H204.8c-9.421,0.012-17.054,7.646-17.067,17.067v8.533h-51.2v-59.733
				c-0.059-51.817-42.05-93.808-93.867-93.867C19.114,119.494,0.028,138.581,0,162.133v162.133
				c0.019,18.844,15.29,34.115,34.133,34.133h8.533v86.906c-10.199,3.592-17.034,13.214-17.067,24.027V486.4
				c0.015,14.132,11.468,25.585,25.6,25.6h34.133c14.132-0.015,25.585-11.468,25.6-25.6v-17.067
				c-0.033-10.813-6.868-20.435-17.067-24.027V358.4h8.533c18.844-0.019,34.115-15.29,34.133-34.133v-34.133h51.2v8.533
				c0.012,9.421,7.646,17.054,17.067,17.067h17.833c3.64-0.001,6.879-2.309,8.067-5.75c0.747-1.508,2.284-2.462,3.967-2.462
				s3.22,0.954,3.967,2.462c1.188,3.441,4.427,5.749,8.067,5.75h9.3c5.442-0.038,10.793-1.392,15.598-3.948l4.544,6.831
				c6.028,9.072,16.284,14.422,27.172,14.175s20.892-6.056,26.502-15.392l1.927-3.206c3.105,0.974,6.336,1.493,9.59,1.54h0.008
				l34.125-0.028v8.561c0.002,0.418,0.032,0.836,0.092,1.25l0.683,4.608c0.048,0.337,0.117,0.672,0.208,1
				c3.063,11.069,13.132,18.735,24.617,18.742h8.533v93.867h-17.067c-18.844,0.019-34.115,15.29-34.133,34.133v17.067
				c0.012,9.421,7.646,17.054,17.067,17.067h102.4c9.421-0.012,17.054-7.646,17.067-17.067V460.8
				c-0.012-9.421-7.646-17.055-17.067-17.067v-93.867h8.533c14.132-0.015,25.585-11.468,25.6-25.6v-128
				c-0.015-14.132-11.468-25.585-25.6-25.6h-8.533v-34.133H486.4z M68.267,141.013c27.698,9.83,47.372,34.585,50.697,63.787h-33.63
				c-9.421-0.012-17.054-7.646-17.067-17.067V141.013z M93.867,486.4c-0.003,4.712-3.822,8.53-8.533,8.533H51.2
				c-4.712-0.003-8.53-3.822-8.533-8.533v-17.067c0.003-4.712,3.822-8.53,8.533-8.533h34.133c4.712,0.003,8.53,3.822,8.533,8.533
				V486.4z M59.733,443.733V358.4H76.8v85.333H59.733z M119.467,307.2h-8.533c-4.712-0.003-8.53-3.822-8.533-8.533v-34.133
				c0.003-4.711,3.822-8.53,8.533-8.533h8.533V307.2z M119.467,238.933h-8.533c-14.132,0.015-25.585,11.468-25.6,25.6v34.133
				c0.015,14.132,11.468,25.585,25.6,25.6h8.533c-0.012,9.421-7.646,17.055-17.067,17.067H34.133
				c-9.421-0.012-17.054-7.646-17.067-17.067V162.133c0.015-14.132,11.468-25.585,25.6-25.6c2.852,0.01,5.7,0.178,8.533,0.503
				v50.697c0.019,18.844,15.29,34.115,34.133,34.133h34.133V238.933z M256,298.667h-4.275c-4.025-5.372-10.346-8.533-17.058-8.533
				s-13.033,3.162-17.058,8.533H204.8v-34.133h12.809c4.025,5.372,10.346,8.533,17.058,8.533s13.033-3.162,17.058-8.533H256
				c9.426,0,17.067,7.641,17.067,17.067C273.067,291.026,265.426,298.667,256,298.667z M392.533,119.467h-25.6
				c-4.712-0.003-8.53-3.822-8.533-8.533V102.4h34.133V119.467z M392.533,196.267c0.003-4.711,3.822-8.53,8.533-8.533h13.263
				c-3.066,5.167-4.699,11.058-4.73,17.067v42.667h-17.067V196.267z M317.04,305.521L317.04,305.521l-1.856,3.087
				c-2.67,4.41-7.445,7.11-12.6,7.125c-4.918,0.008-9.512-2.456-12.225-6.558l-5.877-8.842c7.536-11.353,7.536-26.116,0-37.469
				l5.877-8.848c2.792-4.191,7.534-6.661,12.568-6.546c5.034,0.115,9.659,2.799,12.257,7.113l1.857,3.092
				C303.921,270.925,303.92,292.271,317.04,305.521z M348.301,297.143c-1.509,0.316-5.582,1.12-7.458,1.474
				c-8.673-0.258-15.769-6.987-16.486-15.635c-0.717-8.647,5.174-16.453,13.687-18.136c8.512-1.682,16.93,3.296,19.557,11.566
				C360.227,284.682,356.224,293.605,348.301,297.143z M370.734,298.642c6.315-10.494,6.309-23.619-0.013-34.108H409.6V281.6
				c0.035,5.986,1.661,11.856,4.713,17.006L370.734,298.642z M477.867,494.933h-102.4v-17.067
				c0.012-9.421,7.646-17.054,17.067-17.067h85.333V494.933z M426.667,443.733v-93.867H460.8v93.867H426.667z M486.4,187.733
				c4.712,0.003,8.53,3.822,8.533,8.533v128c-0.003,4.712-3.822,8.53-8.533,8.533h-85.333c-3.63-0.031-6.848-2.344-8.033-5.775
				l-0.5-3.383v-7.95l49.842-0.042c0.063,0,0.115-0.034,0.178-0.035c0.401,0.014,0.776,0.119,1.18,0.119
				c18.844-0.019,34.115-15.29,34.133-34.133v-76.8c-0.034-6.01-1.672-11.902-4.746-17.067H486.4z M431.675,192.742
				c4.876-4.887,12.217-6.352,18.595-3.711s10.535,8.866,10.53,15.77v47.413c-10.498-6.328-23.635-6.328-34.133,0l0-47.413
				C426.659,200.273,428.462,195.931,431.675,192.742z M426.667,170.667v-34.133H460.8v34.133H426.667z M460.8,281.6
				c0,9.426-7.641,17.067-17.067,17.067s-17.067-7.641-17.067-17.067c0.012-9.421,7.646-17.054,17.067-17.067
				C453.159,264.533,460.8,272.174,460.8,281.6z M409.6,119.467V102.4c-0.012-9.421-7.646-17.054-17.067-17.067H358.4V51.2H384
				c4.713,0,8.533-3.82,8.533-8.533s-3.82-8.533-8.533-8.533h-25.6V25.6c0.003-4.711,3.822-8.53,8.533-8.533H486.4
				c4.712,0.003,8.53,3.822,8.533,8.533v85.333c-0.003,4.711-3.822,8.53-8.533,8.533H409.6z"/>
			<path d="M452.267,34.133c-14.138,0-25.6,11.461-25.6,25.6s11.462,25.6,25.6,25.6c14.138,0,25.6-11.461,25.6-25.6
				C477.851,45.601,466.399,34.149,452.267,34.133z M452.267,68.267c-4.713,0-8.533-3.82-8.533-8.533s3.821-8.533,8.533-8.533
				c4.713,0,8.533,3.82,8.533,8.533C460.797,64.445,456.978,68.263,452.267,68.267z"/>
		</g>
	</g>
</g>
<g>
</g>
<g>
</g>
<g>
</g>
<g>
</g>
<g>
</g>
<g>
</g>
<g>
</g>
<g>
</g>
<g>
</g>
<g>
</g>
<g>
</g>
<g>
</g>
<g>
</g>
<g>
</g>
<g>
</g>
</svg>
