<?xml version="1.0" encoding="iso-8859-1"?>
<!-- Generator: Adobe Illustrator 19.0.0, SVG Export Plug-In . SVG Version: 6.00 Build 0)  -->
<svg version="1.1" id="Capa_1" xmlns="http://www.w3.org/2000/svg" xmlns:xlink="http://www.w3.org/1999/xlink" x="0px" y="0px"
	 viewBox="0 0 512 512" style="enable-background:new 0 0 512 512;" xml:space="preserve">
<g>
	<g>
		<g>
			<path d="M213.333,477.867c2.263,0.001,4.434-0.898,6.035-2.499c1.6-1.6,2.499-3.771,2.499-6.035V230.4
				c0-4.713-3.821-8.533-8.533-8.533c-4.713,0-8.533,3.82-8.533,8.533v238.933c-0.001,2.263,0.898,4.434,2.499,6.035
				C208.899,476.968,211.07,477.867,213.333,477.867z"/>
			<path d="M247.467,307.2h25.6c4.713,0,8.533-3.82,8.533-8.533s-3.821-8.533-8.533-8.533h-25.6c-4.713,0-8.533,3.82-8.533,8.533
				S242.754,307.2,247.467,307.2z"/>
			<path d="M315.733,290.133H307.2c-4.713,0-8.533,3.82-8.533,8.533s3.82,8.533,8.533,8.533h8.533c4.713,0,8.533-3.82,8.533-8.533
				S320.446,290.133,315.733,290.133z"/>
			<path d="M313.235,338.835c1.6-1.6,2.499-3.771,2.499-6.035c0.001-2.263-0.898-4.434-2.499-6.035
				c-1.6-1.6-3.771-2.499-6.035-2.499H256c-4.713,0-8.533,3.821-8.533,8.533c0,4.713,3.82,8.533,8.533,8.533h51.2
				C309.463,341.334,311.634,340.435,313.235,338.835z"/>
			<path d="M341.333,341.333h25.6c4.713,0,8.533-3.821,8.533-8.533c0-4.713-3.82-8.533-8.533-8.533h-25.6
				c-4.713,0-8.533,3.821-8.533,8.533C332.8,337.513,336.621,341.333,341.333,341.333z"/>
			<path d="M247.467,409.6h17.067c4.713,0,8.533-3.82,8.533-8.533s-3.821-8.533-8.533-8.533h-17.067
				c-4.713,0-8.533,3.821-8.533,8.533S242.754,409.6,247.467,409.6z"/>
			<path d="M298.667,409.6H358.4c4.713,0,8.533-3.82,8.533-8.533s-3.82-8.533-8.533-8.533h-59.733c-4.713,0-8.533,3.821-8.533,8.533
				S293.954,409.6,298.667,409.6z"/>
			<path d="M247.467,443.733h51.2c4.713,0,8.533-3.82,8.533-8.533s-3.82-8.533-8.533-8.533h-51.2c-4.713,0-8.533,3.82-8.533,8.533
				S242.754,443.733,247.467,443.733z"/>
			<path d="M401.067,426.667H332.8c-4.713,0-8.533,3.82-8.533,8.533s3.821,8.533,8.533,8.533h68.267c4.713,0,8.533-3.82,8.533-8.533
				S405.78,426.667,401.067,426.667z"/>
			<path d="M401.067,341.333h42.667c4.713,0,8.533-3.821,8.533-8.533c0-4.713-3.82-8.533-8.533-8.533h-42.667
				c-4.713,0-8.533,3.821-8.533,8.533C392.533,337.513,396.354,341.333,401.067,341.333z"/>
			<path d="M264.533,375.467H358.4c4.713,0,8.533-3.82,8.533-8.533s-3.82-8.533-8.533-8.533h-93.867
				c-4.713,0-8.533,3.82-8.533,8.533S259.82,375.467,264.533,375.467z"/>
			<path d="M392.533,375.467h25.6c4.713,0,8.533-3.82,8.533-8.533s-3.82-8.533-8.533-8.533h-25.6c-4.713,0-8.533,3.82-8.533,8.533
				S387.821,375.467,392.533,375.467z"/>
			<path d="M446.232,360.899c-1.6,1.6-2.499,3.771-2.499,6.035c-0.001,2.263,0.898,4.434,2.499,6.035
				c1.6,1.6,3.771,2.499,6.035,2.499h17.067c4.713,0,8.533-3.82,8.533-8.533s-3.82-8.533-8.533-8.533h-17.067
				C450.003,358.399,447.833,359.298,446.232,360.899z"/>
			<path d="M258.5,270.566c3.341,3.281,8.701,3.256,12.012-0.054s3.335-8.671,0.054-12.012l-11.033-11.034l11.034-11.034
				c3.296-3.338,3.279-8.711-0.038-12.029s-8.69-3.334-12.029-0.038l-17.067,17.067c-1.601,1.6-2.5,3.77-2.5,6.033
				s0.899,4.433,2.5,6.033L258.5,270.566z"/>
			<path d="M341.334,264.533c0,2.263,0.899,4.433,2.5,6.033c1.6,1.601,3.77,2.5,6.033,2.5s4.433-0.899,6.033-2.5l17.067-17.067
				c1.601-1.6,2.5-3.77,2.5-6.033s-0.899-4.433-2.5-6.033L355.9,224.366c-3.332-3.332-8.735-3.332-12.067,0
				c-3.332,3.332-3.332,8.734,0,12.067l11.033,11.034L343.833,258.5C342.233,260.1,341.333,262.27,341.334,264.533z"/>
			<path d="M294.85,272.167c4.216,2.106,9.341,0.398,11.45-3.817l17.067-34.133c2.094-4.214,0.383-9.328-3.826-11.432
				s-9.327-0.405-11.441,3.799l-17.067,34.133c-1.012,2.024-1.179,4.368-0.463,6.516C291.286,269.38,292.825,271.155,294.85,272.167
				z"/>
			<path d="M136.533,102.4c14.132-0.015,25.585-11.468,25.6-25.6V59.733c-0.015-14.132-11.468-25.585-25.6-25.6h-17.067
				c-14.132,0.015-25.585,11.468-25.6,25.6V76.8c0.015,14.132,11.468,25.585,25.6,25.6H136.533z M110.933,76.8V59.733
				c0.005-4.711,3.822-8.529,8.533-8.533h17.067c4.711,0.005,8.529,3.822,8.533,8.533V76.8c-0.005,4.711-3.822,8.529-8.533,8.533
				h-17.067C114.756,85.329,110.938,81.511,110.933,76.8z"/>
			<path d="M256,102.4h17.067c14.132-0.015,25.585-11.468,25.6-25.6V59.733c-0.015-14.132-11.468-25.585-25.6-25.6H256
				c-14.132,0.015-25.585,11.468-25.6,25.6V76.8C230.415,90.932,241.868,102.385,256,102.4z M247.467,59.733
				c0.005-4.711,3.822-8.529,8.533-8.533h17.067c4.711,0.005,8.529,3.822,8.533,8.533V76.8c-0.005,4.711-3.823,8.529-8.533,8.533
				H256c-4.711-0.005-8.529-3.822-8.533-8.533V59.733z"/>
			<path d="M486.4,119.467h-94.633c0.491-2.818,0.747-5.673,0.766-8.533c-0.042-24.958-18.061-46.254-42.667-50.429V34.133
				C349.847,15.29,334.576,0.02,315.733,0H76.8C57.957,0.02,42.687,15.29,42.667,34.133v26.371C18.038,64.64,0,85.96,0,110.933
				s18.038,46.293,42.667,50.429v9.304c0.02,18.843,15.29,34.113,34.133,34.133h44.239c-3.296,8.807-1.326,18.721,5.086,25.6
				c-6.413,6.879-8.382,16.793-5.085,25.6H76.8c-18.843,0.02-34.113,15.29-34.133,34.133v0.771
				C18.061,295.079,0.042,316.376,0,341.333v110.933c-0.001,2.263,0.898,4.434,2.499,6.035c1.6,1.6,3.771,2.499,6.035,2.499h34.133
				v8.533c-0.001,2.263,0.898,4.434,2.499,6.035c1.6,1.6,3.771,2.499,6.035,2.499v25.6c-0.001,2.263,0.898,4.434,2.499,6.035
				c1.6,1.6,3.771,2.499,6.035,2.499H486.4c14.132-0.015,25.585-11.468,25.6-25.6V145.067
				C511.985,130.935,500.532,119.482,486.4,119.467z M42.667,143.854c-15.058-3.827-25.6-17.384-25.6-32.921
				s10.542-29.093,25.6-32.921V143.854z M42.667,443.733h-25.6v-102.4c0.045-15.521,10.568-29.053,25.6-32.921V443.733z
				 M349.867,78.013c15.032,3.868,25.555,17.399,25.6,32.921c-0.039,2.883-0.44,5.75-1.192,8.533h-24.408V78.013z M93.867,145.067
				v42.667H76.8c-9.421-0.011-17.056-7.645-17.067-17.067V34.133c0.011-9.421,7.645-17.056,17.067-17.067h238.933
				c9.421,0.011,17.056,7.646,17.067,17.067v85.333H119.467C105.335,119.482,93.882,130.935,93.867,145.067z M172.239,136.533
				c-1.012,2.733-1.544,5.62-1.572,8.533v8.533h-59.733v-8.533c0.005-4.711,3.822-8.529,8.533-8.533H172.239z M110.933,187.733
				v-17.067h59.733v17.067H110.933z M145.067,221.867c-4.713,0-8.533-3.821-8.533-8.533c0-4.713,3.82-8.533,8.533-8.533h25.6V256
				h-25.6c-4.713,0-8.533-3.82-8.533-8.533s3.82-8.533,8.533-8.533s8.533-3.82,8.533-8.533S149.779,221.867,145.067,221.867z
				 M59.733,290.133c0.011-9.421,7.645-17.056,17.067-17.067h93.867v17.067H85.333c-2.263-0.001-4.434,0.898-6.035,2.499
				c-1.6,1.6-2.499,3.771-2.499,6.035V460.8H59.733V290.133z M170.667,307.2v153.6h-76.8V307.2H170.667z M68.267,494.933v-17.067
				h102.4v8.533c0.029,2.914,0.561,5.801,1.573,8.533H68.267z M494.933,486.4c-0.005,4.711-3.822,8.529-8.533,8.533H196.267
				c-4.711-0.005-8.529-3.822-8.533-8.533V204.8h307.2V486.4z M494.933,187.733h-307.2v-42.667c0.005-4.711,3.822-8.529,8.533-8.533
				H486.4c4.711,0.005,8.529,3.822,8.533,8.533V187.733z"/>
			<path d="M219.392,156.075c-0.816-0.771-1.772-1.379-2.817-1.792c-1.556-0.684-3.286-0.865-4.95-0.517
				c-0.535,0.096-1.053,0.27-1.537,0.517c-0.543,0.185-1.059,0.443-1.533,0.767c-0.447,0.315-0.875,0.657-1.28,1.025
				c-0.773,0.815-1.383,1.772-1.796,2.817c-0.906,2.066-0.906,4.417,0,6.483c0.78,2.141,2.467,3.828,4.608,4.608
				c1.014,0.477,2.126,0.711,3.247,0.684c2.855,0.03,5.532-1.385,7.115-3.761c1.584-2.376,1.86-5.39,0.735-8.014
				C220.77,157.848,220.162,156.892,219.392,156.075z"/>
			<path d="M253.525,156.075c-0.406-0.366-0.834-0.708-1.279-1.025c-0.475-0.324-0.992-0.582-1.538-0.767
				c-0.485-0.246-1.003-0.42-1.537-0.517c-2.81-0.558-5.715,0.305-7.763,2.308c-0.773,0.815-1.383,1.772-1.796,2.817
				c-1.357,3.176-0.646,6.858,1.796,9.301c0.829,0.753,1.78,1.359,2.813,1.792c1.014,0.477,2.126,0.71,3.246,0.683
				c2.855,0.03,5.532-1.385,7.115-3.761c1.584-2.376,1.86-5.39,0.735-8.014C254.904,157.848,254.296,156.892,253.525,156.075z"/>
			<path d="M287.659,156.075c-0.816-0.771-1.772-1.379-2.817-1.792c-1.556-0.684-3.286-0.865-4.95-0.517
				c-0.535,0.096-1.053,0.27-1.537,0.517c-0.543,0.185-1.059,0.443-1.533,0.767c-0.447,0.315-0.875,0.657-1.28,1.025
				c-0.773,0.815-1.383,1.772-1.796,2.817c-0.906,2.066-0.906,4.417,0,6.483c0.78,2.141,2.467,3.828,4.608,4.608
				c1.014,0.477,2.126,0.711,3.247,0.684c2.855,0.03,5.531-1.385,7.115-3.761c1.584-2.376,1.86-5.39,0.735-8.014
				C289.037,157.848,288.429,156.892,287.659,156.075z"/>
			<path d="M401.067,153.6h-85.333c-4.713,0-8.533,3.82-8.533,8.533s3.82,8.533,8.533,8.533h85.333c4.713,0,8.533-3.82,8.533-8.533
				S405.78,153.6,401.067,153.6z"/>
			<path d="M324.267,460.8H256c-4.713,0-8.533,3.82-8.533,8.533s3.82,8.533,8.533,8.533h68.267c4.713,0,8.533-3.82,8.533-8.533
				S328.979,460.8,324.267,460.8z"/>
			<path d="M384,460.8h-25.6c-4.713,0-8.533,3.82-8.533,8.533s3.82,8.533,8.533,8.533H384c4.713,0,8.533-3.82,8.533-8.533
				S388.713,460.8,384,460.8z"/>
			<path d="M426.667,460.8h-8.533c-4.713,0-8.533,3.82-8.533,8.533s3.82,8.533,8.533,8.533h8.533c4.713,0,8.533-3.82,8.533-8.533
				S431.38,460.8,426.667,460.8z"/>
		</g>
	</g>
</g>
<g>
</g>
<g>
</g>
<g>
</g>
<g>
</g>
<g>
</g>
<g>
</g>
<g>
</g>
<g>
</g>
<g>
</g>
<g>
</g>
<g>
</g>
<g>
</g>
<g>
</g>
<g>
</g>
<g>
</g>
</svg>
