<?xml version="1.0" encoding="iso-8859-1"?>
<!-- Generator: Adobe Illustrator 19.0.0, SVG Export Plug-In . SVG Version: 6.00 Build 0)  -->
<svg version="1.1" id="Capa_1" xmlns="http://www.w3.org/2000/svg" xmlns:xlink="http://www.w3.org/1999/xlink" x="0px" y="0px"
	 viewBox="0 0 512 512" style="enable-background:new 0 0 512 512;" xml:space="preserve">
<g>
	<g>
		<g>
			<path d="M324.267,238.933h-34.133v-17.067h76.8c14.132-0.015,25.585-11.468,25.6-25.6V25.6
				c-0.015-14.132-11.468-25.585-25.6-25.6H145.067c-14.132,0.015-25.585,11.468-25.6,25.6v170.667
				c0.015,14.132,11.468,25.585,25.6,25.6h76.8v17.067h-34.133c-47.105,0.055-85.278,38.228-85.333,85.333v170.667
				c0.012,9.421,7.646,17.054,17.067,17.067h273.067c9.421-0.012,17.055-7.646,17.067-17.067V324.267
				C409.545,277.161,371.372,238.989,324.267,238.933z M340.25,323.642l-56.268,92.071c12.945-48.071,26.67-106.648,34.47-141.112
				L340.25,323.642z M273.482,307.4l4.394-12.873c5.019,7.219,9.879,14.125,13.906,19.69c-2.316,9.816-4.785,20.137-7.348,30.673
				L273.482,307.4z M305.137,256c-1.967,8.879-4.784,21.37-8.179,36.056c-8.431-12.019-18.019-26.019-24.854-36.056H305.137z
				 M238.933,238.933v-17.067h34.133v17.067H238.933z M265.811,277.042l-7.382,21.625h-4.859l-7.382-21.625
				c3.673-5.357,7.048-10.306,9.811-14.369C258.764,266.735,262.139,271.684,265.811,277.042z M136.533,25.6
				c0.003-4.711,3.822-8.53,8.533-8.533h221.867c4.711,0.003,8.53,3.822,8.533,8.533v145.067H136.533V25.6z M145.067,204.8
				c-4.711-0.003-8.53-3.822-8.533-8.533v-8.533h238.933v8.533c-0.003,4.712-3.822,8.53-8.533,8.533H145.067z M230.4,256h9.496
				c-6.831,10.031-16.411,24.02-24.839,36.033c-3.19-13.769-5.983-26.096-8.183-36.033H230.4z M238.518,307.4l-10.92,37.379
				c-2.543-10.417-5.015-20.706-7.356-30.595c4.022-5.559,8.873-12.452,13.882-19.657L238.518,307.4z M193.556,274.581
				c8.045,35.506,21.698,93.614,34.521,141.227l-56.327-92.166L193.556,274.581z M247.467,494.933h-76.8v-58.892
				c0-4.713-3.821-8.533-8.533-8.533s-8.533,3.821-8.533,8.533v58.892h-34.133V324.267c0.058-35.84,27.808-65.539,63.561-68.028
				L154.333,320.8c-1.134,2.564-0.941,5.521,0.517,7.917l92.617,151.554V494.933z M235.78,377.641l18.087-61.907h4.267
				l18.132,62.063c-6.911,27.256-14.008,53.648-20.241,73.721C249.886,431.622,242.785,405.219,235.78,377.641z M392.533,494.933
				H358.4v-58.892c0-4.713-3.82-8.533-8.533-8.533s-8.533,3.821-8.533,8.533v58.892h-76.8v-14.662l92.617-151.554
				c1.458-2.395,1.651-5.352,0.517-7.917l-28.694-64.561c35.753,2.488,63.503,32.188,63.561,68.028V494.933z"/>
			<path d="M260.642,86.375l-1.008-0.4c-2.835-1-5.562-2.282-8.142-3.825c-1.593-0.927-2.649-2.558-2.842-4.392
				c0.017-0.283,0.058-1.042,1.692-1.917c4.628-1.992,9.807-2.305,14.642-0.883c2.94,0.837,6.102,0.038,8.292-2.094
				c2.19-2.132,3.072-5.273,2.313-8.234c-0.759-2.961-3.043-5.29-5.988-6.106c-1.634-0.41-3.293-0.715-4.966-0.913V51.2
				c0-4.713-3.82-8.533-8.533-8.533c-4.713,0-8.533,3.82-8.533,8.533v7.528c-1.793,0.514-3.533,1.194-5.2,2.03
				c-6.227,3.043-10.336,9.199-10.759,16.117c-0.174,7.846,3.755,15.214,10.367,19.442c3.578,2.239,7.386,4.089,11.358,5.517
				l0.975,0.392c4.21,1.195,7.82,3.924,10.117,7.65c0.042,0.217-0.375,1-1.408,1.992c-6.602,3.73-14.461,4.536-21.683,2.225
				c-4.538-1.27-9.246,1.379-10.517,5.917c-1.27,4.538,1.379,9.246,5.917,10.517c3.546,0.901,7.177,1.425,10.833,1.562v4.446
				c0,4.713,3.821,8.533,8.533,8.533c4.713,0,8.533-3.82,8.533-8.533v-6.506c3.798-1.173,7.287-3.174,10.217-5.86
				c5.069-4.32,7.474-10.999,6.325-17.558C278.817,94.517,264.867,88.067,260.642,86.375z"/>
		</g>
	</g>
</g>
<g>
</g>
<g>
</g>
<g>
</g>
<g>
</g>
<g>
</g>
<g>
</g>
<g>
</g>
<g>
</g>
<g>
</g>
<g>
</g>
<g>
</g>
<g>
</g>
<g>
</g>
<g>
</g>
<g>
</g>
</svg>
