<?xml version="1.0" encoding="iso-8859-1"?>
<!-- Generator: Adobe Illustrator 19.0.0, SVG Export Plug-In . SVG Version: 6.00 Build 0)  -->
<svg version="1.1" id="Capa_1" xmlns="http://www.w3.org/2000/svg" xmlns:xlink="http://www.w3.org/1999/xlink" x="0px" y="0px"
	 viewBox="0 0 511.991 511.991" style="enable-background:new 0 0 511.991 511.991;" xml:space="preserve">
<g>
	<g>
		<g>
			<path d="M175.267,271.22c0.792-2.683,1.686-5.322,2.683-7.917c1.671-4.402-0.538-9.326-4.938-11.004
				c-4.4-1.678-9.327,0.524-11.012,4.921c-1.142,2.992-2.175,6.042-3.1,9.15c-0.767,2.582-0.269,5.374,1.342,7.532
				c1.612,2.158,4.148,3.428,6.841,3.426C170.862,277.327,174.19,274.842,175.267,271.22z"/>
			<path d="M190.075,234.662c2.523,0.004,4.919-1.11,6.542-3.042c21.064-25.139,52.186-39.65,84.983-39.625
				c4.713,0,8.533-3.82,8.533-8.533s-3.82-8.533-8.533-8.533c-37.838-0.031-73.745,16.708-98.05,45.708
				c-2.134,2.539-2.605,6.084-1.206,9.091C183.744,232.735,186.758,234.659,190.075,234.662z"/>
			<path d="M511.321,132.31c-1.803-8.651-7.12-16.163-14.679-20.74L336.725,14.203c-10.698-6.506-22.979-9.945-35.5-9.941h-87.892
				c-2.733,0-5.475,0-7.942,0.083C138.259,5.386,71.462,14.047,6.283,30.162C2.573,31.177,0,34.549,0,38.395v25.6v77.567
				c0.041,0.273,0.095,0.545,0.164,0.813c0.043,0.825,0.207,1.638,0.487,2.415c0.368,0.828,0.867,1.591,1.477,2.26
				c0.134,0.156,0.183,0.354,0.33,0.504c33.417,33.892,31.417,83.425,27.258,109.9c-2.238,14.92,5.982,29.445,19.925,35.209
				c0.192,0.1,0.392,0.183,0.592,0.267c8.558,3.428,18.151,3.175,26.517-0.7c7.926-3.607,13.979-10.367,16.692-18.642
				c43.733-133.38,76.827-150.183,106.878-153.945c17.127,6.726,36.411,5.081,52.152-4.448h51.403
				c2.767,0.001,5.515,0.457,8.133,1.35l157.975,52.658c13.03,4.309,27.356-0.178,35.6-11.15c0.209-0.275,0.398-0.565,0.567-0.867
				C511.251,149.971,513.124,140.96,511.321,132.31z M17.067,72.529h17.067v51.2H17.067V72.529z M77.225,268.27
				c-1.258,3.779-4.042,6.859-7.675,8.492c-3.822,1.8-8.193,2.045-12.192,0.683c-0.309-0.174-0.629-0.328-0.958-0.458
				c-6.798-2.645-10.872-9.631-9.825-16.85c1.23-7.914,1.998-15.893,2.298-23.896c12.723-3.289,26.245-0.963,37.139,6.386
				C83.113,250.724,80.188,259.235,77.225,268.27z M92.021,226.399c-13.025-7.712-28.409-10.426-43.287-7.637
				c-0.848-28.541-11.203-55.981-29.422-77.967H76.8c23.564,0,42.667-19.103,42.667-42.667S100.364,55.462,76.8,55.462H17.067
				V45.029C70.32,32.443,124.62,24.798,179.278,22.189c-11.158,11.315-17.329,26.62-17.14,42.51
				c0.189,15.89,6.723,31.044,18.146,42.09C149.812,117.246,122.346,147.193,92.021,226.399z M51.2,123.729v-51.2h17.067v51.2H51.2z
				 M85.333,122.156V74.102c10.22,3.564,17.067,13.203,17.067,24.027C102.4,108.952,95.553,118.591,85.333,122.156z
				 M221.867,106.662c-23.564,0-42.667-19.102-42.667-42.667c0.028-23.553,19.114-42.639,42.667-42.667
				c23.564,0,42.667,19.103,42.667,42.667S245.431,106.662,221.867,106.662z M317.459,100.379c-4.373-1.492-8.963-2.252-13.584-2.25
				h-33.06c16.767-23.904,13.705-56.443-7.226-76.8h37.636c9.392-0.007,18.604,2.573,26.625,7.458l36.139,22.004l-27.931,55.787
				L317.459,100.379z M352.417,112.031l26.202-52.333l73.678,44.86l-17.494,34.935L352.417,112.031z M491.95,147.704
				c-0.142,0.192-0.283,0.392-0.408,0.6c-3.915,4.746-10.334,6.613-16.183,4.708l-24.191-8.064l15.764-31.479l20.86,12.702
				c3.581,2.159,6.078,5.736,6.871,9.841S494.47,144.367,491.95,147.704z"/>
			<path d="M221.867,38.395c-14.138,0-25.6,11.462-25.6,25.6c0.015,14.132,11.468,25.585,25.6,25.6c14.138,0,25.6-11.461,25.6-25.6
				S236.005,38.395,221.867,38.395z M221.867,72.529c-4.713,0-8.533-3.82-8.533-8.533c0.003-4.712,3.822-8.53,8.533-8.533
				c4.713,0,8.533,3.82,8.533,8.533S226.58,72.529,221.867,72.529z"/>
			<path d="M74.325,177.403c-2.044-1.954-4.9-2.813-7.683-2.308c-0.563,0.083-1.109,0.258-1.617,0.517
				c-0.546,0.184-1.065,0.442-1.542,0.767c-0.445,0.316-0.871,0.658-1.276,1.025c-1.561,1.634-2.445,3.799-2.475,6.059
				c-0.031,1.119,0.203,2.23,0.683,3.242c0.434,1.034,1.04,1.986,1.792,2.817c0.829,0.754,1.782,1.36,2.817,1.792
				c1.013,0.476,2.122,0.71,3.241,0.683c2.855,0.03,5.532-1.385,7.115-3.761c1.584-2.376,1.86-5.39,0.735-8.014
				C75.685,179.186,75.079,178.233,74.325,177.403z"/>
			<path d="M321.792,57.937c-0.831-0.752-1.783-1.358-2.817-1.792c-3.177-1.342-6.85-0.634-9.301,1.792
				c-0.772,0.816-1.38,1.772-1.792,2.817c-1.362,3.175-0.652,6.859,1.792,9.301c0.83,0.754,1.782,1.36,2.817,1.791
				c2.065,0.911,4.418,0.911,6.483,0c1.034-0.433,1.986-1.039,2.817-1.791c2.444-2.441,3.154-6.125,1.792-9.3
				C323.172,59.709,322.564,58.752,321.792,57.937z"/>
			<path d="M397.225,91.045c-0.434-0.339-0.925-0.599-1.45-0.767c-0.51-0.259-1.059-0.433-1.625-0.517
				c-1.633-0.343-3.334-0.162-4.858,0.517c-2.143,0.777-3.831,2.465-4.608,4.608c-1.363,3.175-0.653,6.859,1.791,9.301
				c0.83,0.754,1.782,1.36,2.817,1.791c2.065,0.911,4.418,0.911,6.483,0c1.034-0.434,1.986-1.04,2.817-1.792
				c1.603-1.607,2.494-3.789,2.475-6.058c-0.033-2.259-0.917-4.422-2.475-6.059C398.173,91.682,397.715,91.339,397.225,91.045z"/>
			<path d="M393.559,278.354L393.559,278.354l-0.001-34.133c-0.016-4.706-3.827-8.517-8.533-8.533h-34.133
				c-4.713,0-8.533,3.821-8.533,8.533s3.82,8.533,8.533,8.533h13.533l-73.267,73.267l-39.608-39.608
				c-6.296-6.238-16.308-6.654-23.1-0.958l-63.3,53.633c-2.325,1.971-3.422,5.033-2.878,8.032c0.544,2.999,2.647,5.48,5.517,6.508
				c2.87,1.028,6.07,0.447,8.395-1.524l63.3-53.625l39.608,39.608c6.67,6.65,17.463,6.65,24.133,0l73.267-73.267v13.533
				c0,4.713,3.82,8.533,8.533,8.533S393.559,283.066,393.559,278.354z"/>
			<path d="M381.66,430.245c56.057-44.007,76.795-119.464,51.104-185.939s-91.786-108.372-162.868-103.242
				c-71.082,5.13-130.475,56.085-146.355,125.56c-15.88,69.475,15.48,141.172,77.275,176.673c0.247,0.169,0.503,0.324,0.767,0.466
				c2.63,1.5,5.325,2.878,8.043,4.233h-47.494c-18.844,0.019-34.115,15.29-34.133,34.133v17.067
				c-0.001,2.264,0.897,4.435,2.498,6.035s3.772,2.499,6.035,2.498h290.133c2.264,0.001,4.435-0.897,6.035-2.498
				s2.499-3.772,2.498-6.035v-17.067c-0.019-18.844-15.29-34.115-34.133-34.133h-47.494c9.294-4.631,18.123-10.143,26.364-16.461
				C380.564,431.18,381.144,430.747,381.66,430.245z M401.067,465.062c9.421,0.012,17.054,7.646,17.067,17.067v8.533H145.067v-8.533
				c0.012-9.421,7.646-17.055,17.067-17.067H401.067z M366.933,319.995v99.989c-5.429,4.018-11.132,7.652-17.067,10.875v-85.264
				c0-4.713-3.82-8.533-8.533-8.533s-8.533,3.82-8.533,8.533v92.894c-5.574,2.113-11.274,3.877-17.067,5.282v-72.576
				c0-4.713-3.82-8.533-8.533-8.533s-8.533,3.82-8.533,8.533v75.704c-5.662,0.7-11.361,1.066-17.067,1.096v-85.333
				c0-4.713-3.821-8.533-8.533-8.533c-4.713,0-8.533,3.82-8.533,8.533v84.237c-5.747-0.698-11.446-1.743-17.067-3.128V337.062
				c0-4.713-3.82-8.533-8.533-8.533s-8.533,3.82-8.533,8.533v101.427c-5.848-2.172-11.549-4.721-17.067-7.63v-59.664
				c0-4.713-3.821-8.533-8.533-8.533s-8.533,3.82-8.533,8.533v48.789c-49.052-35.78-70.612-98.336-54.019-156.739
				c16.592-58.404,67.821-100.281,128.358-104.926c60.537-4.646,117.556,28.924,142.865,84.112S427.018,362.731,384,405.577v-85.581
				c0-4.713-3.82-8.533-8.533-8.533S366.933,315.282,366.933,319.995z"/>
		</g>
	</g>
</g>
<g>
</g>
<g>
</g>
<g>
</g>
<g>
</g>
<g>
</g>
<g>
</g>
<g>
</g>
<g>
</g>
<g>
</g>
<g>
</g>
<g>
</g>
<g>
</g>
<g>
</g>
<g>
</g>
<g>
</g>
</svg>
