<?xml version="1.0" encoding="iso-8859-1"?>
<!-- Generator: Adobe Illustrator 19.0.0, SVG Export Plug-In . SVG Version: 6.00 Build 0)  -->
<svg version="1.1" id="Capa_1" xmlns="http://www.w3.org/2000/svg" xmlns:xlink="http://www.w3.org/1999/xlink" x="0px" y="0px"
	 viewBox="0 0 512.001 512.001" style="enable-background:new 0 0 512.001 512.001;" xml:space="preserve">
<g>
	<g>
		<g>
			<path d="M494.934,213.333h-54.342c-4.77-25.915-14.943-50.535-29.858-72.258l32.633-32.642c6.667-6.683,6.667-17.501,0-24.183
				L419.217,60.1c-6.683-6.667-17.501-6.667-24.183,0L362.43,92.7c-21.736-14.91-46.37-25.072-72.296-29.825V17.067
				C290.123,7.645,282.488,0.011,273.067,0h-34.133c-9.421,0.011-17.056,7.645-17.067,17.067v45.808
				c-25.917,4.769-50.538,14.946-72.258,29.867l-32.646-32.65c-6.687-6.656-17.497-6.652-24.179,0.009L68.638,84.242
				c-6.665,6.686-6.667,17.503-0.004,24.191l32.604,32.608c-14.913,21.733-25.075,46.366-29.825,72.292H17.067
				C7.646,213.344,0.011,220.979,0,230.4v34.133c0.011,9.421,7.645,17.056,17.067,17.067h50.43
				c-5.106,13.647-7.735,28.096-7.763,42.667c0,84.692,88.046,153.6,196.267,153.6c16.51,0.034,32.982-1.594,49.167-4.858
				l74.971,38.067c2.645,1.344,5.799,1.217,8.327-0.335c2.529-1.552,4.069-4.306,4.068-7.274V434.65
				c38.025-28.683,59.733-68.692,59.733-110.383c-0.028-14.571-2.657-29.02-7.763-42.667h50.43
				c9.421-0.012,17.054-7.646,17.067-17.067V230.4C511.988,220.979,504.354,213.346,494.934,213.333z M379.029,423.4
				c-2.237,1.601-3.563,4.183-3.563,6.933v59.233l-65.258-33.133c-1.197-0.606-2.52-0.923-3.863-0.925
				c-0.612,0-1.223,0.068-1.821,0.2c-15.947,3.424-32.215,5.131-48.525,5.092c-98.813,0-179.2-61.25-179.2-136.533
				S157.188,187.733,256,187.733s179.2,61.25,179.2,136.533C435.2,361.675,414.725,397.8,379.029,423.4z M161.278,189.796
				c20.11-33.073,56.015-53.262,94.722-53.262c38.708,0,74.612,20.189,94.722,53.262C290.15,164.29,221.851,164.29,161.278,189.796z
				 M494.934,264.533h-58.117c-14.484-25.614-35.508-46.923-60.925-61.75c-18.635-50.091-66.446-83.317-119.891-83.317
				c-53.445,0-101.256,33.226-119.891,83.317c-25.417,14.827-46.441,36.136-60.925,61.75H17.067V230.4h61.612
				c4.255,0,7.86-3.136,8.45-7.35c4.016-28.222,15.051-54.984,32.096-77.833c2.533-3.397,2.189-8.138-0.808-11.133L80.7,96.317
				l24.201-24.15l37.716,37.717c3.069,2.91,7.766,3.248,11.221,0.808c22.826-17.034,49.56-28.07,77.754-32.1
				c4.21-0.595,7.341-4.198,7.342-8.45V17.067h34.133v53.075c-0.002,4.254,3.133,7.859,7.346,8.45
				c28.224,4.014,54.989,15.051,77.837,32.1c3.394,2.543,8.142,2.198,11.133-0.808l37.767-37.717l24.15,24.201l-37.717,37.717
				c-1.603,1.632-2.501,3.829-2.5,6.117c-0.001,1.838,0.592,3.627,1.692,5.1c17.034,22.827,28.071,49.562,32.1,77.758
				c0.595,4.21,4.198,7.341,8.45,7.342h61.608V264.533z"/>
			<path d="M145.067,264.533h76.8c4.713,0,8.533-3.82,8.533-8.533s-3.82-8.533-8.533-8.533h-76.8c-4.713,0-8.533,3.82-8.533,8.533
				S140.354,264.533,145.067,264.533z"/>
			<path d="M256,264.533h17.067c4.713,0,8.533-3.82,8.533-8.533s-3.821-8.533-8.533-8.533H256c-4.713,0-8.533,3.82-8.533,8.533
				S251.287,264.533,256,264.533z"/>
			<path d="M220.159,281.767c-0.535,0.096-1.053,0.27-1.537,0.517c-0.543,0.185-1.059,0.443-1.533,0.767
				c-0.447,0.315-0.875,0.657-1.279,1.025c-1.559,1.635-2.443,3.799-2.475,6.059c0,4.713,3.82,8.533,8.533,8.533
				s8.533-3.82,8.533-8.533c-0.033-2.259-0.917-4.422-2.475-6.059C225.875,282.072,222.97,281.209,220.159,281.767z"/>
			<path d="M210.859,386.475c-3.421-3.158-8.695-3.158-12.117,0c-0.773,0.815-1.383,1.772-1.796,2.817
				c-1.524,3.574-0.442,7.726,2.632,10.102c3.074,2.376,7.365,2.376,10.44,0c3.074-2.376,4.156-6.528,2.632-10.102
				C212.237,388.247,211.629,387.291,210.859,386.475z"/>
			<path d="M145.067,298.667h42.667c4.713,0,8.533-3.82,8.533-8.533s-3.82-8.533-8.533-8.533h-42.667
				c-4.713,0-8.533,3.82-8.533,8.533S140.354,298.667,145.067,298.667z"/>
			<path d="M170.667,384h-25.6c-4.713,0-8.533,3.821-8.533,8.533c0,4.713,3.82,8.533,8.533,8.533h25.6
				c4.713,0,8.533-3.821,8.533-8.533C179.2,387.821,175.38,384,170.667,384z"/>
			<path d="M366.934,247.467H307.2c-4.713,0-8.533,3.82-8.533,8.533s3.82,8.533,8.533,8.533h59.733c4.713,0,8.533-3.82,8.533-8.533
				S371.646,247.467,366.934,247.467z"/>
			<path d="M366.934,315.733h-93.867c-4.713,0-8.533,3.82-8.533,8.533s3.821,8.533,8.533,8.533h93.867
				c4.713,0,8.533-3.82,8.533-8.533S371.646,315.733,366.934,315.733z"/>
			<path d="M238.934,349.867h-93.867c-4.713,0-8.533,3.82-8.533,8.533s3.82,8.533,8.533,8.533h93.867
				c4.713,0,8.533-3.82,8.533-8.533S243.646,349.867,238.934,349.867z"/>
			<path d="M238.934,315.733h-17.067c-4.713,0-8.533,3.82-8.533,8.533s3.82,8.533,8.533,8.533h17.067
				c4.713,0,8.533-3.82,8.533-8.533S243.646,315.733,238.934,315.733z"/>
			<path d="M290.134,349.867h-17.067c-4.713,0-8.533,3.82-8.533,8.533s3.821,8.533,8.533,8.533h17.067
				c4.713,0,8.533-3.82,8.533-8.533S294.846,349.867,290.134,349.867z"/>
			<path d="M145.067,332.8h42.667c4.713,0,8.533-3.82,8.533-8.533s-3.82-8.533-8.533-8.533h-42.667c-4.713,0-8.533,3.82-8.533,8.533
				S140.354,332.8,145.067,332.8z"/>
			<path d="M321.768,296.168c1.6-1.6,2.499-3.771,2.499-6.035c0.001-2.263-0.898-4.434-2.499-6.035
				c-1.6-1.6-3.771-2.499-6.035-2.499H256c-4.713,0-8.533,3.82-8.533,8.533s3.82,8.533,8.533,8.533h59.733
				C317.997,298.667,320.168,297.768,321.768,296.168z"/>
			<path d="M366.934,281.6h-17.067c-4.713,0-8.533,3.82-8.533,8.533s3.82,8.533,8.533,8.533h17.067c4.713,0,8.533-3.82,8.533-8.533
				S371.646,281.6,366.934,281.6z"/>
		</g>
	</g>
</g>
<g>
</g>
<g>
</g>
<g>
</g>
<g>
</g>
<g>
</g>
<g>
</g>
<g>
</g>
<g>
</g>
<g>
</g>
<g>
</g>
<g>
</g>
<g>
</g>
<g>
</g>
<g>
</g>
<g>
</g>
</svg>
