<?xml version="1.0" encoding="iso-8859-1"?>
<!-- Generator: Adobe Illustrator 19.0.0, SVG Export Plug-In . SVG Version: 6.00 Build 0)  -->
<svg version="1.1" id="Capa_1" xmlns="http://www.w3.org/2000/svg" xmlns:xlink="http://www.w3.org/1999/xlink" x="0px" y="0px"
	 viewBox="0 0 512.008 512.008" style="enable-background:new 0 0 512.008 512.008;" xml:space="preserve">
<g transform="translate(0 -1)">
	<g>
		<g>
			<path d="M493.905,351.15c-0.455-2.995-1.078-5.963-1.866-8.889c-0.245-0.897-0.563-1.765-0.84-2.651
				c-0.728-2.337-1.559-4.637-2.495-6.898c-0.343-0.822-0.653-1.652-1.023-2.462c-1.347-2.962-2.872-5.84-4.565-8.618
				c-0.091-0.148-0.151-0.309-0.242-0.457c21.234-18.385,31.921-46.135,28.504-74.014c-0.115-1.006-0.272-1.994-0.421-2.99
				c-0.349-2.319-0.791-4.604-1.324-6.857c-0.236-1.006-0.443-2.019-0.714-3.014c-0.783-2.883-1.718-5.723-2.8-8.507
				c-0.412-1.054-0.914-2.06-1.366-3.096c-0.803-1.829-1.646-3.633-2.571-5.395c-0.63-1.201-1.281-2.382-1.967-3.551
				c-1.042-1.773-2.165-3.489-3.329-5.177c-0.599-0.869-1.141-1.769-1.772-2.615c-1.785-2.368-3.693-4.642-5.715-6.813
				c-0.682-0.737-1.397-1.44-2.106-2.154c-1.784-1.803-3.646-3.524-5.585-5.163c-0.503-0.424-0.983-0.867-1.497-1.279
				c-2.643-2.133-5.411-4.107-8.289-5.909l-0.118-0.084c4.044-9.465,6.109-19.657,6.067-29.95c0-2.563-0.139-5.093-0.385-7.592
				c-0.081-0.825-0.24-1.625-0.348-2.443c-0.217-1.657-0.433-3.314-0.755-4.935c-0.191-0.961-0.455-1.894-0.682-2.843
				c-0.345-1.442-0.683-2.885-1.107-4.296c-0.297-0.987-0.656-1.946-0.993-2.917c-0.458-1.325-0.916-2.646-1.444-3.936
				c-0.403-0.984-0.853-1.939-1.295-2.903c-0.561-1.223-1.128-2.44-1.751-3.627c-0.504-0.962-1.045-1.898-1.588-2.836
				c-0.655-1.13-1.322-2.249-2.032-3.343c-0.603-0.928-1.231-1.833-1.872-2.733c-0.739-1.036-1.496-2.054-2.284-3.052
				c-0.697-0.883-1.413-1.751-2.146-2.602c-0.815-0.944-1.653-1.86-2.512-2.764c-0.79-0.831-1.587-1.651-2.413-2.447
				c-0.878-0.845-1.786-1.654-2.703-2.456c-0.881-0.772-1.76-1.54-2.675-2.271c-0.935-0.746-1.903-1.446-2.872-2.148
				c-0.966-0.702-1.924-1.407-2.923-2.063c-0.982-0.645-2-1.232-3.013-1.832c-1.049-0.622-2.083-1.258-3.164-1.831
				c-1.021-0.542-2.081-1.014-3.129-1.51c-1.128-0.533-2.239-1.096-3.396-1.575c-1.068-0.444-2.176-0.802-3.267-1.198
				c-1.183-0.428-2.345-0.898-3.554-1.269c-1.427-0.439-2.9-0.767-4.362-1.124c-1.735-0.422-3.491-0.784-5.267-1.086
				c-1.469-0.25-2.926-0.534-4.422-0.7c-1.701-36.894-28.144-67.966-64.292-75.545c-36.147-7.579-72.844,10.255-89.221,43.359
				c-16.377-33.102-53.071-50.935-89.217-43.359c-36.146,7.576-62.59,38.643-64.296,75.535c-2.324,0.255-4.614,0.624-6.871,1.083
				l-0.148,0.023c-2.438,0.5-4.83,1.124-7.178,1.85c-0.629,0.195-1.23,0.45-1.853,0.66c-1.68,0.569-3.354,1.148-4.979,1.826
				c-0.82,0.343-1.604,0.747-2.41,1.118c-1.384,0.635-2.767,1.267-4.106,1.98c-0.859,0.457-1.682,0.97-2.521,1.459
				c-1.229,0.717-2.456,1.432-3.64,2.215c-0.849,0.559-1.664,1.162-2.489,1.755c-1.112,0.799-2.217,1.603-3.284,2.458
				c-0.815,0.654-1.597,1.338-2.384,2.023c-1.01,0.879-2.005,1.769-2.968,2.698c-0.762,0.737-1.498,1.493-2.23,2.26
				c-0.913,0.958-1.804,1.931-2.667,2.934c-0.697,0.809-1.377,1.633-2.039,2.472c-0.818,1.033-1.604,2.09-2.37,3.167
				c-0.621,0.873-1.231,1.752-1.817,2.652c-0.722,1.111-1.4,2.248-2.066,3.398c-0.537,0.927-1.072,1.852-1.571,2.804
				c-0.623,1.19-1.191,2.408-1.753,3.633c-0.443,0.967-0.897,1.925-1.301,2.913c-0.523,1.279-0.977,2.59-1.431,3.902
				c-0.341,0.983-0.705,1.954-1.006,2.955c-0.421,1.397-0.755,2.828-1.097,4.257c-0.23,0.96-0.497,1.903-0.69,2.877
				c-0.321,1.615-0.534,3.263-0.752,4.913c-0.108,0.825-0.269,1.631-0.352,2.465c-0.246,2.498-0.385,5.029-0.385,7.591
				c-0.042,10.293,2.022,20.485,6.067,29.95l-0.118,0.084c-2.878,1.803-5.646,3.776-8.289,5.909
				c-0.514,0.413-0.994,0.855-1.497,1.279c-1.941,1.64-3.802,3.36-5.585,5.163c-0.709,0.715-1.424,1.417-2.106,2.154
				c-2.022,2.17-3.929,4.444-5.715,6.813c-0.631,0.846-1.173,1.746-1.772,2.615c-1.164,1.689-2.286,3.404-3.329,5.177
				c-0.686,1.169-1.338,2.35-1.967,3.551c-0.925,1.761-1.769,3.566-2.571,5.395c-0.452,1.035-0.954,2.042-1.366,3.096
				c-1.082,2.785-2.016,5.624-2.799,8.507c-0.271,0.995-0.478,2.007-0.714,3.014c-0.532,2.256-0.973,4.542-1.324,6.857
				c-0.149,0.996-0.306,1.984-0.421,2.99c-3.417,27.878,7.27,55.629,28.504,74.014c-0.077,0.123-0.127,0.259-0.203,0.383
				c-1.701,2.789-3.232,5.679-4.584,8.653c-0.373,0.818-0.691,1.651-1.035,2.48c-0.941,2.274-1.778,4.586-2.509,6.938
				c-0.269,0.865-0.583,1.71-0.823,2.586c-0.79,2.933-1.414,5.908-1.87,8.91c-0.141,0.912-0.256,1.827-0.367,2.746
				c-5.359,41.181,21.527,79.668,62.038,88.804c0.249,0.963,0.584,1.886,0.862,2.835c0.258,0.881,0.516,1.76,0.8,2.631
				c0.683,2.103,1.448,4.162,2.271,6.194c0.245,0.601,0.465,1.212,0.721,1.808c3.453,8.031,8.015,15.538,13.555,22.301
				c0.321,0.393,0.66,0.766,0.988,1.152c1.498,1.772,3.057,3.486,4.675,5.143c0.516,0.527,1.042,1.042,1.57,1.556
				c1.505,1.465,3.057,2.876,4.656,4.233c0.629,0.535,1.251,1.077,1.893,1.596c1.625,1.313,3.304,2.552,5.015,3.753
				c0.639,0.451,1.256,0.927,1.907,1.362c2.323,1.548,4.701,3.015,7.158,4.354c0.433,0.236,0.894,0.427,1.332,0.656
				c2.029,1.065,4.089,2.074,6.197,2.99c1.043,0.454,2.117,0.842,3.18,1.257c1.573,0.616,3.152,1.215,4.763,1.747
				c1.166,0.385,2.346,0.729,3.532,1.07c1.609,0.461,3.234,0.88,4.873,1.256c1.165,0.267,2.328,0.528,3.508,0.751
				c1.84,0.348,3.701,0.614,5.573,0.854c1.01,0.127,2.008,0.29,3.028,0.385c2.916,0.276,5.857,0.448,8.834,0.448
				c36.754-0.055,70.099-21.543,85.333-54.991c15.235,33.448,48.579,54.936,85.333,54.991c2.977,0,5.918-0.172,8.834-0.448
				c1.02-0.096,2.017-0.258,3.028-0.385c1.872-0.24,3.733-0.506,5.573-0.854c1.181-0.223,2.344-0.484,3.508-0.751
				c1.641-0.376,3.265-0.795,4.873-1.256c1.186-0.341,2.366-0.684,3.532-1.07c1.611-0.532,3.19-1.131,4.763-1.747
				c1.063-0.416,2.136-0.803,3.18-1.257c2.109-0.916,4.168-1.925,6.197-2.99c0.438-0.229,0.898-0.42,1.332-0.656
				c2.458-1.34,4.835-2.806,7.158-4.354c0.651-0.434,1.268-0.91,1.907-1.362c1.71-1.201,3.389-2.44,5.015-3.753
				c0.643-0.519,1.265-1.06,1.893-1.596c1.599-1.36,3.151-2.771,4.656-4.233c0.529-0.515,1.054-1.029,1.57-1.556
				c1.622-1.654,3.18-3.368,4.675-5.143c0.327-0.386,0.667-0.759,0.988-1.152c5.539-6.763,10.102-14.27,13.555-22.301
				c0.257-0.596,0.477-1.207,0.721-1.808c0.823-2.031,1.588-4.091,2.271-6.194c0.284-0.87,0.542-1.75,0.8-2.631
				c0.278-0.95,0.613-1.873,0.862-2.835c40.511-9.137,67.398-47.624,62.038-88.805C494.157,352.958,494.045,352.053,493.905,351.15z
				 M434.95,424.145c0.089-1.667,0.254-3.315,0.254-5.004c0.009-9.55-1.441-19.046-4.3-28.158c-0.914-2.909-3.31-5.109-6.286-5.772
				c-2.976-0.663-6.08,0.312-8.142,2.558c-2.062,2.246-2.769,5.421-1.855,8.33c3.872,12.362,4.559,25.501,1.999,38.2
				c-0.116,0.579-0.281,1.137-0.41,1.71c-0.411,1.822-0.855,3.631-1.393,5.403c-0.193,0.638-0.424,1.257-0.633,1.888
				c-0.563,1.694-1.163,3.373-1.839,5.013c-0.242,0.588-0.505,1.162-0.76,1.743c-0.734,1.66-1.515,3.296-2.36,4.893
				c-0.27,0.51-0.545,1.017-0.827,1.519c-0.918,1.642-1.893,3.245-2.926,4.81c-0.276,0.419-0.545,0.841-0.828,1.252
				c-1.129,1.642-2.325,3.231-3.574,4.777c-0.242,0.299-0.471,0.61-0.717,0.905c-1.432,1.719-2.935,3.372-4.51,4.96
				c-0.096,0.097-0.183,0.201-0.28,0.298c-3.388,3.376-7.081,6.43-11.034,9.124c-0.555,0.378-1.139,0.712-1.703,1.075
				c-1.369,0.883-2.753,1.746-4.179,2.542c-0.831,0.464-1.686,0.883-2.535,1.316c-1.218,0.622-2.445,1.226-3.699,1.784
				c-0.959,0.426-1.934,0.821-2.912,1.208c-1.207,0.478-2.429,0.926-3.665,1.344c-1.02,0.346-2.046,0.677-3.083,0.979
				c-1.286,0.373-2.592,0.698-3.904,1.006c-1.005,0.235-2.005,0.481-3.024,0.677c-1.501,0.287-3.028,0.499-4.558,0.698
				c-0.861,0.112-1.711,0.26-2.579,0.344c-2.42,0.231-4.868,0.372-7.348,0.372c-42.396-0.048-76.752-34.404-76.8-76.8
				c0-4.713-3.82-8.533-8.533-8.533c-4.713,0-8.533,3.82-8.533,8.533c-0.048,42.396-34.404,76.752-76.8,76.8
				c-2.481,0-4.928-0.142-7.349-0.373c-0.868-0.083-1.718-0.231-2.579-0.344c-1.531-0.199-3.057-0.41-4.558-0.698
				c-1.019-0.196-2.02-0.442-3.024-0.677c-1.313-0.308-2.618-0.633-3.904-1.006c-1.037-0.302-2.064-0.633-3.083-0.979
				c-1.236-0.417-2.458-0.865-3.665-1.344c-0.979-0.388-1.953-0.782-2.912-1.208c-1.254-0.558-2.481-1.162-3.699-1.784
				c-0.849-0.432-1.705-0.852-2.535-1.316c-1.427-0.796-2.81-1.658-4.179-2.542c-0.565-0.362-1.148-0.697-1.703-1.075
				c-3.952-2.693-7.646-5.748-11.034-9.124c-0.097-0.097-0.183-0.201-0.28-0.298c-1.573-1.586-3.077-3.24-4.51-4.96
				c-0.246-0.295-0.476-0.606-0.717-0.905c-1.249-1.546-2.446-3.135-3.574-4.777c-0.283-0.411-0.553-0.833-0.828-1.252
				c-1.032-1.564-2.008-3.168-2.926-4.81c-0.281-0.503-0.556-1.009-0.827-1.519c-0.846-1.597-1.627-3.232-2.36-4.893
				c-0.255-0.58-0.519-1.155-0.76-1.743c-0.676-1.64-1.275-3.319-1.839-5.013c-0.209-0.631-0.44-1.25-0.633-1.888
				c-0.538-1.772-0.982-3.581-1.393-5.403c-0.129-0.573-0.293-1.131-0.41-1.71c-2.56-12.699-1.872-25.838,1.999-38.2
				c1.413-4.497-1.087-9.287-5.583-10.7c-4.497-1.413-9.287,1.087-10.7,5.583c-2.859,9.112-4.309,18.608-4.3,28.159
				c0,1.69,0.165,3.337,0.254,5.004c-25.781-8.885-43.041-33.202-42.92-60.471c0.02-3.235,0.282-6.464,0.785-9.66
				c0.064-0.419,0.096-0.844,0.168-1.26c0.514-2.902,1.233-5.764,2.15-8.565c0.191-0.596,0.361-1.198,0.569-1.787
				c1.003-2.83,2.208-5.585,3.607-8.242c0.186-0.358,0.37-0.717,0.563-1.072c1.602-2.932,3.431-5.734,5.471-8.38l0.011-0.023
				c0.622-0.808,1.213-1.638,1.876-2.419c1.465-1.724,2.185-3.96,2.001-6.215c-0.184-2.255-1.256-4.345-2.98-5.81
				c-2.096-1.74-4.908-2.35-7.537-1.636c-15.029-12.938-23.696-31.766-23.751-51.597c0.022-2.862,0.221-5.719,0.596-8.556
				c0.094-0.75,0.197-1.498,0.315-2.242c0.399-2.611,0.948-5.197,1.645-7.745c0.125-0.447,0.278-0.88,0.412-1.324
				c0.685-2.242,1.487-4.446,2.401-6.605c0.364-0.868,0.739-1.729,1.137-2.578c1.025-2.217,2.17-4.376,3.43-6.469
				c0.385-0.633,0.818-1.231,1.223-1.852c1.163-1.775,2.407-3.495,3.733-5.16c0.523-0.657,1.046-1.314,1.593-1.95
				c1.741-2.043,3.602-3.981,5.573-5.804c0.26-0.24,0.542-0.454,0.805-0.689c2.033-1.806,4.172-3.489,6.406-5.041
				c0.269-0.188,0.53-0.385,0.803-0.57c2.498-1.68,5.101-3.197,7.794-4.541c7.148-3.564,14.868-5.84,22.806-6.725
				c4.686-0.52,8.064-4.739,7.546-9.425c-0.571-4.655-4.754-8.003-9.421-7.542c-6.935,0.791-13.748,2.43-20.284,4.88
				c-2.92-7.128-4.408-14.761-4.379-22.464c0.021-18.471,8.576-35.895,23.178-47.207s33.612-15.24,51.501-10.643
				c4.566,1.171,9.216-1.58,10.388-6.146s-1.58-9.216-6.146-10.388c-3.442-0.862-6.938-1.487-10.466-1.869
				c1.991-34.557,31.113-61.26,65.713-60.253s62.12,29.357,62.099,63.972c0,4.713,3.82,8.533,8.533,8.533
				c4.713,0,8.533-3.82,8.533-8.533c-0.022-34.615,27.499-62.965,62.099-63.972c34.6-1.007,63.722,25.696,65.713,60.253
				c-3.527,0.382-7.024,1.006-10.466,1.869c-2.953,0.758-5.278,3.034-6.099,5.97c-0.82,2.937-0.012,6.088,2.121,8.267
				c2.133,2.179,5.266,3.054,8.22,2.297c17.89-4.6,36.901-0.672,51.504,10.64s23.157,28.738,23.175,47.21
				c0.029,7.703-1.459,15.336-4.379,22.464c-6.536-2.451-13.348-4.09-20.284-4.88c-4.665-0.455-8.844,2.89-9.421,7.542
				c-0.518,4.686,2.86,8.905,7.546,9.425c7.945,0.885,15.672,3.165,22.826,6.735c2.687,1.341,5.284,2.855,7.775,4.531
				c0.274,0.185,0.538,0.384,0.81,0.574c2.231,1.551,4.369,3.233,6.401,5.037c0.263,0.235,0.546,0.45,0.806,0.689
				c1.971,1.824,3.832,3.762,5.573,5.806c0.545,0.635,1.067,1.29,1.588,1.945c1.329,1.664,2.574,3.385,3.736,5.166
				c0.408,0.623,0.843,1.227,1.23,1.865c1.256,2.087,2.397,4.241,3.42,6.452c0.399,0.851,0.774,1.715,1.139,2.583
				c0.91,2.15,1.708,4.345,2.391,6.577c0.14,0.463,0.297,0.915,0.427,1.379c0.693,2.535,1.239,5.108,1.636,7.706
				c0.119,0.748,0.223,1.5,0.317,2.254c0.375,2.835,0.574,5.69,0.596,8.55c-0.057,19.891-8.779,38.771-23.888,51.708
				c-2.538-0.585-5.203,0.043-7.212,1.7c-3.601,3.04-4.057,8.424-1.017,12.025c0.609,0.722,1.148,1.492,1.723,2.238l0.015,0.029
				c2.046,2.653,3.881,5.462,5.487,8.402c0.189,0.349,0.367,0.702,0.549,1.054c1.402,2.662,2.61,5.422,3.614,8.258
				c0.206,0.585,0.372,1.182,0.561,1.773c0.917,2.801,1.636,5.664,2.151,8.567c0.071,0.412,0.102,0.832,0.166,1.246
				c0.503,3.198,0.766,6.429,0.785,9.667C477.991,390.943,460.731,415.26,434.95,424.145z"/>
			<path d="M392.091,143.749c-4.907-18.735-21.833-31.803-41.2-31.808h-32.308c-9.23,0.019-18.208,3.011-25.604,8.533l-15.925,11.95
				c-4.438,3.313-9.825,5.107-15.363,5.117h-11.375c-5.538-0.01-10.925-1.804-15.363-5.117l-15.925-11.95
				c-7.396-5.522-16.374-8.515-25.604-8.533h-32.313c-19.213-0.043-36.058,12.826-41.067,31.375L67.916,306.991
				c-0.912,3.793-1.366,7.682-1.354,11.583c0,22.864,15.694,42.738,37.934,48.039c22.241,5.301,45.212-5.358,55.524-25.763
				l28.658-53.65c1.499-2.799,4.416-4.548,7.591-4.55h119.467c3.166,0,6.077,1.738,7.579,4.525l28.571,53.492
				c11.9,23.7,46.817,32.417,68.9,24.125c21.017-7.792,29.946-29.917,23.142-58.367L392.091,143.749z M414.833,348.799
				L414.833,348.799l-0.038,0.009c-16.554,6.217-40.604-1.758-47.758-15.991l-28.683-53.7c-4.468-8.335-13.159-13.536-22.616-13.534
				H196.27c-9.466,0-18.164,5.211-22.629,13.558l-28.771,53.858c-7.358,14.497-24.327,21.289-39.655,15.872
				c-15.329-5.417-24.262-21.362-20.878-37.263l52.096-163.541c2.934-11.227,13.075-19.058,24.679-19.059h32.313
				c5.538,0.01,10.925,1.804,15.363,5.117l15.925,11.95c7.396,5.522,16.374,8.515,25.604,8.533h11.375
				c9.23-0.019,18.209-3.011,25.604-8.533l15.925-11.95c4.438-3.313,9.825-5.107,15.362-5.117h32.308
				c11.758,0.05,21.98,8.08,24.813,19.492L427.5,310.991C429.679,320.141,432.812,342.141,414.833,348.799z"/>
			<path d="M230.404,214.341h-8.533v-8.533c0-4.713-3.821-8.533-8.533-8.533c-4.713,0-8.533,3.82-8.533,8.533v8.533h-8.533
				c-4.713,0-8.533,3.82-8.533,8.533s3.82,8.533,8.533,8.533h8.533v8.533c0,4.713,3.821,8.533,8.533,8.533
				c4.713,0,8.533-3.82,8.533-8.533v-8.533h8.533c4.713,0,8.533-3.82,8.533-8.533S235.117,214.341,230.404,214.341z"/>
			<path d="M307.204,197.274c-14.138,0-25.6,11.462-25.6,25.6s11.461,25.6,25.6,25.6s25.6-11.461,25.6-25.6
				C332.788,208.742,321.336,197.29,307.204,197.274z M307.204,231.408c-4.713,0-8.533-3.82-8.533-8.533s3.82-8.533,8.533-8.533
				s8.533,3.82,8.533,8.533C315.732,227.585,311.915,231.403,307.204,231.408z"/>
			<path d="M196.27,171.674c0-14.138-11.461-25.6-25.6-25.6s-25.6,11.462-25.6,25.6s11.462,25.6,25.6,25.6
				C184.802,197.259,196.255,185.806,196.27,171.674z M170.67,180.208c-4.713,0-8.533-3.82-8.533-8.533s3.82-8.533,8.533-8.533
				s8.533,3.82,8.533,8.533C179.199,176.385,175.381,180.203,170.67,180.208z"/>
			<path d="M335.278,160.583c0.804,0.805,1.76,1.443,2.813,1.875c3.201,1.248,6.837,0.516,9.305-1.875c3.3-3.332,3.3-8.701,0-12.033
				c-3.388-3.242-8.728-3.242-12.117,0c-0.341,0.341-0.683,0.85-1.025,1.275c-0.337,0.436-0.598,0.927-0.771,1.45
				c-0.258,0.51-0.43,1.059-0.508,1.625c-0.1,0.536-0.158,1.08-0.171,1.625c0.004,1.142,0.235,2.273,0.679,3.325
				C333.899,158.868,334.509,159.796,335.278,160.583z"/>
			<path d="M346.116,181.574l-1.537-0.775c-0.513-0.167-1.025-0.333-1.537-0.508c-1.666-0.263-3.372-0.087-4.95,0.508
				c-3.215,1.323-5.307,4.465-5.288,7.942c-0.006,2.242,0.885,4.394,2.475,5.975c1.591,1.636,3.776,2.558,6.058,2.558
				s4.467-0.923,6.058-2.558c1.589-1.582,2.48-3.733,2.475-5.975c0-2.266-0.889-4.441-2.475-6.059
				C346.989,182.29,346.562,181.921,346.116,181.574z"/>
			<path d="M318.212,177.733c2.866,2.925,7.408,3.395,10.812,1.119s4.705-6.653,3.097-10.419c-0.413-1.044-1.021-2-1.792-2.817
				c-0.83-0.753-1.783-1.359-2.817-1.792c-3.185-1.256-6.81-0.558-9.3,1.792c-1.559,1.635-2.443,3.799-2.474,6.058
				c0.012,1.115,0.243,2.216,0.679,3.242C316.851,175.95,317.458,176.902,318.212,177.733z"/>
			<path d="M364.462,165.616c-0.83-0.753-1.783-1.359-2.817-1.792c-2.077-0.858-4.41-0.858-6.487,0
				c-1.054,0.392-2.012,1.002-2.813,1.792c-1.56,1.635-2.444,3.799-2.475,6.059c-0.029,1.119,0.204,2.229,0.679,3.242
				c0.78,2.141,2.467,3.828,4.608,4.608c1.014,0.477,2.126,0.711,3.246,0.684c2.855,0.03,5.532-1.385,7.115-3.761
				c1.584-2.376,1.86-5.39,0.735-8.014C365.821,167.399,365.215,166.446,364.462,165.616z"/>
			<path d="M264.537,171.633H247.47c-4.713,0-8.533,3.821-8.533,8.533s3.82,8.533,8.533,8.533h17.067
				c4.713,0,8.533-3.82,8.533-8.533S269.25,171.633,264.537,171.633z"/>
		</g>
	</g>
</g>
<g>
</g>
<g>
</g>
<g>
</g>
<g>
</g>
<g>
</g>
<g>
</g>
<g>
</g>
<g>
</g>
<g>
</g>
<g>
</g>
<g>
</g>
<g>
</g>
<g>
</g>
<g>
</g>
<g>
</g>
</svg>
