<?xml version="1.0" encoding="iso-8859-1"?>
<!-- Generator: Adobe Illustrator 19.0.0, SVG Export Plug-In . SVG Version: 6.00 Build 0)  -->
<svg version="1.1" id="Capa_1" xmlns="http://www.w3.org/2000/svg" xmlns:xlink="http://www.w3.org/1999/xlink" x="0px" y="0px"
	 viewBox="0 0 512 512" style="enable-background:new 0 0 512 512;" xml:space="preserve">
<g>
	<g>
		<g>
			<path d="M494.933,366.933H358.4c-14.132,0.015-25.585,11.468-25.6,25.6V409.6c-0.003,4.711-3.822,8.53-8.533,8.533H187.733
				c-4.712-0.003-8.53-3.822-8.533-8.533v-17.067c-0.015-14.132-11.468-25.585-25.6-25.6H17.067C7.646,366.946,0.012,374.579,0,384
				v102.4c0.015,14.132,11.468,25.585,25.6,25.6h460.8c14.132-0.015,25.585-11.468,25.6-25.6V384
				C511.988,374.579,504.354,366.946,494.933,366.933z M332.8,494.933H179.2v-17.067c0.003-4.712,3.822-8.53,8.533-8.533h136.533
				c4.712,0.003,8.53,3.822,8.533,8.533V494.933z M494.933,486.4c-0.003,4.712-3.822,8.53-8.533,8.533H349.867v-17.067
				c-0.015-14.132-11.468-25.585-25.6-25.6H187.733c-14.132,0.015-25.585,11.468-25.6,25.6v17.067H25.6
				c-4.711-0.003-8.53-3.822-8.533-8.533V384H153.6c4.711,0.003,8.53,3.822,8.533,8.533V409.6c0.015,14.132,11.468,25.585,25.6,25.6
				h136.533c14.132-0.015,25.585-11.468,25.6-25.6v-17.067c0.003-4.711,3.822-8.53,8.533-8.533l136.533-0.017V486.4z"/>
			<path d="M78.11,64.005c0.241,0.5,0.531,0.976,0.865,1.42l142.892,159.7v167.408c0.002,3.311,1.918,6.322,4.916,7.727
				c2.998,1.405,6.538,0.949,9.084-1.169l51.2-42.667c1.943-1.624,3.066-4.026,3.067-6.558V225.125l43.326-48.422l0.004-0.004
				l30.523-34.114l0.055-0.06l30.472-34.057l0.106-0.118l38.407-42.925c0.333-0.442,0.622-0.916,0.862-1.415
				c0.253-0.35,0.478-0.72,0.673-1.105c0.415-1.007,0.632-2.083,0.64-3.172V17.067C435.188,7.646,427.554,0.012,418.133,0H93.867
				C84.446,0.012,76.812,7.646,76.8,17.067v42.667c0.008,1.089,0.225,2.166,0.64,3.173C77.634,63.289,77.858,63.657,78.11,64.005z
				 M93.867,17.067l324.267-0.017V51.2H153.6c-4.713,0-8.533,3.82-8.533,8.533s3.821,8.533,8.533,8.533h253.983l-22.906,25.6
				h-94.544c-4.713,0-8.533,3.82-8.533,8.533s3.82,8.533,8.533,8.533h79.273L354.137,128h-81.07c-4.713,0-8.533,3.82-8.533,8.533
				s3.821,8.533,8.533,8.533h65.799l-15.271,17.067H256c-4.713,0-8.533,3.82-8.533,8.533s3.82,8.533,8.533,8.533h52.325
				l-33.084,36.975c-1.4,1.565-2.174,3.592-2.175,5.692v124l-34.133,28.45v-152.45c-0.001-2.1-0.775-4.126-2.175-5.692
				L104.417,68.267h15.049c4.713,0,8.533-3.82,8.533-8.533s-3.82-8.533-8.533-8.533h-25.6V17.067z"/>
		</g>
	</g>
</g>
<g>
</g>
<g>
</g>
<g>
</g>
<g>
</g>
<g>
</g>
<g>
</g>
<g>
</g>
<g>
</g>
<g>
</g>
<g>
</g>
<g>
</g>
<g>
</g>
<g>
</g>
<g>
</g>
<g>
</g>
</svg>
