<?xml version="1.0" encoding="iso-8859-1"?>
<!-- Generator: Adobe Illustrator 19.0.0, SVG Export Plug-In . SVG Version: 6.00 Build 0)  -->
<svg version="1.1" id="Capa_1" xmlns="http://www.w3.org/2000/svg" xmlns:xlink="http://www.w3.org/1999/xlink" x="0px" y="0px"
	 viewBox="0 0 511.999 511.999" style="enable-background:new 0 0 511.999 511.999;" xml:space="preserve">
<g>
	<g>
		<g>
			<path d="M477.841,502.791l-25.6-324.267c-0.007-0.095-0.063-0.171-0.073-0.265c-0.089-0.496-0.223-0.983-0.399-1.455
				c-0.159-1.001-0.624-1.928-1.333-2.653c-0.378-0.542-0.82-1.037-1.316-1.474c-0.108-0.089-0.158-0.218-0.271-0.303l-13.65-10.24
				V76.799c-0.003-1.119-0.227-2.226-0.657-3.258c-1.324-3.184-4.428-5.263-7.876-5.275h-80.384C334.845,27.878,297.976,0,256,0
				s-78.845,27.878-90.283,68.266H85.333c-1.021,0.018-2.031,0.222-2.98,0.601c-0.277,0.113-0.547,0.241-0.809,0.384
				c-0.642,0.322-1.239,0.724-1.779,1.198c-0.227,0.184-0.444,0.38-0.65,0.588c-0.627,0.665-1.141,1.428-1.522,2.258
				c-0.035,0.077-0.096,0.135-0.129,0.215l-0.014,0.023c-0.371,0.941-0.57,1.941-0.586,2.952c-0.004,0.111-0.064,0.203-0.064,0.315
				v85.333l-13.654,10.242c-0.114,0.085-0.165,0.217-0.273,0.306c-0.491,0.435-0.929,0.926-1.306,1.464
				c-0.844,1.243-1.433,2.64-1.735,4.111c-0.011,0.096-0.066,0.173-0.074,0.269l-25.6,324.267c-0.187,2.373,0.625,4.717,2.24,6.465
				c1.616,1.748,3.888,2.743,6.268,2.743h426.667c2.381,0,4.653-0.995,6.268-2.743S478.029,505.164,477.841,502.791z
				 M418.137,170.666H384v-25.602L418.137,170.666z M418.133,149.334l-29.675-22.259l29.675-29.675V149.334z M256,17.066
				c32.507,0.087,61.458,20.574,72.355,51.2h-144.71C194.541,37.64,223.493,17.153,256,17.066z M406.066,85.333l-36.626,36.626
				c-1.207,1.07-1.967,2.556-2.128,4.162c-0.199,0.609-0.327,1.24-0.379,1.879v42.667h-20.706
				C334.817,130.283,297.964,102.4,256,102.4s-78.818,27.884-90.228,68.267h-20.706v-42.667c-0.052-0.639-0.18-1.27-0.379-1.879
				c-0.161-1.605-0.921-3.091-2.128-4.162l-36.626-36.626H406.066z M335.298,236.434c1.6,1.6,3.771,2.499,6.035,2.499
				c2.263,0.001,4.434-0.898,6.035-2.499c1.6-1.6,2.499-3.771,2.499-6.035v-6.159c6.69,3.862,9.951,11.736,7.952,19.197
				c-1.999,7.461-8.761,12.649-16.485,12.649s-14.486-5.188-16.485-12.649c-1.999-7.461,1.262-15.335,7.952-19.197v6.159
				C332.799,232.663,333.698,234.834,335.298,236.434z M328.319,170.666H183.68c10.807-30.678,39.793-51.2,72.319-51.2
				S317.512,139.988,328.319,170.666z M164.632,236.434c1.6,1.6,3.771,2.499,6.035,2.499c2.263,0.001,4.434-0.898,6.035-2.499
				c1.6-1.6,2.499-3.771,2.499-6.035v-6.159c6.69,3.862,9.951,11.736,7.952,19.197c-1.999,7.461-8.761,12.649-16.485,12.649
				c-7.724,0-14.486-5.188-16.485-12.649c-1.999-7.461,1.262-15.335,7.952-19.197v6.159
				C162.132,232.663,163.031,234.834,164.632,236.434z M93.866,97.399l29.675,29.675l-29.675,22.258V97.399z M128,145.065v25.601
				H93.865L128,145.065z M51.899,494.933l24.254-307.2h86.411c-0.255,2.815-0.432,5.653-0.432,8.533v9.746
				c-16.643,4.297-27.494,20.299-25.328,37.35c2.166,17.051,16.673,29.832,33.861,29.832c17.188,0,31.695-12.781,33.861-29.832
				c2.166-17.051-8.685-33.053-25.328-37.35v-9.746c0.01-2.852,0.178-5.7,0.503-8.533h152.593c0.326,2.833,0.494,5.682,0.503,8.533
				v9.746c-16.643,4.297-27.494,20.299-25.328,37.35c2.166,17.051,16.673,29.832,33.861,29.832s31.695-12.781,33.861-29.832
				c2.166-17.051-8.685-33.053-25.328-37.35v-9.746c0-2.88-0.177-5.719-0.432-8.533h86.416l24.25,307.2H51.899z"/>
			<path d="M349.866,332.799c4.713,0,8.533-3.82,8.533-8.533s-3.821-8.533-8.533-8.533H332.8
				c-0.011-9.421-7.645-17.056-17.067-17.067v-17.067c0-4.713-3.82-8.533-8.533-8.533s-8.533,3.821-8.533,8.533v17.067H281.6
				v-17.067c0-4.713-3.82-8.533-8.533-8.533s-8.533,3.821-8.533,8.533v17.067h-17.067v-17.067c0-4.713-3.82-8.533-8.533-8.533
				s-8.533,3.821-8.533,8.533v17.067h-17.067v-17.067c0-4.713-3.82-8.533-8.533-8.533s-8.533,3.821-8.533,8.533v17.067
				c-9.421,0.011-17.056,7.645-17.067,17.067h-17.067c-4.713,0-8.533,3.82-8.533,8.533s3.82,8.533,8.533,8.533H179.2v17.067h-17.067
				c-4.713,0-8.533,3.82-8.533,8.533s3.82,8.533,8.533,8.533H179.2v17.067h-17.067c-4.713,0-8.533,3.821-8.533,8.533
				c0,4.713,3.82,8.533,8.533,8.533H179.2v17.067h-17.067c-4.713,0-8.533,3.82-8.533,8.533s3.82,8.533,8.533,8.533H179.2
				c0.011,9.421,7.645,17.056,17.067,17.067v17.067c0,4.713,3.82,8.533,8.533,8.533s8.533-3.82,8.533-8.533v-17.067H230.4v17.067
				c0,4.713,3.821,8.533,8.533,8.533s8.533-3.82,8.533-8.533v-17.067h17.067v17.067c0,4.713,3.82,8.533,8.533,8.533
				s8.533-3.82,8.533-8.533v-17.067h17.067v17.067c0,4.713,3.82,8.533,8.533,8.533s8.533-3.82,8.533-8.533v-17.067
				c9.421-0.011,17.056-7.645,17.067-17.067h17.067c4.713,0,8.533-3.82,8.533-8.533s-3.821-8.533-8.533-8.533H332.8v-17.067h17.067
				c4.713,0,8.533-3.821,8.533-8.533c0-4.713-3.821-8.533-8.533-8.533H332.8v-17.067h17.067c4.713,0,8.533-3.82,8.533-8.533
				s-3.821-8.533-8.533-8.533H332.8v-17.067H349.866z M196.266,435.199V315.733h119.467l0.001,8.529l-0.001,0.004l0.001,0.004
				l0.004,34.107l-0.005,0.022l0.005,0.022l0.003,34.072l-0.008,0.04l0.008,0.04l0.004,34.036l-0.011,0.057l0.011,0.057l0.001,8.476
				H196.266z"/>
			<path d="M215.808,347.391c2.866,2.925,7.408,3.395,10.812,1.119s4.705-6.653,3.097-10.419c-0.433-1.034-1.039-1.987-1.791-2.817
				c-0.816-0.771-1.772-1.379-2.817-1.792c-2.069-0.9-4.419-0.9-6.487,0c-1.033,0.433-1.984,1.039-2.813,1.792
				c-0.773,0.815-1.383,1.772-1.796,2.817c-0.436,1.026-0.667,2.127-0.68,3.242c-0.029,1.119,0.204,2.229,0.679,3.242
				C214.447,345.608,215.054,346.561,215.808,347.391z"/>
			<path d="M226.646,402.516c-0.475-0.325-0.992-0.582-1.537-0.767c-0.485-0.246-1.003-0.42-1.537-0.517
				c-1.664-0.348-3.394-0.167-4.95,0.517c-1.033,0.433-1.984,1.039-2.813,1.792c-1.559,1.635-2.443,3.799-2.475,6.058
				c-0.029,1.119,0.204,2.229,0.679,3.242c0.435,1.034,1.042,1.986,1.795,2.817c3.365,3.3,8.752,3.3,12.117,0
				c0.751-0.832,1.357-1.784,1.792-2.817c0.438-1.026,0.67-2.127,0.683-3.242c-0.033-2.259-0.917-4.422-2.475-6.059
				C227.496,403.199,227.071,402.858,226.646,402.516z"/>
			<path d="M286.887,401.749c-1.044,0.412-1.998,1.02-2.813,1.792c-1.559,1.635-2.443,3.799-2.475,6.058
				c-0.03,2.855,1.385,5.532,3.761,7.115c2.376,1.584,5.39,1.86,8.014,0.735c1.034-0.433,1.987-1.039,2.817-1.792
				c1.578-1.623,2.465-3.795,2.475-6.058c-0.033-2.259-0.917-4.422-2.475-6.059C293.715,401.161,290.071,400.459,286.887,401.749z"
				/>
			<path d="M296.192,335.274c-0.816-0.771-1.772-1.379-2.817-1.792c-2.077-0.858-4.41-0.858-6.487,0
				c-2.141,0.78-3.828,2.467-4.608,4.608c-1.357,3.176-0.647,6.858,1.795,9.301c0.829,0.753,1.78,1.359,2.813,1.792
				c3.176,1.362,6.862,0.652,9.305-1.792c0.749-0.85,1.379-1.798,1.875-2.817c0.413-1.03,0.617-2.132,0.6-3.242
				c0.029-1.119-0.205-2.229-0.683-3.242C297.55,337.057,296.944,336.105,296.192,335.274z"/>
		</g>
	</g>
</g>
<g>
</g>
<g>
</g>
<g>
</g>
<g>
</g>
<g>
</g>
<g>
</g>
<g>
</g>
<g>
</g>
<g>
</g>
<g>
</g>
<g>
</g>
<g>
</g>
<g>
</g>
<g>
</g>
<g>
</g>
</svg>
