<?xml version="1.0" encoding="iso-8859-1"?>
<!-- Generator: Adobe Illustrator 19.0.0, SVG Export Plug-In . SVG Version: 6.00 Build 0)  -->
<svg version="1.1" id="Capa_1" xmlns="http://www.w3.org/2000/svg" xmlns:xlink="http://www.w3.org/1999/xlink" x="0px" y="0px"
	 viewBox="0 0 512 512" style="enable-background:new 0 0 512 512;" xml:space="preserve">
<g>
	<g>
		<g>
			<path d="M128,34.133h-17.067c-9.421,0.012-17.054,7.646-17.067,17.067v17.067c0.012,9.421,7.646,17.054,17.067,17.067H128
				c9.421-0.012,17.054-7.646,17.067-17.067V51.2C145.054,41.779,137.421,34.146,128,34.133z M110.933,68.267V51.2H128l0.017,17.067
				H110.933z"/>
			<path d="M93.867,110.933H76.8c-9.421,0.012-17.054,7.646-17.067,17.067v17.067c0.012,9.421,7.646,17.054,17.067,17.067h17.067
				c9.421-0.012,17.054-7.646,17.067-17.067V128C110.921,118.579,103.287,110.946,93.867,110.933z M76.8,145.067V128h17.067
				l0.017,17.067H76.8z"/>
			<path d="M68.267,85.333c2.264,0.001,4.435-0.897,6.035-2.498s2.499-3.772,2.498-6.035V42.667c0-4.713-3.82-8.533-8.533-8.533
				s-8.533,3.82-8.533,8.533V76.8c-0.001,2.264,0.897,4.435,2.498,6.035S66.003,85.335,68.267,85.333z"/>
			<path d="M68.267,238.933c2.264,0.001,4.435-0.897,6.035-2.498s2.499-3.772,2.498-6.035v-34.133c0-4.713-3.82-8.533-8.533-8.533
				s-8.533,3.82-8.533,8.533V230.4c-0.001,2.264,0.897,4.435,2.498,6.035S66.003,238.935,68.267,238.933z"/>
			<path d="M102.4,187.733c-2.264-0.001-4.435,0.897-6.035,2.498s-2.499,3.772-2.498,6.035V230.4c0,4.713,3.82,8.533,8.533,8.533
				s8.533-3.82,8.533-8.533v-34.133c0.001-2.264-0.897-4.435-2.498-6.035S104.664,187.732,102.4,187.733z"/>
			<path d="M128,264.533c-2.264-0.001-4.435,0.897-6.035,2.498s-2.499,3.772-2.498,6.035V307.2c0,4.713,3.82,8.533,8.533,8.533
				s8.533-3.82,8.533-8.533v-34.133c0.001-2.264-0.897-4.435-2.498-6.035S130.264,264.532,128,264.533z"/>
			<path d="M136.533,110.933c-2.264-0.001-4.435,0.897-6.035,2.498s-2.499,3.772-2.498,6.035V153.6c0,4.713,3.82,8.533,8.533,8.533
				s8.533-3.821,8.533-8.533v-34.133c0.001-2.264-0.897-4.435-2.498-6.035S138.797,110.932,136.533,110.933z"/>
			<path d="M170.667,34.133c-2.264-0.001-4.435,0.897-6.035,2.498s-2.499,3.772-2.498,6.035V76.8c0,4.713,3.82,8.533,8.533,8.533
				s8.533-3.82,8.533-8.533V42.667c0.001-2.264-0.897-4.435-2.498-6.035S172.93,34.132,170.667,34.133z"/>
			<path d="M204.8,85.333c2.264,0.001,4.435-0.897,6.035-2.498s2.499-3.772,2.498-6.035V42.667c0-4.713-3.821-8.533-8.533-8.533
				s-8.533,3.82-8.533,8.533V76.8c-0.001,2.264,0.897,4.435,2.498,6.035S202.536,85.335,204.8,85.333z"/>
			<path d="M349.867,68.267V51.2c-0.012-9.421-7.646-17.054-17.067-17.067h-17.067c-9.421,0.012-17.054,7.646-17.067,17.067v17.067
				c0.012,9.421,7.646,17.054,17.067,17.067H332.8C342.221,85.321,349.854,77.687,349.867,68.267z M315.733,51.2H332.8l0.017,17.067
				h-17.084V51.2z"/>
			<path d="M384,145.067V128c-0.012-9.421-7.646-17.054-17.067-17.067h-17.067c-9.421,0.012-17.055,7.646-17.067,17.067v17.067
				c0.012,9.421,7.646,17.054,17.067,17.067h17.067C376.354,162.121,383.988,154.487,384,145.067z M349.867,128h17.067l0.017,17.067
				h-17.084V128z"/>
			<path d="M418.133,221.867V204.8c-0.012-9.421-7.646-17.054-17.067-17.067H384c-9.421,0.012-17.054,7.646-17.067,17.067v17.067
				c0.012,9.421,7.646,17.054,17.067,17.067h17.067C410.487,238.921,418.121,231.287,418.133,221.867z M384,221.867V204.8h17.067
				l0.017,17.067H384z"/>
			<path d="M443.733,264.533h-17.067c-9.421,0.012-17.054,7.646-17.067,17.067v17.067c0.012,9.421,7.646,17.054,17.067,17.067
				h17.067c9.421-0.012,17.055-7.646,17.067-17.067V281.6C460.788,272.179,453.154,264.546,443.733,264.533z M426.667,298.667V281.6
				h17.067l0.017,17.067H426.667z"/>
			<path d="M85.333,264.533H68.267c-9.421,0.012-17.054,7.646-17.067,17.067v17.067c0.012,9.421,7.646,17.054,17.067,17.067h17.067
				c9.421-0.012,17.054-7.646,17.067-17.067V281.6C102.388,272.179,94.754,264.546,85.333,264.533z M68.267,298.667V281.6h17.067
				l0.017,17.067H68.267z"/>
			<path d="M264.533,34.133h-17.067c-9.421,0.012-17.054,7.646-17.067,17.067v17.067c0.012,9.421,7.646,17.054,17.067,17.067h17.067
				c9.421-0.012,17.055-7.646,17.067-17.067V51.2C281.588,41.779,273.954,34.146,264.533,34.133z M247.467,68.267V51.2h17.067
				l0.017,17.067H247.467z"/>
			<path d="M230.4,110.933h-17.067c-9.421,0.012-17.054,7.646-17.067,17.067v17.067c0.012,9.421,7.646,17.054,17.067,17.067H230.4
				c9.421-0.012,17.054-7.646,17.067-17.067V128C247.454,118.579,239.821,110.946,230.4,110.933z M213.333,145.067V128H230.4
				l0.017,17.067H213.333z"/>
			<path d="M375.467,85.333c2.264,0.001,4.435-0.897,6.035-2.498s2.499-3.772,2.498-6.035V42.667c0-4.713-3.82-8.533-8.533-8.533
				s-8.533,3.82-8.533,8.533V76.8c-0.001,2.264,0.897,4.435,2.498,6.035S373.203,85.335,375.467,85.333z"/>
			<path d="M409.6,85.333c2.264,0.001,4.435-0.897,6.035-2.498c1.601-1.601,2.499-3.772,2.498-6.035V42.667
				c0-4.713-3.82-8.533-8.533-8.533s-8.533,3.82-8.533,8.533V76.8c-0.001,2.264,0.897,4.435,2.498,6.035
				C405.165,84.436,407.336,85.335,409.6,85.333z"/>
			<path d="M443.733,85.333c2.264,0.001,4.435-0.897,6.035-2.498c1.601-1.601,2.499-3.772,2.498-6.035V42.667
				c0-4.713-3.82-8.533-8.533-8.533s-8.533,3.82-8.533,8.533V76.8c-0.001,2.264,0.897,4.435,2.498,6.035
				C439.299,84.436,441.47,85.335,443.733,85.333z"/>
			<path d="M409.6,162.133c2.264,0.001,4.435-0.897,6.035-2.498c1.601-1.601,2.499-3.772,2.498-6.035v-34.133
				c0-4.713-3.82-8.533-8.533-8.533s-8.533,3.82-8.533,8.533V153.6c-0.001,2.264,0.897,4.435,2.498,6.035
				C405.165,161.236,407.336,162.135,409.6,162.133z"/>
			<path d="M341.333,187.733c-2.264-0.001-4.435,0.897-6.035,2.498c-1.601,1.601-2.499,3.772-2.498,6.035V230.4
				c0,4.713,3.821,8.533,8.533,8.533s8.533-3.82,8.533-8.533v-34.133c0.001-2.264-0.897-4.435-2.498-6.035
				C345.768,188.631,343.597,187.732,341.333,187.733z"/>
			<path d="M384,264.533c-2.264-0.001-4.435,0.897-6.035,2.498c-1.601,1.601-2.499,3.772-2.498,6.035V307.2
				c0,4.713,3.82,8.533,8.533,8.533s8.533-3.82,8.533-8.533v-34.133c0.001-2.264-0.897-4.435-2.498-6.035
				C388.435,265.431,386.264,264.532,384,264.533z"/>
			<path d="M443.733,162.133c2.264,0.001,4.435-0.897,6.035-2.498c1.601-1.601,2.499-3.772,2.498-6.035v-34.133
				c0-4.713-3.82-8.533-8.533-8.533s-8.533,3.82-8.533,8.533V153.6c-0.001,2.264,0.897,4.435,2.498,6.035
				C439.299,161.236,441.47,162.135,443.733,162.133z"/>
			<path d="M273.067,110.933c-2.264-0.001-4.435,0.897-6.035,2.498s-2.499,3.772-2.498,6.035V153.6c0,4.713,3.821,8.533,8.533,8.533
				c4.713,0,8.533-3.821,8.533-8.533v-34.133c0.001-2.264-0.897-4.435-2.498-6.035C277.501,111.831,275.33,110.932,273.067,110.933z
				"/>
			<path d="M307.2,110.933c-2.264-0.001-4.435,0.897-6.035,2.498s-2.499,3.772-2.498,6.035V153.6c0,4.713,3.82,8.533,8.533,8.533
				s8.533-3.821,8.533-8.533v-34.133c0.001-2.264-0.897-4.435-2.498-6.035S309.464,110.932,307.2,110.933z"/>
			<path d="M443.733,238.933c2.264,0.001,4.435-0.897,6.035-2.498c1.601-1.601,2.499-3.772,2.498-6.035v-34.133
				c0-4.713-3.82-8.533-8.533-8.533s-8.533,3.82-8.533,8.533V230.4c-0.001,2.264,0.897,4.435,2.498,6.035
				C439.299,238.036,441.47,238.935,443.733,238.933z"/>
			<path d="M477.867,0H34.133C15.29,0.019,0.019,15.29,0,34.133V409.6c0.046,18.079,14.202,32.976,32.256,33.944L5,470.8
				c-6.658,6.667-6.658,17.467,0,24.133L17.067,507c6.668,6.656,17.466,6.656,24.133,0l63.267-63.267H204.8V460.8h-8.533
				c-23.553,0.028-42.639,19.114-42.667,42.667c-0.001,2.264,0.897,4.435,2.498,6.035c1.601,1.601,3.772,2.499,6.035,2.498h187.733
				c2.264,0.001,4.435-0.897,6.035-2.498c1.601-1.601,2.499-3.772,2.498-6.035c-0.028-23.553-19.114-42.639-42.667-42.667H307.2
				v-17.067h170.667c18.844-0.019,34.115-15.29,34.133-34.133V34.133C511.981,15.29,496.71,0.019,477.867,0z M17.067,409.6v-17.067
				h66.2l-34.133,34.133h-15C24.713,426.654,17.079,419.021,17.067,409.6z M29.141,494.942l-12.075-12.075l183.85-183.85
				l12.067,12.067L29.141,494.942z M233.567,242.225L233.567,242.225L168.341,177c-0.445-0.401-0.714-0.961-0.75-1.558
				c0.323-0.078,0.664-0.027,0.95,0.142c36.612,17.23,69.942,40.709,98.493,69.383c28.674,28.55,52.153,61.88,69.383,98.492
				c0.146,0.276,0.201,0.591,0.158,0.9c-0.604,0.019-1.184-0.238-1.575-0.7l-65.225-65.225c-1.6-1.601-3.77-2.5-6.033-2.5
				c-2.263,0-4.433,0.899-6.033,2.5l-26.625,26.617l-24.133-24.133l26.617-26.625c1.601-1.6,2.5-3.77,2.5-6.033
				C236.067,245.995,235.167,243.825,233.567,242.225z M272.199,226.287l9.425-9.395l13.484,13.534l-9.385,9.385
				c-2.197-2.311-4.36-4.647-6.623-6.91C276.841,230.641,274.509,228.481,272.199,226.287L272.199,226.287z M315.733,477.867
				c10.846,0.013,20.511,6.846,24.142,17.067h-167.75c3.63-10.22,13.296-17.053,24.142-17.067H315.733z M221.867,460.8v-17.067
				h68.267V460.8H221.867z M494.933,409.6c-0.012,9.421-7.646,17.054-17.067,17.067H121.533l34.133-34.133h339.267V409.6z
				 M494.933,375.467h-322.2l53.997-53.997c5.858,1.58,12.114-0.078,16.42-4.353l20.591-20.583l59.192,59.192
				c3.574,3.612,8.436,5.656,13.517,5.683c4.57,0.036,8.965-1.755,12.208-4.975c5.209-5.4,6.491-13.478,3.208-20.225
				c-14.267-30.306-32.659-58.492-54.652-83.756l9.96-9.96c6.667-6.683,6.667-17.501,0-24.183l-13.483-13.483
				c-6.683-6.667-17.501-6.667-24.183,0l-9.96,9.96c-25.264-21.993-53.45-40.385-83.756-54.652
				c-6.745-3.291-14.829-2.009-20.225,3.209c-6.893,7.305-6.576,18.81,0.708,25.725l59.192,59.191l-20.583,20.592
				c-4.28,4.304-5.941,10.564-4.357,16.424l-90.193,90.193H17.067V34.133c0.012-9.421,7.646-17.054,17.067-17.067h443.733
				c9.421,0.012,17.054,7.646,17.067,17.067V375.467z"/>
		</g>
	</g>
</g>
<g>
</g>
<g>
</g>
<g>
</g>
<g>
</g>
<g>
</g>
<g>
</g>
<g>
</g>
<g>
</g>
<g>
</g>
<g>
</g>
<g>
</g>
<g>
</g>
<g>
</g>
<g>
</g>
<g>
</g>
</svg>
