<?xml version="1.0" encoding="iso-8859-1"?>
<!-- Generator: Adobe Illustrator 19.0.0, SVG Export Plug-In . SVG Version: 6.00 Build 0)  -->
<svg version="1.1" id="Capa_1" xmlns="http://www.w3.org/2000/svg" xmlns:xlink="http://www.w3.org/1999/xlink" x="0px" y="0px"
	 viewBox="0 0 511.949 511.949" style="enable-background:new 0 0 511.949 511.949;" xml:space="preserve">
<g>
	<g>
		<path d="M382.5,233.472c0.4-1.9,0.7-3.9,0.6-5.9c0-12.1-7.9-22.7-19.5-26.2c-2.3-10.1-9.8-18.2-19.8-21.2
			c-9.9-2.9-20.7-0.2-28.1,7c-7.4-7.3-18.1-10-28.1-7c-9.9,2.9-17.5,11-19.8,21.2c-11.6,3.5-19.5,14.1-19.5,26.2c0,2,0.2,4,0.6,5.9
			c-12,10.6-13.5,28.8-3.3,41.1c-2.9,7.1-2.7,15.1,0.4,22.2c3.1,7,8.9,12.5,16.2,15.2c0.3,0.7,0.6,1.4,0.9,2.1
			c0.1,0.2,0.2,0.4,0.3,0.6c0.2,0.5,0.5,1,0.8,1.5c0.1,0.1,0.4,0.8,0.5,0.9c0.6,1.1,1.2,2,1.8,2.8l1.2,1.5c1.6,1.9,3.3,3.5,5.3,5
			l1.3,0.9c2.1,1.4,4.4,2.6,6.8,3.5c0.6,0.2,1.2,0.4,1.9,0.6l1.1,0.3c1,0.3,2.1,0.5,3.1,0.6c0.4,0.1,0.8,0.1,1.2,0.2
			c1.3,0.2,2.5,0.2,3.8,0.2c8.9,0,17.5-3.7,23.5-10.3c6.1,6.6,14.6,10.3,23.5,10.3c1.1,0,2.3-0.1,3.4-0.2c0.6,0,1.1-0.1,1.5-0.2
			c1-0.1,2.1-0.4,3.1-0.6l1.5-0.4c0.6-0.2,1.2-0.4,1.8-0.6c1-0.4,1.9-0.8,2.7-1.2c1.4-0.7,2.8-1.5,4.1-2.3l1.2-0.9
			c2-1.5,3.9-3.2,5.5-5.2l1-1.3c0.7-1,1.4-2,2-3.1c0.4-0.6,0.7-1.3,1-1.9c0.1-0.2,0.2-0.4,0.3-0.6c0.3-0.6,0.6-1.2,0.8-1.8l0.1-0.4
			c7.2-2.7,13-8.2,16.2-15.2c3.1-7,3.3-15,0.4-22.2C395.9,262.172,394.5,243.972,382.5,233.472z M370,266.172
			c-1.9,1.4-3.1,3.4-3.5,5.7c-0.4,2.3,0.3,4.6,1.7,6.5c1.6,2,2.4,4.4,2.4,7c0,5.7-4.1,10.5-9.7,11.3c-3.8,1.1-6.7,4.2-7.4,8.1
			c0,0.1-0.3,1-0.4,1.1c0,0.1-0.3,0.8-0.3,0.9c-0.2,0.3-0.3,0.5-0.4,0.8l-0.5,0.8c-0.2,0.4-0.5,0.8-0.8,1.2l-0.5,0.6
			c-0.9,1.1-1.9,2-3.1,2.8c-0.7,0.4-1.3,0.8-2.1,1.2c-0.4,0.2-0.7,0.3-1.1,0.5l-1.6,0.5c-0.7,0.2-1.4,0.3-2,0.3
			c-0.5,0.1-1,0.1-1.6,0.1c-8.3,0-15-6.7-15-15c0-4.7-3.8-8.5-8.5-8.5s-8.5,3.8-8.5,8.5c0,8.3-6.7,15-15,15c-0.8,0-1.5-0.1-2.3-0.2
			c-0.7-0.1-1.3-0.2-2-0.4l-0.9-0.3c-0.5-0.2-0.9-0.4-1.4-0.6c-0.9-0.4-1.7-0.9-2.5-1.5c-0.9-0.6-1.7-1.4-2.4-2.2l-0.7-0.9
			c-0.3-0.4-0.5-0.7-0.8-1.1c0-0.1-0.5-0.9-0.5-0.9c-0.1-0.3-0.4-1-0.6-1.3c0-0.1-0.3-0.8-0.4-0.9c-0.1-0.4-0.3-1.4-0.4-1.7
			c-0.6-3.6-3.5-6.4-7.1-6.9c-5.3-0.8-9.4-5.6-9.4-11.3c0-2.5,0.8-5,2.4-7c1.4-1.8,2-4.2,1.7-6.5s-1.6-4.4-3.5-5.7
			c-3.6-2.6-5.6-6.9-5.3-11.3c0.3-4.4,3-8.4,7-10.3c2.1-1,3.7-2.9,4.4-5.2c0.7-2.2,0.4-4.7-0.7-6.7c-0.9-1.5-1.3-3.3-1.3-5
			c0-2.7,1.1-5.4,3-7.3c1.9-1.9,4.6-3,7.3-3c2.4-0.1,4.6-1.2,6.2-3c1.6-1.8,2.4-4.3,2.3-6.7c0-4.1,2.2-7.9,5.7-10
			c3.6-2.1,7.9-2.1,11.5,0c3.6,2.1,5.7,5.9,5.7,10c0,4.7,3.8,8.5,8.5,8.5s8.5-3.8,8.5-8.5c0-6.3,5.1-11.5,11.5-11.5
			c3.1,0,6.1,1.4,8.3,3.6c2.2,2.2,3.3,5.3,3.2,8.5c-0.1,2.4,0.7,4.7,2.3,6.4c1.6,1.7,3.9,2.7,6.2,2.7c5.7,0,10.3,4.6,10.3,10.3
			c0,1.8-0.4,3.5-1.3,5c-1.2,2-1.4,4.5-0.7,6.7c0.7,2.2,2.3,4.1,4.4,5.2c4,2,6.7,5.9,7,10.3
			C375.7,259.272,373.7,263.572,370,266.172z"/>
	</g>
</g>
<g>
	<g>
		<path d="M145.1,418.072H76.8c-4.7,0-8.5,3.8-8.5,8.5s3.8,8.5,8.5,8.5h68.3c4.7,0,8.5-3.8,8.5-8.5S149.8,418.072,145.1,418.072z"/>
	</g>
</g>
<g>
	<g>
		<path d="M508.3,170.972l-175-122.3l-1.3-0.9c-2.8-1.9-5.9-3.3-9.2-4.2c-0.9-0.3-1.8-0.5-2.7-0.6c-0.3-0.1-0.5-0.1-0.8-0.1
			c-3.6-0.4-7.2-0.2-10.7,0.7c-0.8,0.2-1.6,0.4-2.4,0.7c-2.9,1-5.6,2.5-8,4.4l-83.7,58.5c-6.4-8.3-16.3-13.2-26.8-13.3H34.1
			c-18.8,0-34.1,15.3-34.1,34.1v307.2c0,18.8,15.3,34.1,34.1,34.1h426.7c2.3,0,4.4-0.9,6-2.5c1.6-1.6,2.5-3.8,2.5-6v-231.8
			c1.4,0.9,2.9,1.3,4.5,1.4c0.5,0,1.1-0.1,1.6-0.2c2.2-0.4,4.2-1.7,5.5-3.6l29.6-43.8C513.1,178.872,512.1,173.672,508.3,170.972z
			 M157.6,110.873l-5.6,12.7c-0.8,2.4-3,4.1-5.5,4.3H75.4c-2.5-0.2-4.7-1.9-5.5-4.3l-5.6-12.7H157.6z M205,435.173
			c0,9.4-7.6,17.1-17.1,17.1H34.1c-9.4,0-17.1-7.6-17.1-17.1v-307.2h0.1c0-9.4,7.6-17.1,17.1-17.1h11.5l8.6,19.6
			c3.5,8.6,11.9,14.3,21.2,14.6h71.1c9.3-0.2,17.6-5.9,21.2-14.6l8.6-19.6h11.5c9.4,0,17.1,7.6,17.1,17.1V435.173z M281.6,452.272
			v-85.3h68.3v85.3H281.6z M452.3,452.372H367v-85.3c0-9.4-7.6-17.1-17.1-17.1h-68.3c-9.4,0-17.1,7.6-17.1,17.1v85.3h-47.4
			c3.1-5.3,4.7-11.2,4.8-17.2v-247.3l93.9-64.9l136.5,94.4V452.372z M471.5,209.972l-151-104.4c-2.9-2-6.8-2-9.7,0l-89,61.6v-39.2
			c0-1.6-0.2-3.2-0.5-4.8l86.9-60.8c1.1-0.8,2.3-1.5,3.5-2.1c0.5-0.1,1-0.2,1.4-0.3c1.3-0.4,2.7-0.4,4.1-0.2c0.1,0,0.2,0,0.4,0.1
			l1.1,0.3c1.2,0.3,2.4,0.9,3.4,1.6l169.5,118.5L471.5,209.972z"/>
	</g>
</g>
<g>
	<g>
		<path d="M114.1,333.473c-3.2-1.3-6.8-0.7-9.2,1.8c-1.6,1.6-2.4,3.8-2.5,6.1c0,4.7,3.8,8.5,8.5,8.5c4.7,0,8.5-3.8,8.5-8.5
			C119.4,337.872,117.3,334.772,114.1,333.473z"/>
	</g>
</g>
<g>
	<g>
		<path d="M167.3,283.272c-16.2-12.2-36-18.8-56.4-18.8c-20.3,0-40.1,6.6-56.4,18.8c-2.4,1.8-3.7,4.9-3.3,7.9c0.4,3,2.4,5.6,5.2,6.8
			c2.8,1.2,6,0.8,8.5-1.1c27.3-20.4,64.8-20.4,92,0c3.7,2.9,9.1,2.1,12-1.6C171.8,291.572,171,286.172,167.3,283.272z"/>
	</g>
</g>
<g>
	<g>
		<path d="M184.7,258.072c-42.3-36.9-105.4-36.9-147.7,0c-3.6,3.1-3.9,8.5-0.9,12c3.2,3.6,8.6,4,12.1,0.9
			c35.9-31.4,89.5-31.4,125.4,0c3.6,3.1,8.9,2.7,12-0.9C188.7,266.473,188.3,261.173,184.7,258.072z"/>
	</g>
</g>
<g>
	<g>
		<path d="M141.7,308.973c-18.4-13.3-43.2-13.3-61.6,0c-3.7,2.9-4.4,8.2-1.6,12c2.9,3.7,8.2,4.4,12,1.6c12.2-8.7,28.6-8.7,40.8,0
			c1.5,1,3.3,1.7,5.2,1.7c3.7,0,6.9-2.3,8.1-5.8C145.8,314.973,144.6,311.173,141.7,308.973z"/>
	</g>
</g>
<g>
</g>
<g>
</g>
<g>
</g>
<g>
</g>
<g>
</g>
<g>
</g>
<g>
</g>
<g>
</g>
<g>
</g>
<g>
</g>
<g>
</g>
<g>
</g>
<g>
</g>
<g>
</g>
<g>
</g>
</svg>
