<?xml version="1.0" encoding="iso-8859-1"?>
<!-- Generator: Adobe Illustrator 19.0.0, SVG Export Plug-In . SVG Version: 6.00 Build 0)  -->
<svg version="1.1" id="Capa_1" xmlns="http://www.w3.org/2000/svg" xmlns:xlink="http://www.w3.org/1999/xlink" x="0px" y="0px"
	 viewBox="0 0 512 512" style="enable-background:new 0 0 512 512;" xml:space="preserve">
<g>
	<g>
		<g>
			<path d="M506.179,359.108c-0.177-0.313-0.374-0.614-0.592-0.9c-8.26-10.965-22.589-15.446-35.625-11.142l-158.004,52.667
				c-2.603,0.885-5.334,1.335-8.083,1.333h-4.87c4.054-11.114,2.883-23.463-3.188-33.617l-0.758-1.258
				c-9.288-15.384-25.93-24.808-43.9-24.858h-44.633c-15.744-0.019-31.016-5.378-43.321-15.2
				c-14.691-12.196-33.173-18.891-52.267-18.933c-11.354,0-110.933,1.434-110.933,51.2v119.467c0,3.848,2.575,7.22,6.288,8.233
				c67.758,16.74,137.253,25.433,207.046,25.9h87.892c12.521,0.004,24.802-3.435,35.5-9.941l159.883-97.35
				c7.564-4.567,12.89-12.071,14.704-20.719C513.131,375.342,511.27,366.33,506.179,359.108z M238.938,358.4h12.221
				c11.984,0.035,23.081,6.322,29.271,16.583l0.758,1.258c4.657,7.764,4.158,17.573-1.263,24.825h-27.446
				c-4.244-2.564-8.793-4.586-13.541-6.018V358.4z M17.071,384.846c0.072-0.279,0.129-0.561,0.171-0.846h16.896v51.2H17.071V384.846
				z M17.071,471.225v-18.958h93.867c23.564,0,42.667-19.102,42.667-42.667s-19.103-42.667-42.667-42.667H17.071V358.4
				c0-27.817,69.517-34.116,93.867-34.133c15.226-0.002,29.962,5.383,41.6,15.2c15.337,12.235,34.368,18.91,53.988,18.933h15.346
				v34.133c-24.078-0.02-45.81,14.43-55.106,36.641c-9.296,22.211-4.336,47.832,12.578,64.969
				C124.663,491.506,70.343,483.834,17.071,471.225z M51.204,435.2V384h17.067v51.2H51.204z M85.338,435.2V384h17.067v51.2H85.338z
				 M119.471,433.628v-48.055c10.22,3.565,17.067,13.204,17.067,24.028S129.691,430.063,119.471,433.628z M221.871,494.933
				c-23.564,0-42.667-19.102-42.667-42.667c0-23.564,19.103-42.667,42.667-42.667s42.667,19.102,42.667,42.667
				C264.51,475.819,245.424,494.906,221.871,494.933z M327.854,487.475c-8.021,4.885-17.233,7.465-26.625,7.458h-37.635
				c20.93-20.358,23.991-52.896,7.226-76.8h33.055c4.605,0.004,9.178-0.75,13.538-2.233l18.657-6.219l27.927,55.787L327.854,487.475
				z M378.62,456.565l-26.198-52.334l82.385-27.462l17.493,34.933L378.62,456.565z M494.664,380.268
				c-0.8,4.111-3.309,7.688-6.901,9.84l-20.828,12.682l-15.762-31.477l24.166-8.055c5.849-1.915,12.275-0.057,16.2,4.683
				c0.133,0.217,0.267,0.417,0.417,0.617C494.478,371.9,495.464,376.157,494.664,380.268z"/>
			<path d="M221.871,426.667c-14.138,0-25.6,11.462-25.6,25.6c0,14.138,11.462,25.6,25.6,25.6s25.6-11.462,25.6-25.6
				C247.456,438.135,236.003,426.682,221.871,426.667z M221.871,460.8c-4.713,0-8.533-3.821-8.533-8.533
				c0-4.713,3.82-8.533,8.533-8.533s8.533,3.821,8.533,8.533C230.4,456.978,226.582,460.795,221.871,460.8z"/>
			<path d="M93.871,153.6V256c0.02,18.843,15.29,34.113,34.133,34.133h256c18.844-0.019,34.115-15.29,34.133-34.133V153.6
				c9.421-0.012,17.054-7.646,17.067-17.067V76.8c-0.015-14.132-11.468-25.585-25.6-25.6h-76.8v-8.533
				C332.777,19.114,313.69,0.028,290.138,0h-68.267c-23.553,0.028-42.639,19.114-42.667,42.667V51.2h-76.8
				c-14.132,0.015-25.585,11.468-25.6,25.6v59.733C76.815,145.955,84.45,153.589,93.871,153.6z M401.071,256
				c-0.011,9.421-7.646,17.056-17.067,17.067h-256c-9.421-0.011-17.056-7.645-17.067-17.067V153.6h102.4v17.067
				c0.011,9.421,7.645,17.056,17.067,17.067h51.2c9.421-0.011,17.056-7.645,17.067-17.067V153.6h102.4V256z M281.611,145.098
				l0.006,25.569h-51.212v-51.2h51.2l0.006,25.569l-0.006,0.031L281.611,145.098z M196.271,42.667
				c0.015-14.132,11.468-25.585,25.6-25.6h68.267c14.132,0.015,25.585,11.468,25.6,25.6V51.2H196.271V42.667z M93.871,76.8
				c0.005-4.711,3.822-8.529,8.533-8.533h307.2c4.711,0.003,8.53,3.822,8.533,8.533v59.733H298.671v-17.067
				c-0.011-9.421-7.646-17.056-17.067-17.067h-51.2c-9.421,0.011-17.056,7.645-17.067,17.067v17.067H93.871V76.8z"/>
			<path d="M252.758,137.217c-2.141,0.78-3.828,2.467-4.608,4.608c-1.357,3.176-0.646,6.858,1.795,9.301
				c0.829,0.753,1.78,1.359,2.813,1.792c2.067,0.911,4.421,0.911,6.487,0c1.034-0.433,1.987-1.039,2.817-1.792
				c1.604-1.606,2.496-3.789,2.475-6.059c-0.033-2.259-0.917-4.422-2.475-6.059C259.606,136.59,255.938,135.884,252.758,137.217z"/>
		</g>
	</g>
</g>
<g>
</g>
<g>
</g>
<g>
</g>
<g>
</g>
<g>
</g>
<g>
</g>
<g>
</g>
<g>
</g>
<g>
</g>
<g>
</g>
<g>
</g>
<g>
</g>
<g>
</g>
<g>
</g>
<g>
</g>
</svg>
