<?xml version="1.0" encoding="iso-8859-1"?>
<!-- Generator: Adobe Illustrator 19.0.0, SVG Export Plug-In . SVG Version: 6.00 Build 0)  -->
<svg version="1.1" id="Capa_1" xmlns="http://www.w3.org/2000/svg" xmlns:xlink="http://www.w3.org/1999/xlink" x="0px" y="0px"
	 viewBox="0 0 512 512" style="enable-background:new 0 0 512 512;" xml:space="preserve">
<g>
	<g>
		<g>
			<path d="M494.933,0H256c-9.421,0.011-17.056,7.645-17.067,17.067v153.6c0.011,9.421,7.645,17.056,17.067,17.067h17.067V230.4
				c-0.074,7.364,4.644,13.922,11.65,16.192c7.203,2.446,15.154-0.208,19.442-6.492l33.325-52.367h157.45
				c9.421-0.011,17.056-7.645,17.067-17.067v-153.6C511.989,7.645,504.355,0.011,494.933,0z M494.933,170.667H332.8
				c-2.917,0.001-5.632,1.49-7.2,3.95L290.133,230.4v-51.2c0.001-2.263-0.898-4.434-2.499-6.035c-1.6-1.6-3.771-2.499-6.035-2.499
				H256v-153.6l238.933,0.025V170.667z"/>
			<path d="M110.933,93.867C48.729,93.867,0,120.108,0,153.6v298.667C0,485.758,48.729,512,110.933,512
				s110.933-26.242,110.933-59.733V153.6C221.867,120.108,173.138,93.867,110.933,93.867z M204.8,452.267
				c0,20.183-38.55,42.667-93.867,42.667s-93.867-22.483-93.867-42.667v-19.043c19.474,16.674,53.835,27.576,93.867,27.576
				s74.393-10.902,93.867-27.576V452.267z M204.8,401.067c0,20.183-38.55,42.667-93.867,42.667s-93.867-22.483-93.867-42.667
				v-78.776c19.474,16.674,53.835,27.576,93.867,27.576s74.393-10.902,93.867-27.576V401.067z M204.8,290.133
				c0,20.183-38.55,42.667-93.867,42.667s-93.867-22.483-93.867-42.667V185.757c19.474,16.674,53.835,27.576,93.867,27.576
				s74.393-10.902,93.867-27.576V290.133z M110.933,196.267c-55.317,0-93.867-22.483-93.867-42.667
				c0-20.183,38.55-42.667,93.867-42.667S204.8,133.417,204.8,153.6C204.8,173.783,166.25,196.267,110.933,196.267z"/>
			<path d="M42.667,375.467c1.115-0.014,2.216-0.246,3.242-0.683c1.034-0.432,1.987-1.038,2.817-1.791
				c2.444-2.441,3.154-6.125,1.792-9.3c-0.413-1.044-1.021-2-1.792-2.817c-2.453-2.425-6.126-3.133-9.304-1.792
				c-1.033,0.433-1.984,1.039-2.813,1.792c-0.773,0.815-1.383,1.772-1.796,2.817c-1.122,2.625-0.844,5.638,0.74,8.013
				C37.137,374.079,39.812,375.494,42.667,375.467z"/>
			<path d="M39.421,393.216c-1.044,0.412-1.998,1.02-2.813,1.792c-1.56,1.635-2.444,3.799-2.475,6.059
				c0.012,1.115,0.243,2.216,0.679,3.242c0.435,1.034,1.042,1.986,1.795,2.817c2.441,2.444,6.125,3.154,9.3,1.792
				c1.034-0.433,1.987-1.039,2.817-1.792c0.751-0.832,1.357-1.784,1.792-2.817c0.437-1.026,0.669-2.127,0.683-3.242
				c-0.033-2.259-0.917-4.422-2.475-6.059C46.273,392.583,42.599,391.875,39.421,393.216z"/>
			<path d="M80.072,367.536c-3.202-1.329-6.89-0.59-9.331,1.872c-1.559,1.635-2.443,3.799-2.475,6.059
				c-0.023,2.27,0.869,4.454,2.475,6.059c0.829,0.753,1.78,1.359,2.813,1.791c2.067,0.911,4.421,0.911,6.487,0
				c1.034-0.432,1.987-1.038,2.817-1.791c1.604-1.606,2.496-3.789,2.475-6.059C85.354,372,83.274,368.865,80.072,367.536z"/>
			<path d="M78.469,401.131c-2.819-0.571-5.733,0.338-7.728,2.41c-1.559,1.635-2.443,3.799-2.475,6.059
				c-0.023,2.27,0.869,4.454,2.475,6.059c0.829,0.753,1.78,1.359,2.813,1.791c3.175,1.363,6.861,0.655,9.304-1.788
				s3.153-6.128,1.791-9.304C83.619,403.674,81.288,401.702,78.469,401.131z"/>
			<path d="M179.2,375.467c2.27,0.022,4.453-0.87,6.058-2.475c1.605-1.605,2.497-3.789,2.475-6.058
				c-0.033-2.259-0.917-4.422-2.475-6.059c-2.016-2-4.895-2.866-7.679-2.308c-0.566,0.083-1.115,0.257-1.625,0.517
				c-0.543,0.185-1.059,0.443-1.533,0.767c-0.447,0.315-0.875,0.657-1.28,1.025c-0.773,0.815-1.383,1.772-1.796,2.817
				c-1.122,2.625-0.844,5.639,0.74,8.013C173.67,374.08,176.346,375.494,179.2,375.467z"/>
			<path d="M173.141,407.125c2.441,2.461,6.129,3.201,9.331,1.872c3.202-1.329,5.281-4.464,5.261-7.931
				c0-4.713-3.82-8.533-8.533-8.533s-8.533,3.821-8.533,8.533c0.012,1.115,0.243,2.216,0.679,3.242
				C171.781,405.342,172.388,406.295,173.141,407.125z"/>
			<path d="M145.067,384c2.855,0.03,5.532-1.385,7.115-3.761c1.584-2.376,1.86-5.39,0.735-8.014
				c-1.031-2.685-3.362-4.656-6.181-5.227c-2.819-0.571-5.733,0.338-7.728,2.41c-1.559,1.635-2.443,3.799-2.475,6.059
				c-0.022,2.27,0.87,4.453,2.475,6.058C140.613,383.13,142.797,384.022,145.067,384z"/>
			<path d="M145.067,418.133c2.27,0.022,4.453-0.87,6.058-2.475c1.605-1.605,2.497-3.788,2.475-6.058
				c0.029-1.119-0.205-2.229-0.683-3.242c-0.433-1.034-1.039-1.986-1.792-2.817c-2.441-2.461-6.129-3.201-9.33-1.871
				c-3.201,1.329-5.281,4.463-5.261,7.93c-0.022,2.27,0.87,4.453,2.475,6.058C140.613,417.263,142.797,418.155,145.067,418.133z"/>
			<path d="M102.4,379.733c-0.022,2.27,0.87,4.453,2.475,6.058c1.605,1.605,3.788,2.497,6.058,2.475
				c2.27,0.022,4.453-0.87,6.058-2.475c1.605-1.605,2.497-3.788,2.475-6.058c0-4.713-3.82-8.533-8.533-8.533
				S102.4,375.021,102.4,379.733z"/>
			<path d="M116.991,407.808c-2.441-2.461-6.129-3.201-9.33-1.871c-3.202,1.329-5.281,4.463-5.261,7.93
				c-0.022,2.27,0.87,4.453,2.475,6.058c1.605,1.605,3.788,2.497,6.058,2.475c2.855,0.03,5.532-1.385,7.115-3.761
				c1.584-2.376,1.86-5.39,0.735-8.014C118.35,409.591,117.744,408.639,116.991,407.808z"/>
			<path d="M68.267,128c-19.142,0-34.133,11.242-34.133,25.6c0,14.358,14.992,25.6,34.133,25.6c19.142,0,34.133-11.242,34.133-25.6
				C102.4,139.242,87.408,128,68.267,128z M68.267,162.133c-10.417,0-17.067-5.05-17.067-8.533c0-3.483,6.65-8.533,17.067-8.533
				s17.067,5.05,17.067,8.533C85.333,157.083,78.683,162.133,68.267,162.133z"/>
			<path d="M153.6,128c-19.142,0-34.133,11.242-34.133,25.6c0,14.358,14.992,25.6,34.133,25.6c19.142,0,34.133-11.242,34.133-25.6
				C187.733,139.242,172.742,128,153.6,128z M153.6,162.133c-10.417,0-17.067-5.05-17.067-8.533c0-3.483,6.65-8.533,17.067-8.533
				c10.417,0,17.067,5.05,17.067,8.533C170.667,157.083,164.017,162.133,153.6,162.133z"/>
			<path d="M290.133,110.933c2.263,0.001,4.434-0.898,6.035-2.499s2.499-3.771,2.499-6.035V85.333c0-4.713-3.82-8.533-8.533-8.533
				s-8.533,3.82-8.533,8.533V102.4c-0.001,2.263,0.898,4.434,2.499,6.035C285.699,110.035,287.87,110.934,290.133,110.933z"/>
			<path d="M426.667,110.933c2.263,0.001,4.434-0.898,6.035-2.499c1.6-1.6,2.499-3.771,2.499-6.035V85.333
				c0-4.713-3.82-8.533-8.533-8.533s-8.533,3.82-8.533,8.533V102.4c-0.001,2.263,0.898,4.434,2.499,6.035
				C422.232,110.035,424.403,110.934,426.667,110.933z"/>
			<path d="M460.8,110.933c2.263,0.001,4.434-0.898,6.035-2.499c1.6-1.6,2.499-3.771,2.499-6.035V85.333
				c0-4.713-3.82-8.533-8.533-8.533s-8.533,3.82-8.533,8.533V102.4c-0.001,2.263,0.898,4.434,2.499,6.035
				C456.366,110.035,458.537,110.934,460.8,110.933z"/>
			<path d="M324.267,119.467c2.263,0.001,4.434-0.898,6.035-2.499c1.6-1.6,2.499-3.771,2.499-6.035V76.8
				c0-4.713-3.82-8.533-8.533-8.533s-8.533,3.82-8.533,8.533v34.133c-0.001,2.263,0.898,4.434,2.499,6.035
				C319.833,118.568,322.003,119.467,324.267,119.467z"/>
			<path d="M392.533,119.467c2.263,0.001,4.434-0.898,6.035-2.499c1.6-1.6,2.499-3.771,2.499-6.035V76.8
				c0-4.713-3.821-8.533-8.533-8.533c-4.713,0-8.533,3.82-8.533,8.533v34.133c-0.001,2.263,0.898,4.434,2.499,6.035
				C388.099,118.568,390.27,119.467,392.533,119.467z"/>
			<path d="M358.4,136.533c2.263,0.001,4.434-0.898,6.035-2.499c1.6-1.6,2.499-3.771,2.499-6.035V59.733
				c0-4.713-3.82-8.533-8.533-8.533s-8.533,3.82-8.533,8.533V128c-0.001,2.263,0.898,4.434,2.499,6.035
				C353.966,135.635,356.137,136.534,358.4,136.533z"/>
		</g>
	</g>
</g>
<g>
</g>
<g>
</g>
<g>
</g>
<g>
</g>
<g>
</g>
<g>
</g>
<g>
</g>
<g>
</g>
<g>
</g>
<g>
</g>
<g>
</g>
<g>
</g>
<g>
</g>
<g>
</g>
<g>
</g>
</svg>
