<?xml version="1.0" encoding="iso-8859-1"?>
<!-- Generator: Adobe Illustrator 19.0.0, SVG Export Plug-In . SVG Version: 6.00 Build 0)  -->
<svg version="1.1" id="Capa_1" xmlns="http://www.w3.org/2000/svg" xmlns:xlink="http://www.w3.org/1999/xlink" x="0px" y="0px"
	 viewBox="0 0 512 512" style="enable-background:new 0 0 512 512;" xml:space="preserve">
<g>
	<g>
		<g>
			<path d="M59.733,64c-14.138,0-25.6,11.461-25.6,25.6s11.461,25.6,25.6,25.6c14.132-0.015,25.585-11.468,25.6-25.6
				C85.333,75.462,73.872,64,59.733,64z M59.733,98.133c-4.712-0.003-8.53-3.822-8.533-8.533c0-4.713,3.82-8.533,8.533-8.533
				s8.533,3.82,8.533,8.533S64.446,98.133,59.733,98.133z"/>
			<path d="M212.25,314.801l25,5.033c2.992,0.607,6.08-0.429,8.099-2.719c2.019-2.289,2.662-5.483,1.685-8.375
				c-0.977-2.892-3.424-5.043-6.417-5.639l-25.058-5.042c-13.638-2.642-27.52,3.222-35.133,14.841l-1.669-0.36
				c-0.738-0.181-1.47-0.348-2.225-0.481l-40.092-8.66c0.009-0.163,0.094-0.301,0.094-0.466v-76.8
				c-0.015-14.132-11.468-25.585-25.6-25.6H102.4V166.4h42.667c14.132-0.015,25.585-11.468,25.6-25.6V55.467
				c-0.015-14.132-11.468-25.585-25.6-25.6H25.6C11.468,29.882,0.015,41.335,0,55.467V140.8c0.015,14.132,11.468,25.585,25.6,25.6
				h8.533v34.133H25.6c-14.132,0.015-25.585,11.468-25.6,25.6v128c0.015,14.132,11.468,25.585,25.6,25.6h8.533v59.733
				c-9.421,0.012-17.054,7.646-17.067,17.067v34.133c0.012,9.421,7.646,17.054,17.067,17.067h102.4
				c9.421-0.012,17.054-7.646,17.067-17.067V473.6c-0.019-18.844-15.29-34.115-34.133-34.133H102.4v-59.733h8.533
				c8.611-0.019,16.634-4.369,21.348-11.575l24.935,8.808l0.066,0.021c7.276,3.196,15.471,3.618,23.036,1.186
				c7.631,11.698,21.585,17.611,35.298,14.959l25-5.033c4.613-0.937,7.597-5.432,6.669-10.047
				c-0.929-4.615-5.419-7.607-10.035-6.686l-24.942,5.025c-6.62,1.225-13.347-1.511-17.232-7.009
				c12.965-13.204,12.965-34.36,0.001-47.565C198.923,316.305,205.644,313.558,212.25,314.801z M110.933,217.6
				c4.711,0.003,8.53,3.822,8.533,8.533v73.6l-17.067-3.686v-61.38c-0.031-6.008-1.664-11.9-4.73-17.067H110.933z M153.6,140.8
				c-0.003,4.712-3.822,8.53-8.533,8.533h-25.6v-17.067H153.6V140.8z M25.6,149.333c-4.711-0.003-8.53-3.822-8.533-8.533V55.467
				c0.003-4.712,3.822-8.53,8.533-8.533h119.467c4.712,0.003,8.53,3.822,8.533,8.533V64H128c-4.713,0-8.533,3.82-8.533,8.533
				s3.82,8.533,8.533,8.533h25.6V115.2h-34.133c-9.421,0.012-17.054,7.646-17.067,17.067v17.067H25.6z M68.267,277.333
				c-6.01,0.034-11.902,1.672-17.067,4.746v-47.413c0-9.426,7.641-17.067,17.067-17.067s17.067,7.641,17.067,17.067v47.413
				C80.169,279.006,74.277,277.367,68.267,277.333z M85.333,311.467c0,9.426-7.641,17.067-17.067,17.067S51.2,320.892,51.2,311.467
				S58.841,294.4,68.267,294.4C77.687,294.412,85.321,302.046,85.333,311.467z M51.2,200.533V166.4h34.133v34.133H51.2z
				 M119.467,456.533c9.421,0.012,17.054,7.646,17.067,17.067l0.017,17.067H34.133v-34.133H119.467z M51.2,439.467v-59.733h34.133
				v59.733H51.2z M110.933,362.667H25.6c-4.711-0.003-8.53-3.822-8.533-8.533v-128c0.003-4.711,3.822-8.53,8.533-8.533h13.279
				c-3.073,5.165-4.712,11.057-4.746,17.067v76.8c0.019,18.844,15.29,34.115,34.133,34.133l0.119-0.012l45.971,16.238
				C113.289,362.35,112.122,362.637,110.933,362.667z M137.161,351.8l-45.096-15.935c6.057-5.939,9.672-13.93,10.133-22.401
				l43.244,9.341C138.18,330.576,135.098,341.365,137.161,351.8z M186.826,349.102c-1.967,8.614-10.261,14.239-18.991,12.88
				s-14.922-9.24-14.176-18.044c0.745-8.804,8.174-15.531,17.008-15.404c0.817,0.023,1.631,0.105,2.435,0.246l2.204,0.476
				C183.761,331.82,188.793,340.488,186.826,349.102z"/>
			<path d="M486.4,166.4c14.132-0.015,25.585-11.468,25.6-25.6V55.467c-0.015-14.132-11.468-25.585-25.6-25.6H366.933
				c-14.132,0.015-25.585,11.468-25.6,25.6V140.8c0.015,14.132,11.468,25.585,25.6,25.6H409.6v34.133h-8.533
				c-14.132,0.015-25.585,11.468-25.6,25.6v51.692l-13.779-5.165c-8.506-6.638-19.747-8.635-30.019-5.331
				c-7.642-11.678-21.578-17.588-35.285-14.963l-25,5.033c-4.613,0.937-7.597,5.432-6.669,10.047
				c0.929,4.615,5.419,7.607,10.035,6.686l24.933-5.025c6.623-1.242,13.362,1.499,17.237,7.012
				c-12.961,13.203-12.961,34.354-0.001,47.558c-3.846,5.511-10.563,8.261-17.17,7.03l-25-5.042
				c-4.617-0.92-9.107,2.071-10.035,6.686s2.055,9.11,6.669,10.047l25.067,5.05c2.136,0.418,4.307,0.627,6.484,0.625
				c11.602-0.014,22.413-5.881,28.748-15.601c6.688,2.203,13.925,2.069,20.527-0.38l23.258,3.488v18.552
				c0.002,0.418,0.032,0.836,0.092,1.25l0.683,4.608c0.048,0.337,0.117,0.672,0.208,1c3.063,11.068,13.132,18.735,24.617,18.742
				h8.533v59.733h-17.067c-18.844,0.019-34.115,15.29-34.133,34.133v17.067c0.012,9.421,7.646,17.054,17.067,17.067h102.4
				c9.421-0.012,17.054-7.646,17.067-17.067v-34.133c-0.012-9.421-7.646-17.054-17.067-17.067v-59.733h8.533
				c14.132-0.015,25.585-11.468,25.6-25.6v-128c-0.015-14.132-11.468-25.585-25.6-25.6h-8.533V166.4H486.4z M341.333,316.967
				c-9.426,0-17.067-7.641-17.067-17.067c0-9.426,7.641-17.067,17.067-17.067c9.426,0,17.067,7.641,17.067,17.067
				C358.388,309.321,350.754,316.954,341.333,316.967z M392.533,149.333h-25.6c-4.712-0.003-8.53-3.822-8.533-8.533v-8.533h34.133
				V149.333z M392.533,226.133c0.003-4.711,3.822-8.53,8.533-8.533h13.263c-3.066,5.167-4.699,11.058-4.73,17.067v55.952
				l-17.067-6.397V226.133z M370.399,317.558c4.275-6.353,5.945-14.107,4.664-21.656l34.537,12.948v2.616
				c0.021,4.223,0.833,8.405,2.392,12.33L370.399,317.558z M477.867,490.667h-102.4V473.6c0.012-9.421,7.646-17.054,17.067-17.067
				h85.333V490.667z M426.667,439.467v-59.733H460.8v59.733H426.667z M486.4,217.6c4.712,0.003,8.53,3.822,8.533,8.533v128
				c-0.003,4.711-3.822,8.53-8.533,8.533h-85.333c-3.63-0.031-6.848-2.344-8.033-5.775l-0.5-3.383v-15.367l43.609,6.541
				c1.007,0.23,2.051,0.324,3.089,0.463l1.869,0.28c0.422,0.059,0.848,0.09,1.275,0.092c0.067,0,0.125-0.033,0.192-0.035
				c0.396,0.013,0.767,0.118,1.167,0.118c18.844-0.019,34.115-15.29,34.133-34.133v-76.8c-0.034-6.01-1.672-11.902-4.746-17.067
				H486.4z M431.675,222.608c4.876-4.887,12.217-6.352,18.595-3.711s10.535,8.866,10.53,15.77v47.413
				c-10.498-6.328-23.636-6.328-34.133,0l0-47.413C426.659,230.14,428.462,225.798,431.675,222.608z M426.667,200.533V166.4H460.8
				v34.133H426.667z M460.8,311.467c0,9.426-7.641,17.067-17.067,17.067c-0.164,0-0.315-0.044-0.477-0.048l-3.852-0.578
				c-8.299-2.161-13.696-10.156-12.597-18.661s8.351-14.866,16.926-14.846C453.159,294.4,460.8,302.041,460.8,311.467z
				 M409.6,149.333v-17.067c-0.012-9.421-7.646-17.054-17.067-17.067H358.4V81.067H384c4.713,0,8.533-3.82,8.533-8.533
				S388.713,64,384,64h-25.6v-8.533c0.003-4.712,3.822-8.53,8.533-8.533H486.4c4.712,0.003,8.53,3.822,8.533,8.533V140.8
				c-0.003,4.712-3.822,8.53-8.533,8.533H409.6z"/>
			<path d="M452.267,64c-14.138,0-25.6,11.461-25.6,25.6s11.462,25.6,25.6,25.6c14.138,0,25.6-11.462,25.6-25.6
				C477.851,75.468,466.399,64.015,452.267,64z M452.267,98.133c-4.713,0-8.533-3.82-8.533-8.533s3.821-8.533,8.533-8.533
				c4.713,0,8.533,3.82,8.533,8.533C460.797,94.312,456.978,98.13,452.267,98.133z"/>
			<path d="M193.001,123.083c3.189,1.321,6.859,0.59,9.299-1.85L233.933,89.6h64.733c9.421-0.012,17.054-7.646,17.067-17.067v-51.2
				c-0.012-9.421-7.646-17.054-17.067-17.067H204.8c-9.421,0.012-17.054,7.646-17.067,17.067V115.2
				C187.733,118.651,189.812,121.763,193.001,123.083z M204.8,21.333l93.867-0.017v51.217H230.4c-2.263,0-4.434,0.899-6.033,2.5
				L204.8,94.6V21.333z"/>
			<path d="M309.7,117.7l-31.634,31.633h-64.733c-9.421,0.012-17.054,7.646-17.067,17.067v51.2
				c0.012,9.421,7.646,17.054,17.067,17.067H307.2c9.421-0.012,17.054-7.646,17.067-17.067v-93.867c0-3.451-2.079-6.563-5.268-7.883
				C315.811,114.53,312.141,115.26,309.7,117.7z M307.2,217.6l-93.867,0.017V166.4H281.6c2.263,0,4.434-0.899,6.033-2.5
				l19.567-19.566V217.6z"/>
			<path d="M273.067,55.467c4.713,0,8.533-3.821,8.533-8.533s-3.821-8.533-8.533-8.533H230.4c-4.713,0-8.533,3.82-8.533,8.533
				s3.82,8.533,8.533,8.533H273.067z"/>
			<path d="M247.467,183.467h-8.533c-4.713,0-8.533,3.82-8.533,8.533s3.82,8.533,8.533,8.533h8.533c4.713,0,8.533-3.82,8.533-8.533
				S252.18,183.467,247.467,183.467z"/>
			<path d="M275.541,185.941c-1.561,1.634-2.445,3.799-2.475,6.059c-0.023,2.27,0.869,4.454,2.475,6.059
				c0.829,0.754,1.782,1.36,2.817,1.792c2.624,1.124,5.638,0.847,8.014-0.737s3.79-4.259,3.762-7.114
				c-0.033-2.259-0.917-4.422-2.475-6.059c-0.831-0.752-1.783-1.358-2.817-1.792C281.665,182.807,277.992,183.515,275.541,185.941z"
				/>
		</g>
	</g>
</g>
<g>
</g>
<g>
</g>
<g>
</g>
<g>
</g>
<g>
</g>
<g>
</g>
<g>
</g>
<g>
</g>
<g>
</g>
<g>
</g>
<g>
</g>
<g>
</g>
<g>
</g>
<g>
</g>
<g>
</g>
</svg>
