<?xml version="1.0" encoding="iso-8859-1"?>
<!-- Generator: Adobe Illustrator 19.0.0, SVG Export Plug-In . SVG Version: 6.00 Build 0)  -->
<svg version="1.1" id="Capa_1" xmlns="http://www.w3.org/2000/svg" xmlns:xlink="http://www.w3.org/1999/xlink" x="0px" y="0px"
	 viewBox="0 0 512 512" style="enable-background:new 0 0 512 512;" xml:space="preserve">
<g>
	<g>
		<g>
			<path d="M221.875,76.8c1.682-0.001,3.326-0.5,4.725-1.434L252.2,58.3c3.872-2.633,4.899-7.894,2.302-11.79
				c-2.597-3.896-7.849-4.971-11.768-2.409l-25.6,17.067c-3.13,2.087-4.524,5.977-3.432,9.577
				C214.793,74.343,218.114,76.803,221.875,76.8z"/>
			<path d="M213.342,119.467c1.682-0.002,3.326-0.5,4.725-1.434l76.8-51.2c2.568-1.678,4.037-4.605,3.849-7.667
				c-0.188-3.062-2.005-5.787-4.759-7.138s-6.021-1.12-8.557,0.605l-76.8,51.2c-3.13,2.087-4.524,5.977-3.432,9.577
				C206.26,117.01,209.58,119.47,213.342,119.467z"/>
			<path d="M307.2,264.533h-25.6v-25.6c-0.012-9.421-7.646-17.054-17.067-17.067h-17.067c-9.421,0.012-17.054,7.646-17.067,17.067
				v25.6h-25.6c-9.421,0.012-17.054,7.646-17.067,17.067v17.067c0.012,9.421,7.646,17.054,17.067,17.067h25.6v25.6
				c0.012,9.421,7.646,17.054,17.067,17.067h17.067c9.421-0.012,17.055-7.646,17.067-17.067v-25.6h25.6
				c9.421-0.012,17.054-7.646,17.067-17.067V281.6C324.254,272.179,316.621,264.546,307.2,264.533z M307.2,298.667h-25.6
				c-9.421,0.012-17.054,7.646-17.067,17.067v25.6h-17.067v-25.6c-0.012-9.421-7.646-17.054-17.067-17.067h-25.6V281.6h25.6
				c9.421-0.012,17.054-7.646,17.067-17.067v-25.6h17.067v25.6c0.012,9.421,7.646,17.055,17.067,17.067l25.6-0.017V298.667z"/>
			<path d="M499.6,354.675l-6.21-3.742c3.551-11.13,0.885-23.31-6.99-31.94V252.74c10.317-11.451,11.59-28.429,3.095-41.291
				c-8.495-12.862-24.609-18.355-39.191-13.361l-35.386-24.245c-3.476-16.491-15.138-30.062-30.918-35.978V128
				C383.898,61.088,332.305,5.531,265.584,0.485c-6.373-0.647-12.795-0.647-19.168,0C179.695,5.531,128.102,61.088,128,128v9.866
				c-15.782,5.914-27.445,19.486-30.917,35.978l-35.387,24.245c-3.38-1.16-6.923-1.775-10.496-1.822
				c-13.393-0.068-25.575,7.741-31.104,19.939c-5.529,12.198-3.374,26.507,5.504,36.534v66.253c-7.875,8.63-10.541,20.81-6.99,31.94
				l-6.193,3.733C4.739,359.303,0.033,367.606,0,376.575V409.6c0,4.713,3.82,8.533,8.533,8.533s8.533-3.82,8.533-8.533v-33.025
				c0.015-2.986,1.588-5.748,4.15-7.283l6.069-3.658c13.248,13.11,34.582,13.11,47.829-0.001L81.2,369.3
				c2.553,1.537,4.12,4.295,4.134,7.275V409.6c0,4.713,3.821,8.533,8.533,8.533c4.713,0,8.533-3.82,8.533-8.533v-33.025
				c-0.032-8.963-4.731-17.262-12.4-21.9l-6.21-3.742c3.551-11.13,0.885-23.31-6.99-31.94V252.74
				c3.028-3.469,5.317-7.519,6.729-11.902l17.662-11.204c4.945,11.794,14.704,20.907,26.809,25.033v95.199
				c0.046,42.396,34.404,76.754,76.8,76.8v51.2c0.019,18.844,15.29,34.115,34.133,34.133h34.133
				c18.844-0.019,34.115-15.29,34.133-34.133v-51.2c42.396-0.046,76.754-34.404,76.8-76.8v-95.199
				c12.106-4.126,21.865-13.238,26.81-25.033l17.66,11.204c1.412,4.383,3.701,8.433,6.729,11.902v66.253
				c-7.875,8.63-10.541,20.81-6.99,31.94l-6.193,3.733c-7.678,4.636-12.383,12.939-12.417,21.908V409.6
				c0,4.713,3.82,8.533,8.533,8.533s8.533-3.82,8.533-8.533h8.533v42.667c0.033,10.813,6.868,20.435,17.067,24.027v27.173
				c0,4.713,3.821,8.533,8.533,8.533s8.533-3.82,8.533-8.533v-27.172c10.199-3.592,17.033-13.214,17.067-24.028V409.6h8.533
				c0,4.713,3.82,8.533,8.533,8.533S512,414.313,512,409.6v-33.025C511.968,367.612,507.269,359.313,499.6,354.675z M51.2,358.4
				c-9.426,0-17.067-7.641-17.067-17.067c0-9.426,7.641-17.067,17.067-17.067s17.067,7.641,17.067,17.067
				C68.254,350.754,60.621,358.388,51.2,358.4z M42.667,308.412v-45.09c2.781,0.767,5.649,1.174,8.533,1.212
				c2.885-0.037,5.752-0.445,8.533-1.212v45.09c-2.781-0.767-5.649-1.174-8.533-1.212C48.315,307.237,45.448,307.645,42.667,308.412
				z M51.2,247.467c-9.426,0-17.067-7.641-17.067-17.067s7.641-17.067,17.067-17.067s17.067,7.641,17.067,17.067
				C68.254,239.821,60.621,247.454,51.2,247.467z M83.699,220.509c-1.364-4.49-3.646-8.648-6.702-12.21l16.895-11.576
				c0.047,5.447,0.634,10.876,1.752,16.207L83.699,220.509z M128,236.201c-8.071-6.045-13.55-14.925-15.333-24.851
				c-2.314-9.931-2.311-20.262,0.009-30.192c1.782-9.917,7.259-18.789,15.325-24.827V236.201z M179.2,93.867
				c0-42.416,34.385-76.8,76.8-76.8s76.8,34.385,76.8,76.8v68.267c-0.003,4.711-3.822,8.53-8.533,8.533H187.733
				c-4.712-0.003-8.53-3.822-8.533-8.533V93.867z M290.133,460.8h-17.067c-4.713,0-8.533,3.82-8.533,8.533s3.821,8.533,8.533,8.533
				h17.067c-0.012,9.421-7.646,17.054-17.067,17.067h-34.133c-9.421-0.012-17.054-7.646-17.067-17.067V460.8h17.067
				c4.713,0,8.533-3.821,8.533-8.533c0-4.713-3.82-8.533-8.533-8.533h-17.067v-17.067h68.267V460.8z M366.933,349.867
				c-0.04,32.973-26.76,59.693-59.733,59.733H204.8c-32.973-0.04-59.693-26.76-59.733-59.733V128
				c0.003-24.667,8.277-48.62,23.5-68.03c-4.235,10.8-6.417,22.296-6.433,33.897v68.267c0.015,14.132,11.468,25.585,25.6,25.6
				h136.533c14.132-0.015,25.585-11.468,25.6-25.6V93.867c-0.016-11.601-2.198-23.097-6.433-33.897
				c15.222,19.41,23.496,43.363,23.5,68.03V349.867z M399.325,211.375c-1.782,9.917-7.259,18.789-15.325,24.827v-79.87
				c8.071,6.045,13.551,14.926,15.333,24.852C401.647,191.115,401.644,201.445,399.325,211.375L399.325,211.375z M428.301,220.509
				l-11.948-7.58c1.119-5.331,1.707-10.759,1.755-16.206l16.895,11.576C431.947,211.862,429.665,216.019,428.301,220.509z
				 M460.8,213.333c9.426,0,17.067,7.641,17.067,17.067s-7.641,17.067-17.067,17.067c-9.426,0-17.067-7.641-17.067-17.067
				C443.746,220.979,451.379,213.346,460.8,213.333z M469.333,263.322v45.09c-5.574-1.615-11.492-1.615-17.067,0v-45.09
				C457.841,264.937,463.759,264.937,469.333,263.322z M460.8,324.267c9.426,0,17.067,7.641,17.067,17.067
				c0,9.426-7.641,17.067-17.067,17.067c-9.426,0-17.067-7.641-17.067-17.067C443.746,331.913,451.379,324.279,460.8,324.267z
				 M469.333,452.267c0,4.713-3.82,8.533-8.533,8.533s-8.533-3.821-8.533-8.533V409.6h17.067V452.267z M494.933,392.533h-68.267
				v-15.958c0.015-2.986,1.588-5.748,4.15-7.283l6.069-3.658c13.248,13.11,34.582,13.11,47.829-0.001l6.085,3.667
				c2.553,1.537,4.12,4.295,4.134,7.275V392.533z"/>
		</g>
	</g>
</g>
<g>
</g>
<g>
</g>
<g>
</g>
<g>
</g>
<g>
</g>
<g>
</g>
<g>
</g>
<g>
</g>
<g>
</g>
<g>
</g>
<g>
</g>
<g>
</g>
<g>
</g>
<g>
</g>
<g>
</g>
</svg>
