<?xml version="1.0" encoding="iso-8859-1"?>
<!-- Generator: Adobe Illustrator 19.0.0, SVG Export Plug-In . SVG Version: 6.00 Build 0)  -->
<svg version="1.1" id="Capa_1" xmlns="http://www.w3.org/2000/svg" xmlns:xlink="http://www.w3.org/1999/xlink" x="0px" y="0px"
	 viewBox="0 0 512 512" style="enable-background:new 0 0 512 512;" xml:space="preserve">
<g>
	<g>
		<g>
			<path d="M128,162.133h17.067c9.421-0.011,17.056-7.646,17.067-17.067V59.733c-0.011-9.421-7.646-17.056-17.067-17.067H128
				c-9.421,0.011-17.056,7.645-17.067,17.067v85.333C110.944,154.488,118.579,162.123,128,162.133z M128,59.733h17.067l0.012,85.333
				H128V59.733z"/>
			<path d="M347.558,330.417c-23.523-25.668-56.741-40.283-91.558-40.283s-68.035,14.615-91.558,40.283
				c-3.226,3.438-3.055,8.841,0.383,12.067c3.438,3.226,8.84,3.055,12.067-0.383c20.294-22.233,49.006-34.9,79.108-34.9
				s58.815,12.667,79.108,34.9c3.226,3.438,8.629,3.61,12.067,0.383S350.785,333.855,347.558,330.417z"/>
			<path d="M256,341.942c-23.99,0.029-46.882,10.058-63.167,27.675c-3.196,3.436-3.018,8.808,0.398,12.025
				c3.416,3.217,8.789,3.072,12.027-0.324c13.042-14.216,31.45-22.308,50.742-22.308s37.699,8.093,50.742,22.308
				c3.232,3.426,8.628,3.586,12.057,0.357c3.429-3.229,3.594-8.625,0.368-12.057C302.882,352,279.99,341.971,256,341.942z"/>
			<path d="M256,392.642c-13.17,0.011-25.74,5.51-34.688,15.175c-2.09,2.218-2.838,5.383-1.962,8.302s3.242,5.149,6.208,5.85
				c2.966,0.701,6.08-0.234,8.17-2.452c5.823-6.061,13.865-9.487,22.271-9.487s16.448,3.426,22.271,9.487
				c2.09,2.218,5.205,3.153,8.17,2.452c2.966-0.701,5.333-2.931,6.208-5.85c0.876-2.919,0.128-6.083-1.962-8.302
				C281.74,398.152,269.17,392.653,256,392.642z"/>
			<path d="M262.059,446.208c-0.83-0.753-1.783-1.359-2.817-1.792c-2.06-0.942-4.427-0.942-6.487,0
				c-2.141,0.78-3.828,2.467-4.608,4.608c-0.906,2.066-0.906,4.417,0,6.483c0.435,1.034,1.041,1.987,1.795,2.818
				c0.847,0.751,1.794,1.382,2.813,1.875c3.201,1.248,6.837,0.516,9.305-1.875c0.751-0.832,1.357-1.784,1.792-2.817
				c0.911-2.065,0.911-4.418,0-6.483C263.418,447.991,262.812,447.039,262.059,446.208z"/>
			<path d="M366.933,162.133H384c9.421-0.011,17.056-7.646,17.067-17.067V59.733c-0.011-9.421-7.646-17.056-17.067-17.067h-17.067
				c-9.421,0.011-17.056,7.645-17.067,17.067v85.333C349.877,154.488,357.512,162.123,366.933,162.133z M366.933,59.733H384
				l0.013,85.333h-17.079V59.733z"/>
			<path d="M494.933,0H17.067C7.645,0.011,0.011,7.645,0,17.067v477.867c0.011,9.421,7.645,17.056,17.067,17.067h477.867
				c9.421-0.011,17.056-7.645,17.067-17.067V17.067C511.989,7.645,504.355,0.011,494.933,0z M247.467,17.067h17.067v205.232
				c-2.84-0.167-5.653-0.432-8.533-0.432s-5.694,0.266-8.533,0.432V17.067z M34.133,494.933H17.067V17.067h17.067V494.933z
				 M51.2,494.933V17.067h179.2v207.202c-25.213,4.511-48.773,15.644-68.267,32.259v-43.194
				c-0.011-9.421-7.646-17.056-17.067-17.067H128c-9.421,0.011-17.056,7.646-17.067,17.067v85.333
				c0.014,6.705,3.954,12.78,10.07,15.528c-27,68.486,1.8,146.322,66.875,180.739H51.2z M145.067,213.333v60.314
				c-6.519,7.727-12.215,16.112-16.997,25.02H128v-85.333H145.067z M128,366.933c0-70.692,57.308-128,128-128s128,57.308,128,128
				s-57.308,128-128,128C185.34,494.855,128.079,437.593,128,366.933z M366.933,273.647v-60.314H384v85.333h-0.07
				C379.149,289.759,373.452,281.374,366.933,273.647z M460.8,494.933H324.122c65.075-34.417,93.875-112.253,66.875-180.739
				c6.116-2.748,10.056-8.823,10.071-15.528v-85.333c-0.011-9.421-7.646-17.056-17.067-17.067h-17.067
				c-9.421,0.011-17.056,7.646-17.067,17.067v43.194c-19.493-16.615-43.054-27.748-68.267-32.259V17.067h179.2V494.933z
				 M494.933,494.933h-17.067V17.067h17.067V494.933z"/>
		</g>
	</g>
</g>
<g>
</g>
<g>
</g>
<g>
</g>
<g>
</g>
<g>
</g>
<g>
</g>
<g>
</g>
<g>
</g>
<g>
</g>
<g>
</g>
<g>
</g>
<g>
</g>
<g>
</g>
<g>
</g>
<g>
</g>
</svg>
