<?xml version="1.0" encoding="iso-8859-1"?>
<!-- Generator: Adobe Illustrator 19.0.0, SVG Export Plug-In . SVG Version: 6.00 Build 0)  -->
<svg version="1.1" id="Capa_1" xmlns="http://www.w3.org/2000/svg" xmlns:xlink="http://www.w3.org/1999/xlink" x="0px" y="0px"
	 viewBox="0 0 512 512" style="enable-background:new 0 0 512 512;" xml:space="preserve">
<g>
	<g>
		<g>
			<path d="M187.733,42.667h-17.067c-9.421,0.011-17.056,7.645-17.067,17.067v85.333c0.011,9.421,7.645,17.056,17.067,17.067h17.067
				c9.421-0.011,17.056-7.646,17.067-17.067V59.733C204.789,50.312,197.155,42.677,187.733,42.667z M170.667,145.067V59.733h17.067
				l0.012,85.333H170.667z"/>
			<path d="M187.733,196.267h-17.067c-9.421,0.011-17.056,7.646-17.067,17.067v85.333c0.011,9.421,7.645,17.056,17.067,17.067
				h17.067c9.421-0.011,17.056-7.645,17.067-17.067v-85.333C204.789,203.912,197.155,196.277,187.733,196.267z M170.667,298.667
				v-85.333h17.067l0.012,85.333H170.667z"/>
			<path d="M187.733,349.867h-17.067c-9.421,0.011-17.056,7.645-17.067,17.067v85.333c0.011,9.421,7.645,17.056,17.067,17.067
				h17.067c9.421-0.011,17.056-7.646,17.067-17.067v-85.333C204.789,357.512,197.155,349.877,187.733,349.867z M170.667,452.267
				v-85.333h17.067l0.012,85.333H170.667z"/>
			<path d="M366.933,221.867c-2.88,0-5.694,0.266-8.533,0.432V17.067C358.389,7.645,350.755,0.011,341.333,0H17.067
				C7.645,0.011,0.011,7.645,0,17.067v477.867c0.011,9.421,7.645,17.056,17.067,17.067h332.8c1.155-0.001,2.297-0.237,3.357-0.695
				c4.518,0.426,9.082,0.695,13.709,0.695C447.051,512,512,447.051,512,366.933S447.051,221.867,366.933,221.867z M324.267,17.067
				h17.067v207.202c-5.765,0.993-11.465,2.336-17.067,4.022V17.067z M34.133,494.933H17.067V17.067h17.067V494.933z M51.2,494.933
				V17.067h256v217.82c-50.401,22.724-83.475,72.151-85.258,127.409c-1.782,55.258,28.038,106.713,76.87,132.638H51.2z
				 M366.933,494.933c-70.692,0-128-57.308-128-128s57.308-128,128-128s128,57.308,128,128
				C494.855,437.593,437.593,494.855,366.933,494.933z"/>
			<path d="M458.492,330.417c-23.524-25.668-56.742-40.283-91.558-40.283c-34.817,0-68.035,14.615-91.558,40.283
				c-3.226,3.438-3.055,8.841,0.383,12.067s8.841,3.055,12.067-0.383c20.294-22.233,49.006-34.9,79.108-34.9
				c30.102,0,58.815,12.667,79.108,34.9c3.226,3.438,8.629,3.61,12.067,0.383C461.546,339.257,461.718,333.855,458.492,330.417z"/>
			<path d="M366.933,341.942c-23.99,0.029-46.882,10.058-63.167,27.675c-3.226,3.432-3.061,8.828,0.368,12.057
				c3.429,3.229,8.825,3.069,12.057-0.357c13.042-14.216,31.45-22.308,50.742-22.308s37.699,8.093,50.742,22.308
				c3.232,3.426,8.628,3.586,12.057,0.357c3.429-3.229,3.593-8.625,0.368-12.057C413.815,352,390.923,341.971,366.933,341.942z"/>
			<path d="M366.933,392.642c-13.17,0.011-25.74,5.51-34.688,15.175c-3.231,3.429-3.07,8.828,0.358,12.058
				c3.429,3.231,8.828,3.07,12.058-0.358c5.823-6.061,13.865-9.487,22.271-9.487s16.448,3.426,22.271,9.487
				c2.09,2.218,5.205,3.153,8.17,2.452c2.966-0.701,5.332-2.931,6.208-5.85c0.876-2.919,0.128-6.083-1.962-8.302
				C392.674,398.152,380.104,392.653,366.933,392.642z"/>
			<path d="M372.992,446.208c-0.429-0.341-0.854-0.683-1.279-1.025c-0.475-0.325-0.992-0.582-1.538-0.767
				c-0.485-0.246-1.003-0.42-1.537-0.517c-2.81-0.558-5.715,0.305-7.763,2.308c-0.773,0.815-1.383,1.772-1.796,2.817
				c-1.357,3.176-0.646,6.858,1.796,9.301c0.847,0.751,1.794,1.382,2.813,1.875c2.089,0.8,4.399,0.8,6.487,0
				c1.021-0.493,1.968-1.124,2.817-1.875c2.444-2.441,3.154-6.125,1.792-9.3C374.371,447.981,373.763,447.025,372.992,446.208z"/>
		</g>
	</g>
</g>
<g>
</g>
<g>
</g>
<g>
</g>
<g>
</g>
<g>
</g>
<g>
</g>
<g>
</g>
<g>
</g>
<g>
</g>
<g>
</g>
<g>
</g>
<g>
</g>
<g>
</g>
<g>
</g>
<g>
</g>
</svg>
