<?xml version="1.0" encoding="iso-8859-1"?>
<!-- Generator: Adobe Illustrator 19.0.0, SVG Export Plug-In . SVG Version: 6.00 Build 0)  -->
<svg version="1.1" id="Capa_1" xmlns="http://www.w3.org/2000/svg" xmlns:xlink="http://www.w3.org/1999/xlink" x="0px" y="0px"
	 viewBox="0 0 512.158 512.158" style="enable-background:new 0 0 512.158 512.158;" xml:space="preserve">
<g transform="translate(-1 -1)">
	<g>
		<g>
			<path d="M233.967,336.458c-1.601,1.6-2.5,3.77-2.5,6.033s0.899,4.433,2.5,6.033c6.168,6.273,14.345,10.178,23.1,11.033
				c8.755-0.855,16.932-4.761,23.1-11.034c3.339-3.325,3.35-8.728,0.025-12.067c-3.325-3.339-8.728-3.35-12.067-0.025
				c-2.987,3.093-6.843,5.206-11.058,6.059c-4.204-0.848-8.051-2.952-11.034-6.033c-1.6-1.601-3.77-2.5-6.033-2.5
				S235.566,334.858,233.967,336.458z"/>
			<path d="M240.012,69.425h8.533v8.533c0,4.713,3.82,8.533,8.533,8.533c4.713,0,8.533-3.82,8.533-8.533v-8.533h8.533
				c4.713,0,8.533-3.82,8.533-8.533s-3.821-8.533-8.533-8.533h-8.533v-8.533c0-4.713-3.82-8.533-8.533-8.533
				c-4.713,0-8.533,3.82-8.533,8.533v8.533h-8.533c-4.713,0-8.533,3.82-8.533,8.533S235.3,69.425,240.012,69.425z"/>
			<path d="M436.008,463.85c-9.678-14.745-25.272-24.572-42.75-26.94s-35.124,2.956-48.377,14.594
				c-8.156-15.904-12.203-33.596-11.773-51.464c2.474-3.198,4.703-6.578,6.666-10.112c10.215,2.328,20.646,3.575,31.121,3.722
				c24.975,0,35.454-8.483,36.937-9.817c1.809-1.616,2.844-3.926,2.846-6.351s-1.028-4.737-2.833-6.357
				c-10.954-9.833-16.956-42.778-16.543-90.463l0.647-1.504c4.009-8.537,7.135-17.461,9.329-26.633
				c1.892-7.172,0.959-14.797-2.608-21.301c7.39-35.471,2.818-64.856-13.762-87.282c-22.028-29.793-58.166-37.782-71.133-39.753
				l35.445-64.98c2.174-3.988,0.844-8.98-3.025-11.358c-54.018-35.8-124.215-35.8-178.233,0c-3.869,2.379-5.199,7.37-3.025,11.358
				l35.445,64.981c-12.967,1.97-49.105,9.96-71.133,39.753c-16.576,22.42-21.149,51.795-13.768,87.252
				c-3.575,6.5-4.513,14.126-2.62,21.299c2.195,9.181,5.324,18.114,9.337,26.658l0.655,1.527
				c0.413,47.677-5.59,80.616-16.543,90.448c-1.805,1.62-2.836,3.932-2.833,6.357c0.002,2.425,1.037,4.735,2.846,6.351
				c1.483,1.333,11.958,9.817,36.937,9.817c10.469-0.147,20.893-1.393,31.101-3.717c1.969,3.545,4.205,6.935,6.688,10.142
				c0.424,17.857-3.624,35.536-11.774,51.43c-11.101-9.786-25.399-15.174-40.197-15.146c-20.546-0.091-39.731,10.265-50.929,27.492
				c-5.983,9.679-9.04,20.882-8.804,32.259v8.516c-0.001,2.263,0.898,4.434,2.499,6.035c1.6,1.6,3.771,2.499,6.035,2.499h358.4
				c2.263,0.001,4.434-0.898,6.035-2.499c1.6-1.6,2.499-3.771,2.499-6.035v-8.516C445.049,484.732,441.991,473.53,436.008,463.85z
				 M347.092,374.081c5.035-13.892,8.501-28.303,10.333-42.964c0.658-4.789,1.417-9.559,2.162-14.331
				c0.569,0.048,1.135,0.156,1.705,0.156c5.014-0.082,9.844-1.905,13.664-5.155c1.705,28.531,6.362,49.477,13.97,62.521
				C375.154,377.501,360.827,377.423,347.092,374.081z M384.571,249.033c-1.973,8.051-4.754,15.882-8.3,23.375l-1.429,3.342
				c-1.104,2.592-2.054,5.325-2.996,8.075c-1.307,4.946-3.522,9.606-6.533,13.742c-0.8,0.996-1.883,1.726-3.107,2.092
				c0.85-5.669,1.663-11.376,2.324-17.092c1.054-8.967,1.808-18.6,2.442-31.225c0.184-3.767,0.34-7.335,0.473-10.775
				c2.14-1.788,4.756-2.909,7.526-3.225c3.063-0.46,6.182,0.336,8.65,2.208C385.322,242.415,385.67,245.887,384.571,249.033z
				 M371.187,154.092L371.187,154.092c12.549,16.972,16.522,39.497,12.019,66.932c-3.339-0.779-6.784-0.995-10.194-0.641
				c-1.715,0.225-3.409,0.591-5.065,1.093c0.029-2.368,0.053-4.71,0.053-6.984c0-39.448-10.743-65.773-25.116-83.375
				C354.007,136.422,363.708,144.297,371.187,154.092z M183.883,38.308c45.127-26.767,101.265-26.767,146.392,0l-35.593,65.25
				h-75.205L183.883,38.308z M212.283,120.625h89.567c26.826,12.215,42.569,35.96,47.356,70.406
				c-7.038-6.476-15.106-11.733-23.873-15.556v-12.183c0-2.263-0.899-4.434-2.5-6.033l-6.033-6.033v-5.001
				c0-4.713-3.82-8.533-8.533-8.533s-8.533,3.82-8.533,8.533v8.533c0,2.263,0.899,4.433,2.5,6.033l6.033,6.033v5.001
				c-5.78-0.024-11.532,0.811-17.067,2.478v-11.011c0-2.263-0.899-4.434-2.5-6.033l-6.033-6.033v-5.001
				c0-4.713-3.821-8.533-8.533-8.533s-8.533,3.82-8.533,8.533v8.533c0,2.263,0.899,4.433,2.5,6.033l6.033,6.033v15.275
				c-0.413,0.239-0.847,0.483-1.25,0.717c-4.644,3.384-10.101,5.48-15.817,6.075c-5.714-0.595-11.169-2.691-15.812-6.075
				c-0.405-0.234-0.84-0.48-1.254-0.719v-15.272l6.033-6.033c1.601-1.6,2.5-3.77,2.5-6.033v-8.534c0-4.713-3.82-8.533-8.533-8.533
				s-8.533,3.82-8.533,8.533v5l-6.033,6.033c-1.601,1.599-2.5,3.77-2.5,6.033v11.011c-5.535-1.666-11.286-2.501-17.067-2.478v-5
				l6.033-6.033c1.601-1.6,2.5-3.77,2.5-6.033v-8.533c0-4.713-3.82-8.533-8.533-8.533s-8.533,3.82-8.533,8.533v5l-6.033,6.033
				c-1.601,1.599-2.5,3.77-2.5,6.033v12.183c-8.767,3.823-16.835,9.08-23.872,15.557
				C169.715,156.589,185.459,132.84,212.283,120.625z M142.896,154.191c7.461-9.789,17.146-17.661,28.254-22.963
				c-14.324,17.603-25.016,43.903-25.016,83.263c0,2.27,0.023,4.612,0.053,6.982c-1.653-0.5-3.344-0.865-5.057-1.09
				c-3.404-0.383-6.849-0.177-10.183,0.609C126.463,193.626,130.41,171.146,142.896,154.191z M130.504,239.567
				c2.466-1.893,5.598-2.697,8.671-2.225c2.765,0.316,5.378,1.433,7.518,3.213c0.135,3.442,0.291,7.018,0.478,10.795
				c0.542,10.9,1.358,21.383,2.433,31.2c0.664,5.731,1.478,11.445,2.33,17.118c-1.212-0.365-2.284-1.089-3.076-2.077
				c-3.023-4.144-5.247-8.816-6.558-13.775c-0.946-2.75-1.888-5.475-2.992-8.067l-1.434-3.342
				c-3.549-7.507-6.332-15.352-8.308-23.417C128.481,245.864,128.824,242.418,130.504,239.567z M125.221,374.333
				c7.613-13.044,12.275-33.995,13.982-62.533c3.813,3.247,8.636,5.068,13.643,5.15c0.569,0,1.136-0.108,1.705-0.156
				c0.744,4.773,1.501,9.542,2.161,14.34c1.83,14.657,5.295,29.064,10.33,42.95C153.311,377.412,138.992,377.498,125.221,374.333z
				 M173.617,328.792L173.617,328.792c-0.912-6.658-1.958-13.291-3.004-19.933c-1.458-9.275-2.967-18.867-4.05-28.217
				c-1.029-9.433-1.821-19.575-2.346-30.133c-0.633-12.806-0.941-23.378-0.995-33.087c7.837-9.619,26.547-28.529,42.644-28.529
				c9.605,0.201,18.938,3.223,26.837,8.692c7.18,5.01,15.619,7.911,24.363,8.375c8.745-0.463,17.185-3.364,24.367-8.375
				c7.897-5.468,17.23-8.491,26.833-8.692c16.097,0,34.807,18.91,42.645,28.53c-0.053,9.756-0.361,20.329-0.986,33.079
				c-0.612,12.217-1.338,21.492-2.346,30.083c-1.096,9.442-2.608,19.067-4.075,28.375c-1.037,6.608-2.075,13.208-2.983,19.808
				c-1.696,14.544-5.234,28.814-10.529,42.467c-3.188,8.621-8.155,16.475-14.579,23.05c-5.841,5.217-12.015,10.05-18.483,14.467
				l-1.796,1.283c-3.279,2.333-6.425,4.867-9.554,7.4c-3.483,2.926-7.111,5.674-10.871,8.233c-3.907,1.884-8.272,2.61-12.579,2.092
				c-1.804,0-3.629-0.008-4.683,0.075c-1.504-0.067-3.017-0.075-4.525-0.075h-0.917c-4.324,0.521-8.706-0.216-12.621-2.125
				c-3.638-2.383-7.133-5.208-10.837-8.2c-3.129-2.533-6.267-5.067-9.508-7.375l-1.896-1.358
				c-6.451-4.403-12.608-9.222-18.433-14.425c-6.433-6.589-11.403-14.46-14.587-23.1
				C178.809,357.559,175.278,343.313,173.617,328.792z M86.412,496.091c-0.227-8.07,1.875-16.035,6.054-22.942
				c8.111-12.313,21.868-19.725,36.613-19.725c14.745,0,28.502,7.412,36.613,19.725c4.179,6.907,6.281,14.872,6.054,22.942H86.412z
				 M325.347,496.091H188.811c0.179-10.886-2.636-21.613-8.139-31.008c9.764-14.826,15.562-31.908,16.843-49.614
				c3.223,2.46,6.48,4.809,9.684,7.105l1.917,1.375c2.987,2.116,5.842,4.442,8.696,6.75c3.903,3.266,7.969,6.331,12.183,9.183
				c6.662,3.876,14.358,5.602,22.038,4.942c1.55,0,3.108-0.009,5.413,0.058c1.546-0.067,3.096-0.067,4.654-0.058
				c7.663,0.654,15.342-1.06,22-4.908c4.226-2.862,8.302-5.938,12.213-9.217c2.854-2.308,5.717-4.625,8.737-6.775l1.817-1.3
				c3.236-2.318,6.523-4.688,9.775-7.17c1.279,17.711,7.078,34.798,16.844,49.629C327.983,474.479,325.168,485.205,325.347,496.091z
				 M342.412,496.091c-0.227-8.07,1.875-16.035,6.054-22.942c8.111-12.313,21.868-19.725,36.613-19.725
				c14.745,0,28.502,7.412,36.613,19.725c4.179,6.907,6.281,14.872,6.054,22.942H342.412z"/>
			<path d="M210.146,299.825c16.495,0,29.867-13.372,29.867-29.867c0-16.495-13.372-29.867-29.867-29.867
				c-16.495,0-29.867,13.372-29.867,29.867C180.299,286.445,193.659,299.805,210.146,299.825z M210.146,257.158
				c7.069,0,12.8,5.731,12.8,12.8c0,7.069-5.731,12.8-12.8,12.8c-7.069,0-12.8-5.731-12.8-12.8
				C197.354,262.892,203.08,257.166,210.146,257.158z"/>
			<path d="M304.012,299.825c16.495,0,29.867-13.372,29.867-29.867c0-16.495-13.372-29.867-29.867-29.867
				c-16.495,0-29.867,13.372-29.867,29.867C274.166,286.445,287.526,299.805,304.012,299.825z M304.012,257.158
				c7.069,0,12.8,5.731,12.8,12.8c0,7.069-5.731,12.8-12.8,12.8c-7.069,0-12.8-5.731-12.8-12.8
				C291.22,262.892,296.946,257.166,304.012,257.158z"/>
			<path d="M282.679,376.625h-51.2c-4.713,0-8.533,3.82-8.533,8.533s3.82,8.533,8.533,8.533h51.2c4.713,0,8.533-3.82,8.533-8.533
				S287.392,376.625,282.679,376.625z"/>
		</g>
	</g>
</g>
<g>
</g>
<g>
</g>
<g>
</g>
<g>
</g>
<g>
</g>
<g>
</g>
<g>
</g>
<g>
</g>
<g>
</g>
<g>
</g>
<g>
</g>
<g>
</g>
<g>
</g>
<g>
</g>
<g>
</g>
</svg>
