<?xml version="1.0" encoding="iso-8859-1"?>
<!-- Generator: Adobe Illustrator 19.0.0, SVG Export Plug-In . SVG Version: 6.00 Build 0)  -->
<svg version="1.1" id="Capa_1" xmlns="http://www.w3.org/2000/svg" xmlns:xlink="http://www.w3.org/1999/xlink" x="0px" y="0px"
	 viewBox="0 0 512.086 512.086" style="enable-background:new 0 0 512.086 512.086;" xml:space="preserve">
<g>
	<g>
		<g>
			<path d="M136.533,204.843c14.132-0.015,25.585-11.468,25.6-25.6v-17.067c-0.015-14.132-11.468-25.585-25.6-25.6h-17.067
				c-14.132,0.015-25.585,11.468-25.6,25.6v17.067c0.015,14.132,11.468,25.585,25.6,25.6H136.533z M110.933,179.243v-17.067
				c0.003-4.712,3.822-8.53,8.533-8.533h17.067c4.712,0.003,8.53,3.822,8.533,8.533v17.067c-0.003,4.712-3.822,8.53-8.533,8.533
				h-17.067C114.755,187.773,110.937,183.954,110.933,179.243z"/>
			<path d="M256,204.843h17.067c14.132-0.015,25.585-11.468,25.6-25.6v-17.067c-0.015-14.132-11.468-25.585-25.6-25.6H256
				c-14.132,0.015-25.585,11.468-25.6,25.6v17.067C230.415,193.375,241.868,204.827,256,204.843z M247.467,162.176
				c0.003-4.712,3.822-8.53,8.533-8.533h17.067c4.711,0.003,8.53,3.822,8.533,8.533v17.067c-0.003,4.712-3.822,8.53-8.533,8.533H256
				c-4.711-0.003-8.53-3.822-8.533-8.533V162.176z"/>
			<path d="M490.181,230.443c14.496-9.191,22.853-25.533,21.819-42.667c0-4.713-3.82-8.533-8.533-8.533s-8.533,3.82-8.533,8.533
				c1.265,15.964-9.825,30.269-25.6,33.023V85.376c0-19.142-22.492-34.133-51.2-34.133s-51.2,14.992-51.2,34.133v83.797
				c-5.278-3.056-11.056-5.15-17.067-6.184v-26.414c-0.019-18.843-15.29-34.114-34.133-34.133h-79.913l9.754-7.091
				c2.02-1.466,3.296-3.744,3.492-6.232c0.196-2.488-0.709-4.937-2.475-6.701l-50.559-50.56
				c-1.198-18.188-16.505-32.208-34.728-31.807c-18.223,0.401-32.899,15.08-33.296,33.304
				c-0.397,18.223,13.627,33.527,31.815,34.721l19.369,19.308l-20.987,15.058H76.8c-18.844,0.019-34.115,15.29-34.133,34.133v26.371
				C18.038,167.083,0,188.403,0,213.376c0,24.973,18.038,46.293,42.667,50.429v9.304c0.019,18.844,15.29,34.115,34.133,34.133
				h61.306c-3.297,8.807-1.327,18.721,5.085,25.6c-6.413,6.879-8.382,16.793-5.085,25.6H76.8
				c-18.844,0.019-34.115,15.29-34.133,34.133v0.771C18.061,397.522,0.042,418.819,0,443.776v59.733
				c-0.001,2.264,0.897,4.435,2.498,6.035c1.601,1.601,3.772,2.499,6.035,2.498h332.8c2.264,0.001,4.435-0.897,6.035-2.498
				c1.601-1.601,2.499-3.772,2.498-6.035v-57.15l18.5,27.75c0.502,0.727,1.116,1.37,1.818,1.906
				c0.068,0.054,0.097,0.133,0.166,0.185c0.119,0.089,0.259,0.117,0.381,0.199c0.519,0.35,1.076,0.641,1.66,0.868
				c0.225,0.087,0.438,0.19,0.668,0.258c0.768,0.238,1.566,0.366,2.37,0.379l0.029,0.004l0.003-0.001l0.005,0.001v25.6
				c-0.001,2.264,0.897,4.435,2.498,6.035c1.601,1.601,3.772,2.499,6.035,2.498h59.733c2.264,0.001,4.435-0.897,6.035-2.498
				c1.601-1.601,2.499-3.772,2.498-6.035v-25.6l0.005-0.001l0.003,0.001l0.029-0.005c0.804-0.013,1.602-0.141,2.37-0.379
				c0.229-0.068,0.443-0.171,0.668-0.258c0.584-0.227,1.141-0.518,1.66-0.868c0.122-0.082,0.262-0.11,0.381-0.199
				c0.069-0.052,0.098-0.132,0.166-0.185c0.702-0.536,1.315-1.18,1.818-1.906l51.2-76.8c0.282-0.609,0.565-1.218,0.848-1.827
				c0.303-0.82,0.477-1.681,0.515-2.554c0.005-0.123,0.071-0.227,0.071-0.352l-0.015-0.076c-0.021-1.016-0.223-2.021-0.598-2.966
				c-0.341-0.661-0.681-1.322-1.021-1.984l-41.033-56.423v-91.031c15.727,2.828,26.777,17.078,25.6,33.013
				c0,4.713,3.82,8.533,8.533,8.533s8.533-3.821,8.533-8.533C513.034,255.976,504.677,239.634,490.181,230.443z M42.667,246.298
				c-15.058-3.828-25.599-17.385-25.599-32.922c0-15.537,10.541-29.093,25.599-32.922V246.298z M42.667,494.976h-25.6v-51.2
				c0.045-15.522,10.568-29.054,25.6-32.922V494.976z M418.133,68.309c19.533,0,34.133,9.008,34.133,17.067
				c0,8.058-14.6,17.067-34.133,17.067S384,93.435,384,85.376C384,77.318,398.6,68.309,418.133,68.309z M452.267,110.97v85.339
				c0,6.825-10.527,14.273-25.6,16.41v-93.703C435.673,118.174,444.398,115.432,452.267,110.97z M384,110.97
				c7.869,4.462,16.594,7.204,25.6,8.046v93.703c-15.073-2.138-25.6-9.585-25.6-16.41V110.97z M384,221.904
				c21.331,11.385,46.935,11.385,68.267,0v17.072c0,8.058-14.6,17.067-34.133,17.067S384,247.034,384,238.976V221.904z
				 M452.267,264.57v43.089L451,305.918c-5.496-7.73-15.051-11.466-24.333-9.517v-23.784
				C435.673,271.774,444.398,269.032,452.267,264.57z M384,264.57c7.869,4.462,16.594,7.204,25.6,8.046v37.096
				c-3.154,6.587-3.154,14.247,0,20.834v96.163h-4.433L384,400.253V264.57z M349.867,180.419c6.63,1.776,12.576,5.501,17.067,10.692
				v44.529c-4.491,5.191-10.436,8.916-17.067,10.692V180.419z M191.437,51.398l36.022,36.029l-20.655,15.017h-19.325l9.838-7.058
				c2.039-1.461,3.331-3.744,3.533-6.244s-0.706-4.962-2.484-6.731l-18.994-18.94C184.351,60.532,188.502,56.378,191.437,51.398z
				 M162.133,51.243c-9.426,0-17.067-7.641-17.067-17.067s7.641-17.067,17.067-17.067S179.2,24.75,179.2,34.176
				C179.188,43.597,171.554,51.231,162.133,51.243z M93.867,247.509v42.667H76.8c-9.421-0.012-17.054-7.646-17.067-17.067V136.576
				c0.012-9.421,7.646-17.054,17.067-17.067h238.933c9.421,0.012,17.054,7.646,17.067,17.067v136.533
				c-0.012,9.421-7.646,17.055-17.067,17.067h-17.067v-42.667c-0.015-14.132-11.468-25.585-25.6-25.6h-153.6
				C105.335,221.925,93.882,233.377,93.867,247.509z M281.6,247.509v8.533H110.933v-8.533c0.003-4.712,3.822-8.53,8.533-8.533h153.6
				C277.778,238.979,281.597,242.798,281.6,247.509z M110.933,290.176v-17.067H281.6v17.067H110.933z M230.4,341.376
				c4.713,0,8.533,3.82,8.533,8.533s-3.82,8.533-8.533,8.533h-68.267c-4.713,0-8.533-3.82-8.533-8.533s3.82-8.533,8.533-8.533
				s8.533-3.821,8.533-8.533c0-4.713-3.82-8.533-8.533-8.533s-8.533-3.82-8.533-8.533s3.82-8.533,8.533-8.533H230.4
				c4.713,0,8.533,3.82,8.533,8.533s-3.82,8.533-8.533,8.533s-8.533,3.821-8.533,8.533
				C221.867,337.556,225.687,341.376,230.4,341.376z M290.133,494.976H102.4v-69.692c0.034-3.954,3.263-7.134,7.217-7.108h173.3
				c3.954-0.026,7.182,3.154,7.217,7.108V494.976z M332.8,494.976h-25.6v-69.692c-0.043-13.376-10.907-24.191-24.283-24.175h-173.3
				c-13.376-0.016-24.24,10.799-24.283,24.175v69.692h-25.6v-102.4c0.012-9.421,7.646-17.054,17.067-17.067h238.933
				c3.043,0.014,6.026,0.849,8.633,2.418l-7,9.623c-0.341,0.661-0.681,1.322-1.02,1.984c-0.375,0.945-0.578,1.949-0.599,2.965
				l-0.015,0.076c0,0.125,0.067,0.229,0.071,0.353c0.039,0.873,0.213,1.734,0.516,2.554c0.125,0.32,0.27,0.633,0.433,0.935
				c0.12,0.305,0.258,0.603,0.414,0.892l15.633,23.45V494.976z M315.733,358.443h-61.306c3.297-8.807,1.327-18.721-5.085-25.6
				c6.413-6.879,8.382-16.793,5.085-25.6h61.306c18.844-0.019,34.115-15.29,34.133-34.133v-9.347
				c6.01-1.034,11.789-3.128,17.067-6.184v61.826l-32.567,44.774C328.856,360.473,322.374,358.478,315.733,358.443z
				 M366.933,348.418v28.779l-4.565,6.846h-21.339L366.933,348.418z M375.879,454.61l-35.669-53.501h22.617l27.446,34.308
				L375.879,454.61z M435.2,494.976h-42.667v-17.067H435.2V494.976z M418.133,460.843h-25.604l12.8-17.067h17.075l12.8,17.067
				H418.133z M426.667,421.585v-64.822l23.575,35.355L426.667,421.585z M451.854,454.61l-14.394-19.193l27.446-34.308h22.617
				L451.854,454.61z M486.704,384.043h-21.337L425.4,324.101c-2.171-3.328-1.248-7.784,2.067-9.975
				c3.218-1.984,7.416-1.206,9.708,1.8L486.704,384.043z"/>
		</g>
	</g>
</g>
<g>
</g>
<g>
</g>
<g>
</g>
<g>
</g>
<g>
</g>
<g>
</g>
<g>
</g>
<g>
</g>
<g>
</g>
<g>
</g>
<g>
</g>
<g>
</g>
<g>
</g>
<g>
</g>
<g>
</g>
</svg>
