<?xml version="1.0" encoding="iso-8859-1"?>
<!-- Generator: Adobe Illustrator 19.0.0, SVG Export Plug-In . SVG Version: 6.00 Build 0)  -->
<svg version="1.1" id="Capa_1" xmlns="http://www.w3.org/2000/svg" xmlns:xlink="http://www.w3.org/1999/xlink" x="0px" y="0px"
	 viewBox="0 0 512 512" style="enable-background:new 0 0 512 512;" xml:space="preserve">
<g>
	<g>
		<g>
			<path d="M375.467,34.133H136.533c-9.421,0.012-17.054,7.646-17.067,17.067v153.6c0.012,9.421,7.646,17.054,17.067,17.067h238.933
				c9.421-0.012,17.054-7.646,17.067-17.067V51.2C392.521,41.779,384.887,34.146,375.467,34.133z M375.467,204.8l-238.933,0.017
				V51.2h238.933V204.8z"/>
			<path d="M162.133,145.067h25.6c2.853-0.001,5.517-1.426,7.1-3.8l8.325-12.492l19.4,45.25c1.343,3.139,4.428,5.175,7.842,5.175
				h0.1c3.454-0.04,6.544-2.159,7.825-5.367l26.208-65.521l26.208,65.521c1.248,3.119,4.21,5.216,7.567,5.358
				c0.125,0.009,0.242,0.009,0.358,0.009c3.233,0.001,6.188-1.825,7.633-4.717l14.708-29.417h28.858c4.713,0,8.533-3.82,8.533-8.533
				S354.58,128,349.867,128h-34.133c-3.232,0-6.187,1.826-7.633,4.717l-8.567,17.133l-27.075-67.683l-0.06-0.091
				c-0.334-0.703-0.762-1.356-1.272-1.943c-0.173-0.288-0.362-0.567-0.567-0.834c-0.273-0.209-0.559-0.403-0.855-0.579
				c-0.579-0.502-1.223-0.924-1.915-1.254l-0.09-0.059c-0.424-0.115-0.857-0.195-1.295-0.239c-1.258-0.468-2.644-0.458-3.895,0.029
				c-0.386,0.042-0.768,0.112-1.143,0.21l-0.083,0.054c-0.723,0.34-1.395,0.78-1.995,1.306c-0.269,0.162-0.529,0.339-0.78,0.529
				c-0.211,0.273-0.405,0.558-0.582,0.854c-0.505,0.582-0.928,1.229-1.259,1.924l-0.06,0.091l-26.483,66.2l-17.483-40.792
				c-1.231-2.881-3.942-4.855-7.061-5.142c-3.119-0.287-6.145,1.159-7.881,3.767L183.167,128h-21.033
				c-4.713,0-8.533,3.82-8.533,8.533S157.421,145.067,162.133,145.067z"/>
			<path d="M384,238.933H281.6c-4.713,0-8.533,3.82-8.533,8.533S276.887,256,281.6,256H384c4.713,0,8.533-3.82,8.533-8.533
				S388.713,238.933,384,238.933z"/>
			<path d="M132.775,240.383c-0.474-0.324-0.99-0.582-1.533-0.767c-0.484-0.245-1-0.419-1.533-0.517
				c-1.664-0.348-3.394-0.167-4.95,0.517c-1.045,0.412-2.001,1.02-2.817,1.792c-1.561,1.634-2.445,3.798-2.475,6.058
				c-0.03,2.855,1.385,5.532,3.761,7.115c2.376,1.584,5.39,1.86,8.014,0.735c1.034-0.434,1.986-1.04,2.817-1.792
				c1.603-1.607,2.494-3.789,2.475-6.058c-0.033-2.259-0.917-4.422-2.475-6.059C133.633,241.067,133.2,240.725,132.775,240.383z"/>
			<path d="M166.908,240.383c-0.474-0.324-0.99-0.582-1.533-0.767c-0.51-0.259-1.059-0.433-1.625-0.517
				c-1.633-0.343-3.334-0.162-4.858,0.517c-1.045,0.412-2.001,1.02-2.817,1.792c-1.561,1.634-2.445,3.798-2.475,6.058
				c0,4.713,3.82,8.533,8.533,8.533s8.533-3.82,8.533-8.533c-0.033-2.259-0.917-4.422-2.475-6.059
				C167.767,241.067,167.333,240.725,166.908,240.383z"/>
			<path d="M460.8,332.8h-17.067c-9.421,0.012-17.054,7.646-17.067,17.067v8.533h-25.6v-8.533
				c-0.015-14.132-11.468-25.585-25.6-25.6H307.2v-34.133h93.867c14.132-0.015,25.585-11.468,25.6-25.6v-51.793
				c34.126-4.27,59.733-33.282,59.733-67.674s-25.607-63.404-59.733-67.674V25.6c-0.015-14.132-11.468-25.585-25.6-25.6H110.933
				c-14.132,0.015-25.585,11.468-25.6,25.6v51.793C51.207,81.663,25.6,110.674,25.6,145.067s25.607,63.404,59.733,67.674v51.793
				c0.015,14.132,11.468,25.585,25.6,25.6H204.8v34.133h-68.267c-14.132,0.015-25.585,11.468-25.6,25.6v8.533h-25.6v-8.533
				c-0.012-9.421-7.646-17.055-17.067-17.067H51.2C22.936,332.831,0.031,355.736,0,384v119.467
				c-0.001,2.264,0.897,4.435,2.498,6.035c1.601,1.601,3.772,2.499,6.035,2.498H76.8c2.264,0.001,4.435-0.897,6.035-2.498
				c1.601-1.601,2.499-3.772,2.498-6.035V409.6h25.6v93.867c-0.001,2.264,0.897,4.435,2.498,6.035
				c1.601,1.601,3.772,2.499,6.035,2.498h273.067c2.264,0.001,4.435-0.897,6.035-2.498c1.601-1.601,2.499-3.772,2.498-6.035V409.6
				h25.6v93.867c-0.001,2.264,0.897,4.435,2.498,6.035c1.601,1.601,3.772,2.499,6.035,2.498h68.267
				c2.264,0.001,4.435-0.897,6.035-2.498c1.601-1.601,2.499-3.772,2.498-6.035V384C511.969,355.736,489.064,332.831,460.8,332.8z
				 M426.667,94.638c24.628,4.136,42.667,25.456,42.667,50.429c0,24.973-18.038,46.293-42.667,50.429V94.638z M85.333,195.496
				c-24.628-4.136-42.667-25.456-42.667-50.429c0-24.973,18.038-46.293,42.667-50.429V195.496z M68.267,494.933h-51.2V384
				c0.019-18.844,15.29-34.115,34.133-34.133h17.067V494.933z M110.933,392.533h-25.6v-17.067h25.6V392.533z M110.933,273.067
				c-4.712-0.003-8.53-3.822-8.533-8.533V25.6c0.003-4.711,3.822-8.53,8.533-8.533h290.133c4.711,0.003,8.53,3.822,8.533,8.533
				v238.933c-0.003,4.712-3.822,8.53-8.533,8.533H110.933z M290.133,290.133v34.133h-68.267v-34.133H290.133z M384,494.933h-99.054
				c17.355-11.329,32.067-26.262,43.138-43.783c18.183-31.817,17.467-64.508-1.792-81.358
				c-11.183-9.356-25.943-13.267-40.292-10.675c-11.616,1.964-22.206,7.857-30,16.692c-7.794-8.835-18.384-14.727-30-16.691
				c-14.349-2.59-29.108,1.32-40.292,10.675c-19.258,16.85-19.975,49.542-1.908,81.142c11.092,17.604,25.848,32.612,43.263,44H128
				v-93.867v-51.2c0.003-4.712,3.822-8.53,8.533-8.533h238.933c4.712,0.003,8.53,3.822,8.533,8.533V494.933z M256,493.542
				c-28.3-17.067-49.008-35.392-57.267-50.859c-14.042-24.567-14.758-48.7-1.792-60.042c5.767-4.752,13.037-7.296,20.509-7.175
				c1.915,0.001,3.827,0.16,5.717,0.475c10.914,1.925,20.311,8.818,25.425,18.65c1.643,2.49,4.426,3.987,7.408,3.987
				s5.766-1.498,7.408-3.987c5.114-9.832,14.511-16.725,25.425-18.65c9.3-1.689,18.875,0.757,26.225,6.7
				c12.967,11.342,12.25,35.475-1.908,60.258C305,458.158,284.3,476.475,256,493.542z M426.667,392.533h-25.6v-17.067h25.6V392.533z
				 M494.933,494.933h-51.2v-93.867v-51.2H460.8c18.844,0.019,34.115,15.29,34.133,34.133V494.933z"/>
		</g>
	</g>
</g>
<g>
</g>
<g>
</g>
<g>
</g>
<g>
</g>
<g>
</g>
<g>
</g>
<g>
</g>
<g>
</g>
<g>
</g>
<g>
</g>
<g>
</g>
<g>
</g>
<g>
</g>
<g>
</g>
<g>
</g>
</svg>
