<?xml version="1.0" encoding="iso-8859-1"?>
<!-- Generator: Adobe Illustrator 19.0.0, SVG Export Plug-In . SVG Version: 6.00 Build 0)  -->
<svg version="1.1" id="Capa_1" xmlns="http://www.w3.org/2000/svg" xmlns:xlink="http://www.w3.org/1999/xlink" x="0px" y="0px"
	 viewBox="0 0 512 512" style="enable-background:new 0 0 512 512;" xml:space="preserve">
<g>
	<g>
		<g>
			<path d="M469.333,0H42.667C19.114,0.028,0.028,19.114,0,42.667v426.667C0.028,492.886,19.114,511.972,42.667,512h426.667
				c23.553-0.028,42.639-19.114,42.667-42.667V42.667C511.972,19.114,492.886,0.028,469.333,0z M494.933,469.333
				c-0.015,14.132-11.468,25.585-25.6,25.6H42.667c-14.132-0.015-25.585-11.468-25.6-25.6V42.667
				c0.015-14.132,11.468-25.585,25.6-25.6h426.667c14.132,0.015,25.585,11.468,25.6,25.6V469.333z"/>
			<path d="M435.2,179.2c9.421-0.011,17.056-7.646,17.067-17.067h17.067c4.713,0,8.533-3.821,8.533-8.533
				c0-4.713-3.82-8.533-8.533-8.533h-17.067c-0.011-9.421-7.645-17.056-17.067-17.067h-17.067v-8.533
				c-0.015-14.132-11.468-25.585-25.6-25.6H384V76.8c-0.011-9.421-7.645-17.056-17.067-17.067V42.667
				c0-4.713-3.82-8.533-8.533-8.533s-8.533,3.82-8.533,8.533v17.067c-9.421,0.011-17.056,7.645-17.067,17.067v17.067h-17.067V76.8
				c-0.011-9.421-7.645-17.056-17.067-17.067V42.667c0-4.713-3.82-8.533-8.533-8.533s-8.533,3.82-8.533,8.533v17.067
				c-9.421,0.011-17.056,7.645-17.067,17.067v17.067h-17.067V76.8c-0.011-9.421-7.645-17.056-17.067-17.067V42.667
				c0-4.713-3.82-8.533-8.533-8.533s-8.533,3.82-8.533,8.533v17.067c-9.421,0.011-17.056,7.645-17.067,17.067v17.067H179.2V76.8
				c-0.011-9.421-7.646-17.056-17.067-17.067V42.667c0-4.713-3.821-8.533-8.533-8.533c-4.713,0-8.533,3.82-8.533,8.533v17.067
				C135.645,59.744,128.011,67.379,128,76.8v17.067h-8.533c-14.132,0.015-25.585,11.468-25.6,25.6V128H76.8
				c-9.421,0.011-17.056,7.645-17.067,17.067H42.667c-4.713,0-8.533,3.821-8.533,8.533c0,4.713,3.82,8.533,8.533,8.533h17.067
				c0.011,9.421,7.645,17.056,17.067,17.067h17.067v17.067H76.8c-9.421,0.011-17.056,7.646-17.067,17.067H42.667
				c-4.713,0-8.533,3.82-8.533,8.533s3.82,8.533,8.533,8.533h17.067c0.011,9.421,7.645,17.056,17.067,17.067h17.067v17.067H76.8
				c-9.421,0.011-17.056,7.646-17.067,17.067H42.667c-4.713,0-8.533,3.82-8.533,8.533s3.82,8.533,8.533,8.533h17.067
				c0.011,9.421,7.645,17.056,17.067,17.067h17.067V332.8H76.8c-9.421,0.011-17.056,7.646-17.067,17.067H42.667
				c-4.713,0-8.533,3.82-8.533,8.533s3.82,8.533,8.533,8.533h17.067c0.011,9.421,7.645,17.056,17.067,17.067h17.067v8.533
				c0.015,14.132,11.468,25.585,25.6,25.6H128V435.2c0.011,9.421,7.645,17.056,17.067,17.067v17.067
				c0,4.713,3.821,8.533,8.533,8.533c4.713,0,8.533-3.82,8.533-8.533v-17.067c9.421-0.011,17.056-7.645,17.067-17.067v-17.067
				h17.067V435.2c0.011,9.421,7.646,17.056,17.067,17.067v17.067c0,4.713,3.82,8.533,8.533,8.533s8.533-3.82,8.533-8.533v-17.067
				c9.421-0.011,17.056-7.645,17.067-17.067v-17.067h17.067V435.2c0.011,9.421,7.646,17.056,17.067,17.067v17.067
				c0,4.713,3.82,8.533,8.533,8.533s8.533-3.82,8.533-8.533v-17.067c9.421-0.011,17.056-7.645,17.067-17.067v-17.067H332.8V435.2
				c0.011,9.421,7.646,17.056,17.067,17.067v17.067c0,4.713,3.82,8.533,8.533,8.533s8.533-3.82,8.533-8.533v-17.067
				c9.421-0.011,17.056-7.645,17.067-17.067v-17.067h8.533c14.132-0.015,25.585-11.468,25.6-25.6V384H435.2
				c9.421-0.011,17.056-7.645,17.067-17.067h17.067c4.713,0,8.533-3.82,8.533-8.533s-3.82-8.533-8.533-8.533h-17.067
				c-0.011-9.421-7.645-17.056-17.067-17.067h-17.067v-17.067H435.2c9.421-0.011,17.056-7.645,17.067-17.067h17.067
				c4.713,0,8.533-3.82,8.533-8.533s-3.82-8.533-8.533-8.533h-17.067c-0.011-9.421-7.645-17.056-17.067-17.067h-17.067v-17.067
				H435.2c9.421-0.011,17.056-7.645,17.067-17.067h17.067c4.713,0,8.533-3.82,8.533-8.533s-3.82-8.533-8.533-8.533h-17.067
				c-0.011-9.421-7.645-17.056-17.067-17.067h-17.067V179.2H435.2z M418.133,145.067H435.2v17.067h-17.067V145.067z M93.867,366.933
				H76.8v-17.067h17.067V366.933z M93.867,298.667H76.8V281.6h17.067V298.667z M93.867,230.4H76.8v-17.067h17.067V230.4z
				 M93.867,162.133H76.8v-17.067h17.067V162.133z M349.867,76.8h17.067v17.067h-17.067V76.8z M281.6,76.8h17.067v17.067H281.6V76.8
				z M213.333,76.8H230.4v17.067h-17.067V76.8z M145.067,76.8h17.067v17.067h-17.067V76.8z M162.133,435.2h-17.067v-17.067h17.067
				V435.2z M230.4,435.2h-17.067v-17.067H230.4V435.2z M298.667,435.2H281.6v-17.067h17.067V435.2z M366.933,435.2h-17.067v-17.067
				h17.067V435.2z M401.067,392.533c-0.005,4.711-3.823,8.529-8.533,8.533H119.467c-4.711-0.005-8.529-3.823-8.533-8.533v-17.067
				v-256c0.005-4.711,3.822-8.529,8.533-8.533h273.067c4.711,0.005,8.529,3.822,8.533,8.533V392.533z M435.2,349.867v17.067h-17.067
				v-17.067H435.2z M435.2,281.6v17.067h-17.067V281.6H435.2z M435.2,213.333V230.4h-17.067v-17.067H435.2z"/>
			<path d="M136.533,145.067c2.855,0.03,5.532-1.385,7.115-3.761c1.584-2.376,1.86-5.39,0.735-8.014
				c-1.251-3.247-4.372-5.389-7.852-5.389s-6.601,2.142-7.852,5.389c-1.122,2.625-0.844,5.638,0.74,8.013
				C131.004,143.679,133.679,145.094,136.533,145.067z"/>
			<path d="M142.591,369.408c-0.419-0.387-0.877-0.731-1.367-1.025c-0.434-0.34-0.925-0.6-1.45-0.767
				c-0.485-0.246-1.003-0.42-1.537-0.517c-1.664-0.348-3.394-0.167-4.95,0.517c-1.033,0.433-1.984,1.039-2.813,1.792
				c-0.773,0.815-1.383,1.772-1.796,2.817c-0.906,2.066-0.906,4.417,0,6.483c0.435,1.034,1.042,1.986,1.796,2.817
				c2.441,2.444,6.125,3.154,9.3,1.792c1.034-0.433,1.987-1.039,2.817-1.792c0.751-0.832,1.357-1.784,1.792-2.817
				c0.479-1.012,0.713-2.123,0.683-3.242c-0.014-1.115-0.246-2.216-0.683-3.242C143.97,371.181,143.362,370.225,142.591,369.408z"/>
			<path d="M375.467,128c-4.713,0-8.533,3.82-8.533,8.533c-0.022,2.27,0.87,4.453,2.475,6.058c1.605,1.605,3.789,2.497,6.058,2.475
				c2.27,0.022,4.453-0.87,6.058-2.475c1.605-1.605,2.497-3.788,2.475-6.058C384,131.82,380.18,128,375.467,128z"/>
			<path d="M381.525,369.408c-0.406-0.366-0.834-0.708-1.279-1.025c-0.475-0.325-0.992-0.582-1.538-0.767
				c-0.485-0.246-1.003-0.42-1.537-0.517c-1.664-0.348-3.394-0.167-4.95,0.517c-1.033,0.433-1.984,1.039-2.813,1.792
				c-0.773,0.815-1.383,1.772-1.796,2.817c-0.906,2.066-0.906,4.417,0,6.483c0.435,1.034,1.042,1.986,1.796,2.817
				c0.829,0.753,1.78,1.359,2.813,1.792c2.067,0.911,4.421,0.911,6.487,0c1.034-0.433,1.987-1.039,2.817-1.792
				c0.751-0.832,1.357-1.784,1.792-2.817c0.478-1.012,0.713-2.123,0.683-3.242c-0.014-1.115-0.246-2.216-0.683-3.242
				C382.883,371.191,382.277,370.239,381.525,369.408z"/>
			<path d="M366.803,229.626c-0.541-11.097-2.528-22.077-5.911-32.659c-0.137-0.918-0.428-1.806-0.859-2.628
				c-4.446-13.816-11.827-26.508-21.636-37.205c-27.284-25.918-66.202-35.55-102.425-25.35
				c-26.305,6.86-49.082,23.332-63.834,46.165c-0.324,0.295-0.623,0.616-0.895,0.96c-0.127,0.291-0.236,0.59-0.327,0.894
				c-5.479,8.946-9.542,18.685-12.044,28.873c-2.095,7.719-2.957,15.72-2.554,23.708c0.44,4.886,1.32,9.722,2.629,14.45
				c1.608,5.422,2.406,11.053,2.367,16.708c-1.256,6.921-4.201,13.424-8.575,18.933c-5.096,7.841-9.904,15.241-6.629,22.983
				c2.622,5.216,7.746,8.715,13.558,9.259c0.541,0.107,1.091,0.16,1.642,0.158c0,13.717,0,20.6,6.763,27.366
				c1.687,1.701,3.733,3.005,5.987,3.817c-0.054,1.008-0.167,2.017-0.267,3.008c-1.411,5.275-0.656,10.894,2.099,15.609
				c2.755,4.714,7.28,8.132,12.568,9.491c9.558,3.208,28.554-0.092,44.6-5.008c0.467,1.05,0.942,2.225,1.396,3.483
				c2.392,6.749,8.744,11.285,15.904,11.358h81.229c5.464-0.012,10.584-2.671,13.737-7.133c3.219-4.556,4.031-10.388,2.179-15.65
				c-3.973-10.216-7.207-20.704-9.679-31.383c1.15-2.517,2.675-5.417,4.383-8.667c11.157-20.051,18.883-41.826,22.858-64.425
				c1.489-8.521,2.068-17.175,1.728-25.818c0.057-0.289,0.098-0.58,0.122-0.873C366.907,229.897,366.82,229.776,366.803,229.626z
				 M294.22,149.758c12.026,3.718,22.967,10.308,31.876,19.201c5.093,5.439,9.367,11.589,12.688,18.259
				c-4.682-1.567-9.125-3.774-13.201-6.559c-11.268-8.904-24.547-14.908-38.675-17.486
				C289.455,158.227,291.968,153.644,294.22,149.758z M281.722,179.76c12.587,1.768,24.444,6.966,34.274,15.023
				c8.976,6.114,19.275,10.01,30.051,11.368c1.455,5.499,2.479,11.102,3.064,16.76c-7.145,0.932-14.209,2.41-21.129,4.42
				c-4.953-20.104-23.72-27.616-54.801-29.892c1.558-5.894,3.518-11.674,5.867-17.299
				C279.954,180.162,280.858,180.034,281.722,179.76z M240.454,148.25c11.866-3.166,24.234-4.003,36.419-2.465
				c-2.723,4.872-5.609,10.375-8.482,16.339c-1.226-0.005-2.455-0.008-3.778-0.008h-2.546c-20.927-0.933-40.788,9.266-52.224,26.816
				c-6.539-2.389-12.915-5.205-19.086-8.428C203.328,164.584,220.794,153.249,240.454,148.25z M261.035,179.296
				c-2.159,5.667-3.919,11.478-5.267,17.39c-3.303-0.063-6.702-0.094-10.214-0.094c-6.223-0.144-12.412-0.971-18.454-2.466
				C235.639,184.375,248.08,178.939,261.035,179.296z M327.104,313.225c-2.33,4.425-4.338,8.25-5.833,11.892
				c-0.426,1.089-0.643,2.248-0.642,3.417c1.96,13.224,5.644,26.134,10.959,38.4l-81.083-0.083
				c-0.456-1.267-0.992-2.387-1.496-3.575c9.854-3.738,18.654-9.812,25.643-17.7c1.822-2.445,2.202-5.675,0.996-8.476
				c-1.206-2.8-3.814-4.744-6.842-5.1c-3.028-0.356-6.016,0.931-7.838,3.376c-7.501,7.243-16.665,12.534-26.689,15.408l-0.003,0
				c-12.79,5.304-26.582,7.761-40.417,7.2c-3.696-1.233-3.696-1.233-3.087-7.183c0.235-2.011,0.367-4.034,0.396-6.059
				c0.951-7.06-3.972-13.565-11.025-14.566c-1.567-1.567-1.766-3.283-1.766-15.3c0.22-8.76-6.405-16.184-15.133-16.958
				c1.054-1.908,2.625-4.325,3.808-6.15c6.261-8.045,10.178-17.662,11.321-27.792c0.12-5.311-0.413-10.617-1.589-15.798
				c0.971-0.188,1.949-0.417,2.91-0.535c5.652-0.288,11.311,0.443,16.704,2.158c1.883,0.458,3.746,0.917,5.588,1.308
				c0.587,0.122,1.184,0.184,1.783,0.183c4.366-0.006,8.023-3.305,8.478-7.647c0.454-4.342-2.441-8.327-6.711-9.236
				c-1.675-0.35-3.371-0.767-5.088-1.192c-7.406-2.264-15.171-3.115-22.892-2.508c-1.382,0.169-2.777,0.487-4.167,0.76
				c-0.009-0.11-0.038-0.208-0.045-0.319c-0.261-6.231,0.455-12.465,2.121-18.475c1.521-6.067,3.692-11.953,6.476-17.554
				c9.186,4.85,18.771,8.904,28.649,12.117l0.041,0.028c0.047,0.02,0.097,0.01,0.145,0.03c11.203,3.876,22.931,6.021,34.78,6.362
				c62.054,0,66.696,10.133,66.696,25.6c0,20.453,0.085,41.482,26.638,48.607C335.491,296.555,331.555,305.025,327.104,313.225z
				 M348.267,253.717c-1.182,6.587-2.585,12.503-4.095,17.979c-13.397-3.166-14.709-10.819-14.835-26.957
				c6.642-2.159,13.46-3.734,20.376-4.706C349.532,244.621,349.049,249.192,348.267,253.717z"/>
		</g>
	</g>
</g>
<g>
</g>
<g>
</g>
<g>
</g>
<g>
</g>
<g>
</g>
<g>
</g>
<g>
</g>
<g>
</g>
<g>
</g>
<g>
</g>
<g>
</g>
<g>
</g>
<g>
</g>
<g>
</g>
<g>
</g>
</svg>
