<?xml version="1.0" encoding="iso-8859-1"?>
<!-- Generator: Adobe Illustrator 19.0.0, SVG Export Plug-In . SVG Version: 6.00 Build 0)  -->
<svg version="1.1" id="Capa_1" xmlns="http://www.w3.org/2000/svg" xmlns:xlink="http://www.w3.org/1999/xlink" x="0px" y="0px"
	 viewBox="0 0 512.2 512.2" style="enable-background:new 0 0 512.2 512.2;" xml:space="preserve">
<g>
	<g>
		<path d="M220.3,88.7c3.1-14-5.1-28-18.9-32.1c-2.3-10.1-9.8-18.2-19.8-21.2c-9.9-2.9-20.7-0.2-28.1,7c-7.4-7.3-18.1-10-28.1-7
			c-9.9,2.9-17.5,11-19.8,21.2c-13.7,4.1-22,18.1-18.9,32.1c-12,10.6-13.5,28.8-3.3,41.2c-2.9,7.1-2.7,15.1,0.4,22.2
			c3.1,7,8.9,12.5,16.2,15.2v0.1c0.3,0.7,0.6,1.4,0.9,2.1c0.1,0.2,0.2,0.4,0.3,0.6c0.2,0.5,0.5,0.9,0.7,1.4c0.1,0.1,0.5,0.8,0.6,1
			c0.5,0.9,1.1,1.8,1.8,2.6l1.1,1.5c1.6,1.9,3.3,3.5,5.3,5l1.3,0.9c1.2,0.8,2.6,1.6,3.9,2.2c1,0.5,1.9,0.9,2.9,1.3l1.7,0.6
			c0.5,0.2,1.1,0.3,1.2,0.3c1.1,0.3,2.2,0.5,3.3,0.7c0.5,0.1,1,0.1,1,0.1c1.3,0.2,2.6,0.3,3.9,0.2c8.9,0,17.5-3.7,23.5-10.3
			c6.1,6.6,14.6,10.3,23.5,10.3c1.1,0,2.2,0,3.3-0.2c0.5,0,1.1-0.1,1.6-0.2c1-0.1,2-0.3,3-0.6c0.5-0.1,1.1-0.3,1.6-0.4l1.8-0.6
			c0.9-0.3,1.8-0.7,2.7-1.2c1.4-0.7,2.8-1.5,4.1-2.4l1.2-0.8c2-1.5,3.9-3.3,5.5-5.2l1-1.3c0.7-1,1.4-2,2-3c0.4-0.6,0.7-1.3,1.1-1.9
			c0.1-0.2,0.2-0.4,0.3-0.6c0.3-0.6,0.6-1.2,0.8-1.8l0.1-0.3c7.2-2.7,13-8.2,16.2-15.2c3.1-7,3.3-15,0.4-22.2
			C233.8,117.5,232.3,99.3,220.3,88.7z M208,121.3c-1.9,1.4-3.1,3.4-3.5,5.7c-0.3,2.3,0.3,4.6,1.7,6.5c1.5,2,2.4,4.4,2.4,6.9
			c0,5.7-4.1,10.5-9.7,11.3c-3.8,1.1-6.7,4.2-7.4,8.1c0,0.1-0.3,1-0.4,1.1l-0.3,0.9c-0.2,0.3-0.3,0.5-0.4,0.8l-0.4,0.8
			c-0.2,0.4-0.5,0.8-0.8,1.2l-0.5,0.7c-0.9,1.1-2,2-3.1,2.8c-0.6,0.4-1.3,0.8-2,1.1c-0.4,0.2-0.8,0.4-1.1,0.5l-1.7,0.5
			c-0.7,0.2-1.4,0.3-2,0.3c-0.5,0.1-1,0.1-1.5,0.1c-8.3,0-15-6.7-15-15c0-4.7-3.8-8.5-8.5-8.5c-4.7,0-8.5,3.8-8.5,8.5
			c0,8.3-6.7,15-15,15c-0.8,0-1.5-0.1-2.3-0.2c-0.7-0.1-1.3-0.2-2-0.4l-0.9-0.3c-0.5-0.2-0.9-0.4-1.4-0.6c-0.9-0.4-1.7-0.9-2.5-1.5
			c-0.9-0.6-1.7-1.4-2.4-2.2l-0.7-0.9c-0.3-0.4-0.6-0.9-0.9-1.3c-0.1-0.2-0.3-0.6-0.5-0.8c-0.1-0.3-0.4-0.9-0.5-1.2
			c0-0.1-0.4-0.8-0.4-0.9c-0.1-0.4-0.3-1.4-0.4-1.7c-0.6-3.6-3.5-6.4-7.1-6.9c-5.6-0.9-9.7-5.7-9.7-11.3c0-2.5,0.8-5,2.4-6.9
			c1.4-1.8,2-4.2,1.7-6.5s-1.6-4.4-3.5-5.7c-3.6-2.6-5.6-6.9-5.3-11.3c0.4-4.4,3-8.4,7-10.3c2.1-1,3.7-2.9,4.4-5.2s0.4-4.7-0.8-6.7
			c-0.9-1.5-1.3-3.2-1.3-5c0-5.7,4.6-10.3,10.3-10.3c2.4-0.1,4.6-1.2,6.2-3c1.6-1.8,2.4-4.3,2.3-6.7c0-4.1,2.2-7.9,5.7-10
			c3.6-2.1,7.9-2.1,11.5,0c3.6,2.1,5.7,5.9,5.7,10c0,4.7,3.8,8.5,8.5,8.5c4.7,0,8.5-3.8,8.5-8.5c0-6.3,5.1-11.5,11.5-11.5
			c3.1,0,6.1,1.4,8.3,3.6c2.2,2.3,3.3,5.3,3.2,8.5c-0.1,2.4,0.7,4.7,2.3,6.4c1.6,1.7,3.9,2.7,6.2,2.7c5.7,0,10.3,4.6,10.3,10.3
			c0,1.8-0.4,3.5-1.3,5c-1.2,2-1.4,4.5-0.8,6.7c0.7,2.3,2.3,4.1,4.4,5.2c4,2,6.7,5.9,7,10.3C213.7,114.4,211.7,118.7,208,121.3z"/>
	</g>
</g>
<g>
	<g>
		<path d="M494.9,307.3h-17.1v-17.1c0-9.4-7.6-17.1-17.1-17.1h-17.1V111c0-14.1-11.5-25.6-25.6-25.6H307.2V25.7
			c0-14.1-11.5-25.6-25.6-25.6h-256C11.5,0.1,0,11.6,0,25.7v204.8c0,14.1,11.5,25.6,25.6,25.6h85.3v17.1
			c-18.8,0-34.1,15.3-34.1,34.1v8.5c0,2.3,0.9,4.4,2.5,6c1.6,1.6,3.8,2.5,6,2.5H128v110.9c0,14.1,11.5,25.6,25.6,25.6h170.7
			c0,9.4,7.6,17.1,17.1,17.1h17.1V495c0,9.4,7.6,17.1,17.1,17.1h119.5c9.4,0,17.1-7.6,17.1-17.1V324.4
			C512,314.9,504.4,307.3,494.9,307.3z M349.8,102.5h0.1h68.3c4.7,0,8.5,3.8,8.5,8.5v119.5h-17.1v-93.9c0-9.4-7.6-17.1-17.1-17.1
			h-42.7V102.5z M426.7,247.6v25.6h-17.1v-25.6H426.7z M307.2,102.5h25.6v17.1h-25.6V102.5z M17.1,25.7c0-4.7,3.8-8.5,8.5-8.5h256
			c4.7,0,8.5,3.8,8.5,8.5v179.2h-273V25.7z M25.6,239c-4.7,0-8.5-3.8-8.5-8.5V222h273.1v8.5c0,4.7-3.8,8.5-8.5,8.5H25.6z
			 M179.2,256.1v17.1H128v-17.1H179.2z M93.9,307.3c0-9.4,7.6-17.1,17.1-17.1h85.3c9.4,0,17.1,7.6,17.1,17.1H93.9z M145,324.4h17.1
			V350H145V324.4z M281.6,443.8h-128c-4.7,0-8.5-3.8-8.5-8.5V367h17.1v51.2c0,2.3,0.9,4.4,2.5,6c1.6,1.6,3.8,2.5,6,2.5h110.9V443.8z
			 M324.3,443.8h-25.6v-17.1h25.6V443.8z M326.8,326.9c-0.7,0.7-1.3,1.6-1.7,2.5c-0.1,0.3-0.2,0.5-0.3,0.8c-0.3,0.7-0.4,1.5-0.5,2.3
			c0,0.2-0.1,0.3-0.1,0.5v76.8h-145v-85.3h42.7c2.3,0,4.4-0.9,6-2.5c1.6-1.6,2.5-3.8,2.5-6v-8.5c0-18.8-15.3-34.1-34.1-34.1v-17.3
			h85.3c14.1,0,25.6-11.5,25.6-25.6v-93.9h85.3v136.5H384c-0.2,0-0.3,0.1-0.5,0.1c-0.8,0-1.5,0.2-2.3,0.5c-0.3,0.1-0.5,0.2-0.8,0.3
			c-0.9,0.4-1.7,1-2.4,1.6L326.8,326.9z M375.5,302.3v22.1h-22.1L375.5,302.3z M341.3,460.9V341.4h34.1c9.4,0,17.1-7.6,17.1-17.1
			v-34.1h68.3v170.7H341.3z M495,495h-0.1H375.5v-17.1h85.3c9.4,0,17.1-7.6,17.1-17.1V324.4H495V495z"/>
	</g>
</g>
<g>
	<g>
		<path d="M435.2,358.5h-68.3c-4.7,0-8.5,3.8-8.5,8.5s3.8,8.5,8.5,8.5h68.3c4.7,0,8.5-3.8,8.5-8.5S439.9,358.5,435.2,358.5z"/>
	</g>
</g>
<g>
	<g>
		<path d="M435.2,392.6h-68.3c-4.7,0-8.5,3.8-8.5,8.5s3.8,8.5,8.5,8.5h68.3c4.7,0,8.5-3.8,8.5-8.5S439.9,392.6,435.2,392.6z"/>
	</g>
</g>
<g>
	<g>
		<path d="M435.2,426.8h-68.3c-4.7,0-8.5,3.8-8.5,8.5s3.8,8.5,8.5,8.5h68.3c4.7,0,8.5-3.8,8.5-8.5S439.9,426.8,435.2,426.8z"/>
	</g>
</g>
<g>
</g>
<g>
</g>
<g>
</g>
<g>
</g>
<g>
</g>
<g>
</g>
<g>
</g>
<g>
</g>
<g>
</g>
<g>
</g>
<g>
</g>
<g>
</g>
<g>
</g>
<g>
</g>
<g>
</g>
</svg>
