<?xml version="1.0" encoding="iso-8859-1"?>
<!-- Generator: Adobe Illustrator 19.0.0, SVG Export Plug-In . SVG Version: 6.00 Build 0)  -->
<svg version="1.1" id="Capa_1" xmlns="http://www.w3.org/2000/svg" xmlns:xlink="http://www.w3.org/1999/xlink" x="0px" y="0px"
	 viewBox="0 0 512 512" style="enable-background:new 0 0 512 512;" xml:space="preserve">
<g>
	<g>
		<g>
			<path d="M366.933,0H145.067c-23.553,0.028-42.639,19.114-42.667,42.667v426.667c0.028,23.553,19.114,42.639,42.667,42.667
				h221.867c23.553-0.028,42.639-19.114,42.667-42.667V42.667C409.572,19.114,390.486,0.028,366.933,0z M310.458,17.067
				l-6.175,12.35c-1.439,2.897-4.399,4.726-7.633,4.717h-81.3c-3.235,0.009-6.194-1.82-7.633-4.717l-6.175-12.35H310.458z
				 M392.533,469.333c-0.015,14.132-11.468,25.585-25.6,25.6H145.067c-14.132-0.015-25.585-11.468-25.6-25.6V42.667
				c0.015-14.132,11.468-25.585,25.6-25.6h37.392l9.992,19.983c4.313,8.695,13.194,14.183,22.9,14.15h81.3
				c9.706,0.033,18.587-5.455,22.9-14.15l9.992-19.983h37.392c14.132,0.015,25.585,11.468,25.6,25.6V469.333z"/>
			<path d="M307.2,460.8H204.8c-4.713,0-8.533,3.82-8.533,8.533s3.82,8.533,8.533,8.533h102.4c4.713,0,8.533-3.82,8.533-8.533
				S311.913,460.8,307.2,460.8z"/>
			<path d="M370.75,384.9l-46.484-23.242V307.2c0.001-2.263-0.898-4.434-2.499-6.035c-1.6-1.6-3.771-2.499-6.035-2.499h-64.964
				l4.789-14.367c0.87-2.602,0.435-5.463-1.168-7.69c-1.603-2.226-4.18-3.545-6.923-3.544H204.8V230.4h34.133
				c9.421-0.011,17.056-7.646,17.067-17.067V204.8h59.733c2.263,0.001,4.434-0.898,6.035-2.499c1.6-1.6,2.499-3.771,2.499-6.035
				v-51.2H358.4c9.421-0.011,17.056-7.645,17.067-17.067V93.867c-0.011-9.421-7.645-17.056-17.067-17.067h-85.333
				c-9.421,0.011-17.056,7.646-17.067,17.067v8.533h-52.412c-4.297-16.643-20.299-27.494-37.35-25.328
				c-17.051,2.166-29.832,16.673-29.832,33.861s12.781,31.695,29.832,33.861c17.051,2.166,33.053-8.685,37.35-25.328H256V128
				c0.011,9.421,7.646,17.056,17.067,17.067H307.2v42.667H256V179.2c-0.011-9.421-7.645-17.056-17.067-17.067H153.6
				c-9.421,0.011-17.056,7.645-17.067,17.067v34.133c0.011,9.421,7.645,17.056,17.067,17.067h34.133v42.667h-25.6
				c-3.672-0.001-6.932,2.349-8.092,5.833l-17.067,51.2c-0.87,2.602-0.435,5.463,1.168,7.69c1.604,2.226,4.18,3.545,6.924,3.544
				H230.4c3.672,0.001,6.932-2.349,8.092-5.833l6.589-19.767H307.2v45.925L262.517,384h-58.928
				c-4.297-16.643-20.299-27.494-37.35-25.328c-17.051,2.166-29.832,16.673-29.832,33.861c0,17.188,12.781,31.695,29.832,33.861
				c17.051,2.166,33.053-8.685,37.35-25.328h58.929l49.4,24.7c2.403,1.2,5.23,1.2,7.633,0l51.2-25.6
				c2.891-1.446,4.717-4.401,4.717-7.633C375.467,389.301,373.641,386.346,370.75,384.9z M170.667,128
				c-9.426,0-17.067-7.641-17.067-17.067s7.641-17.067,17.067-17.067s17.067,7.641,17.067,17.067
				C187.723,120.355,180.088,127.989,170.667,128z M273.067,128V93.867H358.4L358.409,128H273.067z M153.6,213.333V179.2h85.333
				l0.004,17.046l-0.004,0.021l0.004,0.021l0.004,17.046H153.6z M224.25,324.267h-67.342l11.375-34.133h67.342L224.25,324.267z
				 M170.667,409.6c-9.426,0-17.067-7.641-17.067-17.067c0-9.426,7.641-17.067,17.067-17.067s17.067,7.641,17.067,17.067
				C187.723,401.955,180.088,409.589,170.667,409.6z M315.733,408.592l-32.117-16.058l32.117-16.058l32.117,16.058L315.733,408.592z
				"/>
		</g>
	</g>
</g>
<g>
</g>
<g>
</g>
<g>
</g>
<g>
</g>
<g>
</g>
<g>
</g>
<g>
</g>
<g>
</g>
<g>
</g>
<g>
</g>
<g>
</g>
<g>
</g>
<g>
</g>
<g>
</g>
<g>
</g>
</svg>
