<?xml version="1.0" encoding="iso-8859-1"?>
<!-- Generator: Adobe Illustrator 19.0.0, SVG Export Plug-In . SVG Version: 6.00 Build 0)  -->
<svg version="1.1" id="Capa_1" xmlns="http://www.w3.org/2000/svg" xmlns:xlink="http://www.w3.org/1999/xlink" x="0px" y="0px"
	 viewBox="0 0 512.003 512.003" style="enable-background:new 0 0 512.003 512.003;" xml:space="preserve">
<g>
	<g>
		<path d="M469.335,102.403c-23.553,0.028-42.639,19.114-42.667,42.667c0,4.713,3.82,8.533,8.533,8.533s8.533-3.821,8.533-8.533
			c0-14.138,11.462-25.6,25.6-25.6s25.6,11.461,25.6,25.6v68.267c-0.032,15.979-11.137,29.801-26.734,33.274
			c-2.817-18.834-11.612-36.264-25.087-49.72c-24.525-24.521-56.508-26.754-84.579-25.796c-17.331,0.623-34.542,3.14-51.325,7.508
			c-7.351,2.074-14.563,4.614-21.592,7.604c-7.734,3.418-15.783,6.07-24.033,7.921c-21.428,3.497-43.093-4.718-56.814-21.545
			c6.992-4.695,12.234-11.572,14.909-19.558c7.107-21.306,10.727-43.62,10.721-66.08v-1.608
			c-0.031-10.604-4.038-20.811-11.23-28.603C211.08,26.832,185.815,4.72,155.105,0.664c-30.71-4.057-60.85,10.735-76.428,37.51
			c-1.501,2.729-4.349,4.445-7.463,4.496H17.068C7.646,42.679,0.011,50.314,0.001,59.736v34.133
			c0.022,18.842,15.291,34.112,34.133,34.133l53.842,0.138c7.232,8.119,16.116,14.598,26.056,19.003
			c-2.762,6.702-7.851,12.182-14.331,15.43c-2.329,0.775-57.033,19.859-57.033,93.429c0.048,0.727,0.193,1.444,0.431,2.133
			c-0.237,0.689-0.382,1.406-0.431,2.133c-0.073,23.78,9.368,46.602,26.221,63.379c11.624,11.533,26.153,19.704,42.046,23.645v2.576
			c0.004,5.835,1.215,11.607,3.555,16.953c-1.912,1.934-3.629,4.052-5.125,6.322l-25.625,38.7c-2.929,4.514-4.97,9.546-6.014,14.825
			h-0.924c-32.974,0.037-59.696,26.759-59.733,59.733v17.067c0,4.713,3.82,8.533,8.533,8.533h102.4
			c14.132-0.015,25.585-11.468,25.6-25.6v-25.85c0.499-0.674,1.104-1.243,1.567-1.95l25.638-38.708
			c7.838-12.012,9.081-27.17,3.304-40.298c7.787-7.936,12.152-18.609,12.158-29.727v-4.669c8.208-5.479,15.271-12.502,20.797-20.678
			c24.627-11.712,53.219-11.716,77.849-0.01c5.527,8.181,12.593,15.207,20.804,20.688v4.669c0.006,11.115,4.37,21.786,12.153,29.721
			c-5.781,13.152-4.526,28.335,3.339,40.358l5.455,8.236c-27.191,6.181-46.501,30.333-46.546,58.218v17.067
			c0,4.713,3.82,8.533,8.533,8.533h102.4c14.132-0.015,25.585-11.468,25.6-25.6v-25.827c10.685-14.326,11.309-33.793,1.562-48.773
			l-25.571-38.608c-1.504-2.285-3.229-4.417-5.151-6.365c2.343-5.348,3.554-11.122,3.559-16.96v-2.599
			c38.892-9.35,66.764-43.504,68.126-83.482c24.678-4.107,42.781-25.435,42.824-50.453v-68.267
			C511.974,121.517,492.887,102.43,469.335,102.403z M213.335,85.336v1.608c0.007,20.625-3.318,41.115-9.846,60.679
			c-3.291,9.875-13.257,15.905-23.531,14.238c-10.274-1.667-17.823-10.539-17.823-20.947V85.336c0-14.138,11.461-25.6,25.6-25.6
			S213.335,71.198,213.335,85.336z M100.697,116.761c-3.237-3.668-7.883-5.786-12.775-5.825H34.135
			c-9.422-0.009-17.057-7.645-17.067-17.067V59.736h54.146c9.174-0.084,17.62-5.015,22.204-12.962
			c10.33-17.768,29.071-28.976,49.612-29.67s39.996,9.223,51.502,26.253c-2.244-0.412-4.517-0.642-6.798-0.688
			c-23.553,0.028-42.639,19.114-42.667,42.667v51.17C128.127,136.609,111.961,129.415,100.697,116.761z M136.535,486.403
			c-0.006,4.71-3.823,8.527-8.533,8.533H34.135v-8.533c0.028-23.553,19.114-42.639,42.667-42.667h0.881
			c4.027,19.844,21.45,34.121,41.698,34.171c5.905,0.003,11.747-1.22,17.154-3.593V486.403z M166.543,410.524l-25.629,38.696
			c-7.735,11.838-23.598,15.17-35.442,7.444s-15.189-23.586-7.474-35.436l25.629-38.708c0.329-0.503,0.763-0.935,1.129-1.414
			c12.031,11.325,29.58,14.554,44.854,8.254C171.746,396.522,170.624,404.262,166.543,410.524z M179.201,349.869
			c0,14.138-11.461,25.6-25.6,25.6c-14.139,0-25.6-11.461-25.6-25.6v-68.267c0-14.138,11.461-25.6,25.6-25.6
			c14.138,0,25.6,11.462,25.6,25.6V349.869z M196.268,323.325v-41.722c0-23.564-19.103-42.667-42.667-42.667
			c-23.564,0-42.667,19.103-42.667,42.667v41.721c-22.977-23.451-22.721-61.05,0.573-84.186
			c23.294-23.136,60.894-23.136,84.188,0.001C218.99,262.275,219.245,299.874,196.268,323.325z M256.001,298.669
			c-9.652,0.006-19.26,1.298-28.571,3.844c1.564-5.626,2.479-11.412,2.726-17.246c16.894-4.766,34.777-4.768,51.672-0.006
			c0.247,5.836,1.162,11.624,2.726,17.251C275.25,299.969,265.648,298.676,256.001,298.669z M332.784,349.869v-68.267
			c0-14.138,11.461-25.6,25.6-25.6s25.6,11.462,25.6,25.6v68.267c0,14.138-11.462,25.6-25.6,25.6S332.784,364.008,332.784,349.869z
			 M409.584,486.403c-0.006,4.71-3.823,8.527-8.533,8.533h-93.867v-8.533c0.065-22.454,17.548-41.002,39.959-42.393l9.636,14.551
			c6.174,9.496,15.888,16.13,26.979,18.425c2.906,0.611,5.868,0.919,8.837,0.921c5.853-0.017,11.638-1.253,16.988-3.629V486.403z
			 M413.955,421.186c5.022,7.667,5.566,17.433,1.426,25.611c-4.14,8.177-12.333,13.52-21.485,14.012
			c-9.152,0.491-17.87-3.944-22.862-11.631l-25.563-38.6c-4.103-6.274-5.238-14.035-3.103-21.221
			c15.272,6.302,32.819,3.077,44.853-8.244c0.377,0.493,0.819,0.934,1.159,1.456L413.955,421.186z M401.051,323.323L401.051,323.323
			v-41.72c0-23.564-19.103-42.667-42.667-42.667s-42.667,19.103-42.667,42.667v41.721c-22.978-23.451-22.724-61.05,0.57-84.188
			c23.294-23.137,60.895-23.138,84.189-0.001C423.773,262.271,424.029,299.871,401.051,323.323z M452.222,262.868
			c-0.716,20.128-9.751,39.056-24.95,52.271c13.131-26.897,9.414-58.974-9.518-82.156c-18.933-23.182-49.622-33.231-78.599-25.737
			c-28.977,7.493-50.948,31.16-56.269,60.614c-17.668-4.32-36.117-4.319-53.784,0.004c-5.207-29.482-27.086-53.244-56.039-60.862
			c-28.953-7.618-59.693,2.298-78.737,25.399c-19.044,23.101-22.913,55.168-9.911,82.136c-1.14-1.001-2.387-1.882-3.459-2.954
			c-13.641-13.585-21.282-32.061-21.221-51.313c-0.048-0.727-0.193-1.444-0.431-2.133c0.237-0.689,0.382-1.406,0.431-2.133
			c0-60.908,43.55-76.612,45.354-77.233c11.685-5.083,20.823-14.668,25.342-26.582c4.774,0.927,9.624,1.402,14.487,1.42
			c0.805,0,1.626-0.121,2.435-0.146c5.63,17.262,22.868,27.967,40.838,25.358c17.261,24.448,46.957,36.907,76.494,32.092
			c9.366-2.041,18.506-5.009,27.283-8.862c6.364-2.717,12.892-5.031,19.546-6.929c15.574-4.057,31.546-6.393,47.629-6.967
			c25.591-0.921,52.058,0.962,71.904,20.804C445.27,223.218,452.938,242.74,452.222,262.868z"/>
	</g>
</g>
<g>
</g>
<g>
</g>
<g>
</g>
<g>
</g>
<g>
</g>
<g>
</g>
<g>
</g>
<g>
</g>
<g>
</g>
<g>
</g>
<g>
</g>
<g>
</g>
<g>
</g>
<g>
</g>
<g>
</g>
</svg>
