<?xml version="1.0" encoding="iso-8859-1"?>
<!-- Generator: Adobe Illustrator 19.0.0, SVG Export Plug-In . SVG Version: 6.00 Build 0)  -->
<svg version="1.1" id="Capa_1" xmlns="http://www.w3.org/2000/svg" xmlns:xlink="http://www.w3.org/1999/xlink" x="0px" y="0px"
	 viewBox="0 0 512.119 512.119" style="enable-background:new 0 0 512.119 512.119;" xml:space="preserve">
<g>
	<g>
		<path d="M479.827,205.108l-12.666-63.46c12.56-5.998,20.201-19.04,19.292-32.929c-0.909-13.889-10.186-25.824-23.421-30.132
			c-13.235-4.309-27.76-0.122-36.671,10.57l-77.086-48.451c3.541-18.082-7.945-35.7-25.918-39.758s-35.913,6.918-40.484,24.768
			h-79.223c-3.106-12.309-12.803-21.867-25.156-24.796c-12.353-2.929-25.309,1.258-33.611,10.863s-10.571,23.03-5.886,34.828
			L89.885,93.339c-6.045-5.064-13.671-7.855-21.557-7.89c-14.513-0.061-27.464,9.1-32.24,22.805
			c-4.776,13.705-0.324,28.931,11.083,37.903l-7.386,16.658c-1.845-0.343-3.715-0.532-5.591-0.566
			c-17.177-0.037-31.693,12.722-33.862,29.761c-2.168,17.039,8.69,33.027,25.328,37.294v45.09
			c-15.031,3.869-25.553,17.401-25.6,32.922c-0.008,12.611,6.943,24.198,18.073,30.128c11.13,5.93,24.624,5.235,35.086-1.807
			l27.521,24.477c-2.513,4.772-3.843,10.077-3.88,15.469c-0.022,17.681,13.478,32.445,31.09,34.001
			c17.613,1.557,33.492-10.611,36.572-28.022l45.261-3.482c4.337,12.925,15.999,21.992,29.594,23.008
			c13.595,1.016,26.476-6.216,32.686-18.353l46.758,10.842c0.496,18.454,15.579,33.167,34.039,33.205
			c0.441,0,0.851-0.114,1.288-0.13l6.687,22.249c-14.065,8.535-20.025,25.899-14.166,41.272
			c5.859,15.373,21.864,24.366,38.042,21.374c16.178-2.992,27.908-17.113,27.882-33.565c-0.053-1.433-0.197-2.862-0.432-4.277
			l24.221-9.714c9.1,12.456,25.437,17.238,39.817,11.655c14.38-5.582,23.211-20.135,21.523-35.468
			c-1.688-15.333-13.473-27.616-28.723-29.937l-1.964-19.814c12.008-4.379,20.546-15.121,22.104-27.807
			c1.558-12.686-4.129-25.174-14.721-32.328l20.469-57.417c1.017,0.092,1.998,0.307,3.038,0.307
			c18.47,0.039,33.605-14.649,34.12-33.112C512.563,221.608,498.27,206.099,479.827,205.108z M437.018,103.502
			c2.873-5.83,8.809-9.521,15.309-9.52c8.761,0,16.099,6.632,16.981,15.348c0.882,8.716-4.978,16.684-13.562,18.439h-0.057
			l-0.019,0.008c-6.373,1.275-12.918-1.182-16.878-6.335S434.145,109.332,437.018,103.502z M432.251,138.515
			c5.301,3.879,11.617,6.129,18.177,6.476l12.666,63.46c-4.716,2.302-8.838,5.66-12.047,9.813l-58.97-25.309
			c1.226-6.582,0.274-13.384-2.713-19.376L432.251,138.515z M341.761,56.142l77.086,48.451c-1.418,7.005-0.513,14.282,2.576,20.727
			l-42.886,35.063c-5.807-4.312-12.844-6.649-20.077-6.668c-0.201,0-0.386,0.056-0.586,0.06L332.8,63.667
			C336.198,61.693,339.23,59.147,341.761,56.142z M401.363,360.841l-39.921,13.261c-2.609-4.008-6.026-7.425-10.034-10.034
			l13.261-39.921c0.783,0.054,1.529,0.235,2.325,0.235c6.074-0.032,12.026-1.703,17.23-4.837l21.741,21.741
			c-3.134,5.203-4.805,11.156-4.837,17.23C401.128,359.312,401.308,360.058,401.363,360.841z M379.071,302.295l-0.019,0.013
			l-0.013,0.019c-6.679,6.662-17.493,6.651-24.16-0.023c-6.666-6.675-6.663-17.489,0.008-24.16s17.485-6.674,24.16-0.008
			C385.723,284.801,385.733,295.616,379.071,302.295z M280.002,246.145l54.852-33.745c4.913,4.723,11.133,7.859,17.851,9
			l3.044,36.771c-7.58,2.668-13.973,7.928-18.052,14.852l-56.119-16.075c0.007-0.283,0.084-0.547,0.084-0.832
			C281.613,252.727,281.053,249.366,280.002,246.145z M153.661,273.182c0,9.426-7.641,17.067-17.067,17.067
			s-17.067-7.641-17.067-17.067s7.641-17.067,17.067-17.067C146.016,256.125,153.652,263.76,153.661,273.182z M141.547,174.303
			c-6.666-6.675-6.663-17.489,0.008-24.16c6.671-6.671,17.485-6.674,24.16-0.008c6.675,6.666,6.685,17.48,0.023,24.16l-0.019,0.013
			l-0.013,0.019C159.028,180.988,148.213,180.977,141.547,174.303z M150.08,241.85l6.989-45.813
			c4.879-0.474,9.596-2.008,13.822-4.492l47.341,47.341c-2.485,4.226-4.018,8.943-4.492,13.822l-45.813,6.989
			C164.461,251.696,158.08,245.316,150.08,241.85z M182.957,179.479c4.303-6.965,5.811-15.3,4.22-23.331l51.162-23.555
			c3.69,4.537,8.485,8.049,13.924,10.197l-9.362,79.661c-4.45,0.602-8.735,2.088-12.603,4.369L182.957,179.479z M247.528,111.049
			c0-9.426,7.641-17.067,17.067-17.067c9.426,0,17.067,7.641,17.067,17.067c-0.009,9.422-7.645,17.057-17.067,17.067
			C255.169,128.116,247.528,120.475,247.528,111.049z M235.451,244.07l0.019-0.013l0.013-0.019
			c4.881-4.876,12.218-6.331,18.591-3.687c6.372,2.644,10.525,8.865,10.521,15.764c0.034,5.195-2.316,10.118-6.375,13.36
			c-4.059,3.242-9.381,4.444-14.439,3.262l-0.04-0.018l-0.02-0.001c-6.048-1.373-10.871-5.926-12.591-11.884
			C229.409,254.877,231.065,248.454,235.451,244.07z M259.859,224.376l9.362-79.661c5.587-0.746,10.898-2.877,15.45-6.2
			l42.886,35.063c-3.674,7.564-4.238,16.267-1.57,24.242l-54.851,33.744C267.888,228.448,264.055,226.005,259.859,224.376z
			 M358.461,204.916c-9.426,0-17.067-7.641-17.067-17.067s7.641-17.067,17.067-17.067s17.067,7.641,17.067,17.067
			C375.518,197.271,367.883,204.906,358.461,204.916z M315.794,17.182c9.426,0,17.067,7.641,17.067,17.067
			s-7.641,17.067-17.067,17.067s-17.067-7.641-17.067-17.067C298.737,24.827,306.372,17.192,315.794,17.182z M304.629,66.351
			c3.58,1.303,7.356,1.99,11.166,2.031c0.201,0,0.386-0.056,0.586-0.06l25.074,90.108c-1.058,0.596-2.083,1.248-3.071,1.953
			l-42.886-35.063c5.832-12.283,3.639-26.875-5.546-36.901L304.629,66.351z M203.649,42.782h79.223
			c1.362,5.234,3.955,10.067,7.563,14.096L275.76,78.947c-10.524-3.88-22.299-2.132-31.242,4.637L201.632,48.52
			C202.475,46.672,203.15,44.752,203.649,42.782z M233.69,96.778c-3.063,6.326-3.98,13.479-2.612,20.373l-51.162,23.555
			c-3.567-4.408-8.175-7.857-13.41-10.037l8.306-62.699c5.78-0.673,11.289-2.827,15.991-6.255L233.69,96.778z M170.728,17.182
			c9.426,0,17.067,7.641,17.067,17.067s-7.641,17.067-17.067,17.067s-17.067-7.641-17.067-17.067
			C153.67,24.827,161.306,17.192,170.728,17.182z M149.171,60.493c2.618,2.208,5.555,4.007,8.711,5.336l-8.306,62.699
			c-8.333,0.998-16,5.053-21.513,11.381l-26.379-13.192c1.438-6.514,0.871-13.311-1.626-19.496L149.171,60.493z M93.926,141.921
			l26.379,13.193c-0.51,2.344-0.77,4.736-0.777,7.135c0,0.285,0.078,0.549,0.084,0.832l-56.119,16.075
			c-2.121-3.587-4.88-6.755-8.142-9.348l7.386-16.658c1.845,0.343,3.715,0.532,5.591,0.566
			C78.167,153.683,87.508,149.38,93.926,141.921z M68.328,102.516c9.426,0,17.067,7.641,17.067,17.067s-7.641,17.067-17.067,17.067
			s-17.067-7.641-17.067-17.067C51.27,110.161,58.906,102.525,68.328,102.516z M17.128,196.382c0-9.426,7.641-17.067,17.067-17.067
			s17.067,7.641,17.067,17.067s-7.641,17.067-17.067,17.067C24.772,213.44,17.137,205.804,17.128,196.382z M34.194,324.382
			c-9.426,0-17.067-7.641-17.067-17.067c0.009-9.422,7.645-17.057,17.067-17.067c9.426,0,17.067,7.641,17.067,17.067
			S43.62,324.382,34.194,324.382z M42.728,274.394v-45.09c15.031-3.869,25.553-17.401,25.6-32.922c0-0.285-0.078-0.549-0.084-0.832
			l56.119-16.075c3.646,6.257,9.182,11.195,15.813,14.106l-6.989,45.813c-17.394,1.711-30.671,16.31-30.726,33.789
			c0,0.796,0.181,1.542,0.235,2.325l-39.921,13.262C58.118,281.646,50.968,276.519,42.728,274.394z M64.447,322.785
			c2.513-4.772,3.843-10.077,3.88-15.469c0-0.796-0.181-1.542-0.235-2.325l39.921-13.261c3.111,4.717,7.342,8.591,12.316,11.274
			l-9.587,38.471c-6.691,0.036-13.223,2.05-18.773,5.787L64.447,322.785z M126.551,382.67c-2.763,6.104-8.856,10.013-15.556,9.979
			c-7.884,0.047-14.774-5.312-16.668-12.965s1.699-15.607,8.694-19.244c6.995-3.637,15.571-2.008,20.746,3.939l0.007,0.012
			l0.008,0.006C128.228,369.408,129.313,376.566,126.551,382.67z M130.215,347.41c-0.929-0.636-1.964-1.105-2.955-1.648
			l9.587-38.471c17.375-0.176,31.829-13.408,33.536-30.7l45.813-6.989c0.26,0.602,0.64,1.133,0.933,1.717L130.215,347.41z
			 M188.399,361.069l-45.261,3.482c-0.494-1.445-1.086-2.855-1.772-4.22l86.897-76.079c1.152,0.737,2.346,1.405,3.578,1.999
			l-10.842,46.758C204.857,333.459,191.247,345.174,188.399,361.069z M238.55,370.796l-0.018,0.041l0,0.02
			c-1.511,6.783-6.967,11.983-13.815,13.167s-13.733-1.882-17.434-7.764s-3.486-13.416,0.544-19.077s11.079-8.33,17.848-6.757
			l0.04,0.018l0.029,0.003c4.411,0.975,8.248,3.675,10.654,7.498C238.805,361.77,239.579,366.397,238.55,370.796z M302.726,376.962
			l-46.758-10.842c-0.358-12.347-7.384-23.528-18.353-29.207l10.842-46.758c3.154-0.109,6.277-0.66,9.277-1.638l50.416,80.72
			C305.992,371.549,304.167,374.149,302.726,376.962z M272.24,279.528c1.757-1.883,3.295-3.958,4.586-6.186l56.119,16.075
			c-0.007,0.283-0.084,0.547-0.084,0.832c0.016,11.553,5.883,22.311,15.587,28.581l-13.262,39.921
			c-0.783-0.054-1.529-0.235-2.325-0.235c-3.471,0.048-6.913,0.632-10.205,1.732L272.24,279.528z M332.861,409.716
			c-5.192,0.033-10.114-2.315-13.355-6.371s-4.447-9.374-3.271-14.431l0.022-0.052l0-0.02c2-8.694,10.363-14.378,19.183-13.036
			c8.82,1.342,15.115,9.256,14.438,18.152C349.202,402.853,341.782,409.723,332.861,409.716z M372.58,487.631
			c-3.18,4.666-8.472,7.447-14.119,7.418c-8.571,0.007-15.818-6.344-16.935-14.842c-1.117-8.498,4.241-16.507,12.523-18.715
			c8.282-2.209,16.917,2.068,20.18,9.993c0.024,0.066,0.01,0.135,0.037,0.201l0.054,0.091
			C376.412,477.023,375.76,482.965,372.58,487.631z M409.661,443.849c0.053,1.433,0.197,2.862,0.432,4.277l-24.221,9.714
			c-6.384-8.767-16.566-13.963-27.411-13.991c-0.441,0-0.851,0.114-1.287,0.13l-6.687-22.249
			c10.214-6.136,16.475-17.166,16.508-29.081c0-0.796-0.181-1.542-0.235-2.325l39.921-13.262
			c5.295,8.116,13.796,13.593,23.374,15.06l1.964,19.814C418.622,416.848,409.701,429.581,409.661,443.849z M450.44,428.124
			c6.321,2.668,10.427,8.864,10.421,15.725c0.004,8.147-5.755,15.16-13.747,16.742c-7.992,1.581-15.988-2.71-19.087-10.245
			c-0.024-0.066-0.01-0.135-0.037-0.201l-0.048-0.074c-2.51-6.385-0.949-13.653,3.963-18.444
			C436.815,426.837,444.12,425.456,450.44,428.124z M451.744,362.945c-2.003,7.456-8.762,12.639-16.483,12.637
			c-6.899,0.004-13.121-4.149-15.765-10.521c-2.644-6.372-1.188-13.71,3.688-18.591l0.019-0.013l0.013-0.019
			c5.466-5.452,13.912-6.554,20.595-2.688C450.492,347.617,453.746,355.489,451.744,362.945z M438.299,324.689
			c-1.016-0.092-1.998-0.307-3.038-0.307c-6.074,0.032-12.026,1.703-17.23,4.837l-21.741-21.741
			c3.134-5.203,4.805-11.156,4.837-17.23c-0.039-16.597-12.016-30.758-28.377-33.551l-3.044-36.771
			c6.19-2.179,11.619-6.1,15.633-11.291l58.97,25.309c-0.301,1.686-0.474,3.393-0.516,5.105
			c0.006,11.308,5.614,21.878,14.974,28.223L438.299,324.689z M479.274,254.095c-8.76,1.31-16.927-4.72-18.254-13.478
			c-1.326-8.758,4.689-16.936,13.444-18.279l0.101-0.01l0.018-0.008c8.765-1.277,16.91,4.784,18.203,13.547
			C494.08,244.63,488.034,252.785,479.274,254.095z"/>
	</g>
</g>
<g>
</g>
<g>
</g>
<g>
</g>
<g>
</g>
<g>
</g>
<g>
</g>
<g>
</g>
<g>
</g>
<g>
</g>
<g>
</g>
<g>
</g>
<g>
</g>
<g>
</g>
<g>
</g>
<g>
</g>
</svg>
