<?xml version="1.0" encoding="iso-8859-1"?>
<!-- Generator: Adobe Illustrator 19.0.0, SVG Export Plug-In . SVG Version: 6.00 Build 0)  -->
<svg version="1.1" id="Capa_1" xmlns="http://www.w3.org/2000/svg" xmlns:xlink="http://www.w3.org/1999/xlink" x="0px" y="0px"
	 viewBox="0 0 512 512" style="enable-background:new 0 0 512 512;" xml:space="preserve">
<g>
	<g>
		<g>
			<path d="M486.4,0H25.6C11.468,0.015,0.015,11.468,0,25.6v460.8c0.015,14.132,11.468,25.585,25.6,25.6h460.8
				c14.132-0.015,25.585-11.468,25.6-25.6V25.6C511.985,11.468,500.532,0.015,486.4,0z M494.933,486.4
				c-0.005,4.711-3.822,8.529-8.533,8.533H25.6c-4.711-0.005-8.529-3.822-8.533-8.533V85.333h477.867V486.4z M494.933,68.267H17.067
				V25.6c0.005-4.711,3.822-8.529,8.533-8.533h460.8c4.711,0.005,8.529,3.822,8.533,8.533V68.267z"/>
			<path d="M45.908,34.813c-1.557-0.679-3.287-0.857-4.95-0.508c-0.534,0.091-1.051,0.263-1.533,0.508
				c-0.546,0.187-1.064,0.447-1.542,0.771c-0.446,0.315-0.872,0.657-1.275,1.025c-0.79,0.8-1.4,1.759-1.792,2.813
				c-0.911,2.066-0.911,4.421,0,6.487c0.433,1.034,1.039,1.987,1.792,2.817c1.627,1.572,3.796,2.459,6.059,2.475
				c1.115-0.014,2.216-0.246,3.242-0.683c0.524-0.171,1.015-0.432,1.45-0.771c0.508-0.338,0.942-0.679,1.367-1.021
				c3.3-3.365,3.3-8.752,0-12.117C47.91,35.835,46.953,35.225,45.908,34.813z"/>
			<path d="M70.741,36.608c-1.574,1.625-2.461,3.796-2.475,6.059c0.014,1.115,0.246,2.216,0.683,3.242
				c0.432,1.034,1.038,1.987,1.791,2.817c1.636,1.558,3.8,2.441,6.059,2.475c2.262-0.019,4.43-0.905,6.059-2.475
				c3.3-3.365,3.3-8.752,0-12.117C79.437,33.449,74.163,33.449,70.741,36.608z"/>
			<path d="M115.708,35.583c-0.474-0.324-0.99-0.583-1.533-0.771c-0.51-0.258-1.059-0.43-1.625-0.508
				c-2.78-0.504-5.633,0.352-7.675,2.304c-3.3,3.365-3.3,8.752,0,12.117c1.636,1.558,3.799,2.442,6.058,2.475
				c0.542-0.016,1.083-0.073,1.617-0.171c0.566-0.082,1.115-0.255,1.625-0.513c0.543-0.188,1.059-0.447,1.533-0.771
				c0.449-0.313,0.878-0.654,1.284-1.021c3.3-3.365,3.3-8.752,0-12.117C116.586,36.24,116.157,35.898,115.708,35.583z"/>
			<path d="M315.733,34.133H196.267c-4.713,0-8.533,3.82-8.533,8.533s3.82,8.533,8.533,8.533h119.467
				c4.713,0,8.533-3.82,8.533-8.533S320.446,34.133,315.733,34.133z"/>
			<path d="M469.333,34.133H460.8c-4.713,0-8.533,3.82-8.533,8.533s3.821,8.533,8.533,8.533h8.533c4.713,0,8.533-3.82,8.533-8.533
				S474.046,34.133,469.333,34.133z"/>
			<path d="M426.667,34.133h-8.533c-4.713,0-8.533,3.82-8.533,8.533s3.82,8.533,8.533,8.533h8.533c4.713,0,8.533-3.82,8.533-8.533
				S431.38,34.133,426.667,34.133z"/>
			<path d="M93.867,238.933h17.067c9.421-0.011,17.056-7.646,17.067-17.067V204.8c-0.011-9.421-7.645-17.056-17.067-17.067H93.867
				c-9.421,0.011-17.056,7.646-17.067,17.067v17.067C76.811,231.288,84.445,238.923,93.867,238.933z M93.867,204.8h17.067
				l0.009,17.067H93.867V204.8z"/>
			<path d="M110.933,358.4v17.067c0.011,9.421,7.645,17.056,17.067,17.067h17.067c9.421-0.011,17.056-7.645,17.067-17.067V358.4
				c-0.011-9.421-7.646-17.056-17.067-17.067H128C118.579,341.344,110.944,348.979,110.933,358.4z M145.075,375.467H128V358.4
				h17.067L145.075,375.467z"/>
			<path d="M59.733,469.333H76.8c9.421-0.011,17.056-7.646,17.067-17.067V435.2c-0.011-9.421-7.646-17.056-17.067-17.067H59.733
				c-9.421,0.011-17.056,7.645-17.067,17.067v17.067C42.677,461.688,50.312,469.323,59.733,469.333z M59.733,435.2H76.8
				l0.009,17.067H59.733V435.2z"/>
			<path d="M51.2,238.933c2.263,0.001,4.434-0.898,6.035-2.499c1.6-1.6,2.499-3.771,2.499-6.035v-34.133
				c0-4.713-3.82-8.533-8.533-8.533s-8.533,3.82-8.533,8.533V230.4c-0.001,2.263,0.898,4.434,2.499,6.035
				C46.766,238.035,48.937,238.934,51.2,238.933z"/>
			<path d="M153.6,238.933c2.263,0.001,4.434-0.898,6.035-2.499c1.6-1.6,2.499-3.771,2.499-6.035v-34.133
				c0-4.713-3.821-8.533-8.533-8.533c-4.713,0-8.533,3.82-8.533,8.533V230.4c-0.001,2.263,0.898,4.434,2.499,6.035
				C149.166,238.035,151.337,238.934,153.6,238.933z"/>
			<path d="M187.733,238.933c2.263,0.001,4.434-0.898,6.035-2.499c1.6-1.6,2.499-3.771,2.499-6.035v-34.133
				c0-4.713-3.82-8.533-8.533-8.533s-8.533,3.82-8.533,8.533V230.4c-0.001,2.263,0.898,4.434,2.499,6.035
				C183.299,238.035,185.47,238.934,187.733,238.933z"/>
			<path d="M51.2,392.533c2.263,0.001,4.434-0.898,6.035-2.499c1.6-1.6,2.499-3.771,2.499-6.035v-34.133
				c0-4.713-3.82-8.533-8.533-8.533s-8.533,3.82-8.533,8.533V384c-0.001,2.263,0.898,4.434,2.499,6.035
				C46.766,391.635,48.937,392.534,51.2,392.533z"/>
			<path d="M85.333,341.333c-2.263-0.001-4.434,0.898-6.035,2.499c-1.6,1.6-2.499,3.771-2.499,6.035V384
				c0,4.713,3.82,8.533,8.533,8.533s8.533-3.82,8.533-8.533v-34.133c0.001-2.263-0.898-4.434-2.499-6.035
				C89.768,342.232,87.597,341.333,85.333,341.333z"/>
			<path d="M119.467,418.133c-2.263-0.001-4.434,0.898-6.035,2.499c-1.6,1.6-2.499,3.771-2.499,6.035V460.8
				c0,4.713,3.82,8.533,8.533,8.533S128,465.513,128,460.8v-34.133c0.001-2.263-0.898-4.434-2.499-6.035
				C123.901,419.032,121.73,418.133,119.467,418.133z"/>
			<path d="M153.6,418.133c-2.263-0.001-4.434,0.898-6.035,2.499c-1.6,1.6-2.499,3.771-2.499,6.035V460.8
				c0,4.713,3.821,8.533,8.533,8.533c4.713,0,8.533-3.82,8.533-8.533v-34.133c0.001-2.263-0.898-4.434-2.499-6.035
				C158.034,419.032,155.863,418.133,153.6,418.133z"/>
			<path d="M256,341.333c-2.263-0.001-4.434,0.898-6.035,2.499c-1.6,1.6-2.499,3.771-2.499,6.035V384
				c0,4.713,3.82,8.533,8.533,8.533s8.533-3.82,8.533-8.533v-34.133c0.001-2.263-0.898-4.434-2.499-6.035
				C260.434,342.232,258.263,341.333,256,341.333z"/>
			<path d="M298.667,238.933h17.067c9.421-0.011,17.056-7.646,17.067-17.067V204.8c-0.011-9.421-7.645-17.056-17.067-17.067h-17.067
				c-9.421,0.011-17.056,7.646-17.067,17.067v17.067C281.611,231.288,289.245,238.923,298.667,238.933z M298.667,204.8h17.067
				l0.009,17.067h-17.075V204.8z"/>
			<path d="M384,204.8v17.067c0.011,9.421,7.646,17.056,17.067,17.067h17.067c9.421-0.011,17.056-7.646,17.067-17.067V204.8
				c-0.011-9.421-7.645-17.056-17.067-17.067h-17.067C391.646,187.744,384.011,195.379,384,204.8z M418.142,221.867h-17.075V204.8
				h17.067L418.142,221.867z"/>
			<path d="M213.333,204.8v17.067c0.011,9.421,7.645,17.056,17.067,17.067h17.067c9.421-0.011,17.056-7.646,17.067-17.067V204.8
				c-0.011-9.421-7.645-17.056-17.067-17.067H230.4C220.979,187.744,213.344,195.379,213.333,204.8z M247.475,221.867H230.4V204.8
				h17.067L247.475,221.867z"/>
			<path d="M213.333,341.333h-17.067c-9.421,0.011-17.056,7.645-17.067,17.067v17.067c0.011,9.421,7.645,17.056,17.067,17.067
				h17.067c9.421-0.011,17.056-7.645,17.067-17.067V358.4C230.389,348.979,222.755,341.344,213.333,341.333z M196.267,375.467V358.4
				h17.067l0.008,17.067H196.267z"/>
			<path d="M213.333,418.133h-17.067c-9.421,0.011-17.056,7.645-17.067,17.067v17.067c0.011,9.421,7.645,17.056,17.067,17.067
				h17.067c9.421-0.011,17.056-7.646,17.067-17.067V435.2C230.389,425.779,222.755,418.144,213.333,418.133z M196.267,452.267V435.2
				h17.067l0.008,17.067H196.267z"/>
			<path d="M298.667,392.533h17.067c9.421-0.011,17.056-7.645,17.067-17.067V358.4c-0.011-9.421-7.645-17.056-17.067-17.067h-17.067
				c-9.421,0.011-17.056,7.645-17.067,17.067v17.067C281.611,384.888,289.245,392.523,298.667,392.533z M298.667,358.4h17.067
				l0.009,17.067h-17.075V358.4z"/>
			<path d="M315.733,435.2v17.067c0.011,9.421,7.646,17.056,17.067,17.067h17.067c9.421-0.011,17.056-7.646,17.067-17.067V435.2
				c-0.011-9.421-7.645-17.056-17.067-17.067H332.8C323.379,418.144,315.744,425.779,315.733,435.2z M349.875,452.267H332.8V435.2
				h17.067L349.875,452.267z"/>
			<path d="M452.267,418.133H435.2c-9.421,0.011-17.056,7.645-17.067,17.067v17.067c0.011,9.421,7.645,17.056,17.067,17.067h17.067
				c9.421-0.011,17.056-7.646,17.067-17.067V435.2C469.323,425.779,461.688,418.144,452.267,418.133z M435.2,452.267V435.2h17.067
				l0.009,17.067H435.2z"/>
			<path d="M358.4,238.933c2.263,0.001,4.434-0.898,6.035-2.499c1.6-1.6,2.499-3.771,2.499-6.035v-34.133
				c0-4.713-3.82-8.533-8.533-8.533s-8.533,3.82-8.533,8.533V230.4c-0.001,2.263,0.898,4.434,2.499,6.035
				C353.966,238.035,356.137,238.934,358.4,238.933z"/>
			<path d="M358.4,392.533c2.263,0.001,4.434-0.898,6.035-2.499c1.6-1.6,2.499-3.771,2.499-6.035v-34.133
				c0-4.713-3.82-8.533-8.533-8.533s-8.533,3.82-8.533,8.533V384c-0.001,2.263,0.898,4.434,2.499,6.035
				C353.966,391.635,356.137,392.534,358.4,392.533z"/>
			<path d="M392.533,418.133c-2.263-0.001-4.434,0.898-6.035,2.499c-1.6,1.6-2.499,3.771-2.499,6.035V460.8
				c0,4.713,3.821,8.533,8.533,8.533c4.713,0,8.533-3.82,8.533-8.533v-34.133c0.001-2.263-0.898-4.434-2.499-6.035
				C396.968,419.032,394.797,418.133,392.533,418.133z"/>
			<path d="M392.533,341.333c-2.263-0.001-4.434,0.898-6.035,2.499c-1.6,1.6-2.499,3.771-2.499,6.035V384
				c0,4.713,3.821,8.533,8.533,8.533c4.713,0,8.533-3.82,8.533-8.533v-34.133c0.001-2.263-0.898-4.434-2.499-6.035
				C396.968,342.232,394.797,341.333,392.533,341.333z"/>
			<path d="M256,418.133c-2.263-0.001-4.434,0.898-6.035,2.499c-1.6,1.6-2.499,3.771-2.499,6.035V460.8
				c0,4.713,3.82,8.533,8.533,8.533s8.533-3.82,8.533-8.533v-34.133c0.001-2.263-0.898-4.434-2.499-6.035
				C260.434,419.032,258.263,418.133,256,418.133z"/>
			<path d="M290.133,469.333c2.263,0.001,4.434-0.898,6.035-2.499c1.6-1.6,2.499-3.771,2.499-6.035v-34.133
				c0-4.713-3.82-8.533-8.533-8.533s-8.533,3.82-8.533,8.533V460.8c-0.001,2.263,0.898,4.434,2.499,6.035
				C285.699,468.435,287.87,469.334,290.133,469.333z"/>
			<path d="M418.133,281.6v17.067c0.011,9.421,7.645,17.056,17.067,17.067h17.067c9.421-0.011,17.056-7.645,17.067-17.067V281.6
				c-0.011-9.421-7.646-17.056-17.067-17.067H435.2C425.779,264.544,418.144,272.179,418.133,281.6z M452.267,298.667H435.2V281.6
				h17.067V298.667z"/>
			<path d="M392.533,264.533c-2.263-0.001-4.434,0.898-6.035,2.499c-1.6,1.6-2.499,3.771-2.499,6.035V307.2
				c0,4.713,3.821,8.533,8.533,8.533c4.713,0,8.533-3.82,8.533-8.533v-34.133c0.001-2.263-0.898-4.434-2.499-6.035
				C396.968,265.432,394.797,264.533,392.533,264.533z"/>
			<path d="M358.4,315.733c2.263,0.001,4.434-0.898,6.035-2.499c1.6-1.6,2.499-3.771,2.499-6.035v-34.133
				c0-4.713-3.82-8.533-8.533-8.533s-8.533,3.821-8.533,8.533V307.2c-0.001,2.263,0.898,4.434,2.499,6.035
				C353.966,314.835,356.137,315.734,358.4,315.733z"/>
			<path d="M298.667,315.733h17.067c9.421-0.011,17.056-7.645,17.067-17.067V281.6c-0.011-9.421-7.645-17.056-17.067-17.067h-17.067
				c-9.421,0.011-17.056,7.646-17.067,17.067v17.067C281.611,308.088,289.245,315.723,298.667,315.733z M298.667,281.6h17.067
				v17.067h-17.067V281.6z"/>
			<path d="M162.133,315.733H179.2c9.421-0.011,17.056-7.645,17.067-17.067V281.6c-0.011-9.421-7.645-17.056-17.067-17.067h-17.067
				c-9.421,0.011-17.056,7.646-17.067,17.067v17.067C145.077,308.088,152.712,315.723,162.133,315.733z M162.133,281.6H179.2v17.067
				h-17.067V281.6z"/>
			<path d="M59.733,315.733H76.8c9.421-0.011,17.056-7.645,17.067-17.067V281.6c-0.011-9.421-7.646-17.056-17.067-17.067H59.733
				c-9.421,0.011-17.056,7.646-17.067,17.067v17.067C42.677,308.088,50.312,315.723,59.733,315.733z M59.733,281.6H76.8v17.067
				H59.733V281.6z"/>
			<path d="M128,307.2v-34.133c0-4.713-3.82-8.533-8.533-8.533s-8.533,3.821-8.533,8.533V307.2c0,4.713,3.82,8.533,8.533,8.533
				S128,311.913,128,307.2z"/>
			<path d="M256,264.533c-2.263-0.001-4.434,0.898-6.035,2.499c-1.6,1.6-2.499,3.771-2.499,6.035V307.2
				c0,4.713,3.82,8.533,8.533,8.533s8.533-3.82,8.533-8.533v-34.133c0.001-2.263-0.898-4.434-2.499-6.035
				C260.434,265.432,258.263,264.533,256,264.533z"/>
			<path d="M221.867,264.533c-2.263-0.001-4.434,0.898-6.035,2.499c-1.6,1.6-2.499,3.771-2.499,6.035V307.2
				c0,4.713,3.82,8.533,8.533,8.533s8.533-3.82,8.533-8.533v-34.133c0.001-2.263-0.898-4.434-2.499-6.035
				C226.301,265.432,224.13,264.533,221.867,264.533z"/>
			<path d="M435.2,384v-34.133c0-4.713-3.82-8.533-8.533-8.533s-8.533,3.82-8.533,8.533V384c0,4.713,3.82,8.533,8.533,8.533
				S435.2,388.713,435.2,384z"/>
			<path d="M460.8,341.333c-2.263-0.001-4.434,0.898-6.035,2.499c-1.6,1.6-2.499,3.771-2.499,6.035V384
				c0,4.713,3.821,8.533,8.533,8.533s8.533-3.82,8.533-8.533v-34.133c0.001-2.263-0.898-4.434-2.499-6.035
				C465.234,342.232,463.063,341.333,460.8,341.333z"/>
			<path d="M366.933,162.133H384c9.421-0.011,17.056-7.646,17.067-17.067V128c-0.011-9.421-7.646-17.056-17.067-17.067h-17.067
				c-9.421,0.011-17.056,7.645-17.067,17.067v17.067C349.877,154.488,357.512,162.123,366.933,162.133z M366.933,128H384v17.067
				h-17.067V128z"/>
			<path d="M460.8,162.133c2.263,0.001,4.434-0.898,6.035-2.499c1.6-1.6,2.499-3.771,2.499-6.035v-34.133
				c0-4.713-3.82-8.533-8.533-8.533s-8.533,3.82-8.533,8.533V153.6c-0.001,2.263,0.898,4.434,2.499,6.035
				C456.366,161.235,458.537,162.134,460.8,162.133z"/>
			<path d="M426.667,162.133c2.263,0.001,4.434-0.898,6.035-2.499c1.6-1.6,2.499-3.771,2.499-6.035v-34.133
				c0-4.713-3.82-8.533-8.533-8.533s-8.533,3.82-8.533,8.533V153.6c-0.001,2.263,0.898,4.434,2.499,6.035
				C422.232,161.235,424.403,162.134,426.667,162.133z"/>
			<path d="M256,162.133c2.263,0.001,4.434-0.898,6.035-2.499c1.6-1.6,2.499-3.771,2.499-6.035v-34.133
				c0-4.713-3.82-8.533-8.533-8.533s-8.533,3.82-8.533,8.533V153.6c-0.001,2.263,0.898,4.434,2.499,6.035
				C251.566,161.235,253.737,162.134,256,162.133z"/>
			<path d="M298.667,162.133h17.067c9.421-0.011,17.056-7.646,17.067-17.067V128c-0.011-9.421-7.645-17.056-17.067-17.067h-17.067
				c-9.421,0.011-17.056,7.645-17.067,17.067v17.067C281.611,154.488,289.245,162.123,298.667,162.133z M298.667,128h17.067v17.067
				h-17.067V128z"/>
			<path d="M196.267,162.133h17.067c9.421-0.011,17.056-7.646,17.067-17.067V128c-0.011-9.421-7.646-17.056-17.067-17.067h-17.067
				c-9.421,0.011-17.056,7.645-17.067,17.067v17.067C179.211,154.488,186.845,162.123,196.267,162.133z M196.267,128h17.067v17.067
				h-17.067V128z"/>
			<path d="M153.6,162.133c2.263,0.001,4.434-0.898,6.035-2.499c1.6-1.6,2.499-3.771,2.499-6.035v-34.133
				c0-4.713-3.821-8.533-8.533-8.533c-4.713,0-8.533,3.82-8.533,8.533V153.6c-0.001,2.263,0.898,4.434,2.499,6.035
				C149.166,161.235,151.337,162.134,153.6,162.133z"/>
			<path d="M119.467,162.133c2.263,0.001,4.434-0.898,6.035-2.499c1.6-1.6,2.499-3.771,2.499-6.035v-34.133
				c0-4.713-3.82-8.533-8.533-8.533s-8.533,3.82-8.533,8.533V153.6c-0.001,2.263,0.898,4.434,2.499,6.035
				C115.032,161.235,117.203,162.134,119.467,162.133z"/>
			<path d="M85.333,162.133c2.263,0.001,4.434-0.898,6.035-2.499c1.6-1.6,2.499-3.771,2.499-6.035v-34.133
				c0-4.713-3.821-8.533-8.533-8.533s-8.533,3.82-8.533,8.533V153.6c-0.001,2.263,0.898,4.434,2.499,6.035
				C80.899,161.235,83.07,162.134,85.333,162.133z"/>
			<path d="M51.2,162.133c2.263,0.001,4.434-0.898,6.035-2.499c1.6-1.6,2.499-3.771,2.499-6.035v-34.133
				c0-4.713-3.82-8.533-8.533-8.533s-8.533,3.82-8.533,8.533V153.6c-0.001,2.263,0.898,4.434,2.499,6.035
				C46.766,161.235,48.937,162.134,51.2,162.133z"/>
			<path d="M460.8,238.933c2.263,0.001,4.434-0.898,6.035-2.499c1.6-1.6,2.499-3.771,2.499-6.035v-34.133
				c0-4.713-3.82-8.533-8.533-8.533s-8.533,3.82-8.533,8.533V230.4c-0.001,2.263,0.898,4.434,2.499,6.035
				C456.366,238.035,458.537,238.934,460.8,238.933z"/>
		</g>
	</g>
</g>
<g>
</g>
<g>
</g>
<g>
</g>
<g>
</g>
<g>
</g>
<g>
</g>
<g>
</g>
<g>
</g>
<g>
</g>
<g>
</g>
<g>
</g>
<g>
</g>
<g>
</g>
<g>
</g>
<g>
</g>
</svg>
