<?xml version="1.0" encoding="iso-8859-1"?>
<!-- Generator: Adobe Illustrator 19.0.0, SVG Export Plug-In . SVG Version: 6.00 Build 0)  -->
<svg version="1.1" id="Capa_1" xmlns="http://www.w3.org/2000/svg" xmlns:xlink="http://www.w3.org/1999/xlink" x="0px" y="0px"
	 viewBox="0 0 512 512" style="enable-background:new 0 0 512 512;" xml:space="preserve">
<g>
	<g>
		<g>
			<path d="M349.867,102.4H162.133c-14.132,0.015-25.585,11.468-25.6,25.6v204.771c0.015,14.132,11.468,25.585,25.6,25.6h102.4
				v34.146c-0.073,7.37,4.656,13.93,11.671,16.192c1.782,0.598,3.65,0.905,5.53,0.908c5.34-0.009,10.359-2.554,13.521-6.858
				l33.279-44.387h21.333c14.132-0.015,25.585-11.468,25.6-25.6V128C375.451,113.868,363.999,102.415,349.867,102.4z M358.4,332.771
				c-0.006,4.71-3.823,8.527-8.533,8.533h-25.6c-2.686,0.001-5.216,1.265-6.829,3.413l-35.838,47.8v-42.679
				c0-4.713-3.821-8.533-8.533-8.533H162.133c-4.71-0.006-8.527-3.823-8.533-8.533V128c0.006-4.71,3.823-8.527,8.533-8.533h187.733
				c4.71,0.006,8.527,3.823,8.533,8.533V332.771z"/>
			<path d="M264.533,238.933v-17.067c-0.009-9.422-7.645-17.057-17.067-17.067H230.4c-9.422,0.009-17.057,7.645-17.067,17.067
				v17.067c0.009,9.422,7.645,17.057,17.067,17.067h17.067C256.888,255.991,264.524,248.355,264.533,238.933z M230.4,221.867h17.067
				l0.012,17.067H230.4V221.867z"/>
			<path d="M281.6,273.067h-17.067c-9.422,0.009-17.057,7.645-17.067,17.067V307.2c0.009,9.422,7.645,17.057,17.067,17.067H281.6
				c9.422-0.009,17.057-7.645,17.067-17.067v-17.067C298.657,280.712,291.022,273.076,281.6,273.067z M264.533,307.2v-17.067H281.6
				l0.012,17.067H264.533z"/>
			<path d="M187.733,204.8c-4.713,0-8.533,3.821-8.533,8.533v34.133c0,4.713,3.82,8.533,8.533,8.533s8.533-3.82,8.533-8.533v-34.133
				C196.267,208.621,192.446,204.8,187.733,204.8z"/>
			<path d="M290.133,204.8c-4.713,0-8.533,3.821-8.533,8.533v34.133c0,4.713,3.821,8.533,8.533,8.533s8.533-3.82,8.533-8.533
				v-34.133C298.667,208.621,294.846,204.8,290.133,204.8z"/>
			<path d="M324.267,204.8c-4.713,0-8.533,3.821-8.533,8.533v34.133c0,4.713,3.82,8.533,8.533,8.533s8.533-3.82,8.533-8.533v-34.133
				C332.8,208.621,328.979,204.8,324.267,204.8z"/>
			<path d="M324.267,273.067c-4.713,0-8.533,3.821-8.533,8.533v34.133c0,4.713,3.82,8.533,8.533,8.533s8.533-3.82,8.533-8.533V281.6
				C332.8,276.887,328.979,273.067,324.267,273.067z"/>
			<path d="M221.867,273.067c-4.713,0-8.533,3.821-8.533,8.533v34.133c0,4.713,3.821,8.533,8.533,8.533
				c4.713,0,8.533-3.82,8.533-8.533V281.6C230.4,276.887,226.579,273.067,221.867,273.067z"/>
			<path d="M187.733,273.067c-4.713,0-8.533,3.821-8.533,8.533v34.133c0,4.713,3.82,8.533,8.533,8.533s8.533-3.82,8.533-8.533V281.6
				C196.267,276.887,192.446,273.067,187.733,273.067z"/>
			<path d="M281.6,136.533h-17.067c-9.422,0.009-17.057,7.645-17.067,17.067v17.067c0.009,9.422,7.645,17.057,17.067,17.067H281.6
				c9.422-0.009,17.057-7.645,17.067-17.067V153.6C298.657,144.178,291.022,136.543,281.6,136.533z M264.533,170.667V153.6H281.6
				l0.012,17.067H264.533z"/>
			<path d="M324.267,136.533c-4.713,0-8.533,3.82-8.533,8.533V179.2c0,4.713,3.82,8.533,8.533,8.533s8.533-3.82,8.533-8.533v-34.133
				C332.8,140.354,328.979,136.533,324.267,136.533z"/>
			<path d="M221.867,187.733c4.713,0,8.533-3.82,8.533-8.533v-34.133c0-4.713-3.821-8.533-8.533-8.533
				c-4.713,0-8.533,3.82-8.533,8.533V179.2C213.333,183.913,217.154,187.733,221.867,187.733z"/>
			<path d="M187.733,136.533c-4.713,0-8.533,3.82-8.533,8.533V179.2c0,4.713,3.82,8.533,8.533,8.533s8.533-3.82,8.533-8.533v-34.133
				C196.267,140.354,192.446,136.533,187.733,136.533z"/>
			<path d="M366.933,0H145.067c-23.553,0.028-42.639,19.114-42.667,42.667v426.667c0.028,23.553,19.114,42.639,42.667,42.667
				h221.867c23.553-0.028,42.639-19.114,42.667-42.667V42.667C409.572,19.114,390.486,0.028,366.933,0z M310.458,17.067
				l-6.175,12.35c-1.437,2.897-4.395,4.727-7.629,4.717h-81.308c-3.234,0.01-6.192-1.819-7.629-4.717l-6.175-12.35H310.458z
				 M392.533,469.333c-0.015,14.132-11.468,25.585-25.6,25.6H145.067c-14.132-0.015-25.585-11.468-25.6-25.6V42.667
				c0.015-14.132,11.468-25.585,25.6-25.6h37.392l9.992,19.983c4.312,8.694,13.191,14.182,22.896,14.15h81.308
				c9.705,0.032,18.584-5.456,22.896-14.15l9.992-19.983h37.392c14.132,0.015,25.585,11.468,25.6,25.6V469.333z"/>
			<path d="M307.2,460.8H204.8c-4.713,0-8.533,3.82-8.533,8.533s3.82,8.533,8.533,8.533h102.4c4.713,0,8.533-3.82,8.533-8.533
				S311.913,460.8,307.2,460.8z"/>
		</g>
	</g>
</g>
<g>
</g>
<g>
</g>
<g>
</g>
<g>
</g>
<g>
</g>
<g>
</g>
<g>
</g>
<g>
</g>
<g>
</g>
<g>
</g>
<g>
</g>
<g>
</g>
<g>
</g>
<g>
</g>
<g>
</g>
</svg>
