<?xml version="1.0" encoding="iso-8859-1"?>
<!-- Generator: Adobe Illustrator 19.0.0, SVG Export Plug-In . SVG Version: 6.00 Build 0)  -->
<svg version="1.1" id="Capa_1" xmlns="http://www.w3.org/2000/svg" xmlns:xlink="http://www.w3.org/1999/xlink" x="0px" y="0px"
	 viewBox="0 0 512.003 512.003" style="enable-background:new 0 0 512.003 512.003;" xml:space="preserve">
<g>
	<g>
		<g>
			<path d="M179.201,102.403c18.851,0,34.133-15.282,34.133-34.133s-15.282-34.133-34.133-34.133s-34.133,15.282-34.133,34.133
				C145.089,87.112,160.358,102.381,179.201,102.403z M179.201,51.203c9.426,0,17.067,7.641,17.067,17.067
				s-7.641,17.067-17.067,17.067s-17.067-7.641-17.067-17.067C162.144,58.848,169.779,51.212,179.201,51.203z"/>
			<path d="M477.867,168.011v-45.854c20.816-9.879,34.098-30.847,34.133-53.888c0.023-24.041-14.382-45.748-36.543-55.067
				c-22.161-9.319-47.75-4.431-64.915,12.4H232.407c-16.22-20.276-42.545-29.584-67.905-24.011
				c-25.36,5.574-45.356,25.063-51.579,50.272c-6.223,25.209,2.406,51.764,22.26,68.499L96.095,247.47H68.267
				c-28.038-0.013-50.866,22.538-51.196,50.574c-0.33,28.036,21.961,51.118,49.991,51.765L52.263,460.803H25.601
				c-14.138,0-25.6,11.461-25.6,25.6s11.461,25.6,25.6,25.6h187.733c14.138,0,25.6-11.462,25.6-25.6s-11.461-25.6-25.6-25.6h-25.6
				V349.87c9.422-0.009,17.057-7.645,17.067-17.067v-26.317c23.122-3.018,85.333-18.84,85.333-101.683
				c0-86.954,36.983-93.867,85.333-93.867h35.075c4.721,4.602,10.169,8.393,16.125,11.221v45.853
				c-20.896,9.773-34.216,30.79-34.133,53.859v8.533c0,14.138,11.462,25.6,25.6,25.6s25.6-11.461,25.6-25.6v-8.533
				c0.008-2.514,1.124-4.897,3.05-6.513c1.925-1.649,4.49-2.344,6.983-1.892c4.277,1.096,7.208,5.03,7.033,9.442v7.496
				c0,14.138,11.461,25.6,25.6,25.6s25.6-11.461,25.6-25.6v-6.775C512.159,200.097,498.92,178.525,477.867,168.011z M128.001,68.27
				c0-28.277,22.923-51.2,51.2-51.2s51.2,22.923,51.2,51.2s-22.923,51.2-51.2,51.2C150.937,119.439,128.032,96.534,128.001,68.27z
				 M150.099,129.93c15.406,7.351,33.018,8.618,49.317,3.548L164.363,247.47h-50.412L150.099,129.93z M213.334,477.87
				c4.713,0,8.533,3.82,8.533,8.533s-3.821,8.533-8.533,8.533H25.601c-4.713,0-8.533-3.82-8.533-8.533s3.82-8.533,8.533-8.533
				H213.334z M69.48,460.803L84.272,349.87h86.396v110.933H69.48z M179.201,332.803H68.267c-18.851,0-34.133-15.282-34.133-34.133
				s15.282-34.133,34.133-34.133h119.467l0.006,34.103l-0.006,0.031l0.006,0.031l0.006,34.103H179.201z M273.068,204.803
				c0,67.913-48.176,81.768-68.267,84.597v-24.864c-0.009-9.422-7.645-17.057-17.067-17.067h-5.513l38.475-125.117
				c4.344-3.326,8.275-7.159,11.711-11.416h72.448C285.722,125.871,273.068,153.605,273.068,204.803z M398.38,93.87H242.441
				c6.701-16.409,6.701-34.791,0-51.2H398.38C390.586,58.847,390.586,77.693,398.38,93.87z M409.601,68.27
				c0-23.564,19.102-42.667,42.667-42.667c23.564,0,42.667,19.103,42.667,42.667c-0.028,23.553-19.114,42.639-42.667,42.667
				C428.703,110.936,409.601,91.834,409.601,68.27z M460.801,127.322v35.442c-0.25-0.035-0.491-0.099-0.742-0.131
				c-5.427-0.663-10.919-0.586-16.325,0.228v-35.539C449.387,128.23,455.148,128.23,460.801,127.322z M494.934,230.403
				c0,4.713-3.82,8.533-8.533,8.533s-8.533-3.82-8.533-8.533v-7.496c0.294-6.964-2.269-13.746-7.095-18.774
				c-4.826-5.029-11.497-7.868-18.468-7.859c-14.141,0.004-25.611,11.455-25.637,25.596v8.533c0,4.713-3.82,8.533-8.533,8.533
				s-8.533-3.82-8.533-8.533v-8.533c0.01-18.204,11.568-34.396,28.78-40.321l0.215-0.079c6.205-2.102,12.809-2.753,19.305-1.904
				c2.758,0.365,5.47,1.015,8.093,1.941l0.038,0.017c17.578,6.499,29.156,23.366,28.903,42.105V230.403z"/>
			<path d="M477.867,68.27c-0.015-14.132-11.468-25.585-25.6-25.6c-14.138,0-25.6,11.461-25.6,25.6s11.462,25.6,25.6,25.6
				C466.406,93.87,477.867,82.408,477.867,68.27z M443.734,68.27c0-4.713,3.821-8.533,8.533-8.533c4.713,0,8.533,3.82,8.533,8.533
				c-0.006,4.71-3.823,8.527-8.533,8.533C447.555,76.803,443.734,72.982,443.734,68.27z"/>
		</g>
	</g>
</g>
<g>
</g>
<g>
</g>
<g>
</g>
<g>
</g>
<g>
</g>
<g>
</g>
<g>
</g>
<g>
</g>
<g>
</g>
<g>
</g>
<g>
</g>
<g>
</g>
<g>
</g>
<g>
</g>
<g>
</g>
</svg>
