<?xml version="1.0" encoding="iso-8859-1"?>
<!-- Generator: Adobe Illustrator 19.0.0, SVG Export Plug-In . SVG Version: 6.00 Build 0)  -->
<svg version="1.1" id="Capa_1" xmlns="http://www.w3.org/2000/svg" xmlns:xlink="http://www.w3.org/1999/xlink" x="0px" y="0px"
	 viewBox="0 0 512 512" style="enable-background:new 0 0 512 512;" xml:space="preserve">
<g>
	<g>
		<g>
			<path d="M196.267,187.733H179.2c-14.132,0.015-25.585,11.468-25.6,25.6V230.4c0.015,14.132,11.468,25.585,25.6,25.6h17.067
				c14.132-0.015,25.585-11.468,25.6-25.6v-17.067C221.851,199.201,210.399,187.749,196.267,187.733z M204.8,230.4
				c-0.005,4.711-3.822,8.529-8.533,8.533H179.2c-4.711-0.005-8.529-3.822-8.533-8.533v-17.067c0.005-4.711,3.822-8.529,8.533-8.533
				h17.067c4.711,0.005,8.529,3.823,8.533,8.533V230.4z"/>
			<path d="M332.8,187.733h-17.067c-14.132,0.015-25.585,11.468-25.6,25.6V230.4c0.015,14.132,11.468,25.585,25.6,25.6H332.8
				c14.132-0.015,25.585-11.468,25.6-25.6v-17.067C358.385,199.201,346.932,187.749,332.8,187.733z M341.333,230.4
				c-0.005,4.711-3.822,8.529-8.533,8.533h-17.067c-4.711-0.005-8.529-3.822-8.533-8.533v-17.067
				c0.005-4.711,3.822-8.529,8.533-8.533H332.8c4.711,0.005,8.529,3.823,8.533,8.533V230.4z"/>
			<path d="M452.267,187.733V179.2C452.154,80.277,371.99,0.112,273.067,0h-34.133c-98.923,0.112-179.088,80.277-179.2,179.2v8.533
				c-18.843,0.02-34.113,15.29-34.133,34.133v68.267c0.02,18.843,15.29,34.113,34.133,34.133V384
				c0.015,14.132,11.468,25.585,25.6,25.6h27.173c3.592,10.199,13.214,17.033,24.027,17.067H153.6c14.138,0,25.6-11.462,25.6-25.6
				c0-14.138-11.462-25.6-25.6-25.6h-17.067c-10.813,0.033-20.435,6.868-24.028,17.067H85.333c-4.711-0.005-8.529-3.822-8.533-8.533
				v-59.733h25.6c0.02,18.843,15.29,34.113,34.133,34.133h61.306c-3.296,8.807-1.326,18.721,5.086,25.6
				c-8.878,9.646-8.878,24.487,0,34.133c-6.413,6.879-8.382,16.793-5.085,25.6h-61.306c-18.843,0.02-34.113,15.29-34.133,34.133
				v25.6c-0.001,2.263,0.898,4.434,2.499,6.035c1.6,1.6,3.771,2.499,6.035,2.499h289.425c0.126,0,0.23-0.066,0.354-0.071
				c0.124,0.005,0.229,0.071,0.354,0.071c2.263,0.001,4.434-0.898,6.035-2.499c1.6-1.6,2.499-3.771,2.499-6.035v-25.6
				c-0.02-18.843-15.29-34.113-34.133-34.133h-61.306c3.296-8.807,1.326-18.721-5.086-25.6c8.878-9.646,8.878-24.487,0-34.133
				c6.412-6.879,8.382-16.793,5.086-25.6h61.306c18.843-0.02,34.113-15.29,34.133-34.133h42.667
				c18.843-0.02,34.113-15.29,34.133-34.133v-68.267C486.38,203.024,471.11,187.753,452.267,187.733z M136.533,392.533H153.6
				c4.713,0,8.533,3.821,8.533,8.533s-3.821,8.533-8.533,8.533h-17.067c-4.713,0-8.533-3.82-8.533-8.533
				S131.821,392.533,136.533,392.533z M102.4,307.2H59.733c-9.421-0.011-17.056-7.645-17.067-17.067v-68.267
				c0.011-9.421,7.645-17.056,17.067-17.067H102.4V307.2z M375.467,460.8c9.421,0.011,17.056,7.645,17.067,17.067v17.067H119.467
				v-17.067c0.011-9.421,7.645-17.056,17.067-17.067H375.467z M221.867,409.6c-4.713,0-8.533-3.82-8.533-8.533
				s3.821-8.533,8.533-8.533c4.713,0,8.533-3.82,8.533-8.533s-3.821-8.533-8.533-8.533c-4.713,0-8.533-3.82-8.533-8.533
				s3.821-8.533,8.533-8.533h68.267c4.713,0,8.533,3.82,8.533,8.533s-3.82,8.533-8.533,8.533s-8.533,3.82-8.533,8.533
				s3.821,8.533,8.533,8.533s8.533,3.821,8.533,8.533s-3.82,8.533-8.533,8.533s-8.533,3.82-8.533,8.533s3.821,8.533,8.533,8.533
				s8.533,3.82,8.533,8.533s-3.82,8.533-8.533,8.533h-68.267c-4.713,0-8.533-3.82-8.533-8.533s3.821-8.533,8.533-8.533
				c4.713,0,8.533-3.82,8.533-8.533S226.579,409.6,221.867,409.6z M302.411,341.333h-92.822l-29.456-48.271
				c50.297,7.533,101.436,7.533,151.733,0L302.411,341.333z M392.533,324.267c-0.011,9.421-7.645,17.056-17.067,17.067h-53.064
				l31.289-51.275c2.412-3.921,2.163-8.921-0.625-12.583c-2.725-3.649-7.419-5.239-11.8-3.996
				c-39.05,10.908-131.492,10.912-170.542-0.004c-4.38-1.232-9.065,0.358-11.792,4c-2.788,3.662-3.037,8.663-0.625,12.583
				l31.289,51.275h-53.064c-9.421-0.011-17.056-7.646-17.067-17.067V187.733c0.011-9.421,7.645-17.056,17.067-17.067h238.933
				c9.421,0.011,17.056,7.645,17.067,17.067V324.267z M258.1,133.563L258.1,133.563l-18.994-18.937
				c4.978-2.938,9.129-7.092,12.064-12.073l36.022,36.022L266.537,153.6h-19.331l9.844-7.063c2.039-1.461,3.331-3.745,3.533-6.244
				C260.785,137.794,259.877,135.332,258.1,133.563z M375.467,153.6H295.55l9.758-7.096c2.02-1.466,3.296-3.744,3.492-6.232
				c0.196-2.488-0.709-4.937-2.475-6.701l-50.559-50.555c-1.198-18.188-16.505-32.208-34.729-31.807
				c-18.223,0.401-32.899,15.081-33.296,33.304c-0.396,18.223,13.627,33.527,31.815,34.721l19.368,19.308L217.931,153.6h-81.398
				c-18.843,0.02-34.113,15.29-34.133,34.133H76.8V179.2c0.102-89.502,72.632-162.032,162.133-162.133h34.133
				C362.568,17.168,435.098,89.698,435.2,179.2v8.533h-25.6C409.58,168.89,394.31,153.62,375.467,153.6z M238.933,85.333
				c0,9.426-7.641,17.067-17.067,17.067c-9.426,0-17.067-7.641-17.067-17.067s7.641-17.067,17.067-17.067
				C231.288,68.277,238.923,75.912,238.933,85.333z M469.333,290.133c-0.011,9.421-7.646,17.056-17.067,17.067H409.6V204.8h42.667
				c9.421,0.011,17.056,7.646,17.067,17.067V290.133z"/>
		</g>
	</g>
</g>
<g>
</g>
<g>
</g>
<g>
</g>
<g>
</g>
<g>
</g>
<g>
</g>
<g>
</g>
<g>
</g>
<g>
</g>
<g>
</g>
<g>
</g>
<g>
</g>
<g>
</g>
<g>
</g>
<g>
</g>
</svg>
