<?xml version="1.0" encoding="iso-8859-1"?>
<!-- Generator: Adobe Illustrator 19.0.0, SVG Export Plug-In . SVG Version: 6.00 Build 0)  -->
<svg version="1.1" id="Capa_1" xmlns="http://www.w3.org/2000/svg" xmlns:xlink="http://www.w3.org/1999/xlink" x="0px" y="0px"
	 viewBox="0 0 512.075 512.075" style="enable-background:new 0 0 512.075 512.075;" xml:space="preserve">
<g>
	<g>
		<path d="M239.148,324.323c-7.7-1.2-15.2-3.8-22-7.6c-9-5.2-19-8.5-29.4-9.4c-4.6,0-8.4,3.7-8.4,8.4c-0.1,4.7,3.6,8.5,8.3,8.7
			c7.7,1.2,15.2,3.8,22,7.6c9,5.2,19,8.5,29.4,9.4c4.6-0.1,8.3-3.8,8.4-8.4C247.548,328.323,243.848,324.523,239.148,324.323z"/>
	</g>
</g>
<g>
	<g>
		<path d="M324.348,307.223c-10.4,1-20.4,4.2-29.4,9.4c-6.7,3.8-14.1,6.4-21.8,7.6c-4.7,0-8.5,3.8-8.5,8.5s3.8,8.5,8.5,8.5
			c10.4-1,20.4-4.2,29.4-9.4c6.8-3.9,14.2-6.4,21.9-7.6c4.7-0.1,8.4-3.9,8.4-8.6C332.748,311.023,328.948,307.223,324.348,307.223z"
			/>
	</g>
</g>
<g>
	<g>
		<path d="M279.148,394.923c-3.3-3.2-8.7-3.2-12.1,0.1c-3,3.1-6.8,5.2-11.1,6.1c-4.2-0.8-8.1-3-11-6.1c-3.3-3.3-8.7-3.3-12,0
			c-3.3,3.3-3.3,8.7,0,12c6.2,6.3,14.3,10.2,23.1,11c8.8-0.9,16.9-4.8,23.1-11C282.448,403.723,282.448,398.323,279.148,394.923z"/>
	</g>
</g>
<g>
	<g>
		<path d="M509.448,2.523c-1.5-1.6-3.7-2.5-5.9-2.5h-119.5c-14.1,0-25.6,11.5-25.6,25.6h-76.8c-9,0-17.8,2.4-25.6,7
			c-7.8-4.6-16.6-7-25.6-7h-79c-3-12.1-12.4-21.6-24.4-24.6s-24.8,0.9-33.1,10.2c-8.5-9.6-21.8-13.4-34.1-10
			c-12.3,3.4-21.6,13.7-23.9,26.3c-8.3,2.1-15.4,7.5-19.7,14.8s-5.5,16.2-3.3,24.4c-7.4,6-12,14.8-12.7,24.3
			c-0.8,9.5,2.4,18.9,8.7,26c-3.8,8.6-3.8,18.5-0.1,27.1c3.8,8.6,11,15.3,19.9,18.3c0.1,0.4,0.3,0.7,0.4,0.9c0.3,0.8,0.6,1.6,1,2.3
			c0.1,0.3,0.3,0.7,0.5,1c0.3,0.6,0.5,1.1,0.9,1.7c0.1,0.1,0.6,1,0.6,1.1c0.7,1.1,1.4,2.1,2,3c0.4,0.6,0.9,1.1,1.4,1.8
			c1.8,2.2,4,4.2,6.3,5.9c0.5,0.4,1,0.7,1.5,1.1c2.5,1.7,5.2,3.1,8,4.1c0.7,0.3,1.4,0.5,2.1,0.7c0.6,0.2,1.2,0.4,1.4,0.4
			c1.3,0.3,2.5,0.6,3.8,0.8c0.6,0.1,1.2,0.2,1.4,0.2c1.5,0.2,3,0.3,4.5,0.3c11.4,0,22.2-5.1,29.4-14c7.2,8.9,18,14,29.4,14
			c1.4,0,2.8-0.1,4.1-0.2c0.6-0.1,1.2-0.1,1.6-0.2c1.2-0.2,2.4-0.4,3.5-0.7c0.6-0.1,1.2-0.3,1.8-0.5c0.7-0.2,1.4-0.4,2.1-0.7
			c1.1-0.4,2.1-0.9,3.2-1.4c1.7-0.8,3.3-1.7,4.9-2.8c0.5-0.3,1-0.7,1.4-1c2.4-1.8,4.5-3.8,6.4-6.1c0.4-0.5,0.9-1.1,1.2-1.6
			c0.7-0.9,1.4-1.9,2-2.9l0.5-0.8c0.3-0.5,0.6-0.9,0.8-1.4c0.3-0.5,0.6-1.1,0.8-1.7c0.3-0.6,0.6-1.2,0.8-1.9
			c0.2-0.5,0.4-0.9,0.5-1.4c8.9-3,16.2-9.7,19.9-18.3c3.8-8.6,3.8-18.5-0.1-27.1c9.9-11.1,11.6-27.3,4.2-40.2h47.3v42.7
			c-14.1,0-25.6,11.5-25.6,25.6v18.3c-27.5,12.3-59.7,41.3-59.7,109.7c0,2.3,0,4.6,0.1,7c-1.7-0.5-3.4-0.9-5.1-1.1
			c-7.6-1-15.3,1.1-21.4,5.9c-7.1,6.7-9.8,16.9-6.9,26.2c2.2,9.2,5.3,18.1,9.3,26.7l1.4,3.3c1,2.2,1.7,4.6,2.6,6.9
			c2,7.1,5.3,13.8,9.9,19.5c4.2,5,10.3,7.9,16.8,8c0.6,0,1.1-0.1,1.7-0.2c0.7,4.8,1.5,9.5,2.2,14.3c1.9,16,5.8,31.6,11.7,46.6
			c3.2,8.1,7.5,15.6,12.8,22.5c1.1,9.6,2.2,31.9-12.1,36.6c-2.9,0.9-5.1,3.4-5.7,6.4c-0.6,3,0.4,6.1,2.7,8.1s5.5,2.7,8.4,1.7
			c14.2-4.7,22.7-17.9,24.2-36.7c2.9,2.2,5.9,4.3,8.7,6.4l1.8,1.3c3,2.1,5.9,4.5,8.7,6.8c3.9,3.3,8,6.3,12.2,9.2
			c6.7,3.9,14.4,5.6,22,4.9c1.6,0,3.1,0,5.4,0.1c1.5-0.1,3.1-0.1,4.6-0.1c7.7,0.7,15.4-1,22-4.9c4.2-2.9,8.3-5.9,12.2-9.2
			c2.9-2.3,5.7-4.6,8.8-6.8l1.9-1.3c2.9-2,5.7-4.2,8.6-6.3c1.5,18.8,10,32,24.2,36.7c2.9,1,6.1,0.3,8.4-1.7s3.3-5.1,2.7-8.1
			c-0.6-3-2.8-5.4-5.7-6.4c-14.4-4.7-13.1-28.1-12.1-36.6c5.3-6.8,9.6-14.4,12.7-22.4c5.9-15,9.8-30.7,11.7-46.7
			c0.7-4.8,1.4-9.5,2.2-14.3c0.6,0,1.1,0.2,1.7,0.2c6.5-0.1,12.6-3.1,16.8-8c4.6-5.8,8-12.4,9.9-19.6c0.8-2.4,1.6-4.7,2.5-6.9
			l1.4-3.3c4-8.5,7.1-17.5,9.3-26.6c2.9-9.3,0.2-19.5-6.9-26.2c-6-4.8-13.7-6.9-21.4-5.9c-1.7,0.2-3.4,0.6-5.1,1.1
			c0-2.4,0.1-4.7,0.1-7c0-68.3-32.2-97.3-59.7-109.7v-18.3c0-14.1-11.5-25.6-25.6-25.6v-42.8h76.8v85.3c0,14.1,11.5,25.6,25.6,25.6
			h102.4c2.3,0,4.4-0.9,6-2.5c1.6-1.6,2.5-3.8,2.5-6v-27.2c10.2-3.6,17-13.2,17.1-24V8.523
			C511.948,6.223,511.048,4.123,509.448,2.523z M147.848,356.223c-3-4.1-5.2-8.8-6.6-13.8c-0.9-2.7-1.9-5.5-3-8.1l-1.4-3.3
			c-3.6-7.5-6.3-15.4-8.3-23.4c-1.1-3.1-0.7-6.6,0.9-9.4c2.5-1.9,5.6-2.7,8.6-2.2c2.8,0.3,5.4,1.4,7.5,3.2c0.1,3.4,0.3,7,0.5,10.8
			c0.5,10.9,1.4,21.3,2.4,31.2c0.7,5.7,1.5,11.5,2.3,17.1C149.648,357.923,148.648,357.223,147.848,356.223z M363.548,341.123
			c1-8.9,1.8-18.6,2.4-31.2c0.2-3.8,0.3-7.3,0.5-10.8c2.1-1.8,4.8-2.9,7.5-3.2c3.1-0.5,6.2,0.3,8.6,2.2c1.7,2.9,2,6.3,1,9.5
			c-2,8.1-4.8,15.9-8.3,23.4l-1.4,3.3c-1.1,2.6-2,5.3-3,8c-1.3,5-3.5,9.6-6.6,13.8c-0.8,1-1.9,1.7-3.1,2.1
			C362.048,352.623,362.848,346.923,363.548,341.123z M163.148,108.523c-1.9,1.4-3.1,3.4-3.5,5.7c-0.3,2.3,0.3,4.6,1.7,6.5
			c2.2,2.9,3.4,6.4,3.4,10c-0.1,8.1-5.9,15-13.9,16.3c-3.5,0.6-6.4,3.3-7,6.8c-0.1,0.4-0.2,0.8-0.3,1.2c-0.1,0.2-0.3,1-0.3,1.2
			c-0.1,0.4-0.2,0.7-0.4,1c-0.1,0.2-0.6,1.4-0.6,1.5c-0.1,0.2-0.4,0.8-0.6,1.1l-0.5,0.8c-0.3,0.6-0.7,1.1-1.1,1.7l-0.7,0.9
			c-1.1,1.2-2.2,2.4-3.6,3.3l-0.8,0.5c-0.9,0.6-1.8,1.1-2.7,1.6c-0.6,0.3-1.1,0.5-1.7,0.7l-1.2,0.4l-0.9,0.3
			c-0.6,0.2-1.2,0.3-1.8,0.4l-1,0.1c-0.7,0.1-1.5,0.1-2.2,0.1c-11.5,0-20.9-9.4-20.9-20.9c0-4.7-3.8-8.5-8.5-8.5s-8.5,3.8-8.5,8.5
			c0,11.5-9.4,20.9-20.9,20.9c-0.7,0-1.5,0-2.2-0.1c-0.1,0-0.9-0.1-1-0.1c-0.6-0.1-1.2-0.2-1.8-0.4c-0.1,0-0.8-0.2-0.9-0.3l-1.2-0.4
			c-0.6-0.2-1.3-0.5-1.9-0.8c-0.9-0.4-1.7-0.9-2.6-1.5l-0.9-0.6c-1.2-0.9-2.4-2-3.4-3.1l-0.9-1.1c-0.5-0.6-0.9-1.3-1.3-1.9
			c-0.1-0.2-0.6-1.1-0.7-1.2c-0.1-0.3-0.7-1.6-0.8-1.9c-0.1-0.3-0.3-0.7-0.4-1c0-0.1-0.3-1.2-0.3-1.2c-0.1-0.4-0.2-0.8-0.3-1.2
			c-0.7-3.5-3.5-6.3-7-6.8c-8-1.3-13.9-8.2-13.9-16.3c0-3.6,1.2-7.2,3.4-10c1.4-1.8,2-4.2,1.7-6.5c-0.3-2.3-1.6-4.4-3.5-5.7
			c-5.1-3.7-8-9.8-7.5-16.1c0.5-6.3,4.3-11.9,10-14.6c2.1-1,3.7-2.9,4.4-5.2c0.7-2.2,0.4-4.7-0.7-6.7c-1.3-2.2-1.9-4.7-1.9-7.3
			c0-8.3,6.7-15,15-15c2.4,0,4.6-1,6.2-2.7c1.6-1.7,2.4-4,2.3-6.4v-0.9c0-9.1,7.4-16.5,16.5-16.5c9.1,0,16.5,7.4,16.5,16.5
			c0,4.7,3.8,8.5,8.5,8.5s8.5-3.8,8.5-8.5c0-9.1,7.4-16.5,16.5-16.5c9.1,0,16.5,7.4,16.5,16.5v0.6v0.3c-0.1,2.4,0.7,4.7,2.3,6.4
			c1.6,1.7,3.9,2.7,6.2,2.7c8.3,0,15,6.7,15,15c0,2.6-0.6,5.1-1.9,7.3c-1.2,2-1.4,4.5-0.7,6.7c0.7,2.2,2.3,4.1,4.4,5.2
			c5.7,2.8,9.5,8.3,10,14.6C171.148,98.723,168.348,104.823,163.148,108.523z M187.748,59.723h-11.8c0-0.4,0.1-0.8,0.1-1.2
			c0-5.6-1.5-11.1-4.3-15.9h16V59.723z M348.848,309.123c-0.6,12.2-1.3,21.5-2.3,30.1c-1.1,9.4-2.6,19-4.1,28.3
			c-1,6.6-2.1,13.2-3,19.9c-1.7,14.6-5.2,28.8-10.5,42.5c-3.2,8.6-8.2,16.5-14.6,23.1c-5.8,5.2-12,10-18.4,14.4l-1.8,1.3
			c-3.3,2.3-6.4,4.9-9.6,7.4c-3.5,2.9-7.1,5.7-10.9,8.2c-3.9,1.9-8.3,2.6-12.6,2.1c-1.8,0-3.6,0-4.7,0.1c-1.5-0.1-3-0.1-4.6-0.1
			h-0.9c-4.3,0.6-8.7-0.2-12.6-2.1c-3.7-2.5-7.4-5.3-10.8-8.2c-3.1-2.5-6.3-5.1-9.5-7.4l-1.8-1.3c-6.5-4.4-12.7-9.3-18.6-14.5
			c-6.4-6.6-11.4-14.5-14.6-23.1c-5.3-13.6-8.8-27.9-10.5-42.4c-0.9-6.6-2-13.3-3-19.9c-1.5-9.3-3-18.9-4.1-28.2
			c-1-9.5-1.8-19.6-2.3-30.1c-0.6-12.7-0.9-23.3-1-33.1c7.8-9.6,26.5-28.5,42.6-28.5c9.6,0.2,18.9,3.2,26.8,8.7
			c7.2,5,15.6,7.9,24.4,8.4c8.7-0.5,17.2-3.4,24.4-8.4c7.9-5.5,17.2-8.5,26.8-8.7c16.1,0,34.8,18.9,42.6,28.5
			C349.848,285.623,349.548,296.223,348.848,309.123z M300.848,179.223c26.8,12.2,42.6,36,47.4,70.4c-7-6.5-15.1-11.7-23.9-15.6
			v-12.2c0-2.3-0.9-4.4-2.5-6l-6-6v-5c0-4.7-3.8-8.5-8.5-8.5s-8.5,3.8-8.5,8.5v8.5c0,2.3,0.9,4.4,2.5,6l6,6v5
			c-5.8,0-11.5,0.8-17.1,2.5v-11c0-2.3-0.9-4.4-2.5-6l-6-6v-13.5c0-4.7-3.8-8.5-8.5-8.5s-8.5,3.8-8.5,8.5v17.1c0,2.3,0.9,4.4,2.5,6
			l6,6v15.3c-0.4,0.2-0.9,0.5-1.3,0.7c-4.6,3.4-10.1,5.5-15.8,6.1c-5.7-0.6-11.2-2.7-15.8-6.1c-0.4-0.2-0.8-0.5-1.3-0.7v-15.3l6-6
			c1.6-1.6,2.5-3.8,2.5-6v-17.1c0-4.7-3.8-8.5-8.5-8.5s-8.5,3.8-8.5,8.5v13.5l-6,6c-1.6,1.6-2.5,3.8-2.5,6v11
			c-5.5-1.7-11.3-2.5-17.1-2.5v-5l6-6c1.6-1.6,2.5-3.8,2.5-6v-8.5c0-4.7-3.8-8.5-8.5-8.5c-4.7,0-8.5,3.8-8.5,8.5v5l-6,6
			c-1.6,1.6-2.5,3.8-2.5,6v12.2c-8.8,3.8-16.8,9.1-23.9,15.6c4.8-34.4,20.5-58.2,47.4-70.4H300.848z M290.148,145.123v17.1h-68.3
			v-17.1c0-4.7,3.8-8.5,8.5-8.5h51.2C286.348,136.523,290.148,140.423,290.148,145.123z M247.548,119.523v-17.1h17.1v17.1H247.548z
			 M281.648,59.723c-9.4,0-17.1,7.6-17.1,17.1v8.5h-17.1v-8.5c0-9.4-7.6-17.1-17.1-17.1h-25.6v-17h25.6c7.4,0,14.6,2.3,20.4,6.8
			c0.3,0.2,0.6,0.4,1,0.5c0.3,0.2,0.6,0.3,0.9,0.5c1,0.5,2.2,0.7,3.3,0.8c1.1,0,2.3-0.3,3.3-0.8c0.3-0.1,0.6-0.3,0.9-0.5
			c0.3-0.1,0.7-0.3,1-0.5c5.9-4.5,13.1-6.8,20.4-6.8h34.1v17H281.648z M358.448,59.723h-25.6v-17h25.6V59.723z M477.948,170.723
			h-93.9c-4.7,0-8.5-3.8-8.5-8.5v-8.5h102.4V170.723z M494.948,128.023c0,4.7-3.8,8.5-8.5,8.5h-110.9v-110.9c0-4.7,3.8-8.5,8.5-8.5
			h110.9V128.023z"/>
	</g>
</g>
<g>
	<g>
		<path d="M426.748,34.123h-25.6c-4.7,0-8.5,3.8-8.5,8.5c0,4.7,3.8,8.5,8.5,8.5h25.6c4.7,0,8.5-3.8,8.5-8.5
			C435.248,37.923,431.448,34.123,426.748,34.123z"/>
	</g>
</g>
<g>
	<g>
		<path d="M468.848,39.423c-0.6-1-1.2-2-1.9-2.8c-2.4-2.5-6.1-3.2-9.3-1.9c-3.2,1.3-5.3,4.5-5.3,7.9c0,2.3,0.9,4.4,2.5,6.1
			c1.6,1.6,3.8,2.5,6.1,2.5s4.5-0.9,6.1-2.5c1.6-1.6,2.5-3.8,2.5-6.1C469.548,41.523,469.348,40.423,468.848,39.423z"/>
	</g>
</g>
<g>
</g>
<g>
</g>
<g>
</g>
<g>
</g>
<g>
</g>
<g>
</g>
<g>
</g>
<g>
</g>
<g>
</g>
<g>
</g>
<g>
</g>
<g>
</g>
<g>
</g>
<g>
</g>
<g>
</g>
</svg>
