<?xml version="1.0" encoding="iso-8859-1"?>
<!-- Generator: Adobe Illustrator 19.0.0, SVG Export Plug-In . SVG Version: 6.00 Build 0)  -->
<svg version="1.1" id="Capa_1" xmlns="http://www.w3.org/2000/svg" xmlns:xlink="http://www.w3.org/1999/xlink" x="0px" y="0px"
	 viewBox="0 0 512 512" style="enable-background:new 0 0 512 512;" xml:space="preserve">
<g>
	<g>
		<g>
			<path d="M512,256c0-29.68-21.819-54.846-51.2-59.052v-39.815l23.1-23.1c2.178-2.151,3.037-5.304,2.251-8.262
				c-0.786-2.958-3.097-5.269-6.055-6.055c-2.958-0.786-6.111,0.073-8.262,2.251L460.8,133V85.333
				C460.78,66.49,445.51,51.22,426.667,51.2h-76.8V17.067C349.856,7.646,342.221,0.011,332.8,0H179.2
				c-9.421,0.011-17.056,7.645-17.067,17.067V51.2h-76.8C66.49,51.22,51.22,66.49,51.2,85.333v39.133l-23.1,23.1
				c-3.281,3.341-3.256,8.701,0.054,12.012s8.671,3.335,12.012,0.054L51.2,148.6v48.349C21.82,201.155,0,226.32,0,256
				c0,29.68,21.82,54.846,51.2,59.052v39.815l-23.1,23.1c-3.281,3.341-3.256,8.701,0.054,12.012s8.671,3.335,12.012,0.054L51.2,379
				v47.667c0.02,18.843,15.29,34.113,34.133,34.133h115.933l48.7,48.7c1.6,1.601,3.77,2.5,6.033,2.5c2.263,0,4.433-0.899,6.033-2.5
				l48.7-48.7h115.933c18.843-0.02,34.113-15.29,34.133-34.133v-39.133l23.1-23.1c3.296-3.338,3.28-8.711-0.038-12.029
				c-3.317-3.317-8.69-3.334-12.029-0.038L460.8,363.4v-48.348C490.18,310.846,512,285.68,512,256z M179.2,17.067h153.6
				l0.004,42.646l-0.004,0.021l0.004,0.021l0.004,42.646H179.2V17.067z M59.733,298.667c-23.564,0-42.667-19.103-42.667-42.667
				c0.028-23.553,19.114-42.639,42.667-42.667c23.564,0,42.667,19.102,42.667,42.667S83.297,298.667,59.733,298.667z M256,491.4
				l-39.133-39.133L256,413.133l39.133,39.133L256,491.4z M443.733,363.4L432.7,352.367c-3.338-3.296-8.711-3.279-12.029,0.038
				c-3.317,3.317-3.334,8.691-0.038,12.029l23.1,23.1v39.133c-0.011,9.421-7.645,17.056-17.067,17.067H310.733l-48.7-48.7
				c-1.6-1.601-3.77-2.5-6.033-2.5c-2.263,0-4.433,0.899-6.033,2.5l-48.7,48.7H85.333c-9.421-0.011-17.056-7.645-17.067-17.067V379
				L79.3,390.034c2.151,2.178,5.304,3.037,8.262,2.251c2.958-0.786,5.269-3.097,6.055-6.055s-0.073-6.111-2.251-8.262l-23.1-23.1
				v-39.815c29.38-4.206,51.2-29.372,51.2-59.052c0-29.68-21.82-54.846-51.2-59.052V148.6L79.3,159.634
				c3.338,3.296,8.711,3.279,12.029-0.038c3.317-3.317,3.334-8.69,0.038-12.029l-23.1-23.1V85.333
				c0.011-9.421,7.645-17.056,17.067-17.067h76.8V102.4c0.011,9.421,7.645,17.056,17.067,17.067h153.6
				c9.421-0.011,17.056-7.645,17.067-17.067V68.267h76.8c9.421,0.011,17.056,7.645,17.067,17.067V133L432.7,121.966
				c-3.338-3.296-8.711-3.279-12.029,0.038c-3.317,3.317-3.334,8.691-0.038,12.029l23.1,23.1v39.815
				c-29.38,4.206-51.2,29.372-51.2,59.052c0,29.68,21.819,54.846,51.2,59.052V363.4z M452.267,298.667
				c-23.564,0-42.667-19.103-42.667-42.667c0.028-23.553,19.114-42.639,42.667-42.667c23.564,0,42.667,19.102,42.667,42.667
				S475.831,298.667,452.267,298.667z"/>
			<path d="M345.242,155.113c-6.4-6.402-15.08-9.999-24.132-10c-9.052-0.001-17.734,3.595-24.134,9.996l-5.825,5.821l-0.008,0.012
				l-23.908,23.917L159.575,292.513c-0.176,0.176-0.248,0.419-0.406,0.608c-0.725,0.879-1.271,1.891-1.606,2.979
				c-0.121,0.251-0.228,0.508-0.321,0.771l-11.958,59.808c-0.502,2.507,0.147,5.107,1.768,7.084
				c1.621,1.977,4.042,3.124,6.599,3.124c0.563,0,1.124-0.056,1.675-0.167l59.808-11.963c0.263-0.052,0.458-0.222,0.71-0.297
				c1.093-0.341,2.111-0.886,3-1.606c0.204-0.169,0.456-0.239,0.648-0.43l107.65-107.654l23.913-23.912l0.013-0.009l5.825-5.825
				c13.308-13.34,13.308-34.935,0-48.275L345.242,155.113z M273.267,202.959l11.852,11.853l-95.587,95.589l-11.856-11.855
				L273.267,202.959z M164.525,347.475l6.324-31.623l25.301,25.299L164.525,347.475z M213.458,334.325l-11.859-11.858l95.585-95.589
				l11.857,11.859L213.458,334.325z M321.108,226.671l-17.888-17.889l-17.887-17.89l11.85-11.854l32.18,32.172l3.603,3.603
				L321.108,226.671z M345.034,202.746l-35.775-35.775c6.774-6.262,17.252-6.171,23.917,0.208v0.004l11.65,11.638
				C351.395,185.41,351.488,196.044,345.034,202.746z"/>
		</g>
	</g>
</g>
<g>
</g>
<g>
</g>
<g>
</g>
<g>
</g>
<g>
</g>
<g>
</g>
<g>
</g>
<g>
</g>
<g>
</g>
<g>
</g>
<g>
</g>
<g>
</g>
<g>
</g>
<g>
</g>
<g>
</g>
</svg>
