<?xml version="1.0" encoding="iso-8859-1"?>
<!-- Generator: Adobe Illustrator 19.0.0, SVG Export Plug-In . SVG Version: 6.00 Build 0)  -->
<svg version="1.1" id="Capa_1" xmlns="http://www.w3.org/2000/svg" xmlns:xlink="http://www.w3.org/1999/xlink" x="0px" y="0px"
	 viewBox="0 0 512 512" style="enable-background:new 0 0 512 512;" xml:space="preserve">
<g>
	<g>
		<g>
			<path d="M220.333,88.617L220.333,88.617c3.107-14-5.122-28.024-18.859-32.142c-2.251-10.128-9.822-18.235-19.772-21.173
				c-9.95-2.938-20.711-0.244-28.102,7.036c-7.39-7.28-18.149-9.974-28.097-7.036c-9.949,2.937-17.519,11.044-19.769,21.17
				c-13.742,4.115-21.974,18.142-18.867,32.146c-12.008,10.588-13.475,28.784-3.317,41.158c-2.858,7.144-2.71,15.139,0.409,22.173
				s8.945,12.511,16.158,15.19l0.033,0.079c0.262,0.701,0.56,1.388,0.892,2.058c0.092,0.2,0.2,0.421,0.3,0.629l-0.009,0.004
				c0.217,0.479,0.462,0.945,0.733,1.396c0.075,0.142,0.492,0.846,0.575,0.979c0.55,0.905,1.133,1.775,1.75,2.6l1.15,1.454
				c1.569,1.856,3.345,3.528,5.292,4.983l1.308,0.933c1.247,0.843,2.553,1.595,3.908,2.25c0.958,0.472,1.94,0.894,2.942,1.263
				l1.708,0.571c0.508,0.158,1.05,0.308,1.15,0.317c1.087,0.3,2.192,0.531,3.308,0.692c0.542,0.087,1.033,0.125,1.05,0.142
				c1.277,0.169,2.563,0.251,3.851,0.246c8.943,0.002,17.48-3.737,23.542-10.313c6.062,6.575,14.598,10.315,23.542,10.313
				c1.089,0.014,2.178-0.049,3.258-0.188c0.531-0.037,1.059-0.101,1.583-0.192c0.995-0.136,1.98-0.334,2.95-0.592
				c0.517-0.117,1.058-0.267,1.592-0.438l1.8-0.6c0.919-0.341,1.82-0.729,2.7-1.163c1.429-0.685,2.805-1.474,4.117-2.363
				l1.167-0.833c2.031-1.521,3.88-3.271,5.508-5.217l1.008-1.283c0.713-0.97,1.375-1.977,1.983-3.017
				c0.392-0.625,0.745-1.274,1.058-1.942l-0.009-0.004c0.1-0.2,0.192-0.408,0.283-0.604c0.301-0.592,0.571-1.2,0.808-1.821
				l0.133-0.341c7.213-2.679,13.039-8.156,16.158-15.189c3.119-7.034,3.266-15.029,0.409-22.173
				C233.808,117.401,232.342,99.205,220.333,88.617z M208.025,121.225L208.025,121.225c-1.887,1.354-3.142,3.417-3.475,5.716
				s0.284,4.634,1.709,6.467c1.548,1.985,2.382,4.433,2.367,6.95c0.027,5.661-4.096,10.487-9.692,11.346
				c-3.821,1.064-6.693,4.227-7.383,8.133c-0.042,0.125-0.35,1.013-0.383,1.142l-0.317,0.867c-0.158,0.258-0.3,0.525-0.433,0.796
				l7.45,4.192l-7.892-3.408c-0.241,0.402-0.502,0.792-0.783,1.167l-0.55,0.712c-0.913,1.056-1.955,1.993-3.1,2.792
				c-0.647,0.429-1.323,0.81-2.025,1.142c-0.4,0.2-0.817,0.367-1.108,0.479l-1.708,0.521c-0.672,0.158-1.354,0.272-2.042,0.341
				c-0.503,0.065-1.01,0.095-1.516,0.088c-8.285-0.01-14.999-6.724-15.008-15.008c0-4.713-3.821-8.533-8.533-8.533
				c-4.713,0-8.533,3.82-8.533,8.533c-0.01,8.285-6.724,14.999-15.008,15.008c-0.773-0.005-1.545-0.068-2.308-0.188
				c-0.662-0.1-1.316-0.243-1.958-0.429l-0.883-0.292c-0.46-0.17-0.91-0.363-1.35-0.579c-0.87-0.431-1.701-0.937-2.483-1.512
				c-0.865-0.635-1.656-1.364-2.358-2.175l-0.692-0.883c-0.323-0.428-0.621-0.875-0.892-1.338c-0.1-0.188-0.341-0.642-0.458-0.821
				c-0.108-0.275-0.4-0.946-0.542-1.208c-0.033-0.088-0.358-0.8-0.392-0.883c-0.058-0.367-0.3-1.358-0.4-1.717
				c-0.635-3.586-3.477-6.373-7.075-6.938c-5.595-0.859-9.718-5.685-9.692-11.346c-0.015-2.517,0.819-4.965,2.367-6.95
				c1.425-1.834,2.042-4.169,1.709-6.467s-1.588-4.362-3.475-5.716c-3.63-2.586-5.63-6.892-5.266-11.333s3.039-8.364,7.041-10.325
				c2.11-1.042,3.696-2.909,4.384-5.159c0.688-2.25,0.416-4.685-0.75-6.728c-0.863-1.523-1.312-3.245-1.3-4.996
				c0.008-5.694,4.631-10.304,10.325-10.296c2.394-0.122,4.637-1.209,6.217-3.012c1.618-1.843,2.442-4.252,2.292-6.7
				c-0.011-4.107,2.174-7.907,5.728-9.964c3.555-2.057,7.938-2.057,11.493,0s5.74,5.857,5.728,9.964c0,4.713,3.82,8.533,8.533,8.533
				s8.533-3.82,8.533-8.533c0.007-6.334,5.14-11.467,11.475-11.475c3.143,0.042,6.135,1.354,8.295,3.637s3.304,5.343,3.172,8.484
				c-0.142,2.354,0.695,4.662,2.312,6.379c1.617,1.717,3.872,2.689,6.23,2.688c5.685,0.003,10.294,4.61,10.3,10.296
				c0.012,1.75-0.437,3.473-1.3,4.996c-1.167,2.044-1.438,4.478-0.75,6.728c0.688,2.25,2.274,4.117,4.384,5.159
				c4.002,1.961,6.677,5.883,7.041,10.325S211.654,118.639,208.025,121.225z"/>
			<path d="M512,315.733c-0.015-14.132-11.468-25.585-25.6-25.6h-51.2v-179.2c-0.015-14.132-11.468-25.585-25.6-25.6H307.2V25.6
				C307.185,11.468,295.732,0.015,281.6,0h-256C11.468,0.015,0.015,11.468,0,25.6v204.8c0.015,14.132,11.468,25.585,25.6,25.6
				h85.333v17.067C92.09,273.087,76.82,288.357,76.8,307.2v8.533c-0.001,2.263,0.898,4.434,2.499,6.035
				c1.6,1.6,3.771,2.499,6.035,2.499H128v145.067c0.015,14.132,11.468,25.585,25.6,25.6h129.573
				c3.592,10.199,13.214,17.034,24.027,17.067h179.2c14.132-0.015,25.585-11.468,25.6-25.6v-34.133
				c-0.02-6.319-2.394-12.404-6.658-17.067c4.265-4.663,6.639-10.748,6.658-17.067V384c-0.02-6.319-2.394-12.404-6.658-17.067
				c4.265-4.663,6.639-10.748,6.658-17.067V315.733z M349.867,102.4H409.6c4.711,0.005,8.529,3.822,8.533,8.533v136.533h-17.067V128
				c0.001-2.263-0.898-4.434-2.499-6.035c-1.6-1.6-3.771-2.499-6.035-2.499h-42.667V102.4z M418.133,264.533v25.6h-17.067v-25.6
				H418.133z M307.2,102.4h25.6v17.067h-25.6V102.4z M17.067,25.6c0.005-4.711,3.822-8.529,8.533-8.533h256
				c4.711,0.005,8.529,3.822,8.533,8.533v179.2H17.067V25.6z M25.6,238.933c-4.711-0.005-8.529-3.822-8.533-8.533v-8.533h273.067
				v8.533c-0.005,4.711-3.822,8.529-8.533,8.533H25.6z M179.2,256v17.067H128V256H179.2z M93.867,307.2
				c0.011-9.421,7.645-17.056,17.067-17.067h85.333c9.421,0.011,17.056,7.645,17.067,17.067H93.867z M162.133,324.267v25.6h-17.067
				v-25.6H162.133z M238.933,477.867H153.6c-4.711-0.005-8.529-3.822-8.533-8.533v-102.4h17.067v85.333
				c-0.001,2.263,0.898,4.434,2.499,6.035c1.6,1.6,3.771,2.499,6.035,2.499h68.267V477.867z M281.6,477.867H256V460.8h25.6V477.867z
				 M281.6,315.733v34.133c0.02,6.319,2.394,12.404,6.658,17.067c-4.265,4.663-6.639,10.748-6.658,17.067v34.133
				c0.02,6.319,2.394,12.404,6.658,17.067c-2.239,2.483-3.967,5.383-5.085,8.533H179.2V324.267h42.667
				c2.263,0.001,4.434-0.898,6.035-2.499c1.6-1.6,2.499-3.771,2.499-6.035V307.2c-0.02-18.843-15.29-34.113-34.133-34.133V256H281.6
				c14.132-0.015,25.585-11.468,25.6-25.6v-93.867H384v153.6h-76.8C293.068,290.149,281.615,301.601,281.6,315.733z M494.933,486.4
				c-0.005,4.711-3.822,8.529-8.533,8.533H307.2c-4.711-0.005-8.529-3.822-8.533-8.533v-34.133c0.005-4.711,3.822-8.529,8.533-8.533
				h179.2c4.711,0.005,8.529,3.823,8.533,8.533V486.4z M494.933,418.133c-0.005,4.711-3.822,8.529-8.533,8.533H307.2
				c-4.711-0.005-8.529-3.822-8.533-8.533V384c0.005-4.711,3.822-8.529,8.533-8.533h179.2c4.711,0.005,8.529,3.822,8.533,8.533
				V418.133z M494.933,349.867c-0.005,4.711-3.822,8.529-8.533,8.533H307.2c-4.711-0.005-8.529-3.822-8.533-8.533v-34.133
				c0.005-4.711,3.822-8.529,8.533-8.533h179.2c4.711,0.005,8.529,3.822,8.533,8.533V349.867z"/>
			<path d="M332.117,329.554c-0.189-0.542-0.446-1.057-0.767-1.533c-0.341-0.429-0.683-0.854-1.025-1.279
				c-0.425-0.341-0.858-0.683-1.283-1.025c-0.474-0.324-0.99-0.583-1.533-0.771c-0.51-0.258-1.059-0.43-1.625-0.508
				c-1.093-0.258-2.232-0.258-3.325,0c-0.534,0.091-1.051,0.263-1.533,0.508c-0.546,0.187-1.064,0.447-1.542,0.771l-1.275,1.025
				c-0.368,0.405-0.71,0.832-1.025,1.279c-0.324,0.474-0.581,0.99-0.767,1.533c-0.246,0.485-0.42,1.003-0.517,1.537
				c-0.093,0.565-0.148,1.136-0.166,1.709c0.03,2.26,0.914,4.424,2.475,6.059c0.425,0.341,0.85,0.683,1.275,1.021
				c0.477,0.324,0.996,0.583,1.542,0.771c0.483,0.245,1,0.418,1.533,0.513c0.565,0.094,1.136,0.151,1.709,0.171
				c0.542-0.016,1.083-0.073,1.617-0.171c0.566-0.082,1.115-0.255,1.625-0.512c0.543-0.188,1.059-0.447,1.533-0.771
				c0.425-0.337,0.858-0.679,1.283-1.021c1.557-1.637,2.441-3.8,2.475-6.059c-0.017-0.573-0.076-1.144-0.175-1.708
				C332.536,330.556,332.364,330.038,332.117,329.554z"/>
			<path d="M364.459,326.741c-0.418-0.389-0.876-0.732-1.367-1.025c-0.435-0.339-0.926-0.6-1.45-0.771
				c-0.51-0.258-1.059-0.43-1.625-0.508c-2.782-0.548-5.655,0.315-7.675,2.304c-1.561,1.634-2.446,3.799-2.475,6.059
				c0.018,0.571,0.074,1.14,0.167,1.704c0.096,0.535,0.27,1.053,0.517,1.537c0.184,0.545,0.442,1.062,0.767,1.538
				c0.317,0.446,0.659,0.873,1.025,1.28c0.803,0.788,1.762,1.399,2.817,1.792c1.026,0.437,2.127,0.669,3.242,0.683
				c0.542-0.016,1.083-0.073,1.617-0.171c0.566-0.082,1.115-0.255,1.625-0.512c0.524-0.171,1.015-0.432,1.45-0.771
				c0.508-0.337,0.942-0.679,1.367-1.021c1.557-1.637,2.441-3.8,2.475-6.059c-0.013-1.116-0.245-2.219-0.683-3.246
				C365.839,328.511,365.23,327.556,364.459,326.741z"/>
			<path d="M330.325,395.008c-0.406-0.368-0.835-0.71-1.283-1.025c-0.474-0.324-0.99-0.583-1.533-0.771
				c-0.51-0.258-1.059-0.43-1.625-0.508c-1.093-0.258-2.232-0.258-3.325,0c-0.534,0.091-1.051,0.263-1.533,0.508
				c-0.546,0.187-1.064,0.447-1.542,0.771c-0.446,0.315-0.872,0.657-1.276,1.025c-0.753,0.828-1.359,1.78-1.792,2.813
				c-0.481,1.013-0.715,2.125-0.683,3.246c0.03,2.26,0.914,4.424,2.475,6.059c0.425,0.341,0.85,0.683,1.275,1.021
				c0.477,0.324,0.996,0.583,1.542,0.771c0.483,0.245,1,0.418,1.533,0.513c0.565,0.098,1.136,0.155,1.709,0.171
				c0.542-0.016,1.083-0.073,1.617-0.171c0.566-0.082,1.115-0.255,1.625-0.512c0.543-0.188,1.059-0.447,1.533-0.771
				c0.425-0.337,0.858-0.679,1.283-1.021c1.557-1.637,2.441-3.8,2.475-6.058c-0.013-1.116-0.245-2.219-0.683-3.246
				C331.684,396.788,331.078,395.837,330.325,395.008z"/>
			<path d="M363.092,393.983c-0.435-0.339-0.926-0.6-1.45-0.771c-0.51-0.258-1.059-0.43-1.625-0.508
				c-2.778-0.482-5.621,0.372-7.675,2.304c-0.368,0.405-0.71,0.832-1.025,1.279c-0.324,0.474-0.582,0.99-0.767,1.533
				c-0.246,0.485-0.42,1.003-0.517,1.537c-0.093,0.565-0.148,1.136-0.167,1.709c-0.022,2.27,0.87,4.453,2.475,6.058
				c1.605,1.605,3.789,2.497,6.058,2.475c0.542-0.016,1.083-0.073,1.617-0.171c0.566-0.082,1.115-0.255,1.625-0.512
				c0.524-0.171,1.015-0.432,1.45-0.771c0.49-0.291,0.948-0.633,1.367-1.021c0.771-0.816,1.379-1.772,1.792-2.817
				c0.437-1.026,0.669-2.127,0.683-3.242c-0.033-2.259-0.917-4.422-2.475-6.059C364.033,394.667,363.6,394.325,363.092,393.983z"/>
			<path d="M330.325,463.275c-0.425-0.341-0.858-0.683-1.283-1.025c-0.474-0.324-0.99-0.583-1.533-0.771
				c-0.51-0.258-1.059-0.43-1.625-0.508c-1.093-0.258-2.232-0.258-3.325,0c-0.534,0.091-1.051,0.263-1.533,0.508
				c-0.546,0.187-1.064,0.447-1.542,0.771l-1.276,1.025c-0.772,0.814-1.38,1.769-1.792,2.813c-0.481,1.013-0.715,2.125-0.683,3.246
				c0.018,0.571,0.074,1.14,0.167,1.704c0.096,0.535,0.27,1.053,0.517,1.537c0.184,0.545,0.442,1.062,0.767,1.538
				c0.317,0.446,0.659,0.873,1.025,1.279c0.425,0.341,0.85,0.683,1.275,1.021c0.477,0.324,0.996,0.583,1.542,0.771
				c0.483,0.245,1,0.418,1.533,0.513c0.565,0.098,1.136,0.155,1.709,0.171c0.542-0.016,1.083-0.073,1.617-0.171
				c0.566-0.082,1.115-0.255,1.625-0.513c0.543-0.188,1.059-0.447,1.533-0.771c0.425-0.337,0.858-0.679,1.283-1.021
				c0.341-0.429,0.683-0.854,1.025-1.279c0.321-0.477,0.579-0.994,0.767-1.538c0.247-0.483,0.419-1.002,0.508-1.537
				c0.099-0.563,0.158-1.133,0.175-1.704c-0.013-1.116-0.245-2.219-0.683-3.246C331.705,465.044,331.097,464.089,330.325,463.275z"
				/>
			<path d="M364.459,463.275c-0.418-0.389-0.876-0.732-1.367-1.025c-0.435-0.339-0.926-0.6-1.45-0.771
				c-0.51-0.258-1.059-0.43-1.625-0.508c-2.782-0.547-5.655,0.315-7.675,2.304c-1.561,1.634-2.446,3.799-2.475,6.059
				c0.018,0.571,0.074,1.14,0.167,1.704c0.096,0.535,0.27,1.053,0.517,1.537c0.184,0.545,0.442,1.062,0.767,1.538
				c0.317,0.446,0.659,0.873,1.025,1.279c0.803,0.788,1.762,1.399,2.817,1.792c1.026,0.437,2.127,0.669,3.242,0.683
				c0.542-0.016,1.083-0.073,1.617-0.171c0.566-0.082,1.115-0.255,1.625-0.513c0.524-0.171,1.015-0.432,1.45-0.771
				c0.508-0.337,0.942-0.679,1.367-1.021c1.557-1.637,2.441-3.8,2.475-6.058c-0.013-1.116-0.245-2.219-0.683-3.246
				C365.839,465.044,365.23,464.089,364.459,463.275z"/>
		</g>
	</g>
</g>
<g>
</g>
<g>
</g>
<g>
</g>
<g>
</g>
<g>
</g>
<g>
</g>
<g>
</g>
<g>
</g>
<g>
</g>
<g>
</g>
<g>
</g>
<g>
</g>
<g>
</g>
<g>
</g>
<g>
</g>
</svg>
