<?xml version="1.0" encoding="iso-8859-1"?>
<!-- Generator: Adobe Illustrator 19.0.0, SVG Export Plug-In . SVG Version: 6.00 Build 0)  -->
<svg version="1.1" id="Capa_1" xmlns="http://www.w3.org/2000/svg" xmlns:xlink="http://www.w3.org/1999/xlink" x="0px" y="0px"
	 viewBox="0 0 512 512" style="enable-background:new 0 0 512 512;" xml:space="preserve">
<g>
	<g>
		<g>
			<path d="M136.533,238.933h-17.067c-14.132,0.015-25.585,11.468-25.6,25.6V281.6c0.015,14.132,11.468,25.585,25.6,25.6h17.067
				c14.132-0.015,25.585-11.468,25.6-25.6v-17.067C162.118,250.401,150.665,238.949,136.533,238.933z M145.067,281.6
				c-0.006,4.71-3.823,8.527-8.533,8.533h-17.067c-4.71-0.006-8.527-3.823-8.533-8.533v-17.067c0.006-4.71,3.823-8.527,8.533-8.533
				h17.067c4.71,0.006,8.527,3.823,8.533,8.533V281.6z"/>
			<path d="M273.067,238.933H256c-14.132,0.015-25.585,11.468-25.6,25.6V281.6c0.015,14.132,11.468,25.585,25.6,25.6h17.067
				c14.132-0.015,25.585-11.468,25.6-25.6v-17.067C298.651,250.401,287.199,238.949,273.067,238.933z M281.6,281.6
				c-0.006,4.71-3.823,8.527-8.533,8.533H256c-4.71-0.006-8.527-3.823-8.533-8.533v-17.067c0.006-4.71,3.823-8.527,8.533-8.533
				h17.067c4.71,0.006,8.527,3.823,8.533,8.533V281.6z"/>
			<path d="M349.867,256.771v-17.837c-0.022-18.842-15.291-34.112-34.133-34.133h-79.914l9.756-7.096
				c2.018-1.468,3.293-3.745,3.487-6.233s-0.71-4.936-2.475-6.7l-50.555-50.555c-1.198-18.188-16.505-32.208-34.728-31.807
				c-18.223,0.401-32.899,15.08-33.296,33.303c-0.397,18.223,13.627,33.528,31.815,34.721l19.365,19.309l-20.99,15.058H76.8
				c-18.842,0.022-34.112,15.291-34.133,34.133v17.837C18.038,260.907,0,282.227,0,307.2s18.038,46.293,42.667,50.429v17.837
				c0.022,18.842,15.291,34.112,34.133,34.133h61.306c-3.296,8.807-1.326,18.721,5.086,25.6c-6.413,6.879-8.382,16.793-5.085,25.6
				H76.8c-18.842,0.022-34.112,15.291-34.133,34.133v8.533c0,4.713,3.82,8.533,8.533,8.533h289.421c0.127,0,0.231-0.067,0.356-0.072
				c0.125,0.005,0.23,0.072,0.356,0.072c4.713,0,8.533-3.82,8.533-8.533v-8.533c-0.022-18.842-15.291-34.112-34.133-34.133h-61.306
				c3.296-8.807,1.326-18.721-5.086-25.6c6.412-6.879,8.382-16.793,5.086-25.6h61.306c18.842-0.022,34.112-15.291,34.133-34.133
				v-17.837c24.628-4.136,42.667-25.456,42.667-50.429S374.495,260.907,349.867,256.771z M42.667,340.122
				c-15.059-3.827-25.601-17.384-25.601-32.922s10.542-29.094,25.601-32.922V340.122z M191.436,153.753l36.022,36.022L206.804,204.8
				h-19.331l9.844-7.063c2.036-1.462,3.327-3.746,3.529-6.244s-0.704-4.96-2.479-6.731l-18.995-18.938
				C184.35,162.887,188.501,158.733,191.436,153.753z M162.133,153.6c-9.426,0-17.067-7.641-17.067-17.067
				s7.641-17.067,17.067-17.067s17.067,7.641,17.067,17.067C179.191,145.955,171.555,153.591,162.133,153.6z M315.733,477.867
				c9.422,0.009,17.057,7.645,17.067,17.067H59.733c0.009-9.422,7.645-17.057,17.067-17.067H315.733z M162.133,426.667
				c-4.713,0-8.533-3.82-8.533-8.533s3.82-8.533,8.533-8.533H230.4c4.713,0,8.533,3.82,8.533,8.533s-3.82,8.533-8.533,8.533
				s-8.533,3.82-8.533,8.533s3.82,8.533,8.533,8.533s8.533,3.821,8.533,8.533c0,4.713-3.82,8.533-8.533,8.533h-68.267
				c-4.713,0-8.533-3.821-8.533-8.533c0-4.713,3.82-8.533,8.533-8.533s8.533-3.82,8.533-8.533S166.846,426.667,162.133,426.667z
				 M281.6,392.533H110.933v-17.067H281.6V392.533z M281.6,358.4H110.933v-8.533c0.006-4.71,3.823-8.527,8.533-8.533h153.6
				c4.71,0.006,8.527,3.823,8.533,8.533V358.4z M332.8,375.467c-0.009,9.422-7.645,17.057-17.067,17.067h-17.067v-42.667
				c-0.015-14.132-11.468-25.585-25.6-25.6h-153.6c-14.132,0.015-25.585,11.468-25.6,25.6v42.667H76.8
				c-9.422-0.009-17.057-7.645-17.067-17.067V238.933c0.009-9.422,7.645-17.057,17.067-17.067h238.933
				c9.422,0.009,17.057,7.645,17.067,17.067V375.467z M349.867,340.122v-65.843c15.059,3.827,25.601,17.384,25.601,32.922
				S364.925,336.294,349.867,340.122z"/>
			<path d="M494.933,0h-204.8c-9.422,0.009-17.057,7.645-17.067,17.067V170.65c0.009,9.422,7.645,17.057,17.067,17.067h110.933
				v42.667c-0.073,7.37,4.656,13.93,11.671,16.192c7.196,2.446,15.14-0.208,19.421-6.488l33.325-52.371h29.45
				c9.422-0.009,17.057-7.645,17.067-17.067V17.067C511.991,7.645,504.355,0.009,494.933,0z M494.933,170.65H460.8
				c-2.917,0.001-5.632,1.49-7.2,3.95l-35.467,55.783v-51.2c0-4.713-3.82-8.533-8.533-8.533H290.133V17.067l204.8-0.012V170.65z"/>
			<path d="M366.933,85.333H384c9.422-0.009,17.057-7.645,17.067-17.067V51.2c-0.009-9.422-7.645-17.057-17.067-17.067h-17.067
				c-9.422,0.009-17.057,7.645-17.067,17.067v17.067C349.876,77.688,357.512,85.324,366.933,85.333z M366.933,51.2H384l0.013,17.067
				h-17.079V51.2z"/>
			<path d="M384,119.467v17.067c0.009,9.422,7.645,17.057,17.067,17.067h17.067c9.422-0.009,17.057-7.645,17.067-17.067v-17.067
				c-0.009-9.422-7.645-17.057-17.067-17.067h-17.067C391.645,102.409,384.009,110.045,384,119.467z M418.146,136.533h-17.079
				v-17.067h17.067L418.146,136.533z"/>
			<path d="M324.267,85.333c4.713,0,8.533-3.82,8.533-8.533V42.667c0-4.713-3.82-8.533-8.533-8.533s-8.533,3.82-8.533,8.533V76.8
				C315.733,81.513,319.554,85.333,324.267,85.333z"/>
			<path d="M426.667,85.333c4.713,0,8.533-3.82,8.533-8.533V42.667c0-4.713-3.82-8.533-8.533-8.533s-8.533,3.82-8.533,8.533V76.8
				C418.133,81.513,421.954,85.333,426.667,85.333z"/>
			<path d="M460.8,85.333c4.713,0,8.533-3.82,8.533-8.533V42.667c0-4.713-3.82-8.533-8.533-8.533s-8.533,3.82-8.533,8.533V76.8
				C452.267,81.513,456.087,85.333,460.8,85.333z"/>
			<path d="M460.8,153.6c4.713,0,8.533-3.821,8.533-8.533v-34.133c0-4.713-3.82-8.533-8.533-8.533s-8.533,3.82-8.533,8.533v34.133
				C452.267,149.779,456.087,153.6,460.8,153.6z"/>
			<path d="M358.4,153.6c4.713,0,8.533-3.821,8.533-8.533v-34.133c0-4.713-3.82-8.533-8.533-8.533s-8.533,3.82-8.533,8.533v34.133
				C349.867,149.779,353.687,153.6,358.4,153.6z"/>
			<path d="M324.267,153.6c4.713,0,8.533-3.821,8.533-8.533v-34.133c0-4.713-3.82-8.533-8.533-8.533s-8.533,3.82-8.533,8.533v34.133
				C315.733,149.779,319.554,153.6,324.267,153.6z"/>
		</g>
	</g>
</g>
<g>
</g>
<g>
</g>
<g>
</g>
<g>
</g>
<g>
</g>
<g>
</g>
<g>
</g>
<g>
</g>
<g>
</g>
<g>
</g>
<g>
</g>
<g>
</g>
<g>
</g>
<g>
</g>
<g>
</g>
</svg>
