<?xml version="1.0" encoding="UTF-8"?><svg id="Layer_2" xmlns="http://www.w3.org/2000/svg" viewBox="0 0 128.7939 77.9023"><g id="Components"><g id="_04af3997-e6d6-4b9d-ba1f-c432636c43cf_4"><rect x="2.0002" y="2.0002" width="124.7934" height="73.9024" rx="6.9392" ry="6.9392" style="fill:#fff;"/><path d="M119.8545,77.9023H8.9395c-4.9292,0-8.9395-4.0103-8.9395-8.939V8.9395C0,4.0103,4.0103,0,8.9395,0h110.915c4.9297,0,8.9395,4.0103,8.9395,8.9395v60.0239c0,4.9287-4.0098,8.939-8.9395,8.939ZM8.9395,4c-2.7236,0-4.9395,2.2158-4.9395,4.9395v60.0239c0,2.7231,2.2158,4.939,4.9395,4.939h110.915c2.7236,0,4.9395-2.2158,4.9395-4.939V8.9395c0-2.7236-2.2158-4.9395-4.9395-4.9395H8.9395Z"/><path d="M42.1481,34.5238c0,7.0151-3.7739,10.522-11.3208,10.522h-6.9258v18.1133h-5.7935V16.5433h12.5859c7.6353,0,11.4541,3.4629,11.4541,10.3887v7.5918ZM36.3546,35.1898v-8.8569c0-1.687-.3892-2.9072-1.1655-3.6626-.7773-.7544-2.0093-1.1323-3.6958-1.1323h-7.5918v18.5132h7.5918c1.6865,0,2.9185-.3882,3.6958-1.1655.7764-.7764,1.1655-2.0083,1.1655-3.6958Z"/><path d="M76.0436,52.637c0,3.6855-.8887,6.3599-2.6636,8.0249-1.7764,1.6646-4.6616,2.4971-8.6572,2.4971h-8.7236v-4.9946h9.3228c1.687,0,2.9302-.3882,3.7295-1.1655.7993-.7759,1.1987-2.0078,1.1987-3.6958v-8.4575c0-1.4648-.4443-2.6304-1.332-3.4961-.8887-.8657-2.0645-1.2983-3.5293-1.2983h-8.7236v-23.5078h18.3799v4.9946h-12.7197v13.5186h2.7305c3.418,0,6.1035.8438,8.0576,2.5308,1.9531,1.6875,2.9302,4.3066,2.9302,7.8579v7.1919Z"/><path d="M90.9606,21.5379v-4.9946h21.6431v6.4595l-11.7207,40.1562h-5.9268l12.1201-41.6211h-16.1157Z"/></g></g></svg>