<?xml version="1.0" encoding="iso-8859-1"?>
<!-- Generator: Adobe Illustrator 19.0.0, SVG Export Plug-In . SVG Version: 6.00 Build 0)  -->
<svg version="1.1" id="Capa_1" xmlns="http://www.w3.org/2000/svg" xmlns:xlink="http://www.w3.org/1999/xlink" x="0px" y="0px"
	 viewBox="0 0 512 512" style="enable-background:new 0 0 512 512;" xml:space="preserve">
<g>
	<g>
		<path d="M486.021,204.8c14.132-0.015,25.585-11.468,25.6-25.6v-8.533c-0.015-14.132-11.468-25.585-25.6-25.6h-9.215
			c-3.519-24.099-21.299-43.657-44.954-49.45c-2.62-4.019-12.072-21.77-13.822-70.767C417.635,11.01,406.3-0.004,392.454,0h-154.2
			c-13.845-0.003-25.18,11.01-25.575,24.85c-1.745,48.916-11.177,66.708-13.813,70.765c-26.75,6.515-45.594,30.454-45.645,57.985
			v60.481c-19.731,22.155-28.753,51.849-24.683,81.235c1.343,10.345,4.301,20.414,8.767,29.842c1.793,3.752,3.816,7.39,6.057,10.894
			l-37.424,37.431c-4.858-0.321-9.62,1.461-13.074,4.892L5.387,465.859c-3.205,3.199-5.007,7.541-5.008,12.069
			c-0.002,4.528,1.797,8.871,5,12.073l16.267,16.267c6.668,6.656,17.466,6.656,24.133,0l87.475-87.484
			c2.1-2.116,3.603-4.75,4.355-7.635c0.742-0.468,1.445-0.994,2.104-1.573l21.562-21.563c8.118,14.128,21.662,24.322,37.485,28.214
			c2.493,3.755,12.151,21.38,13.92,70.924c0.395,13.84,11.73,24.854,25.575,24.85h154.2c13.845,0.004,25.18-11.01,25.575-24.85
			c1.737-48.708,11.103-66.567,13.785-70.723c26.846-6.399,45.761-30.429,45.673-58.027h8.533c14.132-0.015,25.585-11.468,25.6-25.6
			v-59.733c-0.015-14.132-11.468-25.585-25.6-25.6h-8.533V204.8H486.021z M477.488,162.133h8.533
			c4.712,0.003,8.53,3.822,8.533,8.533v8.533c-0.003,4.712-3.822,8.53-8.533,8.533h-8.533V162.133z M229.729,25.45
			c0.105-4.641,3.883-8.357,8.525-8.383h154.2c4.642,0.027,8.42,3.742,8.525,8.383c-0.053,23.261,3.712,46.374,11.143,68.417
			H218.586C226.018,71.824,229.782,48.711,229.729,25.45z M33.713,494.2l-16.267-16.267l87.408-87.417
			c0.161,0.096,0.292,0.226,0.462,0.313l15.88,15.879L33.713,494.2z M131.895,393.274l-10.808-10.807l32.646-32.653
			c1.271,1.42,2.515,2.862,3.871,4.22c2.283,2.277,4.67,4.391,7.11,6.409L131.895,393.274z M169.663,341.958
			c-3.366-3.376-6.445-7.025-9.207-10.91l-0.01-0.015l-0.003-0.002c-2.956-4.139-5.533-8.537-7.697-13.14
			c-3.713-7.84-6.17-16.214-7.283-24.817c-3.715-26.409,5.245-53.023,24.175-71.808c1.171-1.161,2.433-2.179,3.654-3.263
			c4.493,21.74,12.35,42.645,23.287,61.962c12.753,24.693,36.65,50.991,70.868,78.265
			C234.707,374.147,195.484,367.619,169.663,341.958z M330.204,260.634c-2.046-10.249-5.726-20.102-10.9-29.183
			c-4.563-8.169-10.236-15.665-16.858-22.275c-24.22-24.111-58.857-34.576-92.376-27.911c2.452-5.574,5.997-10.6,10.425-14.78
			c12.124-10.426,28.284-14.866,44.033-12.1c18.779,3.588,34.808,15.733,43.342,32.842c1.631,2.554,4.453,4.1,7.483,4.1
			c3.031,0,5.852-1.546,7.483-4.1c8.534-17.108,24.563-29.254,43.342-32.842c15.749-2.756,31.905,1.683,44.033,12.1
			c22.15,20.183,21.45,62.167-1.85,104.675c-18.308,35.9-68.133,70.225-93,85.742c-3.51-2.194-6.767-4.283-9.873-6.327
			C327.758,326.337,336.961,292.845,330.204,260.634z M230.021,196.333c22.622-0.019,44.327,8.939,60.35,24.909
			c5.533,5.519,10.271,11.782,14.075,18.608c4.297,7.536,7.35,15.716,9.042,24.225c5.974,28.203-2.724,57.514-23.117,77.892
			c-1.242,1.242-2.483,2.4-3.792,3.558c-1.23,1.087-2.529,2.044-3.804,3.048c-34.422-26.795-59.005-53.152-71.163-76.673
			c-11.481-20.047-19.234-42.01-22.881-64.823c3.694-2.08,7.541-3.877,11.506-5.377
			C209.765,198.147,219.852,196.329,230.021,196.333z M400.979,486.55c-0.105,4.641-3.883,8.356-8.525,8.383h-154.2
			c-4.642-0.027-8.42-3.742-8.525-8.383c0.053-23.262-3.712-46.374-11.143-68.417h193.536
			C404.691,440.176,400.927,463.289,400.979,486.55z M460.421,196.267V358.4c0.082,20.871-15.011,38.71-35.608,42.083
			c-2.335,0.373-4.694,0.568-7.058,0.583h-204.8c-2.374,0.001-4.742-0.219-7.075-0.658c-14.202-2.403-26.23-11.815-31.978-25.022
			l5.124-5.124c33.485,19.316,75.007,18.068,107.273-3.223c0.146-0.069,0.257-0.188,0.399-0.265c2.017-1.34,3.999-2.744,5.938-4.244
			c5.518,3.706,11.445,7.498,18.252,11.677c2.729,1.672,6.164,1.679,8.9,0.017c29.883-18.183,83.092-54.741,103.658-95.092
			c27.042-49.325,26.35-99.667-1.733-125.267c-15.952-14.032-37.424-20.037-58.341-16.317
			c-19.278,3.352-36.497,14.068-48.017,29.883c-11.521-15.816-28.74-26.532-48.017-29.883c-20.925-3.732-42.411,2.281-58.358,16.333
			c-9.534,9.072-16.13,20.794-18.936,33.652c-5.049,2.086-9.919,4.579-14.563,7.456l-0.177,0.1
			c-1.722,1.088-3.355,2.329-5.016,3.523V153.6c0.028-23.553,19.114-42.639,42.667-42.667h204.8
			c23.553,0.028,42.639,19.114,42.667,42.667V196.267z M486.021,264.533c4.712,0.003,8.53,3.822,8.533,8.533V332.8
			c-0.003,4.712-3.822,8.53-8.533,8.533h-8.533v-76.8H486.021z"/>
	</g>
</g>
<g>
</g>
<g>
</g>
<g>
</g>
<g>
</g>
<g>
</g>
<g>
</g>
<g>
</g>
<g>
</g>
<g>
</g>
<g>
</g>
<g>
</g>
<g>
</g>
<g>
</g>
<g>
</g>
<g>
</g>
</svg>
