<?xml version="1.0" encoding="iso-8859-1"?>
<!-- Generator: Adobe Illustrator 19.0.0, SVG Export Plug-In . SVG Version: 6.00 Build 0)  -->
<svg version="1.1" id="Capa_1" xmlns="http://www.w3.org/2000/svg" xmlns:xlink="http://www.w3.org/1999/xlink" x="0px" y="0px"
	 viewBox="0 0 512.1 512.1" style="enable-background:new 0 0 512.1 512.1;" xml:space="preserve">
<g>
	<g>
		<path d="M435.25,358.4h17.1c14.1,0,25.6-11.5,25.6-25.6v-8.5h8.5c14.1,0,25.6-11.5,25.6-25.6V25.6c0-14.1-11.5-25.6-25.6-25.6
			H25.65c-14.1,0-25.6,11.5-25.6,25.6v273.1c0,14.1,11.5,25.6,25.6,25.6h196.1c-0.2,6.3-0.8,12.6-1.7,18.8c-45.7,4-92,16.6-92,41
			c0,10.5,8.7,19,22.6,25.5h-31.2c-9.4,0-17.1,7.6-17.1,17.1V495c0,9.4,7.6,17.1,17.1,17.1h273.1c9.4,0,17.1-7.6,17.1-17.1v-68.3
			c0-9.4-7.6-17.1-17.1-17.1h-31.2c13.9-6.5,22.6-15,22.6-25.5c0-24.4-46.4-37-92-41c-0.9-6.2-1.5-12.5-1.7-18.8h170.5v8.5
			c0,4.7-3.8,8.5-8.5,8.5h-17.1c-14.1,0-25.6,11.5-25.6,25.6c0,14.1,11.5,25.6,25.6,25.6h17.1c4.7,0,8.5,3.8,8.5,8.5v8.5
			c-18.8,0-34.1,15.3-34.1,34.1v51.2c0,9.4,7.6,17.1,17.1,17.1h51.2c9.4,0,17.1-7.6,17.1-17.1v-51.2c0-18.8-15.3-34.1-34.1-34.1V401
			c0-14.1-11.5-25.6-25.6-25.6h-17.1c-4.7,0-8.5-3.8-8.5-8.5S430.55,358.4,435.25,358.4z M392.55,426.7V495h-273v-68.3H392.55z
			 M307.25,392.5c4.8,0,8.7-3.8,8.8-8.5c0.1-2.2-0.8-4.4-2.3-6c-1.6-1.6-3.7-2.5-5.9-2.5c-2.6-0.4-7.6-4.2-11.5-14.9
			c50.1,5.1,70.7,18.3,70.7,23.5c0,7.6-37.7,25.5-110.9,25.5s-110.9-17.9-110.9-25.5c0-5.1,20.6-18.3,70.7-23.5
			c-3.9,10.6-8.8,14.4-11.4,14.9c-4.6,0.2-8.2,4.1-8.1,8.8c0.1,4.6,3.9,8.3,8.5,8.3c2.7,0,22.3-1.5,30.5-38.5
			c0.1-0.3,0.2-0.6,0.2-0.9c1.9-9.5,3-19.2,3.2-28.8h34.6c0.2,9.7,1.3,19.3,3.2,28.8c0.1,0.3,0.1,0.6,0.2,0.9
			C284.95,391,304.55,392.5,307.25,392.5z M25.65,307.2c-4.7,0-8.5-3.8-8.5-8.5V25.6c0-4.7,3.8-8.5,8.5-8.5h460.8
			c4.7,0,8.5,3.8,8.5,8.5v273.1c0,4.7-3.8,8.5-8.5,8.5H25.65z M477.95,426.7c9.4,0,17.1,7.6,17.1,17.1v8.5h-17.1V426.7z
			 M494.95,469.3v25.6h-51.2v-25.6H494.95z M460.85,452.2h-17.1v-8.5c0-9.4,7.6-17.1,17.1-17.1V452.2z"/>
	</g>
</g>
<g>
	<g>
		<path d="M145.15,435.3c-4.7,0-8.5,3.8-8.5,8.5v8.5c0,2.3,0.9,4.4,2.5,6c1.5,1.6,3.7,2.5,6,2.5c2.3,0,4.4-0.9,6-2.5
			c1.6-1.6,2.5-3.8,2.5-6v-8.5C153.65,439.1,149.85,435.3,145.15,435.3z"/>
	</g>
</g>
<g>
	<g>
		<path d="M179.25,435.3c-4.7,0-8.5,3.8-8.5,8.5v8.5c0,2.3,0.9,4.4,2.5,6c1.6,1.6,3.7,2.5,6,2.5s4.4-0.9,6-2.5
			c1.6-1.6,2.5-3.8,2.5-6v-8.5C187.75,439.1,183.95,435.3,179.25,435.3z"/>
	</g>
</g>
<g>
	<g>
		<path d="M221.95,435.3c-4.7,0-8.5,3.8-8.5,8.5v8.5c0,2.3,0.9,4.4,2.5,6c1.5,1.6,3.7,2.5,6,2.5s4.4-0.9,6-2.5
			c1.6-1.6,2.5-3.8,2.5-6v-8.5C230.45,439.1,226.65,435.3,221.95,435.3z"/>
	</g>
</g>
<g>
	<g>
		<path d="M256.05,435.3c-4.7,0-8.5,3.8-8.5,8.5v8.5c0,2.3,0.9,4.4,2.5,6c1.6,1.6,3.7,2.5,6,2.5s4.4-0.9,6-2.5
			c1.6-1.6,2.5-3.8,2.5-6v-8.5C264.55,439.1,260.75,435.3,256.05,435.3z"/>
	</g>
</g>
<g>
	<g>
		<path d="M290.15,435.3c-4.7,0-8.5,3.8-8.5,8.5v8.5c0,2.3,0.9,4.4,2.5,6c1.6,1.6,3.8,2.5,6,2.5c2.3,0,4.4-0.9,6-2.5
			c1.6-1.6,2.5-3.8,2.5-6v-8.5C298.65,439.1,294.85,435.3,290.15,435.3z"/>
	</g>
</g>
<g>
	<g>
		<path d="M332.85,435.3c-4.7,0-8.5,3.8-8.5,8.5v8.5c0,2.3,0.9,4.4,2.5,6c1.6,1.6,3.7,2.5,6,2.5s4.4-0.9,6-2.5
			c1.6-1.6,2.5-3.8,2.5-6v-8.5C341.35,439.1,337.55,435.3,332.85,435.3z"/>
	</g>
</g>
<g>
	<g>
		<path d="M366.95,435.3c-4.7,0-8.5,3.8-8.5,8.5v8.5c0,2.3,0.9,4.4,2.5,6c1.6,1.6,3.8,2.5,6,2.5c2.3,0,4.4-0.9,6-2.5
			c1.6-1.6,2.5-3.8,2.5-6v-8.5C375.45,439.1,371.65,435.3,366.95,435.3z"/>
	</g>
</g>
<g>
	<g>
		<path d="M151.15,471.7c-2-2.1-4.9-3-7.7-2.4c-2.8,0.6-5.1,2.5-6.2,5.2c-1.1,2.6-0.8,5.6,0.7,8c1.6,2.5,4.3,3.9,7.2,3.9
			c1.1,0,2.2-0.2,3.2-0.7c1-0.4,2-1,2.8-1.8c1.6-1.6,2.5-3.8,2.5-6.1S152.75,473.4,151.15,471.7z"/>
	</g>
</g>
<g>
	<g>
		<path d="M185.25,471.7c-2.4-2.5-6.1-3.2-9.3-1.9c-3.2,1.3-5.3,4.5-5.3,7.9c0,2.3,0.9,4.5,2.5,6.1c1.6,1.7,3.8,2.6,6.1,2.6
			c1.1,0,2.2-0.2,3.2-0.7c1-0.4,2-1,2.8-1.8c1.6-1.6,2.5-3.8,2.5-6.1S186.85,473.4,185.25,471.7z"/>
	</g>
</g>
<g>
	<g>
		<path d="M229.75,474.6c-0.4-1-1-2-1.8-2.8s-1.8-1.4-2.8-1.8c-1.6-0.7-3.3-0.9-5-0.5c-0.5,0.1-1.1,0.3-1.5,0.5
			c-0.5,0.2-1.1,0.4-1.5,0.8c-0.4,0.3-0.9,0.7-1.3,1c-1.6,1.6-2.4,3.8-2.5,6.1c0,2.3,0.9,4.5,2.5,6.1c0.8,0.7,1.8,1.3,2.8,1.7
			c3.2,1.4,6.9,0.7,9.3-1.8C230.35,481.5,231.15,477.8,229.75,474.6z"/>
	</g>
</g>
<g>
	<g>
		<path d="M263.85,474.6c-0.4-1-1-2-1.8-2.8s-1.8-1.4-2.8-1.8c-1.6-0.7-3.3-0.9-5-0.5c-0.5,0.1-1.1,0.3-1.5,0.5
			c-0.5,0.2-1.1,0.4-1.5,0.8c-0.4,0.3-0.9,0.7-1.3,1c-1.6,1.6-2.4,3.8-2.5,6.1c0,2.3,0.9,4.5,2.5,6.1c1.6,1.5,3.8,2.4,6.1,2.4
			c2.9,0,5.5-1.4,7.1-3.8C264.75,480.2,265.05,477.2,263.85,474.6z"/>
	</g>
</g>
<g>
	<g>
		<path d="M297.95,474.6c-0.4-1-1-2-1.8-2.8s-1.8-1.4-2.8-1.8c-1.6-0.7-3.3-0.9-5-0.5c-0.5,0.1-1.1,0.3-1.5,0.5
			c-0.5,0.2-1.1,0.4-1.5,0.8c-0.4,0.3-0.9,0.7-1.3,1c-1.6,1.6-2.4,3.8-2.5,6.1c0,2.3,0.9,4.5,2.5,6.1c1.7,1.5,3.9,2.4,6.1,2.4
			c2.9,0,5.5-1.4,7.1-3.8C298.85,480.2,299.15,477.2,297.95,474.6z"/>
	</g>
</g>
<g>
	<g>
		<path d="M338.85,471.7c-0.4-0.4-0.8-0.7-1.3-1s-1-0.6-1.5-0.8s-1-0.4-1.5-0.5c-1.1-0.3-2.3-0.3-3.4,0c-0.5,0.1-1.1,0.3-1.5,0.5
			c-0.5,0.2-1.1,0.4-1.5,0.8c-0.4,0.3-0.9,0.7-1.3,1c-0.8,0.8-1.4,1.8-1.8,2.8c-0.5,1-0.7,2.1-0.7,3.2c0,2.3,0.9,4.5,2.5,6.1
			c1.5,1.7,3.7,2.6,6,2.6c1.1,0,2.2-0.2,3.2-0.7c1-0.4,2-1,2.8-1.8c1.6-1.6,2.5-3.8,2.5-6.1S340.45,473.4,338.85,471.7z"/>
	</g>
</g>
<g>
	<g>
		<path d="M374.75,474.6c-0.4-1-1-2-1.8-2.8c-0.4-0.4-0.8-0.7-1.3-1s-1-0.6-1.5-0.8s-1-0.4-1.5-0.5c-1.7-0.3-3.4-0.2-5,0.5
			c-1,0.4-2,1-2.8,1.8s-1.4,1.8-1.8,2.8c-0.5,1-0.7,2.1-0.7,3.2c0,2.3,0.9,4.5,2.5,6.1c1.7,1.6,3.9,2.5,6.1,2.5
			c1.1,0,2.2-0.2,3.2-0.7c1-0.4,2-1,2.8-1.8C375.35,481.5,376.15,477.8,374.75,474.6z"/>
	</g>
</g>
<g>
	<g>
		<path d="M443.75,232v-18.6c0-2.3-0.9-4.4-2.5-6c-1.6-1.6-3.8-2.5-6-2.5h-75.5c-0.1-5.3-1.4-10.4-3.6-15.2c9-9.6,12.7-23.1,9.9-36
			h43.6c2.3,0,4.4-0.9,6-2.5c1.6-1.6,2.5-3.8,2.5-6V83.8c11.8-4.2,18.8-16.2,16.7-28.5c-2.1-12.3-12.7-21.3-25.2-21.3
			s-23.1,9-25.2,21.3c-2.1,12.3,4.9,24.3,16.7,28.5v52.8h-43.3c-1.9-2.3-4.1-4.5-6.5-6.3c2.9-9.8,1.6-20.3-3.5-29.1
			c-5.1-8.8-13.7-15-23.6-17.3c-2.3-15.1-13.3-27.4-28.1-31.4s-30.5,1.2-40,13.1c-9.6-11.9-25.3-17-40-13.1
			c-14.7,3.9-25.8,16.3-28.1,31.4c-13.5,3.1-24.2,13.6-27.5,27.1h-92.2V83.8c11.7-4.2,18.8-16.2,16.7-28.5S72.25,34,59.75,34
			s-23.1,9-25.2,21.3s4.9,24.3,16.7,28.5v35.7c0,2.3,0.9,4.4,2.5,6c1.6,1.6,3.8,2.5,6,2.5h100.5c0.2,0.7,0.3,1.5,0.5,2.2
			c-8.7,6.7-14.2,16.6-15.4,27.4c-1.2,10.9,2.1,21.7,9.2,30.1h-60.6c-2.3,0-4.4,0.9-6,2.5c-1.6,1.6-2.5,3.8-2.5,6v44.2
			c-11.8,4.2-18.8,16.2-16.7,28.5s12.8,21.3,25.2,21.3c12.4,0,23.1-9,25.2-21.3c2.1-12.3-4.9-24.3-16.7-28.5v-35.7h49.9
			c0,0.5-0.2,1-0.2,1.5c-0.1,16.9,10.9,31.8,27,36.8c0.2,0.7,0.5,1.4,0.7,2c0.3,0.9,0.7,1.8,1.1,2.6c0.1,0.4,0.3,0.8,0.5,1.1
			c0.4,0.7,0.7,1.5,1.1,2.2c0.2,0.3,0.4,0.7,0.6,1c0.7,1.2,1.5,2.4,2.4,3.5l1.6,2c2.1,2.5,4.6,4.8,7.2,6.8c0.6,0.4,1.1,0.8,1.8,1.3
			c1.7,1.2,3.6,2.2,5.4,3.1c1.3,0.6,2.5,1.2,3.9,1.7c0.7,0.3,1.4,0.5,2.5,0.8c0.5,0.2,1,0.3,1.6,0.4c1.4,0.4,2.9,0.7,4.3,0.9
			c0.7,0.1,1.4,0.4,1.6,0.2c1.7,0.2,3.5,0.3,5.2,0.3c13.9,0,27.1-6.6,35.3-17.9c8.3,11.2,21.4,17.9,35.3,17.9c1.6,0,3.1-0.1,4.6-0.3
			c0.7,0,1.3-0.1,2-0.2c1.4-0.2,2.7-0.5,4-0.8c0.8-0.2,1.6-0.4,2.5-0.7c0.7-0.2,1.4-0.5,2.2-0.7c1.3-0.5,2.6-1,3.7-1.6
			c2-0.9,3.8-2,5.6-3.2c0.6-0.4,1.1-0.8,1.6-1.1c2.8-2.1,5.3-4.4,7.5-7.1l1.4-1.8c0.9-1.1,1.6-2.3,2.4-3.5c0.2-0.3,0.4-0.7,0.6-1
			c0.3-0.5,0.6-1,0.8-1.5c0.3-0.6,0.6-1.2,0.9-1.8c0.4-0.8,0.7-1.6,1-2.4s0.6-1.6,0.8-2.3c10.6-3.3,19.2-11,23.6-21.2h70.2V232
			c-11.8,4.2-18.8,16.2-16.7,28.5c2.1,12.3,12.8,21.3,25.2,21.3c12.5,0,23.1-9,25.2-21.3C462.55,248.1,455.55,236.1,443.75,232z
			 M409.65,51.2c4.7,0,8.5,3.8,8.5,8.5s-3.8,8.5-8.5,8.5s-8.5-3.8-8.5-8.5C401.15,55,404.95,51.2,409.65,51.2z M59.75,68.3
			c-4.7,0-8.5-3.8-8.5-8.5s3.8-8.5,8.5-8.5s8.5,3.8,8.5,8.5C68.35,64.4,64.45,68.3,59.75,68.3z M93.95,273.1c-4.7,0-8.5-3.8-8.5-8.5
			s3.8-8.5,8.5-8.5c4.7,0,8.5,3.8,8.5,8.5C102.45,269.2,98.65,273.1,93.95,273.1z M340.15,181c-1.9,1.4-3.1,3.4-3.5,5.7
			c-0.3,2.3,0.3,4.6,1.7,6.5c2.6,3.3,4.1,7.4,4.3,11.6h-44c-4.7,0-8.5,3.8-8.5,8.5s3.8,8.5,8.5,8.5h37.3c-3.1,3-7,4.9-11.3,5.6
			c-3.6,0.6-6.4,3.3-7.1,6.9c-0.1,0.5-0.2,1-0.5,2c0,0.1-0.3,0.8-0.3,0.9c-0.2,0.6-0.4,1.3-0.7,1.9c-0.1,0.3-0.2,0.7-0.8,1.8
			c-0.1,0.2-0.5,0.9-0.6,1.1c-0.1,0.1-0.6,1-0.7,1.1c-0.4,0.7-0.9,1.4-1.4,2.1l-1,1.3c-1.4,1.6-2.9,3-4.6,4.3l-1,0.7
			c-1.1,0.7-2.3,1.4-3.5,2c-0.7,0.4-1.5,0.7-2.2,0.9l-1.7,0.6l-1.2,0.3c-0.8,0.2-1.6,0.4-2.4,0.5l-1.3,0.2c-0.9,0.1-1.9,0.2-2.8,0.2
			c-14.8,0-26.8-12-26.8-26.8c0-4.7-3.8-8.5-8.5-8.5s-8.5,3.8-8.5,8.5c0,14.8-12,26.8-26.8,26.8c-0.9,0-1.9,0-2.8-0.2
			c-0.2,0-1.1-0.2-1.3-0.2c-0.8-0.1-1.6-0.3-2.4-0.5c-0.2-0.1-1.2-0.3-1.4-0.4l-1.3-0.4c-0.8-0.3-1.6-0.6-2.4-1
			c-1.1-0.5-2.2-1.2-3.3-1.9l-1.1-0.8c-1.6-1.2-3-2.5-4.3-4l-1.2-1.5c-0.6-0.7-1.1-1.5-1.5-2.3c-0.1-0.2-0.4-0.7-0.5-0.8l-0.6-1.1
			c-0.1-0.3-0.2-0.5-0.4-0.8c-0.2-0.4-0.4-0.8-0.5-1.3c-0.3-0.7-0.5-1.4-0.7-2.2l-0.2-0.8c-0.1-0.5-0.3-0.9-0.3-1.4
			c-0.7-3.6-3.5-6.3-7.1-6.9c-10.4-1.7-18.1-10.7-18.2-21.2c0-0.5,0.1-1,0.1-1.5h44c4.7,0,8.5-3.8,8.5-8.5c0-4.7-3.8-8.5-8.5-8.5
			h-38c0-0.3,0.1-0.7,0.1-1c-0.3-2.3-1.6-4.4-3.5-5.7c-6.7-4.8-10.3-12.7-9.7-20.8c0.7-8.2,5.6-15.4,12.9-19c2.1-1,3.7-2.9,4.4-5.1
			s0.4-4.7-0.7-6.7c-0.2-0.4-0.4-0.9-0.6-1.4h43.7c4.7,0,8.5-3.8,8.5-8.5s-3.8-8.5-8.5-8.5h-43.4c3.3-6.7,10.1-10.9,17.6-10.9
			c2.3,0,4.6-1,6.2-2.7c1.6-1.7,2.5-4,2.3-6.3v-1.3c0-7.7,4.1-14.8,10.7-18.6c6.6-3.8,14.8-3.8,21.5,0c6.6,3.8,10.7,10.9,10.7,18.6
			c0,4.7,3.8,8.5,8.5,8.5s8.5-3.8,8.5-8.5c0-11.9,9.6-21.5,21.5-21.5c11.9,0,21.5,9.6,21.5,21.5v1.3c-0.1,2.3,0.7,4.6,2.3,6.3
			c1.6,1.7,3.9,2.7,6.2,2.7c10.9,0,19.7,8.8,19.7,19.7c0,3.4-0.9,6.7-2.5,9.6c-1.2,2-1.4,4.5-0.7,6.7c0,0.2,0.2,0.3,0.2,0.4h-34.1
			c-4.7,0-8.5,3.8-8.5,8.5s3.8,8.5,8.5,8.5h49.9c1.1,2.7,1.8,5.6,1.8,8.5C349.95,169.6,346.25,176.7,340.15,181z M435.25,264.5
			c-4.7,0-8.5-3.8-8.5-8.5s3.8-8.5,8.5-8.5s8.5,3.8,8.5,8.5S439.95,264.5,435.25,264.5z"/>
	</g>
</g>
<g>
</g>
<g>
</g>
<g>
</g>
<g>
</g>
<g>
</g>
<g>
</g>
<g>
</g>
<g>
</g>
<g>
</g>
<g>
</g>
<g>
</g>
<g>
</g>
<g>
</g>
<g>
</g>
<g>
</g>
</svg>
