<?xml version="1.0" encoding="iso-8859-1"?>
<!-- Generator: Adobe Illustrator 19.0.0, SVG Export Plug-In . SVG Version: 6.00 Build 0)  -->
<svg version="1.1" id="Capa_1" xmlns="http://www.w3.org/2000/svg" xmlns:xlink="http://www.w3.org/1999/xlink" x="0px" y="0px"
	 viewBox="0 0 512 512" style="enable-background:new 0 0 512 512;" xml:space="preserve">
<g>
	<g>
		<g>
			<path d="M494.933,290.133H348.236c-1.325-7.201-3.497-14.219-6.469-20.91l39.308-3.615c11.687-1.029,20.49-11.08,19.969-22.8
				c-0.52-11.72-10.179-20.952-21.911-20.941h-84.257c-1.816-0.831-3.664-1.59-5.54-2.306l-6.57-83.719
				c-0.423-6.743-3.446-13.059-8.433-17.617c-4.947-4.697-11.512-7.308-18.333-7.292c-14.038,0.033-25.693,10.853-26.767,24.85
				l-6.571,83.777c-1.875,0.717-3.723,1.475-5.539,2.306h-84.257c-11.725-0.011-21.382,9.209-21.913,20.922
				c-0.531,11.713,8.252,21.769,19.93,22.82l39.349,3.616c-2.972,6.691-5.143,13.709-6.468,20.909H17.067
				C7.646,290.146,0.012,297.779,0,307.2v2.825c-0.007,12.376,8.847,22.981,21.025,25.183l45.013,8.182
				c-17.123,14.601-19.998,39.974-6.576,58.036c13.422,18.061,38.546,22.628,57.466,10.445
				c18.919-12.183,25.157-36.946,14.267-56.638l50.567,9.192c17.698,23.098,45.139,36.642,74.237,36.642
				c29.098,0,56.539-13.544,74.237-36.642l50.567-9.192c-3.453,6.188-5.288,13.148-5.337,20.234
				c-0.124,19.741,13.311,36.99,32.483,41.702c19.171,4.712,39.071-4.343,48.113-21.892s4.864-39.01-10.101-51.886l45.013-8.182
				c12.178-2.202,21.032-12.808,21.025-25.183V307.2C511.988,297.779,504.354,290.146,494.933,290.133z M93.867,401.067
				c-14.139,0-25.6-11.462-25.6-25.6s11.461-25.6,25.6-25.6c14.138,0,25.6,11.461,25.6,25.6
				C119.451,389.599,107.999,401.051,93.867,401.067z M24.075,318.417c-4.058-0.734-7.01-4.268-7.008-8.392V307.2h145.067
				c0.002,13.011,2.727,25.878,8.001,37.773L24.075,318.417z M379.133,238.933c2.603-0.011,4.749,2.037,4.861,4.637
				s-1.85,4.825-4.445,5.038l-47.077,4.354c-3.611-5.068-7.713-9.767-12.247-14.029L379.133,238.933z M328.32,281.6h-24.378
				l-8.533-17.067h24.407C323.35,269.846,326.207,275.579,328.32,281.6z M246.25,137.058c0.263-3.783,2.7-7.069,6.244-8.42
				s7.55-0.52,10.264,2.128c1.788,1.645,2.862,3.924,2.992,6.35l6.091,77.66c-10.473-1.925-21.209-1.925-31.682,0L246.25,137.058z
				 M233.334,233.821l0.143-0.038c24.372-7.497,50.877-2.366,70.691,13.683h-96.335C215.39,241.341,224.044,236.71,233.334,233.821z
				 M284.858,281.6h-57.717l8.533-17.067h40.65L284.858,281.6z M216.592,264.533l-8.533,17.067H183.68
				c2.113-6.021,4.97-11.754,8.505-17.067H216.592z M132.408,248.608c-2.584-0.236-4.525-2.465-4.402-5.057
				c0.123-2.592,2.265-4.628,4.86-4.618l58.907,0c-4.526,4.254-8.622,8.944-12.227,14.002L132.408,248.608z M313.312,358.468
				C298.732,374.774,277.874,384.066,256,384c-21.874,0.066-42.732-9.226-57.312-25.532c-14.58-16.307-21.489-38.071-18.985-59.801
				h152.593C334.801,320.397,327.892,342.161,313.312,358.468z M418.133,401.067c-14.138,0-25.6-11.462-25.6-25.6
				s11.462-25.6,25.6-25.6s25.6,11.461,25.6,25.6C443.718,389.599,432.265,401.051,418.133,401.067z M494.933,310.025
				c-0.001,4.125-2.95,7.66-7.008,8.4l-146.06,26.549c5.274-11.895,7.999-24.762,8.002-37.774h145.067V310.025z"/>
			<path d="M98.642,368.383c-0.474-0.324-0.99-0.582-1.533-0.767c-0.484-0.245-1-0.419-1.533-0.517
				c-1.664-0.348-3.394-0.167-4.95,0.517c-3.251,1.228-5.373,4.375-5.292,7.85c0,4.713,3.821,8.533,8.533,8.533
				c4.713,0,8.533-3.82,8.533-8.533c-0.033-2.259-0.917-4.422-2.475-6.059C99.5,369.067,99.067,368.725,98.642,368.383z"/>
			<path d="M414.892,367.617c-1.045,0.412-2.001,1.02-2.817,1.792c-1.561,1.634-2.445,3.798-2.475,6.058
				c-0.023,2.27,0.869,4.454,2.475,6.059c0.829,0.754,1.782,1.36,2.817,1.792c2.624,1.124,5.638,0.847,8.014-0.737
				s3.79-4.259,3.762-7.114c-0.033-2.259-0.917-4.422-2.475-6.059C421.741,366.983,418.069,366.275,414.892,367.617z"/>
			<path d="M256,315.733c-14.138,0-25.6,11.462-25.6,25.6c0,14.138,11.461,25.6,25.6,25.6s25.6-11.462,25.6-25.6
				C281.585,327.201,270.132,315.749,256,315.733z M256,349.867c-4.713,0-8.533-3.82-8.533-8.533s3.82-8.533,8.533-8.533
				s8.533,3.821,8.533,8.533C264.53,346.045,260.712,349.864,256,349.867z"/>
			<path d="M256,443.733c13.093,0.033,25.464-5.995,33.508-16.325c2.904-3.71,2.253-9.071-1.454-11.978
				c-3.708-2.907-9.069-2.26-11.979,1.445c-4.828,6.18-12.233,9.792-20.075,9.792s-15.247-3.612-20.075-9.792
				c-2.91-3.705-8.272-4.352-11.979-1.445c-3.708,2.907-4.358,8.268-1.454,11.978C230.536,437.739,242.907,443.766,256,443.733z"/>
			<path d="M209.033,437.958c-2.909-3.705-8.27-4.35-11.975-1.442c-3.705,2.909-4.35,8.27-1.442,11.975
				c14.549,18.544,36.813,29.375,60.383,29.375s45.834-10.831,60.383-29.375c2.909-3.705,2.263-9.066-1.442-11.975
				c-3.705-2.909-9.066-2.263-11.975,1.442C291.648,452.379,274.332,460.8,256,460.8C237.668,460.8,220.352,452.379,209.033,437.958
				z"/>
			<path d="M341.826,457.704c-3.692-2.912-9.044-2.287-11.967,1.396c-17.831,22.628-45.05,35.833-73.858,35.833
				c-28.809,0-56.028-13.206-73.858-35.833c-2.923-3.683-8.275-4.308-11.967-1.396c-3.692,2.912-4.333,8.262-1.433,11.963
				C189.808,496.399,221.965,512,256,512s66.192-15.601,87.258-42.333C346.159,465.965,345.518,460.615,341.826,457.704z"/>
			<path d="M256,68.267c-13.093-0.033-25.464,5.995-33.508,16.325c-2.904,3.71-2.253,9.071,1.454,11.978
				c3.708,2.907,9.069,2.26,11.979-1.445c4.828-6.18,12.233-9.792,20.075-9.792s15.247,3.612,20.075,9.792
				c2.91,3.705,8.272,4.352,11.979,1.445c3.708-2.907,4.358-8.268,1.454-11.978C281.464,74.261,269.093,68.234,256,68.267z"/>
			<path d="M302.967,74.042c1.882,2.397,4.899,3.607,7.915,3.176c3.016-0.431,5.574-2.439,6.708-5.267s0.675-6.046-1.207-8.443
				C301.834,44.964,279.571,34.133,256,34.133s-45.834,10.831-60.383,29.375c-1.882,2.397-2.342,5.615-1.207,8.443
				c1.135,2.828,3.692,4.836,6.708,5.267c3.016,0.431,6.034-0.78,7.915-3.176C220.352,59.621,237.668,51.2,256,51.2
				C274.332,51.2,291.648,59.621,302.967,74.042z"/>
			<path d="M170.175,54.296c3.692,2.912,9.044,2.287,11.967-1.396c17.831-22.628,45.05-35.833,73.858-35.833
				c28.809,0,56.028,13.206,73.858,35.833c2.923,3.683,8.275,4.308,11.967,1.396c3.692-2.912,4.333-8.262,1.433-11.963
				C322.192,15.601,290.035,0,256,0s-66.192,15.601-87.258,42.333C165.841,46.035,166.482,51.385,170.175,54.296z"/>
		</g>
	</g>
</g>
<g>
</g>
<g>
</g>
<g>
</g>
<g>
</g>
<g>
</g>
<g>
</g>
<g>
</g>
<g>
</g>
<g>
</g>
<g>
</g>
<g>
</g>
<g>
</g>
<g>
</g>
<g>
</g>
<g>
</g>
</svg>
