<?xml version="1.0" encoding="iso-8859-1"?>
<!-- Generator: Adobe Illustrator 19.0.0, SVG Export Plug-In . SVG Version: 6.00 Build 0)  -->
<svg version="1.1" id="Capa_1" xmlns="http://www.w3.org/2000/svg" xmlns:xlink="http://www.w3.org/1999/xlink" x="0px" y="0px"
	 viewBox="0 0 512.013 512.013" style="enable-background:new 0 0 512.013 512.013;" xml:space="preserve">
<g transform="translate(0 -1)">
	<g>
		<g>
			<path d="M443.74,291.146c-11.178,0.039-21.033,7.341-24.325,18.024l-52.475-39.356V137.546c0-31.275-30.142-73.617-92.15-129.434
				c-10.728-9.483-26.842-9.483-37.571,0c-62.004,55.817-92.146,98.159-92.146,129.434v132.268l-52.474,39.355
				c-3.718-12.088-15.726-19.632-28.229-17.734s-21.733,12.664-21.696,25.311v170.667c0,14.138,11.461,25.6,25.6,25.6
				s25.6-11.461,25.6-25.6v-4.268l51.2-38.4v12.801c0,7.169,3.6,13.938,42.667,18.077v16.056c0,19.258,47.742,21.333,68.267,21.333
				s68.267-2.075,68.267-21.333v-16.054c39.068-4.145,42.667-10.912,42.667-18.079v-12.801l51.2,38.4v4.268
				c0,14.138,11.461,25.6,25.6,25.6s25.6-11.461,25.6-25.6V316.746C469.324,302.614,457.872,291.162,443.74,291.146z
				 M76.806,325.279v162.133c0,4.713-3.82,8.533-8.533,8.533s-8.533-3.82-8.533-8.533V316.746c0-4.713,3.82-8.533,8.533-8.533
				s8.533,3.82,8.533,8.533V325.279z M145.073,423.413l-51.2,38.4V329.546l51.2-38.4V423.413z M248.631,20.796
				c4.262-3.583,10.483-3.583,14.746,0c61.467,55.337,81.133,88.671,85.451,108.217H163.185
				C167.503,109.467,187.168,76.134,248.631,20.796z M307.206,489.05c-16.479,5.505-33.851,7.845-51.2,6.896
				c-17.349,0.949-34.721-1.39-51.2-6.896v-11.951c15.472,1.147,32.969,1.78,51.2,1.78c18.244,0,35.753-0.635,51.2-1.777V489.05z
				 M349.873,274.079v179.683c-12.649,3.419-25.641,5.415-38.733,5.95c-36.719,2.755-73.594,2.753-110.313-0.009
				c-13.077-0.536-26.053-2.529-38.688-5.942V146.079h187.733V274.079z M418.14,461.813l-51.2-38.4V291.146l51.2,38.4V461.813z
				 M452.273,487.413c0,4.713-3.82,8.533-8.533,8.533s-8.533-3.82-8.533-8.533V316.746c0-4.713,3.82-8.533,8.533-8.533
				s8.533,3.82,8.533,8.533V487.413z"/>
			<path d="M187.74,325.279c-4.713,0-8.533,3.821-8.533,8.533c0,4.713,3.82,8.533,8.533,8.533h8.533
				c0.011,9.421,7.646,17.056,17.067,17.067v8.533c0,4.713,3.821,8.533,8.533,8.533c4.713,0,8.533-3.82,8.533-8.533v-8.533h17.067
				v8.533c0,4.713,3.82,8.533,8.533,8.533s8.533-3.82,8.533-8.533v-8.533h17.067v8.533c0,4.713,3.821,8.533,8.533,8.533
				s8.533-3.82,8.533-8.533v-8.533c9.421-0.011,17.056-7.646,17.067-17.067h8.533c4.713,0,8.533-3.821,8.533-8.533
				c0-4.713-3.82-8.533-8.533-8.533h-8.533v-17.067h8.533c4.713,0,8.533-3.82,8.533-8.533s-3.82-8.533-8.533-8.533h-8.533v-17.067
				h8.533c4.713,0,8.533-3.82,8.533-8.533s-3.82-8.533-8.533-8.533h-8.533c-0.011-9.421-7.645-17.056-17.067-17.067v-8.533
				c0-4.713-3.82-8.533-8.533-8.533s-8.533,3.82-8.533,8.533v8.533H264.54v-8.533c0-4.713-3.82-8.533-8.533-8.533
				s-8.533,3.82-8.533,8.533v8.533h-17.067v-8.533c0-4.713-3.821-8.533-8.533-8.533c-4.713,0-8.533,3.82-8.533,8.533v8.533
				c-9.421,0.011-17.056,7.645-17.067,17.067h-8.533c-4.713,0-8.533,3.82-8.533,8.533s3.82,8.533,8.533,8.533h8.533v17.067h-8.533
				c-4.713,0-8.533,3.82-8.533,8.533s3.82,8.533,8.533,8.533h8.533v17.067H187.74z M213.34,257.013h85.333l0.001,8.527l-0.001,0.006
				l0.001,0.006l0.005,34.096l-0.006,0.031l0.006,0.031l0.005,34.046l-0.011,0.056l0.011,0.056l0.001,8.477H213.34V257.013z"/>
			<path d="M244.998,276.554c-2.453-2.425-6.126-3.133-9.304-1.792c-1.033,0.433-1.984,1.039-2.813,1.792
				c-0.773,0.815-1.383,1.772-1.796,2.817c-0.906,2.066-0.906,4.417,0,6.483c0.78,2.141,2.467,3.828,4.608,4.608
				c2.067,0.911,4.421,0.911,6.487,0c1.034-0.433,1.987-1.039,2.817-1.792c0.751-0.832,1.357-1.784,1.792-2.817
				c0.911-2.065,0.911-4.418,0-6.483C246.377,278.326,245.769,277.371,244.998,276.554z"/>
			<path d="M246.79,313.504c-0.187-0.546-0.447-1.064-0.771-1.542c-0.338-0.425-0.679-0.85-1.021-1.275
				c-2.457-2.418-6.125-3.125-9.304-1.792c-3.249,1.231-5.368,4.377-5.288,7.851c0.012,1.115,0.243,2.216,0.679,3.242
				c0.435,1.034,1.042,1.986,1.796,2.817c1.628,1.571,3.797,2.457,6.059,2.475c1.115-0.014,2.216-0.246,3.242-0.683
				c1.034-0.433,1.987-1.039,2.817-1.792c0.751-0.832,1.357-1.784,1.792-2.817c0.478-1.012,0.712-2.122,0.683-3.241
				c-0.016-0.545-0.073-1.088-0.171-1.625C247.22,314.558,247.047,314.012,246.79,313.504z"/>
			<path d="M279.132,276.554c-0.816-0.771-1.772-1.379-2.817-1.792c-1.526-0.679-3.228-0.86-4.862-0.517
				c-0.566,0.083-1.115,0.257-1.625,0.517c-0.524,0.169-1.015,0.428-1.45,0.767c-0.489,0.293-0.946,0.637-1.363,1.025
				c-0.773,0.815-1.383,1.772-1.796,2.817c-0.906,2.066-0.906,4.417,0,6.483c0.78,2.141,2.467,3.828,4.608,4.608
				c2.066,0.911,4.421,0.911,6.487,0c1.034-0.433,1.987-1.039,2.817-1.792c0.751-0.832,1.357-1.784,1.792-2.817
				c0.478-1.012,0.713-2.122,0.684-3.241c-0.014-1.115-0.246-2.216-0.683-3.242C280.51,278.327,279.902,277.371,279.132,276.554z"/>
			<path d="M277.852,309.663c-0.475-0.325-0.992-0.582-1.538-0.767c-0.509-0.259-1.056-0.433-1.621-0.517
				c-2.784-0.558-5.664,0.307-7.68,2.308l-1.025,1.275c-0.324,0.477-0.583,0.996-0.771,1.542c-0.258,0.507-0.43,1.053-0.508,1.617
				c-0.1,0.536-0.157,1.08-0.17,1.625c-0.029,1.119,0.204,2.229,0.679,3.242c0.78,2.141,2.467,3.828,4.608,4.608
				c2.067,0.911,4.421,0.911,6.487,0c1.034-0.433,1.987-1.039,2.817-1.792c0.751-0.832,1.357-1.784,1.792-2.817
				c0.437-1.025,0.67-2.126,0.683-3.241c-0.016-2.262-0.902-4.432-2.475-6.059C278.725,310.322,278.298,309.98,277.852,309.663z"/>
		</g>
	</g>
</g>
<g>
</g>
<g>
</g>
<g>
</g>
<g>
</g>
<g>
</g>
<g>
</g>
<g>
</g>
<g>
</g>
<g>
</g>
<g>
</g>
<g>
</g>
<g>
</g>
<g>
</g>
<g>
</g>
<g>
</g>
</svg>
