<?xml version="1.0" encoding="iso-8859-1"?>
<!-- Generator: Adobe Illustrator 19.0.0, SVG Export Plug-In . SVG Version: 6.00 Build 0)  -->
<svg version="1.1" id="Capa_1" xmlns="http://www.w3.org/2000/svg" xmlns:xlink="http://www.w3.org/1999/xlink" x="0px" y="0px"
	 viewBox="0 0 512 512" style="enable-background:new 0 0 512 512;" xml:space="preserve">
<g>
	<g>
		<g>
			<path d="M341.333,238.933h-51.2v-17.067h76.8c14.132-0.015,25.585-11.468,25.6-25.6V25.6c-0.015-14.132-11.468-25.585-25.6-25.6
				H145.067c-14.132,0.015-25.585,11.468-25.6,25.6v170.667c0.015,14.132,11.468,25.585,25.6,25.6h76.8v17.067h-51.2
				c-47.105,0.055-85.278,38.228-85.333,85.333v170.667c0.012,9.421,7.646,17.054,17.067,17.067h307.2
				c9.421-0.012,17.054-7.646,17.067-17.067V324.267C426.611,277.161,388.439,238.989,341.333,238.933z M306.139,299.966
				c1.561-3.663,3.065-7.264,4.509-10.803l4.685,56.229l-40.957,25.596c4.105-9.307,8.528-19.046,13.099-29.096
				c6.28-13.798,12.607-27.75,18.289-41.037C305.906,300.566,306.031,300.269,306.139,299.966z M304.617,256
				c-2.245,7.343-5.325,15.677-8.926,24.619L274.567,256H304.617z M136.533,25.6c0.003-4.711,3.822-8.53,8.533-8.533h221.867
				c4.711,0.003,8.53,3.822,8.533,8.533v145.067H136.533V25.6z M145.067,204.8c-4.711-0.003-8.53-3.822-8.533-8.533v-8.533h238.933
				v8.533c-0.003,4.712-3.822,8.53-8.533,8.533H145.067z M273.067,221.867v17.067h-34.133v-17.067H273.067z M230.4,256h7.034
				l-21.089,24.579c-3.601-8.925-6.682-17.245-8.937-24.579H230.4z M201.36,289.065c1.502,3.683,3.072,7.439,4.71,11.268
				c0.038,0.081,0.062,0.161,0.102,0.243c5.622,13.146,11.875,26.944,18.078,40.592c4.534,9.971,9.122,20.086,13.416,29.848
				l-40.999-25.623L201.36,289.065z M247.467,494.933h-85.333V460.8c0-4.713-3.821-8.533-8.533-8.533s-8.533,3.821-8.533,8.533
				v34.133H102.4V324.267c0.051-30.429,20.212-57.16,49.456-65.571c-4.416,6.824-6.773,14.776-6.789,22.904v89.3l-2.8,1.867
				c-14.255,9.485-22.814,25.478-22.8,42.6v2.767c-0.001,2.264,0.897,4.435,2.498,6.035s3.772,2.499,6.035,2.498h8.533
				c4.616-0.003,8.392-3.676,8.523-8.29c0.131-4.614-3.432-8.495-8.04-8.76c1.577-9.255,6.901-17.449,14.717-22.65l1.867-1.244
				l1.867,1.244c7.816,5.201,13.14,13.396,14.717,22.65c-4.608,0.264-8.171,4.146-8.04,8.76c0.131,4.614,3.907,8.287,8.523,8.29
				h8.533c2.264,0.001,4.435-0.897,6.035-2.498s2.499-3.772,2.498-6.035v-2.767c0.014-17.122-8.545-33.115-22.8-42.6l-2.8-1.867
				v-89.3c0.029-13.827,11.036-25.13,24.857-25.525l-7.757,93.083c-0.268,3.183,1.267,6.248,3.975,7.942l64.258,40.161V494.933z
				 M239.792,334.1c-5.478-12.054-11.013-24.244-16.072-35.905L256,260.571l32.324,37.671
				c-5.146,11.869-10.795,24.298-16.383,36.583c-5.408,11.892-10.933,24.042-15.925,35.541
				C250.942,358.65,245.308,346.242,239.792,334.1z M409.6,494.933h-42.667V460.8c0-4.713-3.82-8.533-8.533-8.533
				s-8.533,3.821-8.533,8.533v34.133h-85.333v-97.672l64.258-40.161c2.708-1.693,4.243-4.759,3.975-7.942l-7.757-93.083
				c13.821,0.395,24.828,11.698,24.857,25.525v86.545c-16.643,4.297-27.494,20.299-25.328,37.35
				c2.166,17.051,16.673,29.832,33.861,29.832s31.695-12.781,33.861-29.832c2.166-17.051-8.685-33.053-25.328-37.35V281.6
				c-0.016-8.128-2.373-16.08-6.789-22.904c29.244,8.411,49.405,35.142,49.456,65.571V494.933z M358.4,384
				c9.426,0,17.067,7.641,17.067,17.067c0,9.426-7.641,17.067-17.067,17.067s-17.067-7.641-17.067-17.067
				C341.346,391.646,348.979,384.012,358.4,384z"/>
			<path d="M298.667,68.267H281.6V51.2c-0.012-9.421-7.646-17.054-17.067-17.067h-17.067c-9.421,0.012-17.054,7.646-17.067,17.067
				v17.067h-17.067c-9.421,0.012-17.054,7.646-17.067,17.067V102.4c0.012,9.421,7.646,17.054,17.067,17.067H230.4v17.067
				c0.012,9.421,7.646,17.054,17.067,17.067h17.067c9.421-0.012,17.054-7.646,17.067-17.067v-17.067h17.067
				c9.421-0.012,17.054-7.646,17.067-17.067V85.333C315.721,75.913,308.087,68.279,298.667,68.267z M298.667,102.4H281.6
				c-9.421,0.012-17.054,7.646-17.067,17.067v17.067h-17.067v-17.067c-0.012-9.421-7.646-17.054-17.067-17.067h-17.067V85.333H230.4
				c9.421-0.012,17.054-7.646,17.067-17.067V51.2h17.067v17.067c0.012,9.421,7.646,17.054,17.067,17.067l17.067-0.017V102.4z"/>
		</g>
	</g>
</g>
<g>
</g>
<g>
</g>
<g>
</g>
<g>
</g>
<g>
</g>
<g>
</g>
<g>
</g>
<g>
</g>
<g>
</g>
<g>
</g>
<g>
</g>
<g>
</g>
<g>
</g>
<g>
</g>
<g>
</g>
</svg>
