<?xml version="1.0" encoding="iso-8859-1"?>
<!-- Generator: Adobe Illustrator 19.0.0, SVG Export Plug-In . SVG Version: 6.00 Build 0)  -->
<svg version="1.1" id="Capa_1" xmlns="http://www.w3.org/2000/svg" xmlns:xlink="http://www.w3.org/1999/xlink" x="0px" y="0px"
	 viewBox="0 0 512.013 512.013" style="enable-background:new 0 0 512.013 512.013;" xml:space="preserve">
<g transform="translate(-1)">
	<g>
		<g>
			<path d="M171.679,183.452c0-12.08-7.277-22.97-18.437-27.593s-24.007-2.068-32.548,6.474
				c-8.542,8.542-11.097,21.388-6.474,32.548s15.513,18.437,27.593,18.437C158.299,213.299,171.659,199.939,171.679,183.452z
				 M141.813,196.252c-7.069,0-12.8-5.731-12.8-12.8s5.731-12.8,12.8-12.8c7.069,0,12.8,5.731,12.8,12.8
				C154.605,190.518,148.879,196.244,141.813,196.252z"/>
			<path d="M235.679,153.586c-12.08,0-22.97,7.277-27.593,18.437s-2.068,24.007,6.474,32.548
				c8.542,8.542,21.388,11.097,32.548,6.474c11.16-4.623,18.437-15.513,18.437-27.593
				C265.526,166.966,252.166,153.605,235.679,153.586z M235.679,196.252c-7.069,0-12.8-5.731-12.8-12.8s5.731-12.8,12.8-12.8
				c7.069,0,12.8,5.731,12.8,12.8C248.472,190.518,242.745,196.244,235.679,196.252z"/>
			<path d="M214.346,255.985h-51.2c-9.421,0.011-17.056,7.646-17.067,17.067v17.067c0.011,9.421,7.646,17.056,17.067,17.067h51.2
				c9.421-0.011,17.056-7.645,17.067-17.067v-17.067C231.402,263.631,223.767,255.996,214.346,255.985z M180.213,290.119h-17.067
				v-17.067h17.067V290.119z M197.279,290.119v-17.067h17.067l0.012,17.067H197.279z"/>
			<path d="M350.883,145.052c-18.696,0-31.688,23.183-33.108,25.825c-1.354,2.524-1.354,5.559,0,8.083
				c1.421,2.642,14.412,25.825,33.108,25.825c18.7,0,31.692-23.183,33.112-25.825c1.354-2.524,1.354-5.559,0-8.083
				C382.575,168.236,369.583,145.052,350.883,145.052z M350.883,187.719c-4.962,0-11.379-6.658-15.583-12.791
				c3.863-5.625,10.258-12.809,15.583-12.809c4.966,0,11.383,6.658,15.588,12.8C362.267,181.06,355.85,187.719,350.883,187.719z"/>
			<path d="M469.342,178.96c1.354-2.524,1.354-5.559,0-8.083c-1.421-2.642-14.421-25.825-33.125-25.825
				c-18.704,0-31.7,23.183-33.121,25.825c-1.354,2.524-1.354,5.559,0,8.083c1.421,2.642,14.417,25.825,33.121,25.825
				C454.921,204.785,467.921,181.602,469.342,178.96z M420.625,174.927L420.625,174.927c3.858-5.625,10.263-12.809,15.592-12.809
				c4.966,0,11.388,6.65,15.596,12.791c-3.863,5.625-10.267,12.809-15.596,12.809C431.25,187.719,424.825,181.06,420.625,174.927z"
				/>
			<path d="M491.703,249.355c0.798-4.411,1.557-8.845,2.201-13.286c0.9-6.542,1.925-13.067,2.954-19.6
				c1.483-9.442,3.021-19.208,4.15-28.942c1.346-11.442,2.008-22.692,2.433-31.217c0.708-14.267,1.037-25.983,1.037-36.858
				c0-2.581-0.061-5.027-0.158-7.381c0.099-0.893,0.053-1.797-0.135-2.676c-0.022-0.341-0.028-0.726-0.053-1.059
				c-0.092-2.692-0.275-5.292-0.538-7.667l-0.225-2.292c-0.003-0.779-0.085-1.555-0.246-2.317c-0.11-1.281-0.293-2.556-0.546-3.817
				c-5.947-36.889-30.305-68.193-64.6-83.025c-28.37-12.261-60.546-12.255-88.912,0.017c-27.317,11.922-48.603,34.45-58.958,62.398
				c-9.022-24.248-27.604-43.727-51.4-53.882c-1.069-0.46-2.22-0.698-3.383-0.7h-93.183c-1.165,0.002-2.317,0.24-3.388,0.7
				C110.95,29.769,77.8,58.652,77.8,127.985c0,2.271,0.023,4.613,0.053,6.981c-1.653-0.5-3.344-0.864-5.057-1.09
				c-7.632-1.017-15.349,1.12-21.371,5.917c-7.097,6.706-9.771,16.86-6.896,26.192c2.195,9.181,5.324,18.114,9.338,26.658
				l1.408,3.283c0.942,2.217,1.742,4.567,2.55,6.917c1.966,7.123,5.346,13.778,9.938,19.567c4.162,4.969,10.269,7.898,16.75,8.033
				c0.569,0,1.136-0.108,1.705-0.156c0.744,4.773,1.501,9.542,2.161,14.34c1.88,15.973,5.798,31.639,11.658,46.617
				c3.179,7.99,7.446,15.503,12.681,22.325c0.424,17.857-3.624,35.536-11.775,51.429c-13.253-11.64-30.9-16.963-48.379-14.594
				c-17.479,2.37-33.072,12.2-42.747,26.948c-5.982,9.68-9.039,20.882-8.804,32.258v17.042c0.011,9.421,7.645,17.056,17.067,17.067
				v59.733c-0.001,2.263,0.898,4.434,2.499,6.035c1.6,1.6,3.771,2.499,6.035,2.499h324.267c2.263,0.001,4.434-0.898,6.035-2.499
				c1.6-1.6,2.499-3.771,2.499-6.035v-59.733c9.421-0.011,17.056-7.645,17.067-17.067V409.61
				c0.234-11.379-2.823-22.583-8.804-32.267c-9.677-14.746-25.271-24.573-42.749-26.94S289.802,353.36,276.55,365
				c-8.157-15.904-12.204-33.597-11.774-51.466c5.21-6.797,9.461-14.277,12.633-22.232c5.872-15.001,9.798-30.693,11.683-46.691
				c0.82-5.966,1.755-11.908,2.693-17.851c0.472,3.109,0.977,6.211,1.407,9.334c1.88,15.972,5.796,31.639,11.654,46.617
				c4.105,10.885,10.481,20.771,18.704,29c6.377,5.728,13.124,11.031,20.196,15.875l1.85,1.325c2.987,2.125,5.85,4.442,8.704,6.75
				c3.899,3.269,7.963,6.337,12.175,9.192c6.649,3.908,14.357,5.634,22.037,4.933c1.178-0.006,2.454,0.002,3.933,0.031
				c1.509,12.399,4.752,24.524,9.634,36.021v117.615c-0.001,2.263,0.898,4.434,2.499,6.035c1.6,1.6,3.771,2.499,6.035,2.499h68.267
				c2.263,0.001,4.434-0.898,6.035-2.499c1.6-1.6,2.499-3.771,2.499-6.035V385.966c4.595-9.443,25.6-53.93,25.6-78.78
				C513.013,294.146,505.799,274.657,491.703,249.355z M80.525,211.085c-3.023-4.145-5.247-8.816-6.558-13.775
				c-0.946-2.75-1.888-5.475-2.992-8.067l-1.434-3.342c-3.549-7.507-6.332-15.352-8.308-23.416
				c-1.086-3.127-0.743-6.573,0.938-9.425c2.466-1.892,5.598-2.696,8.671-2.225c2.765,0.316,5.378,1.433,7.518,3.213
				c0.135,3.443,0.291,7.019,0.478,10.796c0.542,10.9,1.358,21.383,2.433,31.2c0.664,5.73,1.478,11.442,2.33,17.115
				C82.39,212.794,81.318,212.071,80.525,211.085z M143.95,34.119h89.567c26.826,12.215,42.569,35.96,47.356,70.406
				c-7.037-6.475-15.104-11.732-23.87-15.555L257,76.785c0-2.263-0.899-4.433-2.5-6.033l-6.033-6.033v-5.001
				c0-4.713-3.82-8.533-8.533-8.533s-8.533,3.82-8.533,8.533v8.533c0,2.263,0.899,4.434,2.5,6.033l6.033,6.033l0.002,5h-0.002
				c-5.78-0.024-11.532,0.811-17.067,2.477v-11.01c0-2.263-0.899-4.433-2.5-6.033l-6.033-6.033v-5.001
				c0-4.713-3.821-8.533-8.533-8.533s-8.533,3.82-8.533,8.533v8.533c0,2.263,0.899,4.434,2.5,6.033l6.033,6.033v15.275
				c-0.413,0.237-0.847,0.483-1.25,0.717c-4.644,3.384-10.101,5.48-15.817,6.076c-5.714-0.595-11.169-2.691-15.812-6.075
				c-0.401-0.232-0.831-0.475-1.242-0.713v-1.746l-0.012-0.063V80.319l6.033-6.033c1.601-1.6,2.5-3.77,2.5-6.033v-8.534
				c0-4.713-3.82-8.533-8.533-8.533s-8.533,3.82-8.533,8.533v5l-6.033,6.033c-1.601,1.6-2.5,3.77-2.5,6.033v11.01
				c-5.535-1.666-11.286-2.5-17.065-2.477l-0.002-5l6.033-6.033c1.601-1.6,2.5-3.77,2.5-6.033v-8.534
				c0-4.713-3.82-8.533-8.533-8.533S129,55.006,129,59.719v5l-6.033,6.033c-1.601,1.6-2.5,3.77-2.5,6.033l0.003,12.181
				c-8.768,3.823-16.837,9.081-23.875,15.559C101.382,70.083,117.126,46.333,143.95,34.119z M18.079,426.652V409.61
				c-0.228-8.078,1.874-16.051,6.054-22.967c8.111-12.312,21.867-19.723,36.61-19.725s28.501,7.406,36.615,19.717
				c4.179,6.919,6.281,14.895,6.054,22.975v17.042h-51.2v-20.325l12.35-6.175c4.204-2.114,5.903-7.232,3.799-11.441
				s-7.218-5.92-11.432-3.826l-17.067,8.533c-2.891,1.446-4.716,4.401-4.717,7.633v25.6H18.079z M86.346,460.786h-8.533
				c-4.713,0-8.533,3.82-8.533,8.533s3.82,8.533,8.533,8.533h8.533v17.067h-51.2v-51.2h51.2V460.786z M342.346,494.919h-51.2
				v-17.067h8.533c4.713,0,8.533-3.82,8.533-8.533s-3.82-8.533-8.533-8.533h-8.533v-17.067h51.2V494.919z M274.079,409.61
				c-0.228-8.078,1.874-16.051,6.054-22.967c8.111-12.312,21.867-19.723,36.61-19.725s28.501,7.406,36.615,19.717
				c4.179,6.919,6.281,14.895,6.054,22.975v17.042h-17.067v-25.6c0-3.232-1.826-6.187-4.717-7.633l-17.067-8.533
				c-2.728-1.372-5.982-1.182-8.531,0.498c-2.55,1.681-4.007,4.596-3.822,7.644c0.185,3.048,1.985,5.765,4.72,7.124l12.35,6.175
				v20.325h-51.2V409.61z M265.155,378.581c-5.507,9.401-8.323,20.135-8.142,31.029v17.042c0.011,9.421,7.646,17.056,17.067,17.067
				v51.2h-25.6v-8.533c0-2.263-0.899-4.433-2.5-6.033l-6.033-6.033v-5c0-4.713-3.82-8.533-8.533-8.533s-8.533,3.82-8.533,8.533
				v8.533c0,2.263,0.899,4.434,2.5,6.033l6.033,6.033v5h-85.333v-5l6.033-6.033c1.601-1.6,2.501-3.77,2.5-6.034v-8.533
				c0-4.713-3.821-8.533-8.533-8.533s-8.533,3.82-8.533,8.533v5l-6.033,6.033c-1.601,1.6-2.501,3.77-2.5,6.034v8.533h-25.6v-51.2
				c9.421-0.011,17.056-7.645,17.067-17.067V409.61c0.18-10.894-2.636-21.628-8.14-31.031c9.763-14.827,15.562-31.909,16.843-49.616
				c3.223,2.459,6.48,4.809,9.684,7.105l1.917,1.375c2.987,2.116,5.842,4.442,8.696,6.75c1.676,1.354,3.393,2.725,5.133,4.079
				v15.113l-6.033,6.033c-1.601,1.6-2.501,3.771-2.5,6.034v25.6c0,4.713,3.821,8.533,8.533,8.533c4.713,0,8.533-3.82,8.533-8.533
				v-22.067l6.033-6.033c1.601-1.6,2.501-3.77,2.5-6.034v-9.568c3.965,0.722,7.992,1.046,12.021,0.968
				c1.546-0.009,3.104-0.009,5.413,0.058c1.546-0.067,3.1-0.058,4.654-0.058c4.037,0.063,8.072-0.265,12.046-0.979v9.579
				c0,2.263,0.899,4.434,2.5,6.033l6.033,6.033v22.067c0,4.713,3.82,8.533,8.533,8.533s8.533-3.82,8.533-8.533v-25.6
				c0-2.263-0.899-4.433-2.5-6.033l-6.033-6.033v-15.131c1.731-1.348,3.437-2.71,5.1-4.06c2.854-2.308,5.717-4.625,8.737-6.775
				l1.817-1.3c3.236-2.318,6.523-4.688,9.775-7.17C249.587,346.662,255.387,363.75,265.155,378.581z M281.592,163.994
				L281.592,163.994c-0.612,12.216-1.338,21.491-2.346,30.083c-1.096,9.442-2.608,19.067-4.075,28.375
				c-1.037,6.608-2.075,13.208-2.983,19.808c-0.266,1.891-0.616,4-0.939,6.047l-6.603-13.205c-1.446-2.891-4.401-4.717-7.633-4.716
				h-8.533c-4.713,0-8.533,3.82-8.533,8.533s3.82,8.533,8.533,8.533h3.258l13.573,27.146c-1.073,3.41-2.255,6.814-3.652,10.129
				c-3.188,8.621-8.155,16.475-14.579,23.05c-5.841,5.217-12.015,10.05-18.483,14.467l-1.796,1.283
				c-3.279,2.333-6.425,4.867-9.554,7.4c-3.483,2.926-7.111,5.674-10.871,8.233c-3.9,1.908-8.272,2.635-12.579,2.092
				c-1.8,0-3.633-0.008-4.683,0.075c-1.504-0.067-3.017-0.075-4.525-0.075h-0.917c-4.324,0.547-8.714-0.192-12.621-2.125
				c-3.638-2.383-7.133-5.208-10.837-8.2c-3.129-2.533-6.267-5.067-9.508-7.375l-1.896-1.358
				c-6.451-4.403-12.608-9.222-18.433-14.425c-6.433-6.589-11.403-14.46-14.587-23.1c-1.393-3.3-2.569-6.656-3.633-10.017
				l13.599-27.2h3.258c4.713,0,8.533-3.82,8.533-8.533s-3.82-8.533-8.533-8.533h-8.533c-3.232-0.001-6.188,1.825-7.633,4.717
				l-6.622,13.244c-0.321-2.035-0.667-4.115-0.94-6.06c-0.913-6.658-1.958-13.292-3.004-19.933
				c-1.458-9.275-2.967-18.867-4.05-28.217c-1.029-9.433-1.821-19.575-2.346-30.133c-0.633-12.806-0.941-23.378-0.995-33.087
				c7.244-8.96,15.884-16.695,25.586-22.909l0.004,16.447l-6.033,6.033c-2.178,2.151-3.037,5.304-2.251,8.262
				c0.786,2.958,3.097,5.269,6.055,6.055c2.958,0.786,6.111-0.073,8.262-2.251l8.533-8.533c1.6-1.6,2.499-3.77,2.5-6.033
				l-0.007-25.6c5.887-0.03,11.71,1.211,17.073,3.638v18.428l-6.033,6.033c-2.178,2.151-3.037,5.304-2.251,8.262
				c0.786,2.958,3.097,5.269,6.055,6.055c2.958,0.786,6.111-0.073,8.262-2.251l8.533-8.533c1.601-1.6,2.5-3.77,2.5-6.033v-12.973
				c10.608,5.923,23.529,5.919,34.133-0.01v12.983c0,2.263,0.899,4.434,2.5,6.033l8.533,8.533c3.341,3.281,8.701,3.256,12.012-0.054
				s3.335-8.671,0.054-12.012l-6.033-6.033v-18.438c5.358-2.422,11.175-3.66,17.054-3.629h0.006l0.007,25.6
				c0,2.263,0.899,4.434,2.5,6.033l8.533,8.533c3.341,3.281,8.701,3.256,12.012-0.054s3.335-8.671,0.054-12.012l-6.033-6.033
				l-0.004-16.437c9.696,6.212,18.33,13.944,25.57,22.898C282.525,140.671,282.217,151.244,281.592,163.994z M355.888,24.886
				c24.015-10.389,51.255-10.395,75.275-0.017c22.693,9.899,40.477,28.472,49.381,51.574c-7.219-6.109-15.081-11.415-23.448-15.824
				c-2.645-1.322-5.787-1.181-8.303,0.374c-2.516,1.555-4.047,4.302-4.047,7.259c0,13.508-18.246,29.625-30.667,38.617
				c-6.675-13.942-13.308-23.208-42.317-37.717c-23.58-11.796-49.388-0.25-66.679,11.24
				C313.392,55.529,331.855,35.357,355.888,24.886z M395.38,247.119L395.38,247.119c-0.594,0.192-1.211,0.304-1.834,0.333
				c-4.204-0.848-8.051-2.952-11.034-6.033c-3.341-3.281-8.701-3.256-12.012,0.054c-3.311,3.311-3.335,8.671-0.054,12.012
				c6.168,6.273,14.344,10.178,23.1,11.034v25.452c-5.195,0.023-10.309-1.286-14.854-3.802l-6.741-3.583
				c-2.692-1.433-5.943-1.32-8.529,0.296c-2.586,1.616-4.113,4.489-4.006,7.536c0.107,3.047,1.833,5.806,4.527,7.235l6.667,3.541
				c6.94,3.859,14.742,5.903,22.683,5.942l0.144-0.009c-1.599,8.438-2.358,17.013-2.265,25.6c-0.592-0.009-1.179-0.009-1.771-0.009
				h-0.917c-4.324,0.538-8.711-0.201-12.621-2.125c-3.746-2.548-7.361-5.285-10.829-8.2c-3.129-2.533-6.275-5.067-9.521-7.375
				l-1.829-1.308c-6.474-4.42-12.652-9.258-18.496-14.483c-6.432-6.587-11.404-14.455-14.592-23.091
				c-5.28-13.627-8.808-27.868-10.5-42.383c-0.912-6.658-1.958-13.292-3.004-19.933c-1.458-9.275-2.967-18.867-4.05-28.217
				c-1.029-9.433-1.821-19.575-2.35-30.142c-0.693-13.975-1.013-25.417-1.013-36.008c0-3.541,0.075-6.917,0.338-10.55
				c0.036-1.081,0.158-2.2,0.233-3.279c9.632-8.458,40.516-32.884,63.879-21.204c26.979,13.492,30.088,20.175,35.725,32.3
				c0.954,2.058,1.967,4.225,3.125,6.55c1.064,2.124,2.965,3.709,5.246,4.375c0.775,0.229,1.579,0.344,2.388,0.342
				c1.547-0.002,3.064-0.422,4.392-1.217c4.05-2.433,34.742-21.458,44.104-45.167c12.028,7.313,21.756,17.861,28.074,30.44
				c0.114,2.425,0.23,4.838,0.23,7.41c0,10.592-0.321,22.033-1.012,36.008c-0.417,8.258-1.054,19.133-2.342,30.083
				c-1.092,9.408-2.6,19-4.058,28.275c-1.046,6.642-2.092,13.275-2.996,19.867c-0.746,5.158-1.579,10.4-2.575,15.542
				c-0.808,4.125-1.779,8.175-2.938,12.317c-0.296,1.108-0.592,2.15-1.004,3.392l-0.292,0.925c-0.375,1.2-0.758,2.442-1.321,3.983
				c-0.7,2.183-1.563,4.292-2.417,6.383c-0.083,0.2-0.154,0.4-0.221,0.6c-3.171,8.394-8.061,16.033-14.358,22.425
				c-2.067,1.942-4.308,3.867-6.879,5.9c-0.417-12.392-0.317-33.867-0.279-42.358l0.025-6.808
				c-0.031-7.172-3.059-14.005-8.352-18.845s-12.368-7.247-19.515-6.638C407.132,231.492,398.795,237.936,395.38,247.119z
				 M470.346,494.919h-51.2v-102.4h51.2V494.919z M473.537,375.452h-57.304c-4.223-11.171-6.785-22.902-7.604-34.817l-0.015-0.054
				l0.007-0.054c-0.885-10.586-0.271-21.244,1.825-31.659c0.112-0.554,0.168-1.118,0.167-1.683v-50.258
				c-0.159-4.668,3.196-8.719,7.813-9.433c2.372-0.176,4.711,0.637,6.463,2.245c1.752,1.608,2.762,3.869,2.791,6.247l-0.025,6.733
				c-0.208,44.442,0.413,53.158,1.971,56.842c1.285,3.572,4.23,6.293,7.892,7.292c4.483,0.751,9.054-0.693,12.292-3.883l0.854-0.667
				c4.491-3.271,8.787-6.802,12.867-10.575c8.226-8.203,14.605-18.067,18.712-28.933c0.096-0.233,0.179-0.458,0.25-0.691
				c0.942-2.308,1.854-4.617,2.508-6.683c0.146-0.392,0.262-0.803,0.4-1.202c5.63,10.198,9.212,21.397,10.546,32.968
				C495.946,324.628,481.421,358.844,473.537,375.452z"/>
			<path d="M162.463,431.944c-0.187-0.546-0.447-1.064-0.771-1.542c-0.338-0.425-0.679-0.85-1.021-1.275
				c-3.421-3.158-8.695-3.158-12.117,0c-1.574,1.626-2.461,3.796-2.475,6.059c-0.023,2.27,0.869,4.454,2.475,6.059
				c0.829,0.753,1.78,1.359,2.813,1.792c2.625,1.125,5.64,0.848,8.016-0.735s3.792-4.26,3.764-7.115
				c-0.016-0.573-0.073-1.144-0.171-1.708C162.88,432.944,162.708,432.427,162.463,431.944z"/>
			<path d="M185.5,427.336c-1.044,0.412-1.998,1.02-2.813,1.792c-1.559,1.635-2.443,3.799-2.475,6.058
				c0,4.713,3.82,8.533,8.533,8.533s8.533-3.82,8.533-8.533c-0.033-2.259-0.917-4.422-2.475-6.059
				C192.348,426.709,188.679,426.002,185.5,427.336z"/>
			<path d="M230.729,431.944c-0.187-0.546-0.447-1.064-0.771-1.542c-0.338-0.425-0.679-0.85-1.021-1.275
				c-3.421-3.158-8.695-3.158-12.117,0c-1.574,1.626-2.461,3.796-2.475,6.059c0.014,3.45,2.096,6.556,5.282,7.879
				c3.187,1.323,6.856,0.606,9.31-1.82c1.591-1.615,2.48-3.792,2.475-6.059c-0.016-0.573-0.073-1.144-0.171-1.708
				C231.147,432.944,230.974,432.427,230.729,431.944z"/>
		</g>
	</g>
</g>
<g>
</g>
<g>
</g>
<g>
</g>
<g>
</g>
<g>
</g>
<g>
</g>
<g>
</g>
<g>
</g>
<g>
</g>
<g>
</g>
<g>
</g>
<g>
</g>
<g>
</g>
<g>
</g>
<g>
</g>
</svg>
