<?xml version="1.0" encoding="iso-8859-1"?>
<!-- Generator: Adobe Illustrator 19.0.0, SVG Export Plug-In . SVG Version: 6.00 Build 0)  -->
<svg version="1.1" id="Capa_1" xmlns="http://www.w3.org/2000/svg" xmlns:xlink="http://www.w3.org/1999/xlink" x="0px" y="0px"
	 viewBox="0 0 512 512" style="enable-background:new 0 0 512 512;" xml:space="preserve">
<g>
	<g>
		<g>
			<path d="M409.6,93.867h17.067c9.421-0.011,17.056-7.646,17.067-17.067V59.733c-0.011-9.421-7.645-17.056-17.067-17.067H409.6
				c-9.421,0.011-17.056,7.645-17.067,17.067V76.8C392.544,86.221,400.179,93.856,409.6,93.867z M409.6,59.733h17.067l0.012,17.067
				H409.6V59.733z"/>
			<path d="M366.933,93.867c2.263,0.001,4.434-0.898,6.035-2.499c1.6-1.6,2.499-3.771,2.499-6.035V51.2
				c0-4.713-3.82-8.533-8.533-8.533s-8.533,3.82-8.533,8.533v34.133c-0.001,2.263,0.898,4.434,2.499,6.035
				C362.499,92.968,364.67,93.867,366.933,93.867z"/>
			<path d="M469.333,93.867c2.263,0.001,4.434-0.898,6.035-2.499c1.6-1.6,2.499-3.771,2.499-6.035V51.2
				c0-4.713-3.82-8.533-8.533-8.533s-8.533,3.82-8.533,8.533v34.133c-0.001,2.263,0.898,4.434,2.499,6.035
				C464.899,92.968,467.07,93.867,469.333,93.867z"/>
			<path d="M238.933,384v-17.067c-0.011-9.421-7.646-17.056-17.067-17.067H204.8c-9.421,0.011-17.056,7.645-17.067,17.067V384
				c0.011,9.421,7.646,17.056,17.067,17.067h17.067C231.288,401.056,238.923,393.421,238.933,384z M204.8,366.933h17.067
				L221.879,384H204.8V366.933z"/>
			<path d="M162.133,349.867c-2.263-0.001-4.434,0.898-6.035,2.499c-1.6,1.6-2.499,3.771-2.499,6.035v34.133
				c0,4.713,3.82,8.533,8.533,8.533s8.533-3.821,8.533-8.533V358.4c0.001-2.263-0.898-4.434-2.499-6.035
				C166.568,350.765,164.397,349.866,162.133,349.867z"/>
			<path d="M264.533,349.867c-2.263-0.001-4.434,0.898-6.035,2.499c-1.6,1.6-2.499,3.771-2.499,6.035v34.133
				c0,4.713,3.82,8.533,8.533,8.533s8.533-3.821,8.533-8.533V358.4c0.001-2.263-0.898-4.434-2.499-6.035
				C268.968,350.765,266.797,349.866,264.533,349.867z"/>
			<path d="M238.933,162.133H256c9.421-0.011,17.056-7.646,17.067-17.067V128c-0.011-9.421-7.646-17.056-17.067-17.067h-17.067
				c-9.421,0.011-17.056,7.645-17.067,17.067v17.067C221.877,154.488,229.512,162.123,238.933,162.133z M238.933,128H256
				l0.012,17.067h-17.079V128z"/>
			<path d="M196.267,162.133c2.263,0.001,4.434-0.898,6.035-2.499c1.6-1.6,2.499-3.771,2.499-6.035v-34.133
				c0-4.713-3.82-8.533-8.533-8.533s-8.533,3.82-8.533,8.533V153.6c-0.001,2.263,0.898,4.434,2.499,6.035
				C191.832,161.235,194.003,162.134,196.267,162.133z"/>
			<path d="M162.133,162.133c2.263,0.001,4.434-0.898,6.035-2.499c1.6-1.6,2.499-3.771,2.499-6.035v-34.133
				c0-4.713-3.82-8.533-8.533-8.533s-8.533,3.82-8.533,8.533V153.6c-0.001,2.263,0.898,4.434,2.499,6.035
				C157.699,161.235,159.87,162.134,162.133,162.133z"/>
			<path d="M273.067,93.867h17.067c9.421-0.011,17.056-7.646,17.067-17.067V59.733c-0.011-9.421-7.645-17.056-17.067-17.067h-17.067
				c-9.421,0.011-17.056,7.645-17.067,17.067V76.8C256.011,86.221,263.646,93.856,273.067,93.867z M273.067,59.733h17.067
				l0.012,17.067h-17.079V59.733z"/>
			<path d="M332.8,93.867c2.263,0.001,4.434-0.898,6.035-2.499c1.6-1.6,2.499-3.771,2.499-6.035V51.2
				c0-4.713-3.821-8.533-8.533-8.533c-4.713,0-8.533,3.82-8.533,8.533v34.133c-0.001,2.263,0.898,4.434,2.499,6.035
				C328.366,92.968,330.537,93.867,332.8,93.867z"/>
			<path d="M230.4,93.867c2.263,0.001,4.434-0.898,6.035-2.499c1.6-1.6,2.499-3.771,2.499-6.035V51.2
				c0-4.713-3.82-8.533-8.533-8.533s-8.533,3.82-8.533,8.533v34.133c-0.001,2.263,0.898,4.434,2.499,6.035
				C225.966,92.968,228.137,93.867,230.4,93.867z"/>
			<path d="M196.267,93.867c2.263,0.001,4.434-0.898,6.035-2.499c1.6-1.6,2.499-3.771,2.499-6.035V51.2
				c0-4.713-3.82-8.533-8.533-8.533s-8.533,3.82-8.533,8.533v34.133c-0.001,2.263,0.898,4.434,2.499,6.035
				C191.832,92.968,194.003,93.867,196.267,93.867z"/>
			<path d="M162.133,93.867c2.263,0.001,4.434-0.898,6.035-2.499c1.6-1.6,2.499-3.771,2.499-6.035V51.2
				c0-4.713-3.82-8.533-8.533-8.533s-8.533,3.82-8.533,8.533v34.133c-0.001,2.263,0.898,4.434,2.499,6.035
				C157.699,92.968,159.87,93.867,162.133,93.867z"/>
			<path d="M162.133,426.667c-2.263-0.001-4.434,0.898-6.035,2.499c-1.6,1.6-2.499,3.771-2.499,6.035v34.133
				c0,4.713,3.82,8.533,8.533,8.533s8.533-3.82,8.533-8.533V435.2c0.001-2.263-0.898-4.434-2.499-6.035
				S164.397,426.666,162.133,426.667z"/>
			<path d="M256,426.667h-17.067c-9.421,0.011-17.056,7.646-17.067,17.067V460.8c0.011,9.421,7.645,17.056,17.067,17.067H256
				c9.421-0.011,17.056-7.646,17.067-17.067v-17.067C273.056,434.312,265.421,426.677,256,426.667z M238.933,460.8v-17.067H256
				l0.012,17.067H238.933z"/>
			<path d="M332.8,426.667c-2.263-0.001-4.434,0.898-6.035,2.499c-1.6,1.6-2.499,3.771-2.499,6.035v34.133
				c0,4.713,3.821,8.533,8.533,8.533c4.713,0,8.533-3.82,8.533-8.533V435.2c0.001-2.263-0.898-4.434-2.499-6.035
				C337.234,427.565,335.063,426.666,332.8,426.667z"/>
			<path d="M298.667,426.667c-2.263-0.001-4.434,0.898-6.035,2.499c-1.6,1.6-2.499,3.771-2.499,6.035v34.133
				c0,4.713,3.82,8.533,8.533,8.533s8.533-3.82,8.533-8.533V435.2c0.001-2.263-0.898-4.434-2.499-6.035
				C303.101,427.565,300.93,426.666,298.667,426.667z"/>
			<path d="M196.267,426.667c-2.263-0.001-4.434,0.898-6.035,2.499c-1.6,1.6-2.499,3.771-2.499,6.035v34.133
				c0,4.713,3.82,8.533,8.533,8.533s8.533-3.82,8.533-8.533V435.2c0.001-2.263-0.898-4.434-2.499-6.035
				C200.701,427.565,198.53,426.666,196.267,426.667z"/>
			<path d="M426.667,426.667H409.6c-9.421,0.011-17.056,7.646-17.067,17.067V460.8c0.011,9.421,7.646,17.056,17.067,17.067h17.067
				c9.421-0.011,17.056-7.646,17.067-17.067v-17.067C443.723,434.312,436.088,426.677,426.667,426.667z M426.667,460.8H409.6
				v-17.067h17.067V460.8z"/>
			<path d="M366.933,426.667c-2.263-0.001-4.434,0.898-6.035,2.499c-1.6,1.6-2.499,3.771-2.499,6.035v34.133
				c0,4.713,3.82,8.533,8.533,8.533s8.533-3.82,8.533-8.533V435.2c0.001-2.263-0.898-4.434-2.499-6.035
				C371.368,427.565,369.197,426.666,366.933,426.667z"/>
			<path d="M469.333,477.867c2.263,0.001,4.434-0.898,6.035-2.499s2.499-3.771,2.499-6.035V435.2c0-4.713-3.82-8.533-8.533-8.533
				s-8.533,3.82-8.533,8.533v34.133c-0.001,2.263,0.898,4.434,2.499,6.035C464.899,476.968,467.07,477.867,469.333,477.867z"/>
			<path d="M494.933,0h-358.4c-9.421,0.011-17.056,7.645-17.067,17.067v204.8H97.353l-18.611-18.258
				c-5.123-4.878-11.979-7.514-19.05-7.325c-7.068,0.276-13.713,3.443-18.379,8.758L29.207,218.91
				c-6.296-3.608-13.417-5.529-20.673-5.577c-2.263-0.001-4.434,0.898-6.035,2.499c-1.6,1.6-2.499,3.771-2.499,6.035v68.267
				c-0.001,2.263,0.898,4.434,2.499,6.035c1.6,1.6,3.771,2.499,6.035,2.499c7.256-0.048,14.378-1.969,20.673-5.577l12.106,13.869
				c4.666,5.316,11.311,8.482,18.379,8.758c0.333,0.008,0.667,0.017,1,0.017c6.745,0.001,13.224-2.634,18.054-7.342l18.608-18.258
				h22.114v179.2c0.028,23.553,19.114,42.639,42.667,42.667h332.8c9.421-0.011,17.056-7.645,17.067-17.067V17.067
				C511.989,7.645,504.355,0.011,494.933,0z M17.067,280.142v-48.283C27.295,235.478,34.133,245.15,34.133,256
				S27.295,276.522,17.067,280.142z M66.8,296.208c-1.695,1.708-4.044,2.601-6.446,2.45c-2.377-0.072-4.616-1.128-6.183-2.917
				l-12.025-13.775c12.071-15.207,12.071-36.727,0-51.933l12.024-13.775c1.589-1.776,3.832-2.83,6.213-2.918
				c2.382-0.088,4.696,0.797,6.412,2.451l9.108,8.936c-4.765,3.156-7.632,8.49-7.636,14.205v34.133
				c0.004,5.716,2.872,11.05,7.638,14.206L66.8,296.208z M85.333,273.067v-34.133H307.2c4.711,0.005,8.529,3.822,8.533,8.533v17.067
				c-0.005,4.711-3.822,8.529-8.533,8.533H85.333z M204.8,221.867V204.8h17.067l0.012,17.067H204.8z M315.435,288.654
				c10.35-3.501,17.329-13.195,17.365-24.121v-17.067c-0.036-10.926-7.015-20.62-17.365-24.121c0.146-0.483,0.245-0.978,0.299-1.479
				V128h34.133v264.533h-34.133v-102.4C315.68,289.632,315.58,289.137,315.435,288.654z M256.012,307.2h-17.079v-17.067H256
				L256.012,307.2z M494.933,494.933h-332.8c-14.132-0.015-25.585-11.468-25.6-25.6v-179.2H153.6v25.6
				c0,4.713,3.82,8.533,8.533,8.533s8.533-3.82,8.533-8.533v-25.6h17.067v25.6c0,4.713,3.82,8.533,8.533,8.533
				s8.533-3.82,8.533-8.533v-25.6h17.067V307.2c0.011,9.421,7.645,17.056,17.067,17.067H256c9.421-0.011,17.056-7.645,17.067-17.067
				v-17.067h25.6v102.4c0.011,9.421,7.645,17.056,17.067,17.067h34.133c9.421-0.011,17.056-7.646,17.067-17.067V384h8.533
				c14.132-0.015,25.585-11.468,25.6-25.6V162.133c-0.015-14.132-11.468-25.585-25.6-25.6h-8.533V128
				c-0.011-9.421-7.645-17.056-17.067-17.067h-34.133c-9.421,0.011-17.056,7.645-17.067,17.067v93.867h-25.6v-25.6
				c0-4.713-3.821-8.533-8.533-8.533s-8.533,3.82-8.533,8.533v25.6h-17.067V204.8c-0.011-9.421-7.646-17.056-17.067-17.067H204.8
				c-9.421,0.011-17.056,7.646-17.067,17.067v17.067h-17.067v-25.6c0-4.713-3.82-8.533-8.533-8.533s-8.533,3.82-8.533,8.533v25.6
				h-17.067v-204.8h358.4V494.933z M366.933,366.933V153.6h8.533c4.711,0.005,8.529,3.822,8.533,8.533V358.4
				c-0.005,4.711-3.822,8.529-8.533,8.533H366.933z"/>
		</g>
	</g>
</g>
<g>
</g>
<g>
</g>
<g>
</g>
<g>
</g>
<g>
</g>
<g>
</g>
<g>
</g>
<g>
</g>
<g>
</g>
<g>
</g>
<g>
</g>
<g>
</g>
<g>
</g>
<g>
</g>
<g>
</g>
</svg>
