<?xml version="1.0" encoding="iso-8859-1"?>
<!-- Generator: Adobe Illustrator 19.0.0, SVG Export Plug-In . SVG Version: 6.00 Build 0)  -->
<svg version="1.1" id="Capa_1" xmlns="http://www.w3.org/2000/svg" xmlns:xlink="http://www.w3.org/1999/xlink" x="0px" y="0px"
	 viewBox="0 0 512 512" style="enable-background:new 0 0 512 512;" xml:space="preserve">
<g>
	<g>
		<g>
			<path d="M486.4,0H25.6C11.468,0.015,0.015,11.468,0,25.6v460.8c0.015,14.132,11.468,25.585,25.6,25.6h460.8
				c14.132-0.015,25.585-11.468,25.6-25.6V25.6C511.985,11.468,500.532,0.015,486.4,0z M494.933,486.4
				c-0.003,4.712-3.822,8.53-8.533,8.533H25.6c-4.711-0.003-8.53-3.822-8.533-8.533V85.333h477.867V486.4z M494.933,68.267H17.067
				V25.6c0.003-4.711,3.822-8.53,8.533-8.533h460.8c4.712,0.003,8.53,3.822,8.533,8.533V68.267z"/>
			<path d="M47.358,35.583c-0.434-0.339-0.925-0.599-1.45-0.767c-3.181-1.3-6.83-0.597-9.3,1.791
				c-1.561,1.634-2.445,3.799-2.475,6.059c0.015,2.263,0.902,4.432,2.475,6.059c0.829,0.754,1.782,1.36,2.817,1.792
				c2.065,0.911,4.418,0.911,6.483,0c1.034-0.434,1.986-1.039,2.817-1.792c0.752-0.831,1.358-1.783,1.792-2.817
				c0.437-1.026,0.669-2.127,0.683-3.242c-0.033-2.259-0.917-4.422-2.475-6.059C48.306,36.221,47.848,35.877,47.358,35.583z"/>
			<path d="M80.072,34.736c-3.202-1.329-6.89-0.59-9.331,1.872c-1.576,1.625-2.462,3.795-2.475,6.059
				c-0.023,2.27,0.869,4.454,2.475,6.059c0.829,0.754,1.782,1.36,2.817,1.792c2.065,0.911,4.418,0.911,6.483,0
				c1.034-0.434,1.986-1.039,2.817-1.792c1.603-1.607,2.494-3.789,2.475-6.059C85.354,39.2,83.274,36.065,80.072,34.736z"/>
			<path d="M107.692,34.817c-1.055,0.391-2.015,1.002-2.817,1.792c-0.367,0.404-0.709,0.83-1.025,1.275
				c-0.325,0.477-0.583,0.995-0.767,1.542c-0.246,0.483-0.42,1-0.517,1.533c-0.097,0.565-0.152,1.135-0.167,1.708
				c-0.038,2.248,0.858,4.412,2.475,5.975c0.79,0.824,1.751,1.464,2.817,1.875c2.065,0.911,4.418,0.911,6.483,0
				c1.054-0.433,2.011-1.07,2.817-1.875c1.614-1.565,2.509-3.727,2.475-5.975c-0.033-2.259-0.917-4.422-2.475-6.059
				C114.541,34.183,110.869,33.475,107.692,34.817z"/>
			<path d="M315.733,34.133H196.267c-4.713,0-8.533,3.82-8.533,8.533s3.82,8.533,8.533,8.533h119.467
				c4.713,0,8.533-3.82,8.533-8.533S320.446,34.133,315.733,34.133z"/>
			<path d="M469.333,34.133H460.8c-4.713,0-8.533,3.82-8.533,8.533s3.821,8.533,8.533,8.533h8.533c4.713,0,8.533-3.82,8.533-8.533
				S474.046,34.133,469.333,34.133z"/>
			<path d="M426.667,34.133h-8.533c-4.713,0-8.533,3.82-8.533,8.533s3.82,8.533,8.533,8.533h8.533c4.713,0,8.533-3.82,8.533-8.533
				S431.38,34.133,426.667,34.133z"/>
			<path d="M57.406,190.47c12.709,8.512,29.519,7.574,41.202-2.298l53.12,37.961l-53.12,37.961
				c-6.083-5.193-13.81-8.061-21.808-8.095c-18.851,0-34.133,15.282-34.133,34.133s15.282,34.133,34.133,34.133
				c7.989-0.034,15.707-2.895,21.787-8.077l26.094,18.648l-35.999,51.415c-3.793-1.459-7.818-2.223-11.882-2.253
				c-17.754-0.066-32.595,13.489-34.133,31.177c-1.538,17.688,10.741,33.601,28.24,36.599c17.499,2.999,34.375-7.919,38.814-25.109
				h113.357c3.828,15.058,17.385,25.599,32.922,25.599s29.093-10.541,32.922-25.599h113.357
				c3.744,14.835,16.865,25.393,32.158,25.875c15.292,0.482,29.053-9.229,33.723-23.798s-0.879-30.471-13.602-38.969
				c-12.722-8.499-29.537-7.538-41.208,2.355l-53.123-37.962l53.167-37.994c6.082,5.193,13.809,8.06,21.806,8.094
				c18.851,0,34.133-15.282,34.133-34.133S454.051,256,435.2,256c-8.007,0.034-15.742,2.908-21.829,8.11l-25.988-18.571
				l36.051-51.49c3.759,1.434,7.743,2.184,11.766,2.217c17.754,0.066,32.595-13.489,34.133-31.177
				c1.538-17.688-10.741-33.601-28.24-36.599c-17.499-2.999-34.376,7.919-38.814,25.109H288.922
				c-3.828-15.058-17.385-25.599-32.922-25.599s-29.093,10.541-32.922,25.599H109.722c-3.742-14.831-16.857-25.388-32.145-25.877
				c-15.288-0.488-29.05,9.21-33.731,23.772C39.165,166.057,44.697,181.959,57.406,190.47z M76.8,307.2
				c-9.426,0-17.067-7.641-17.067-17.067s7.641-17.067,17.067-17.067s17.067,7.641,17.067,17.067
				C93.854,299.554,86.221,307.188,76.8,307.2z M76.8,435.2c-9.426,0-17.067-7.641-17.067-17.067s7.641-17.067,17.067-17.067
				c9.421,0.012,17.054,7.646,17.067,17.067C93.867,427.559,86.226,435.2,76.8,435.2z M435.2,401.067
				c9.426,0,17.067,7.641,17.067,17.067S444.626,435.2,435.2,435.2s-17.067-7.641-17.067-17.067
				C418.146,408.713,425.779,401.079,435.2,401.067z M435.2,273.067c9.426,0,17.067,7.641,17.067,17.067S444.626,307.2,435.2,307.2
				s-17.067-7.641-17.067-17.067C418.146,280.713,425.779,273.079,435.2,273.067z M418.925,156.972
				c2.242-7.097,8.832-11.918,16.275-11.905c7.316-0.01,13.824,4.643,16.181,11.569c2.357,6.926,0.037,14.583-5.767,19.037
				c-5.804,4.454-13.801,4.713-19.881,0.645c-0.07-0.053-0.102-0.133-0.175-0.184c-0.047-0.033-0.104-0.034-0.152-0.067
				C419.307,171.801,416.682,164.069,418.925,156.972z M166.4,236.619l18.031,12.885L161.958,281.6h-52.237
				c-0.31-1.241-0.691-2.464-1.139-3.663L166.4,236.619z M223.078,281.6h-40.287l15.525-22.173l25.9,18.51
				C223.769,279.136,223.389,280.359,223.078,281.6z M224.225,302.356L166.4,343.681l-18.046-12.897l22.488-32.118h52.237
				C223.391,299.917,223.774,301.149,224.225,302.356z M194.217,235.527l-13.145-9.394l39.476-28.211L194.217,235.527z
				 M108.575,302.356c0.452-1.207,0.834-2.439,1.147-3.69h40.287l-15.539,22.195L108.575,302.356z M138.567,344.761l13.161,9.405
				l-39.523,28.246L138.567,344.761z M223.078,409.6H109.722c-0.309-1.232-0.686-2.445-1.13-3.635l57.809-41.313l57.808,41.312
				C223.764,407.154,223.387,408.368,223.078,409.6z M271.131,426.056c-2.943,5.633-8.776,9.158-15.131,9.144
				c-8.074,0.031-15.065-5.6-16.755-13.495c-1.69-7.895,2.385-15.894,9.764-19.17s16.045-0.932,20.768,5.616l0.056,0.124
				c0.044,0.06,0.117,0.079,0.16,0.138C273.635,413.621,274.074,420.423,271.131,426.056z M268.005,386.292
				c-11.483-4.507-24.52-2.265-33.836,5.821l-53.097-37.946l53.141-37.977c12.52,10.762,31.023,10.77,43.552,0.019l26.2,18.723
				L268.005,386.292z M238.933,290.133c-0.018-7.408,4.757-13.977,11.808-16.247c7.051-2.27,14.761,0.279,19.069,6.306l0.023,0.05
				l0.066,0.056c4.254,6.009,4.171,14.071-0.208,19.991c-4.378,5.92-12.062,8.36-19.054,6.052
				C243.646,304.032,238.926,297.496,238.933,290.133z M288.922,298.667h40.432l-15.604,22.288l-25.984-18.569
				C288.222,301.169,288.608,299.927,288.922,298.667z M287.774,277.908l57.78-41.29l18.158,12.975L341.304,281.6h-52.383
				C288.609,280.349,288.226,279.116,287.774,277.908L287.774,277.908z M317.85,344.854l13.031,9.313l-39.129,27.962L317.85,344.854
				z M403.401,405.99c-0.441,1.182-0.816,2.387-1.122,3.61H288.922c-0.31-1.242-0.691-2.466-1.14-3.665l57.772-41.283
				L403.401,405.99z M345.554,343.681l-17.919-12.804l22.552-32.21h52.091c0.31,1.242,0.691,2.466,1.14,3.665L345.554,343.681z
				 M403.409,277.963c-0.445,1.19-0.822,2.405-1.131,3.638h-40.141l15.46-22.083L403.409,277.963z M373.498,235.617l-13.271-9.483
				l39.849-28.477L373.498,235.617z M288.922,170.667h113.357c0.309,1.233,0.686,2.447,1.131,3.638l-57.855,41.344l-57.78-41.29
				C288.227,173.151,288.61,171.918,288.922,170.667z M239.304,158.578c1.671-7.885,8.637-13.521,16.696-13.511
				c6.377-0.018,12.23,3.53,15.162,9.194c2.932,5.663,2.451,12.491-1.245,17.688l-0.083,0.077l-0.023,0.05
				c-4.71,6.54-13.358,8.887-20.728,5.626C241.712,174.44,237.632,166.462,239.304,158.578z M244.118,194.014
				c11.434,4.45,24.392,2.209,33.668-5.823l53.096,37.942l-53.096,37.943c-12.536-10.775-31.067-10.767-43.594,0.019l-26.089-18.644
				L244.118,194.014z M109.722,170.667h113.357c0.31,1.241,0.691,2.464,1.138,3.662L166.4,215.648l-57.817-41.319
				C109.031,173.131,109.411,171.908,109.722,170.667z M76.8,145.067c9.426,0,17.067,7.641,17.067,17.067
				c-0.012,9.421-7.646,17.054-17.067,17.067c-9.426,0-17.067-7.641-17.067-17.067S67.374,145.067,76.8,145.067z"/>
		</g>
	</g>
</g>
<g>
</g>
<g>
</g>
<g>
</g>
<g>
</g>
<g>
</g>
<g>
</g>
<g>
</g>
<g>
</g>
<g>
</g>
<g>
</g>
<g>
</g>
<g>
</g>
<g>
</g>
<g>
</g>
<g>
</g>
</svg>
