<?xml version="1.0" encoding="iso-8859-1"?>
<!-- Generator: Adobe Illustrator 19.0.0, SVG Export Plug-In . SVG Version: 6.00 Build 0)  -->
<svg version="1.1" id="Capa_1" xmlns="http://www.w3.org/2000/svg" xmlns:xlink="http://www.w3.org/1999/xlink" x="0px" y="0px"
	 viewBox="0 0 512 512" style="enable-background:new 0 0 512 512;" xml:space="preserve">
<g>
	<g>
		<g>
			<path d="M298.667,119.467h-85.333c-9.421,0.012-17.054,7.646-17.067,17.067V204.8c0.012,9.421,7.646,17.054,17.067,17.067h85.333
				c9.421-0.012,17.054-7.646,17.067-17.067v-68.267C315.721,127.113,308.087,119.479,298.667,119.467z M298.667,204.8
				l-85.333,0.017v-68.284h85.333V204.8z"/>
			<path d="M244.992,45.141c-2.441-2.462-6.129-3.201-9.331-1.872c-3.202,1.329-5.281,4.464-5.261,7.931
				c-0.018,1.109,0.183,2.21,0.592,3.242c0.47,1.035,1.106,1.987,1.883,2.817c2.441,2.462,6.129,3.201,9.331,1.872
				c3.202-1.329,5.281-4.464,5.261-7.931C247.433,48.941,246.55,46.778,244.992,45.141z"/>
			<path d="M267.008,57.259c3.365,3.3,8.752,3.3,12.117,0c0.752-0.831,1.358-1.783,1.792-2.817c0.438-1.026,0.67-2.127,0.683-3.242
				c-0.033-2.259-0.917-4.422-2.475-6.059c-2.023-1.99-4.898-2.854-7.683-2.308c-0.563,0.083-1.109,0.258-1.617,0.517
				c-0.546,0.184-1.065,0.442-1.542,0.767c-0.445,0.316-0.871,0.658-1.276,1.025c-1.576,1.625-2.462,3.795-2.475,6.059
				c-0.031,1.119,0.203,2.23,0.683,3.242C265.65,55.475,266.256,56.428,267.008,57.259z"/>
			<path d="M54.443,443.049l-0.001,0.001c1.034-0.433,1.986-1.039,2.817-1.791c0.752-0.831,1.358-1.783,1.792-2.817
				c0.911-2.065,0.911-4.418,0-6.483c-0.412-1.045-1.02-2.002-1.792-2.817c-0.831-0.752-1.783-1.358-2.817-1.792
				c-2.059-0.942-4.425-0.942-6.483,0c-2.143,0.777-3.831,2.465-4.608,4.608c-0.911,2.065-0.911,4.418,0,6.483
				c0.434,1.034,1.04,1.986,1.792,2.817c0.829,0.754,1.782,1.36,2.817,1.792C50.024,443.96,52.378,443.96,54.443,443.049z"/>
			<path d="M96.341,463.275c-0.79,0.802-1.401,1.762-1.792,2.817c-1.362,3.175-0.652,6.859,1.792,9.301
				c0.829,0.754,1.782,1.36,2.817,1.792c2.065,0.911,4.418,0.911,6.483,0c1.034-0.434,1.986-1.04,2.817-1.792
				c2.444-2.441,3.154-6.125,1.792-9.3c-0.391-1.055-1.002-2.015-1.792-2.817c-0.419-0.387-0.877-0.731-1.367-1.025
				c-0.434-0.339-0.925-0.599-1.45-0.767c-0.51-0.259-1.059-0.433-1.625-0.517C101.235,460.451,98.376,461.31,96.341,463.275z"/>
			<path d="M87.834,429.167L53.7,463.3c-2.188,2.149-3.055,5.307-2.27,8.271c0.785,2.965,3.1,5.28,6.065,6.065
				s6.122-0.082,8.271-2.27L99.9,441.233c3.281-3.341,3.256-8.701-0.054-12.012S91.174,425.886,87.834,429.167z"/>
			<path d="M511.975,502.858l-8.533-119.467c-0.317-4.465-4.032-7.925-8.508-7.925h-25.6V358.4
				c-0.045-15.522-10.568-29.054-25.6-32.922v-19.49c11.469-2.873,20.606-11.528,24.095-22.825
				c3.489-11.297,0.824-23.597-7.028-32.437v-40.654c10.317-11.451,11.59-28.429,3.095-41.29
				c-8.495-12.862-24.609-18.355-39.191-13.361l-35.386-24.245c-6.424-22.408-21.89-37.31-39.451-37.31h-6.658
				c-4.812-5.41-11.701-8.514-18.942-8.533h-8.533v-25.6C315.733,26.744,288.99,0,256,0s-59.733,26.744-59.733,59.733v25.6h-8.533
				c-7.24,0.02-14.13,3.123-18.942,8.533h-6.658c-17.567,0-33.037,14.91-39.451,37.31l-35.387,24.245
				c-3.38-1.16-6.923-1.775-10.496-1.822c-13.393-0.068-25.574,7.741-31.104,19.939c-5.529,12.198-3.374,26.507,5.504,36.534v40.654
				c-7.852,8.84-10.517,21.139-7.028,32.437c3.489,11.297,12.625,19.952,24.094,22.825v19.489
				c-15.032,3.868-25.555,17.4-25.6,32.922v17.067h-25.6c-4.476,0-8.191,3.46-8.508,7.925L0.025,502.858
				c-0.169,2.362,0.651,4.689,2.264,6.423C3.903,511.015,6.165,512,8.533,512h136.533c2.368,0,4.63-0.985,6.244-2.719
				c1.614-1.734,2.434-4.06,2.264-6.423l-8.533-119.467c-0.317-4.465-4.032-7.925-8.508-7.925h-25.6V358.4
				c-0.045-15.522-10.568-29.054-25.6-32.922v-19.49c11.469-2.873,20.606-11.528,24.095-22.825s0.824-23.597-7.028-32.437v-40.654
				c3.028-3.469,5.317-7.518,6.729-11.901l17.661-11.204c5.682,14.89,19.451,25.162,35.343,26.366V230.4
				c0.015,14.132,11.468,25.585,25.6,25.6v34.133c0.033,10.813,6.868,20.435,17.067,24.027v10.106
				c0.015,14.132,11.468,25.585,25.6,25.6v51.2c-9.421,0.012-17.054,7.646-17.067,17.067v76.8
				c0.012,9.421,7.646,17.054,17.067,17.067h51.2c9.421-0.012,17.054-7.646,17.067-17.067v-76.8
				c-0.012-9.421-7.646-17.054-17.067-17.067v-51.2c14.132-0.015,25.585-11.468,25.6-25.6V314.16
				c10.199-3.592,17.034-13.214,17.067-24.027V256c14.132-0.015,25.585-11.468,25.6-25.6v-17.067
				c15.892-1.204,29.661-11.474,35.344-26.365l17.66,11.203c1.412,4.383,3.701,8.432,6.729,11.901v40.654
				c-7.852,8.84-10.517,21.139-7.028,32.437c3.489,11.297,12.625,19.952,24.094,22.825v19.489
				c-15.032,3.868-25.555,17.4-25.6,32.922v17.067h-25.6c-4.476,0-8.191,3.46-8.508,7.925l-8.533,119.467
				c-0.169,2.362,0.651,4.689,2.264,6.423c1.614,1.734,3.875,2.719,6.244,2.719h136.533c2.369,0,4.63-0.985,6.244-2.719
				C511.324,507.547,512.144,505.221,511.975,502.858z M102.4,409.6c2.264,0.001,4.435-0.897,6.035-2.498
				c1.601-1.601,2.499-3.772,2.498-6.035v-8.533h17.658l7.308,102.4H17.7l7.308-102.4h17.658v8.533c0,4.713,3.82,8.533,8.533,8.533
				s8.533-3.82,8.533-8.533v-8.533h34.133v8.533c-0.001,2.264,0.897,4.435,2.498,6.035C97.965,408.703,100.136,409.601,102.4,409.6z
				 M93.867,358.4v17.067H59.733V358.4c0.024-6.243,3.465-11.972,8.965-14.926c0.896,3.749,4.247,6.393,8.102,6.393
				c3.854,0,7.205-2.644,8.102-6.393C90.402,346.428,93.843,352.157,93.867,358.4z M76.8,290.133
				c-9.421-0.012-17.054-7.646-17.067-17.067c0-9.426,7.641-17.067,17.067-17.067s17.067,7.641,17.067,17.067
				S86.226,290.133,76.8,290.133z M68.267,240.145v-19.49c2.781,0.767,5.649,1.175,8.533,1.212c2.885-0.037,5.752-0.444,8.533-1.212
				v19.49c-2.781-0.767-5.649-1.175-8.533-1.212C73.915,238.97,71.048,239.378,68.267,240.145z M76.8,204.8
				c-9.426,0-17.067-7.641-17.067-17.067c0.012-9.421,7.646-17.054,17.067-17.067c9.426,0,17.067,7.641,17.067,17.067
				S86.226,204.8,76.8,204.8z M109.299,177.843c-1.364-4.49-3.646-8.648-6.702-12.209l16.895-11.576
				c0.047,5.447,0.634,10.876,1.752,16.207L109.299,177.843z M162.133,196.267c-10.217,0-20.033-11.333-23.867-27.583
				c-2.314-9.931-2.311-20.262,0.009-30.192h0c3.825-16.225,13.642-27.558,23.858-27.558V196.267z M213.333,59.733
				c0-23.564,19.102-42.667,42.667-42.667s42.667,19.103,42.667,42.667v25.6h-34.133V76.8c0-4.713-3.82-8.533-8.533-8.533
				s-8.533,3.82-8.533,8.533v8.533h-34.133V59.733z M281.609,460.8h-8.543c-4.713,0-8.533,3.82-8.533,8.533s3.821,8.533,8.533,8.533
				h8.546l0.004,17.067H230.4v-42.667h8.533c4.713,0,8.533-3.82,8.533-8.533s-3.82-8.533-8.533-8.533H230.4v-17.067h51.2
				L281.609,460.8z M247.467,401.067v-51.2h17.067v51.2H247.467z M290.133,324.267c-0.003,4.712-3.822,8.53-8.533,8.533h-51.2
				c-4.712-0.003-8.53-3.822-8.533-8.533v-8.533h68.267V324.267z M307.2,290.133c-0.003,4.711-3.822,8.53-8.533,8.533h-85.333
				c-4.712-0.003-8.53-3.822-8.533-8.533V256h102.4V290.133z M332.8,230.4c-0.003,4.711-3.822,8.53-8.533,8.533H187.733
				c-4.712-0.003-8.53-3.822-8.533-8.533V110.933c0.003-4.712,3.822-8.53,8.533-8.533h136.533c4.712,0.003,8.53,3.822,8.533,8.533
				V230.4z M373.725,168.708c-3.825,16.225-13.641,27.558-23.858,27.558v-85.333c10.217,0,20.033,11.333,23.867,27.583
				C376.047,148.448,376.044,158.778,373.725,168.708z M402.701,177.843l-11.948-7.58c1.119-5.33,1.707-10.759,1.755-16.205
				l16.895,11.576C406.347,169.195,404.065,173.353,402.701,177.843z M435.2,170.667c9.426,0,17.067,7.641,17.067,17.067
				S444.626,204.8,435.2,204.8s-17.067-7.641-17.067-17.067C418.146,178.313,425.779,170.679,435.2,170.667z M443.733,220.655v19.49
				c-5.574-1.615-11.492-1.615-17.067,0v-19.49C432.241,222.27,438.159,222.27,443.733,220.655z M418.133,273.067
				c0.012-9.421,7.646-17.054,17.067-17.067c9.426,0,17.067,7.641,17.067,17.067s-7.641,17.067-17.067,17.067
				S418.133,282.492,418.133,273.067z M418.133,358.4c0.024-6.243,3.465-11.972,8.965-14.926c0.896,3.749,4.247,6.393,8.102,6.393
				c3.854,0,7.205-2.644,8.102-6.393c5.5,2.954,8.941,8.683,8.965,14.926v17.067h-34.133V358.4z M376.1,494.933l7.308-102.4h17.658
				v8.533c0,4.713,3.82,8.533,8.533,8.533s8.533-3.82,8.533-8.533v-8.533h34.133v8.533c-0.001,2.264,0.897,4.435,2.498,6.035
				c1.601,1.601,3.772,2.499,6.035,2.498c2.264,0.001,4.435-0.897,6.035-2.498c1.601-1.601,2.499-3.772,2.498-6.035v-8.533h17.658
				l7.308,102.4H376.1z"/>
			<path d="M412.841,443.051L412.841,443.051c2.144-0.777,3.832-2.465,4.608-4.609c0.911-2.065,0.911-4.418,0-6.483
				c-0.412-1.045-1.02-2.001-1.792-2.817c-0.419-0.387-0.877-0.731-1.367-1.025c-0.434-0.339-0.925-0.599-1.45-0.767
				c-0.51-0.259-1.059-0.433-1.625-0.517c-1.633-0.343-3.334-0.162-4.858,0.517c-2.143,0.777-3.831,2.465-4.608,4.608
				c-1.362,3.175-0.652,6.859,1.792,9.3c0.829,0.754,1.782,1.36,2.817,1.792C408.423,443.962,410.776,443.962,412.841,443.051z"/>
			<path d="M466.858,463.276c-0.419-0.387-0.877-0.731-1.367-1.025c-0.434-0.339-0.925-0.599-1.45-0.767
				c-0.51-0.259-1.059-0.433-1.625-0.517c-2.781-0.516-5.64,0.343-7.675,2.307c-0.79,0.802-1.401,1.762-1.792,2.817
				c-1.362,3.175-0.652,6.859,1.792,9.301c0.829,0.754,1.782,1.36,2.817,1.792c3.175,1.362,6.859,0.653,9.302-1.79
				c2.443-2.443,3.152-6.127,1.79-9.302C468.258,465.037,467.647,464.077,466.858,463.276z"/>
			<path d="M458.245,429.221c-3.311-3.311-8.671-3.335-12.012-0.054L412.1,463.3c-2.188,2.149-3.055,5.307-2.27,8.271
				c0.785,2.965,3.1,5.28,6.065,6.065c2.965,0.785,6.122-0.082,8.271-2.27l34.133-34.133
				C461.58,437.892,461.556,432.532,458.245,429.221z"/>
		</g>
	</g>
</g>
<g>
</g>
<g>
</g>
<g>
</g>
<g>
</g>
<g>
</g>
<g>
</g>
<g>
</g>
<g>
</g>
<g>
</g>
<g>
</g>
<g>
</g>
<g>
</g>
<g>
</g>
<g>
</g>
<g>
</g>
</svg>
