<?xml version="1.0" encoding="iso-8859-1"?>
<!-- Generator: Adobe Illustrator 19.0.0, SVG Export Plug-In . SVG Version: 6.00 Build 0)  -->
<svg version="1.1" id="Capa_1" xmlns="http://www.w3.org/2000/svg" xmlns:xlink="http://www.w3.org/1999/xlink" x="0px" y="0px"
	 viewBox="0 0 512 512" style="enable-background:new 0 0 512 512;" xml:space="preserve">
<g>
	<g>
		<g>
			<path d="M145.067,341.333c-18.851,0-34.133,15.282-34.133,34.133s15.282,34.133,34.133,34.133s34.133-15.282,34.133-34.133
				C179.18,356.624,163.91,341.353,145.067,341.333z M145.067,392.533c-9.426,0-17.067-7.641-17.067-17.067
				s7.641-17.067,17.067-17.067s17.067,7.641,17.067,17.067C162.123,384.888,154.488,392.523,145.067,392.533z"/>
			<path d="M366.933,341.333c-18.851,0-34.133,15.282-34.133,34.133s15.282,34.133,34.133,34.133s34.133-15.282,34.133-34.133
				C401.047,356.624,385.776,341.353,366.933,341.333z M366.933,392.533c-9.426,0-17.067-7.641-17.067-17.067
				s7.641-17.067,17.067-17.067S384,366.041,384,375.467C383.989,384.888,376.355,392.523,366.933,392.533z"/>
			<path d="M256,85.333c14.138,0,25.6-11.461,25.6-25.6s-11.461-25.6-25.6-25.6s-25.6,11.461-25.6,25.6
				C230.415,73.865,241.868,85.318,256,85.333z M256,51.2c4.713,0,8.533,3.82,8.533,8.533s-3.82,8.533-8.533,8.533
				s-8.533-3.82-8.533-8.533C247.471,55.022,251.289,51.205,256,51.2z"/>
			<path d="M401.067,51.2v-8.533c-0.015-14.132-11.468-25.585-25.6-25.6h-77.778c-23.135-22.756-60.243-22.756-83.377,0h-77.778
				c-14.132,0.015-25.585,11.468-25.6,25.6V51.2C92.09,51.22,76.82,66.49,76.8,85.333v338.492c0.027,4.883,0.891,9.726,2.556,14.317
				c0.093,0.251,0.191,0.481,0.306,0.721c1.383,3.768,3.292,7.321,5.671,10.554l36.692,48.925
				c6.462,8.578,16.569,13.633,27.308,13.658h213.333c10.738-0.024,20.845-5.08,27.304-13.658l36.696-48.925h0.004
				c2.379-3.234,4.288-6.789,5.67-10.558c0.114-0.235,0.21-0.465,0.302-0.713c1.665-4.592,2.53-9.436,2.557-14.321V85.333
				C435.18,66.49,419.91,51.22,401.067,51.2z M375.467,34.133c4.711,0.005,8.529,3.822,8.533,8.533V51.2h-68.875
				c-0.867-5.92-2.626-11.674-5.219-17.067H375.467z M128,42.667c0.005-4.711,3.822-8.529,8.533-8.533h65.56
				c-2.592,5.392-4.352,11.147-5.219,17.067H128V42.667z M376.317,488.108c-3.23,4.288-8.282,6.814-13.65,6.825H149.333
				c-5.369-0.012-10.422-2.538-13.654-6.825L102.4,443.733h307.204L376.317,488.108z M418.133,423.825
				c-0.024,0.951-0.101,1.9-0.232,2.842H94.099c-0.131-0.942-0.209-1.891-0.232-2.842V85.333
				c0.011-9.421,7.646-17.056,17.067-17.067H204.8c2.263,0.001,4.434-0.898,6.035-2.499c1.6-1.6,2.499-3.771,2.499-6.035
				c0-23.564,19.103-42.667,42.667-42.667s42.667,19.103,42.667,42.667c-0.001,2.263,0.898,4.434,2.499,6.035
				c1.6,1.6,3.771,2.499,6.035,2.499h93.867c9.421,0.011,17.056,7.645,17.067,17.067V423.825z"/>
			<path d="M298.667,392.533h-85.333c-4.713,0-8.533,3.821-8.533,8.533s3.82,8.533,8.533,8.533h85.333
				c4.713,0,8.533-3.82,8.533-8.533S303.38,392.533,298.667,392.533z"/>
			<path d="M298.667,358.4h-85.333c-4.713,0-8.533,3.82-8.533,8.533s3.82,8.533,8.533,8.533h85.333c4.713,0,8.533-3.82,8.533-8.533
				S303.38,358.4,298.667,358.4z"/>
			<path d="M298.667,324.267h-85.333c-4.713,0-8.533,3.821-8.533,8.533c0,4.713,3.82,8.533,8.533,8.533h85.333
				c4.713,0,8.533-3.821,8.533-8.533C307.2,328.087,303.38,324.267,298.667,324.267z"/>
			<path d="M384,102.4H128c-9.421,0.011-17.056,7.645-17.067,17.067v170.667c0.011,9.421,7.645,17.056,17.067,17.067h256
				c9.421-0.011,17.056-7.645,17.067-17.067V119.467C401.056,110.045,393.421,102.411,384,102.4z M128,290.133V119.467h256
				l0.012,170.667H128z"/>
			<path d="M262.059,249.941c-0.83-0.753-1.783-1.359-2.817-1.792c-3.178-1.333-6.845-0.626-9.3,1.792
				c-0.755,0.829-1.363,1.782-1.796,2.817c-1.357,3.176-0.646,6.858,1.795,9.301c0.829,0.753,1.78,1.359,2.813,1.792
				c3.175,1.363,6.861,0.655,9.304-1.788s3.153-6.128,1.791-9.304C263.417,251.725,262.811,250.772,262.059,249.941z"/>
			<path d="M312.379,198.017c-16.24-12.249-36.038-18.856-56.379-18.817c-20.341-0.039-40.139,6.568-56.379,18.817
				c-2.423,1.85-3.676,4.853-3.285,7.877c0.391,3.024,2.365,5.61,5.179,6.783c2.814,1.174,6.041,0.757,8.464-1.094
				c27.282-20.422,64.76-20.422,92.042,0c3.746,2.86,9.102,2.142,11.962-1.604C316.844,206.233,316.125,200.877,312.379,198.017z"/>
			<path d="M329.846,172.742c-20.497-17.786-46.707-27.609-73.846-27.675c-27.139,0.066-53.348,9.888-73.846,27.675
				c-3.554,3.085-3.94,8.463-0.864,12.024c3.076,3.561,8.454,3.96,12.022,0.893c35.906-31.367,89.469-31.367,125.375,0
				c3.568,3.068,8.946,2.668,12.022-0.893S333.399,175.826,329.846,172.742z"/>
			<path d="M286.813,223.642c-18.389-13.3-43.236-13.3-61.625,0c-3.733,2.879-4.425,8.238-1.546,11.971
				c2.879,3.733,8.238,4.425,11.971,1.546c12.194-8.717,28.581-8.717,40.775,0c3.733,2.879,9.092,2.187,11.971-1.546
				C291.237,231.88,290.545,226.52,286.813,223.642z"/>
		</g>
	</g>
</g>
<g>
</g>
<g>
</g>
<g>
</g>
<g>
</g>
<g>
</g>
<g>
</g>
<g>
</g>
<g>
</g>
<g>
</g>
<g>
</g>
<g>
</g>
<g>
</g>
<g>
</g>
<g>
</g>
<g>
</g>
</svg>
