<?xml version="1.0" encoding="iso-8859-1"?>
<!-- Generator: Adobe Illustrator 19.0.0, SVG Export Plug-In . SVG Version: 6.00 Build 0)  -->
<svg version="1.1" id="Capa_1" xmlns="http://www.w3.org/2000/svg" xmlns:xlink="http://www.w3.org/1999/xlink" x="0px" y="0px"
	 viewBox="0 0 512 512" style="enable-background:new 0 0 512 512;" xml:space="preserve">
<g>
	<g>
		<g>
			<path d="M477.867,0H34.133C15.29,0.02,0.02,15.29,0,34.133v443.733C0.02,496.71,15.29,511.98,34.133,512h443.733
				c18.843-0.02,34.113-15.29,34.133-34.133V34.133C511.98,15.29,496.71,0.02,477.867,0z M494.933,477.867
				c-0.011,9.421-7.645,17.056-17.067,17.067H34.133c-9.421-0.011-17.056-7.645-17.067-17.067V34.133
				c0.011-9.421,7.646-17.056,17.067-17.067h443.733c9.421,0.011,17.056,7.646,17.067,17.067V477.867z"/>
			<path d="M213.333,358.4c4.713,0,8.533-3.82,8.533-8.533s-3.821-8.533-8.533-8.533H179.2c-2.263-0.001-4.434,0.898-6.035,2.499
				c-1.6,1.6-2.499,3.771-2.499,6.035v102.4c-0.001,2.263,0.898,4.434,2.499,6.035c1.6,1.6,3.771,2.499,6.035,2.499h34.133
				c4.713,0,8.533-3.821,8.533-8.533c0-4.713-3.821-8.533-8.533-8.533h-25.6V409.6h8.533c4.713,0,8.533-3.82,8.533-8.533
				s-3.82-8.533-8.533-8.533h-8.533V358.4H213.333z"/>
			<path d="M145.067,341.333c-2.263-0.001-4.434,0.898-6.035,2.499c-1.6,1.6-2.499,3.771-2.499,6.035v42.667H93.867v-42.667
				c0-4.713-3.821-8.533-8.533-8.533s-8.533,3.82-8.533,8.533v102.4c0,4.713,3.82,8.533,8.533,8.533s8.533-3.821,8.533-8.533V409.6
				h42.667v42.667c0,4.713,3.82,8.533,8.533,8.533s8.533-3.821,8.533-8.533v-102.4c0.001-2.263-0.898-4.434-2.499-6.035
				C149.501,342.232,147.33,341.333,145.067,341.333z"/>
			<path d="M281.6,443.733H256v-93.867c0-4.713-3.82-8.533-8.533-8.533s-8.533,3.82-8.533,8.533v102.4
				c-0.001,2.263,0.898,4.434,2.499,6.035c1.6,1.6,3.771,2.499,6.035,2.499H281.6c4.713,0,8.533-3.821,8.533-8.533
				C290.133,447.554,286.313,443.733,281.6,443.733z"/>
			<path d="M349.867,443.733h-25.6v-93.867c0-4.713-3.82-8.533-8.533-8.533s-8.533,3.82-8.533,8.533v102.4
				c-0.001,2.263,0.898,4.434,2.499,6.035c1.6,1.6,3.771,2.499,6.035,2.499h34.133c4.713,0,8.533-3.821,8.533-8.533
				C358.4,447.554,354.58,443.733,349.867,443.733z"/>
			<path d="M426.667,341.333H384c-2.263-0.001-4.434,0.898-6.035,2.499c-1.6,1.6-2.499,3.771-2.499,6.035v102.4
				c-0.001,2.263,0.898,4.434,2.499,6.035c1.6,1.6,3.771,2.499,6.035,2.499h42.667c2.263,0.001,4.434-0.898,6.035-2.499
				c1.6-1.6,2.499-3.771,2.499-6.035v-102.4c0.001-2.263-0.898-4.434-2.499-6.035C431.101,342.232,428.93,341.333,426.667,341.333z
				 M418.133,443.733h-25.6V358.4h25.6V443.733z"/>
			<path d="M282.626,256.044c-3.032-0.362-6.026,0.924-7.85,3.372l-10.242,13.656V179.2c0-4.713-3.82-8.533-8.533-8.533
				s-8.533,3.82-8.533,8.533v93.867l-10.242-13.65c-1.825-2.448-4.818-3.734-7.85-3.372c-3.032,0.362-5.639,2.316-6.836,5.125
				c-1.197,2.809-0.802,6.043,1.036,8.481l25.6,34.133c0.189,0.252,0.489,0.356,0.701,0.584c0.299,0.405,0.635,0.782,1.004,1.125
				c0.59,0.309,1.181,0.617,1.772,0.924c1.048,0.486,2.185,0.753,3.34,0.784l0.004-0.001L256,307.2
				c0.918,0.001,1.83-0.148,2.7-0.442c0.232-0.077,0.413-0.233,0.634-0.329c0.277-0.125,0.547-0.265,0.809-0.421
				c0.973-0.526,1.832-1.239,2.53-2.098c0.043-0.054,0.11-0.071,0.152-0.127l0.087-0.117l0.017-0.021l25.496-33.996
				c1.838-2.438,2.234-5.672,1.036-8.481C288.264,258.361,285.657,256.406,282.626,256.044z"/>
			<path d="M51.2,85.333c-2.263-0.001-4.434,0.898-6.035,2.499c-1.6,1.6-2.499,3.771-2.499,6.035v17.067
				c0,4.713,3.82,8.533,8.533,8.533s8.533-3.82,8.533-8.533V93.867c0.001-2.263-0.898-4.434-2.499-6.035
				C55.634,86.232,53.463,85.333,51.2,85.333z"/>
			<path d="M187.733,119.467c2.263,0.001,4.434-0.898,6.035-2.499c1.6-1.6,2.499-3.771,2.499-6.035V93.867
				c0-4.713-3.82-8.533-8.533-8.533s-8.533,3.82-8.533,8.533v17.067c-0.001,2.263,0.898,4.434,2.499,6.035
				C183.299,118.568,185.47,119.467,187.733,119.467z"/>
			<path d="M221.867,119.467c4.713,0,8.533-3.82,8.533-8.533V93.867c0-4.713-3.82-8.533-8.533-8.533s-8.533,3.821-8.533,8.533
				v17.067C213.333,115.646,217.154,119.467,221.867,119.467z"/>
			<path d="M290.133,85.333c-2.263-0.001-4.434,0.898-6.035,2.499c-1.6,1.6-2.499,3.771-2.499,6.035v17.067
				c0,4.713,3.82,8.533,8.533,8.533s8.533-3.82,8.533-8.533V93.867c0.001-2.263-0.898-4.434-2.499-6.035
				C294.568,86.232,292.397,85.333,290.133,85.333z"/>
			<path d="M85.333,136.533c2.263,0.001,4.434-0.898,6.035-2.499c1.6-1.6,2.499-3.771,2.499-6.035V76.8
				c0-4.713-3.821-8.533-8.533-8.533S76.8,72.087,76.8,76.8V128c-0.001,2.263,0.898,4.434,2.499,6.035
				C80.899,135.635,83.07,136.534,85.333,136.533z"/>
			<path d="M153.6,68.267c-2.263-0.001-4.434,0.898-6.035,2.499c-1.6,1.6-2.499,3.771-2.499,6.035V128
				c0,4.713,3.821,8.533,8.533,8.533c4.713,0,8.533-3.82,8.533-8.533V76.8c0.001-2.263-0.898-4.434-2.499-6.035
				C158.034,69.165,155.863,68.266,153.6,68.267z"/>
			<path d="M426.667,85.333c-2.263-0.001-4.434,0.898-6.035,2.499c-1.6,1.6-2.499,3.771-2.499,6.035v17.067
				c0,4.713,3.82,8.533,8.533,8.533s8.533-3.82,8.533-8.533V93.867c0.001-2.263-0.898-4.434-2.499-6.035
				C431.101,86.232,428.93,85.333,426.667,85.333z"/>
			<path d="M392.533,136.533c2.263,0.001,4.434-0.898,6.035-2.499c1.6-1.6,2.499-3.771,2.499-6.035V76.8
				c0-4.713-3.821-8.533-8.533-8.533c-4.713,0-8.533,3.82-8.533,8.533V128c-0.001,2.263,0.898,4.434,2.499,6.035
				C388.099,135.635,390.27,136.534,392.533,136.533z"/>
			<path d="M256,128c2.263,0.001,4.434-0.898,6.035-2.499c1.6-1.6,2.499-3.771,2.499-6.035V85.333c0-4.713-3.82-8.533-8.533-8.533
				s-8.533,3.82-8.533,8.533v34.133c-0.001,2.263,0.898,4.434,2.499,6.035C251.566,127.102,253.737,128.001,256,128z"/>
			<path d="M119.467,162.133c2.263,0.001,4.434-0.898,6.035-2.499c1.6-1.6,2.499-3.771,2.499-6.035V51.2
				c0-4.713-3.82-8.533-8.533-8.533s-8.533,3.82-8.533,8.533v102.4c-0.001,2.263,0.898,4.434,2.499,6.035
				C115.032,161.235,117.203,162.134,119.467,162.133z"/>
			<path d="M324.267,136.533c2.263,0.001,4.434-0.898,6.035-2.499c1.6-1.6,2.499-3.771,2.499-6.035V76.8
				c0-4.713-3.82-8.533-8.533-8.533s-8.533,3.82-8.533,8.533V128c-0.001,2.263,0.898,4.434,2.499,6.035
				C319.833,135.635,322.003,136.534,324.267,136.533z"/>
			<path d="M358.4,42.667c-2.263-0.001-4.434,0.898-6.035,2.499c-1.6,1.6-2.499,3.771-2.499,6.035v102.4
				c0,4.713,3.82,8.533,8.533,8.533s8.533-3.821,8.533-8.533V51.2c0.001-2.263-0.898-4.434-2.499-6.035
				C362.834,43.565,360.663,42.666,358.4,42.667z"/>
			<path d="M457.554,94.55c-1.054,0.392-2.012,1.002-2.813,1.792c-0.755,0.829-1.363,1.782-1.796,2.817
				c-1.356,3.176-0.646,6.857,1.796,9.3c0.828,0.753,1.78,1.359,2.813,1.792c2.625,1.125,5.64,0.848,8.016-0.735
				c2.376-1.584,3.792-4.26,3.764-7.115c-0.033-2.259-0.917-4.422-2.475-6.059C464.402,93.923,460.733,93.217,457.554,94.55z"/>
		</g>
	</g>
</g>
<g>
</g>
<g>
</g>
<g>
</g>
<g>
</g>
<g>
</g>
<g>
</g>
<g>
</g>
<g>
</g>
<g>
</g>
<g>
</g>
<g>
</g>
<g>
</g>
<g>
</g>
<g>
</g>
<g>
</g>
</svg>
