<?xml version="1.0" encoding="iso-8859-1"?>
<!-- Generator: Adobe Illustrator 19.0.0, SVG Export Plug-In . SVG Version: 6.00 Build 0)  -->
<svg version="1.1" id="Capa_1" xmlns="http://www.w3.org/2000/svg" xmlns:xlink="http://www.w3.org/1999/xlink" x="0px" y="0px"
	 viewBox="0 0 512 512" style="enable-background:new 0 0 512 512;" xml:space="preserve">
<g>
	<g>
		<g>
			<path d="M494.933,371.2V72.533c-0.015-14.132-11.468-25.585-25.6-25.6H42.667c-14.132,0.015-25.585,11.468-25.6,25.6V371.2
				C7.646,371.212,0.012,378.846,0,388.267V422.4c0.028,23.553,19.114,42.639,42.667,42.667h426.667
				c23.553-0.028,42.639-19.114,42.667-42.667v-34.133C511.988,378.846,504.354,371.212,494.933,371.2z M34.133,72.533
				c0.003-4.712,3.822-8.53,8.533-8.533h426.667c4.711,0.003,8.53,3.822,8.533,8.533V371.2H34.133V72.533z M327.525,388.267
				l-6.175,12.35c-1.436,2.9-4.397,4.73-7.633,4.717H198.283c-3.236,0.013-6.198-1.817-7.633-4.717l-6.175-12.35H327.525z
				 M494.933,405.333h-93.867c-4.713,0-8.533,3.821-8.533,8.533c0,4.713,3.821,8.533,8.533,8.533h93.867
				c-0.015,14.132-11.468,25.585-25.6,25.6H42.667c-14.132-0.015-25.585-11.468-25.6-25.6h93.867c4.713,0,8.533-3.821,8.533-8.533
				c0-4.713-3.82-8.533-8.533-8.533H17.067v-17.067h148.325l9.992,19.983c4.314,8.694,13.194,14.181,22.9,14.15h115.433
				c9.706,0.031,18.586-5.456,22.9-14.15l9.992-19.983h148.325V405.333z"/>
			<path d="M153.6,405.333h-8.533c-4.713,0-8.533,3.821-8.533,8.533c0,4.713,3.82,8.533,8.533,8.533h8.533
				c4.713,0,8.533-3.821,8.533-8.533C162.133,409.154,158.313,405.333,153.6,405.333z"/>
			<path d="M358.4,422.4h8.533c4.713,0,8.533-3.821,8.533-8.533c0-4.713-3.82-8.533-8.533-8.533H358.4
				c-4.713,0-8.533,3.821-8.533,8.533C349.867,418.579,353.687,422.4,358.4,422.4z"/>
			<path d="M289.385,227.311c-0.073-0.393-0.132-0.784-0.218-1.172c-0.505-2.349-1.223-4.647-2.145-6.866
				c-0.066-0.157-0.142-0.305-0.21-0.46c-1.948-4.507-4.723-8.609-8.181-12.094c-0.225-0.23-0.454-0.45-0.684-0.674
				c-1.607-1.577-3.345-3.014-5.197-4.295c1.02-3.375,1.537-6.882,1.533-10.408c-0.058-18.548-14.121-34.053-32.575-35.917
				c-0.514-2.361-1.245-4.669-2.182-6.895c-0.28-0.673-0.666-1.281-0.98-1.935c-0.723-1.553-1.545-3.057-2.46-4.505
				c-0.498-0.763-1.071-1.458-1.619-2.185c-0.902-1.222-1.872-2.392-2.906-3.505c-0.66-0.698-1.356-1.343-2.066-1.992
				c-1.089-1-2.232-1.939-3.425-2.813c-0.782-0.573-1.566-1.123-2.391-1.639c-1.287-0.794-2.619-1.514-3.987-2.158
				c-0.85-0.407-1.677-0.834-2.558-1.182c-1.563-0.594-3.162-1.089-4.787-1.483c-0.792-0.204-1.55-0.477-2.359-0.632
				c-14.88-2.974-30.152,2.816-39.32,14.907c-9.164-12.089-24.429-17.879-39.305-14.909c-0.823,0.158-1.592,0.434-2.397,0.641
				c-1.602,0.389-3.178,0.877-4.72,1.461c-0.919,0.362-1.78,0.804-2.665,1.229c-1.306,0.617-2.577,1.305-3.808,2.06
				c-0.906,0.563-1.766,1.166-2.623,1.797c-1.066,0.789-2.077,1.625-3.058,2.513c-0.852,0.767-1.681,1.537-2.464,2.373
				c-0.824,0.883-1.565,1.827-2.307,2.782c-0.763,0.976-1.533,1.93-2.204,2.975c-0.585,0.915-1.052,1.899-1.564,2.862
				c-0.671,1.167-1.281,2.368-1.828,3.597c-0.337,0.831-0.525,1.732-0.809,2.59c-0.495,1.325-0.917,2.676-1.266,4.046
				c-18.464,1.848-32.542,17.357-32.6,35.914c-0.004,3.526,0.513,7.033,1.533,10.408c-1.852,1.281-3.59,2.718-5.197,4.295
				c-0.23,0.224-0.459,0.444-0.684,0.674c-3.459,3.485-6.234,7.587-8.181,12.094c-0.069,0.155-0.145,0.303-0.21,0.46
				c-0.922,2.219-1.64,4.517-2.145,6.866c-0.085,0.388-0.145,0.78-0.218,1.172c-2.537,12.8,1.455,26.024,10.652,35.281
				c-0.156,0.337-0.295,0.677-0.434,1.017c-2.001,4.531-3.036,9.43-3.041,14.383c0.111,16.059,10.791,30.124,26.229,34.545
				c5.722,17.345,20.766,29.96,38.843,32.57s36.075-5.234,46.47-20.252c9.002,12.996,23.807,20.749,39.617,20.746
				c20.801,0.088,39.274-13.279,45.696-33.063c15.438-4.421,26.118-18.486,26.229-34.545c0.008-4.972-1.037-9.89-3.067-14.429
				c-0.137-0.324-0.273-0.653-0.417-0.962C287.928,253.343,291.924,240.115,289.385,227.311z M162.133,297.683
				c-0.139,16.3-12.834,29.729-29.1,30.784c-16.266,1.055-30.59-10.622-32.833-26.768v-0.083c0.001-2.264-0.897-4.435-2.498-6.035
				s-3.772-2.499-6.035-2.498c-1.811,0.039-3.561,0.667-4.983,1.789c-6.389-3.211-10.441-9.73-10.492-16.881
				c0.007-2.597,0.551-5.165,1.6-7.542c0.069-0.165,0.14-0.255,0.208-0.404c0.322-0.682,0.684-1.343,1.085-1.981
				c0.044-0.079,0.098-0.151,0.14-0.232c0.181-0.318,0.385-0.623,0.609-0.911c3.605-5.001,9.392-7.966,15.557-7.972
				c4.713,0,8.533-3.821,8.533-8.533s-3.82-8.533-8.533-8.533c-7.853,0.025-15.483,2.615-21.727,7.378
				c-4.475-5.161-6.309-12.103-4.969-18.801c0.066-0.354,0.158-0.698,0.24-1.047c0.255-1.082,0.588-2.144,0.998-3.177
				c0.1-0.255,0.191-0.515,0.301-0.765c1.112-2.501,2.662-4.784,4.575-6.741c0.278-0.282,0.579-0.543,0.873-0.811
				c0.623-0.569,1.277-1.104,1.957-1.603c0.541-0.392,1.08-0.785,1.658-1.131c0.331-0.204,0.688-0.368,1.03-0.556
				c0.781-0.434,1.587-0.821,2.414-1.161c0.069-0.027,0.111-0.092,0.179-0.121c5.291-2.121,11.18-2.205,16.529-0.237
				c4.423,1.629,9.329-0.636,10.958-5.059c1.629-4.423-0.636-9.329-5.059-10.959c-6.601-2.497-13.765-3.115-20.696-1.785
				c-0.321-1.299-0.501-2.628-0.538-3.965c0.05-9.19,6.641-17.04,15.683-18.681c0.085,0.372,0.121,0.753,0.217,1.122
				c0.97,3.764,4.363,6.396,8.25,6.4c0.723,0.003,1.443-0.09,2.142-0.275c2.191-0.564,4.069-1.976,5.218-3.926
				c1.149-1.949,1.475-4.276,0.907-6.466c-2.149-8.659,0.87-17.783,7.761-23.449c6.891-5.667,16.426-6.867,24.507-3.086
				c8.081,3.782,13.268,11.872,13.332,20.794V297.683z M267.669,249.262c-6.244-4.762-13.874-7.353-21.727-7.378
				c-4.713,0-8.533,3.82-8.533,8.533s3.82,8.533,8.533,8.533c6.091,0.009,11.817,2.909,15.427,7.816
				c0.274,0.336,0.521,0.693,0.74,1.068c0.042,0.081,0.097,0.154,0.141,0.234c0.443,0.696,0.84,1.42,1.189,2.167
				c0.064,0.144,0.119,0.249,0.188,0.415c0.499,1.157,0.879,2.362,1.134,3.595c1.698,8.29-2.351,16.694-9.893,20.532
				c-1.421-1.289-3.257-2.026-5.175-2.078c-2.22-0.086-4.38,0.733-5.986,2.27s-2.518,3.658-2.531,5.88
				c-1.798,16.363-16.042,28.487-32.481,27.646c-16.44-0.84-29.374-14.353-29.494-30.814V163.775
				c0.024-8.952,5.206-17.088,13.308-20.894c8.102-3.806,17.673-2.601,24.578,3.095s9.909,14.863,7.713,23.541
				c-0.568,2.19-0.242,4.517,0.907,6.466c1.149,1.949,3.026,3.362,5.218,3.925c0.699,0.185,1.419,0.277,2.142,0.275
				c3.887-0.004,7.28-2.636,8.25-6.4c0.096-0.369,0.131-0.75,0.217-1.122c9.042,1.641,15.633,9.491,15.683,18.681
				c-0.036,1.337-0.216,2.667-0.538,3.965c-6.931-1.33-14.095-0.712-20.696,1.785c-2.861,1.054-4.943,3.554-5.461,6.559
				c-0.518,3.005,0.607,6.058,2.95,8.009c2.343,1.951,5.549,2.503,8.411,1.45c5.349-1.968,11.238-1.883,16.529,0.237
				c0.068,0.029,0.11,0.094,0.179,0.121c0.827,0.341,1.633,0.729,2.416,1.163c0.341,0.188,0.697,0.35,1.028,0.554
				c0.578,0.346,1.117,0.74,1.658,1.132c0.681,0.499,1.334,1.034,1.957,1.603c0.294,0.268,0.595,0.529,0.873,0.811
				c1.913,1.956,3.462,4.238,4.574,6.738c0.111,0.253,0.202,0.516,0.305,0.774c0.409,1.031,0.741,2.091,0.995,3.17
				c0.081,0.35,0.174,0.694,0.24,1.049C273.978,237.158,272.144,244.1,267.669,249.262z"/>
			<path d="M139.775,278.017c-2.076-0.858-4.407-0.858-6.483,0c-0.546,0.184-1.065,0.442-1.542,0.767
				c-0.445,0.316-0.871,0.658-1.275,1.025c-0.772,0.816-1.38,1.772-1.792,2.817c-1.362,3.175-0.653,6.859,1.79,9.302
				c2.443,2.443,6.127,3.152,9.302,1.79c2.143-0.777,3.831-2.465,4.608-4.608c0.438-1.025,0.67-2.127,0.684-3.242
				c-0.033-2.259-0.917-4.422-2.475-6.059C141.775,279.038,140.819,278.43,139.775,278.017z"/>
			<path d="M139.775,243.883c-2.076-0.858-4.407-0.858-6.483,0c-0.546,0.184-1.065,0.442-1.542,0.767
				c-0.445,0.316-0.871,0.658-1.275,1.025c-0.772,0.816-1.38,1.772-1.792,2.817c-1.362,3.175-0.653,6.859,1.79,9.302
				c2.443,2.443,6.127,3.152,9.302,1.79c2.143-0.777,3.831-2.465,4.608-4.608c0.438-1.025,0.67-2.127,0.684-3.242
				c-0.033-2.259-0.917-4.422-2.475-6.059C141.775,244.905,140.819,244.297,139.775,243.883z"/>
			<path d="M139.775,175.617c-2.067-0.9-4.416-0.9-6.483,0c-0.546,0.184-1.065,0.442-1.542,0.767
				c-0.445,0.316-0.871,0.658-1.275,1.025c-0.754,0.829-1.36,1.782-1.792,2.817c-1.362,3.175-0.653,6.859,1.79,9.302
				c2.443,2.443,6.127,3.152,9.302,1.79c2.143-0.777,3.831-2.465,4.608-4.608c0.438-1.025,0.67-2.127,0.684-3.242
				c-0.033-2.259-0.917-4.422-2.475-6.059C141.775,176.638,140.819,176.03,139.775,175.617z"/>
			<path d="M139.774,225.45c2.143-0.777,3.831-2.465,4.608-4.608c0.911-2.065,0.911-4.418,0-6.483
				c-0.431-1.035-1.037-1.987-1.79-2.817c-0.817-0.77-1.773-1.378-2.817-1.792c-2.076-0.858-4.407-0.858-6.483,0
				c-0.546,0.184-1.065,0.442-1.542,0.767c-0.445,0.316-0.871,0.659-1.276,1.025c-0.772,0.816-1.38,1.772-1.792,2.817
				c-1.362,3.175-0.653,6.859,1.79,9.302C132.915,226.102,136.599,226.811,139.774,225.45z"/>
			<path d="M209.492,278.783c-0.434-0.339-0.925-0.599-1.45-0.767c-0.51-0.259-1.059-0.433-1.625-0.517
				c-2.783-0.558-5.661,0.308-7.675,2.308c-1.561,1.634-2.445,3.799-2.475,6.059c-0.022,2.27,0.87,4.453,2.475,6.058
				s3.788,2.497,6.058,2.475c4.699-0.032,8.501-3.834,8.533-8.533C213.334,283.008,211.889,280.342,209.492,278.783z"/>
			<path d="M209.492,244.65c-0.434-0.339-0.925-0.599-1.45-0.767c-0.51-0.259-1.059-0.433-1.625-0.517
				c-2.783-0.557-5.661,0.308-7.675,2.308c-1.561,1.634-2.445,3.799-2.475,6.059c-0.031,1.119,0.203,2.23,0.683,3.242
				c0.433,1.034,1.039,1.986,1.791,2.817c1.627,1.572,3.796,2.459,6.059,2.475c2.24-0.004,4.388-0.894,5.975-2.475
				c0.805-0.806,1.442-1.763,1.875-2.817c0.477-1.013,0.71-2.123,0.683-3.242c-0.026-2.277-0.945-4.452-2.558-6.059
				C210.403,245.269,209.97,244.923,209.492,244.65z"/>
			<path d="M198.742,177.408c-1.561,1.634-2.445,3.799-2.475,6.059c-0.022,2.27,0.87,4.453,2.475,6.058
				c1.605,1.605,3.788,2.497,6.058,2.475c4.699-0.032,8.501-3.834,8.533-8.533c-0.026-2.277-0.945-4.452-2.558-6.059
				C207.386,174.25,202.131,174.25,198.742,177.408z"/>
			<path d="M210.775,211.541c-3.389-3.158-8.644-3.158-12.033,0c-0.754,0.829-1.36,1.782-1.792,2.817
				c-0.48,1.012-0.714,2.123-0.683,3.242c-0.022,2.27,0.87,4.453,2.475,6.058s3.788,2.497,6.058,2.475
				c4.699-0.032,8.501-3.834,8.533-8.533c0.027-1.119-0.207-2.229-0.683-3.242C212.219,213.304,211.581,212.346,210.775,211.541z"/>
			<path d="M312.492,242.517c3.175,1.362,6.859,0.653,9.302-1.79c2.443-2.443,3.152-6.127,1.79-9.302
				c-0.432-1.035-1.038-1.987-1.792-2.817c-0.831-0.752-1.783-1.358-2.817-1.792c-3.177-1.342-6.849-0.634-9.3,1.792
				c-0.772,0.816-1.38,1.772-1.792,2.817c-1.362,3.175-0.652,6.859,1.792,9.3C310.49,241.497,311.447,242.105,312.492,242.517z"/>
			<path d="M321.791,262.742c-0.831-0.752-1.783-1.358-2.817-1.792c-3.178-1.334-6.845-0.627-9.3,1.792
				c-0.754,0.829-1.36,1.782-1.792,2.817c-0.911,2.065-0.911,4.418,0,6.483c0.434,1.034,1.04,1.986,1.792,2.817
				c3.365,3.3,8.752,3.3,12.117,0c1.589-1.616,2.479-3.792,2.475-6.059c-0.014-1.115-0.246-2.216-0.683-3.242
				C323.152,264.524,322.546,263.571,321.791,262.742z"/>
			<path d="M318.975,295.083c-3.178-1.333-6.845-0.627-9.3,1.792c-1.561,1.634-2.446,3.799-2.475,6.059
				c-0.023,2.27,0.869,4.454,2.475,6.059c0.816,0.772,1.772,1.38,2.817,1.791c2.624,1.124,5.638,0.847,8.013-0.737
				s3.79-4.259,3.762-7.113c-0.033-2.259-0.917-4.422-2.475-6.059C320.961,296.122,320.009,295.516,318.975,295.083z"/>
			<path d="M321.791,331.008c-0.831-0.752-1.783-1.358-2.817-1.792c-3.177-1.342-6.849-0.634-9.3,1.792
				c-0.772,0.816-1.38,1.772-1.792,2.817c-1.362,3.175-0.652,6.859,1.792,9.3c0.816,0.772,1.772,1.38,2.817,1.791
				c3.175,1.362,6.859,0.653,9.302-1.79c2.443-2.443,3.152-6.127,1.79-9.302C323.152,332.79,322.546,331.838,321.791,331.008z"/>
			<path d="M318.975,192.683c-3.178-1.334-6.845-0.627-9.3,1.792c-1.561,1.634-2.446,3.799-2.475,6.059
				c-0.023,2.27,0.869,4.454,2.475,6.059c0.848,0.752,1.796,1.383,2.817,1.875c2.639,1.088,5.647,0.784,8.014-0.811
				c2.367-1.595,3.779-4.268,3.761-7.122c-0.033-2.259-0.917-4.422-2.475-6.059C320.961,193.722,320.009,193.116,318.975,192.683z"
				/>
			<path d="M321.792,160.342c-0.831-0.752-1.783-1.358-2.817-1.792c-3.178-1.334-6.845-0.627-9.3,1.792
				c-0.754,0.829-1.36,1.782-1.792,2.817c-0.911,2.065-0.911,4.418,0,6.483c0.433,1.034,1.039,1.986,1.791,2.817
				c0.816,0.772,1.772,1.38,2.817,1.792c3.175,1.362,6.859,0.652,9.301-1.792c0.752-0.831,1.358-1.783,1.792-2.817
				c0.911-2.065,0.911-4.418,0-6.483C323.152,162.124,322.546,161.171,321.792,160.342z"/>
			<path d="M321.792,126.209c-0.831-0.752-1.783-1.358-2.817-1.792c-3.177-1.342-6.849-0.634-9.3,1.792
				c-0.772,0.816-1.38,1.772-1.792,2.817c-1.362,3.174-0.652,6.859,1.791,9.3c0.816,0.772,1.772,1.38,2.817,1.791
				c3.175,1.362,6.859,0.653,9.3-1.791c0.752-0.831,1.358-1.783,1.792-2.817c0.911-2.065,0.911-4.418,0-6.483
				C323.152,127.991,322.546,127.038,321.792,126.209z"/>
			<path d="M349.867,140.8h51.2c4.713,0,8.533-3.82,8.533-8.533s-3.82-8.533-8.533-8.533h-51.2c-4.713,0-8.533,3.82-8.533,8.533
				S345.154,140.8,349.867,140.8z"/>
			<path d="M349.867,174.933H409.6c4.713,0,8.533-3.821,8.533-8.533c0-4.713-3.82-8.533-8.533-8.533h-59.733
				c-4.713,0-8.533,3.821-8.533,8.533C341.333,171.113,345.154,174.933,349.867,174.933z"/>
			<path d="M452.267,157.867h-8.533c-4.713,0-8.533,3.821-8.533,8.533c0,4.713,3.82,8.533,8.533,8.533h8.533
				c4.713,0,8.533-3.821,8.533-8.533C460.8,161.687,456.979,157.867,452.267,157.867z"/>
			<path d="M452.267,192h-102.4c-4.713,0-8.533,3.82-8.533,8.533s3.82,8.533,8.533,8.533h102.4c4.713,0,8.533-3.82,8.533-8.533
				S456.979,192,452.267,192z"/>
			<path d="M349.867,243.2h25.6c4.713,0,8.533-3.82,8.533-8.533s-3.82-8.533-8.533-8.533h-25.6c-4.713,0-8.533,3.821-8.533,8.533
				S345.154,243.2,349.867,243.2z"/>
			<path d="M349.867,277.333H435.2c4.713,0,8.533-3.82,8.533-8.533s-3.82-8.533-8.533-8.533h-85.333
				c-4.713,0-8.533,3.82-8.533,8.533S345.154,277.333,349.867,277.333z"/>
			<path d="M392.533,294.4h-42.667c-4.713,0-8.533,3.82-8.533,8.533s3.82,8.533,8.533,8.533h42.667c4.713,0,8.533-3.82,8.533-8.533
				S397.246,294.4,392.533,294.4z"/>
			<path d="M452.267,294.4h-25.6c-4.713,0-8.533,3.82-8.533,8.533s3.82,8.533,8.533,8.533h25.6c4.713,0,8.533-3.82,8.533-8.533
				S456.979,294.4,452.267,294.4z"/>
			<path d="M375.467,328.533h-25.6c-4.713,0-8.533,3.82-8.533,8.533s3.82,8.533,8.533,8.533h25.6c4.713,0,8.533-3.82,8.533-8.533
				S380.18,328.533,375.467,328.533z"/>
			<path d="M415.659,331.008c-2.455-2.417-6.122-3.124-9.3-1.792c-2.143,0.777-3.831,2.465-4.608,4.608
				c-0.911,2.065-0.911,4.418,0,6.483c0.434,1.034,1.04,1.986,1.792,2.817c2.441,2.444,6.125,3.154,9.3,1.792
				c2.143-0.777,3.831-2.465,4.608-4.608c0.911-2.065,0.911-4.418,0-6.483C417.039,332.78,416.431,331.824,415.659,331.008z"/>
		</g>
	</g>
</g>
<g>
</g>
<g>
</g>
<g>
</g>
<g>
</g>
<g>
</g>
<g>
</g>
<g>
</g>
<g>
</g>
<g>
</g>
<g>
</g>
<g>
</g>
<g>
</g>
<g>
</g>
<g>
</g>
<g>
</g>
</svg>
