<?xml version="1.0" encoding="iso-8859-1"?>
<!-- Generator: Adobe Illustrator 19.0.0, SVG Export Plug-In . SVG Version: 6.00 Build 0)  -->
<svg version="1.1" id="Capa_1" xmlns="http://www.w3.org/2000/svg" xmlns:xlink="http://www.w3.org/1999/xlink" x="0px" y="0px"
	 viewBox="0 0 512 512" style="enable-background:new 0 0 512 512;" xml:space="preserve">
<g>
	<g>
		<g>
			<path d="M486.4,0H25.6C11.468,0.015,0.015,11.468,0,25.6v460.8c0.015,14.132,11.468,25.585,25.6,25.6h460.8
				c14.132-0.015,25.585-11.468,25.6-25.6V25.6C511.985,11.468,500.532,0.015,486.4,0z M494.933,486.4
				c-0.003,4.712-3.822,8.53-8.533,8.533H25.6c-4.711-0.003-8.53-3.822-8.533-8.533V85.333h477.867V486.4z M494.933,68.267H17.067
				V25.6c0.003-4.711,3.822-8.53,8.533-8.533h460.8c4.712,0.003,8.53,3.822,8.533,8.533V68.267z"/>
			<path d="M47.358,35.583c-0.434-0.339-0.925-0.599-1.45-0.767c-0.51-0.259-1.059-0.433-1.625-0.517
				c-2.783-0.558-5.661,0.308-7.675,2.308c-1.561,1.634-2.445,3.799-2.475,6.059c-0.018,1.109,0.183,2.21,0.592,3.242
				c0.5,1.018,1.133,1.966,1.883,2.817c0.829,0.754,1.782,1.36,2.817,1.792c2.065,0.911,4.418,0.911,6.483,0
				c1.034-0.434,1.986-1.039,2.817-1.792c0.752-0.831,1.358-1.783,1.792-2.817c0.437-1.026,0.669-2.127,0.683-3.242
				c-0.033-2.259-0.917-4.422-2.475-6.059C48.306,36.221,47.848,35.877,47.358,35.583z"/>
			<path d="M81.575,35.583c-0.474-0.324-0.99-0.582-1.533-0.767c-0.51-0.259-1.059-0.433-1.625-0.517
				c-2.783-0.558-5.661,0.308-7.675,2.308c-1.561,1.634-2.445,3.799-2.475,6.059c0.014,1.115,0.246,2.216,0.683,3.242
				c0.433,1.034,1.039,1.986,1.791,2.817c0.829,0.754,1.782,1.36,2.817,1.792c2.065,0.911,4.418,0.911,6.483,0
				c1.034-0.434,1.986-1.039,2.817-1.792c0.752-0.831,1.358-1.783,1.792-2.817c0.437-1.026,0.669-2.127,0.683-3.242
				c-0.033-2.259-0.917-4.422-2.475-6.059C82.451,36.241,82.023,35.899,81.575,35.583z"/>
			<path d="M114.206,34.736c-3.202-1.329-6.89-0.59-9.331,1.872c-1.576,1.625-2.462,3.795-2.475,6.059
				c0.014,1.115,0.246,2.216,0.683,3.242c0.434,1.034,1.04,1.986,1.792,2.817c0.829,0.754,1.782,1.36,2.817,1.792
				c3.175,1.362,6.859,0.652,9.3-1.792c0.752-0.831,1.358-1.783,1.792-2.817c0.437-1.026,0.669-2.127,0.683-3.242
				C119.487,39.2,117.408,36.065,114.206,34.736z"/>
			<path d="M315.733,34.133H196.267c-4.713,0-8.533,3.82-8.533,8.533s3.82,8.533,8.533,8.533h119.467
				c4.713,0,8.533-3.82,8.533-8.533S320.446,34.133,315.733,34.133z"/>
			<path d="M469.333,34.133H460.8c-4.713,0-8.533,3.82-8.533,8.533s3.821,8.533,8.533,8.533h8.533c4.713,0,8.533-3.82,8.533-8.533
				S474.046,34.133,469.333,34.133z"/>
			<path d="M426.667,34.133h-8.533c-4.713,0-8.533,3.82-8.533,8.533s3.82,8.533,8.533,8.533h8.533c4.713,0,8.533-3.82,8.533-8.533
				S431.38,34.133,426.667,34.133z"/>
			<path d="M47.958,144.383c2.065,0.911,4.418,0.911,6.483,0c1.034-0.433,1.986-1.039,2.817-1.791
				c2.444-2.441,3.154-6.125,1.792-9.3c-0.412-1.045-1.02-2.002-1.792-2.817c-3.421-3.158-8.695-3.158-12.117,0
				c-0.754,0.829-1.36,1.782-1.792,2.817c-0.48,1.012-0.715,2.122-0.683,3.242c-0.023,2.27,0.869,4.454,2.475,6.059
				C45.971,143.346,46.924,143.952,47.958,144.383z"/>
			<path d="M82.092,144.383c2.065,0.911,4.418,0.911,6.483,0c2.143-0.777,3.831-2.465,4.608-4.608c0.911-2.065,0.911-4.418,0-6.483
				c-1.464-3.851-5.54-6.037-9.558-5.125c-0.534,0.096-1.05,0.271-1.533,0.517c-0.546,0.184-1.065,0.442-1.542,0.767
				c-0.445,0.316-0.871,0.658-1.275,1.024c-0.754,0.829-1.36,1.782-1.792,2.817c-0.48,1.012-0.714,2.123-0.683,3.242
				c-0.023,2.27,0.869,4.454,2.475,6.059C80.104,143.346,81.057,143.952,82.092,144.383z"/>
			<path d="M113.408,142.592c0.829,0.754,1.782,1.36,2.817,1.792c3.175,1.362,6.859,0.653,9.302-1.79
				c2.443-2.443,3.152-6.127,1.79-9.302c-0.432-1.035-1.038-1.987-1.792-2.817c-0.407-0.367-0.836-0.709-1.283-1.025
				c-0.474-0.324-0.99-0.582-1.533-0.767c-0.484-0.245-1-0.419-1.533-0.517c-1.664-0.348-3.394-0.167-4.95,0.517
				c-2.143,0.777-3.831,2.465-4.608,4.608c-0.911,2.065-0.911,4.418,0,6.483C112.05,140.809,112.656,141.761,113.408,142.592z"/>
			<path d="M125.525,190.208c-2.044-2.013-4.955-2.878-7.767-2.308c-0.534,0.096-1.05,0.271-1.533,0.517
				c-0.546,0.184-1.065,0.442-1.542,0.767c-0.445,0.316-0.871,0.658-1.276,1.025c-1.561,1.634-2.445,3.799-2.475,6.059
				c-0.038,2.248,0.858,4.412,2.475,5.975c1.574,1.661,3.771,2.588,6.059,2.558c1.115-0.014,2.216-0.246,3.242-0.683
				c1.053-0.433,2.011-1.07,2.817-1.875c2.442-2.408,3.154-6.069,1.792-9.217C126.906,191.98,126.297,191.024,125.525,190.208z"/>
			<path d="M153.6,204.8c1.115-0.014,2.216-0.246,3.242-0.683c1.053-0.433,2.011-1.07,2.817-1.875
				c1.614-1.565,2.509-3.727,2.475-5.975c-0.014-1.115-0.246-2.216-0.683-3.242c-0.412-1.045-1.02-2.001-1.792-2.817
				c-2.455-2.417-6.122-3.124-9.3-1.792c-2.143,0.777-3.831,2.465-4.608,4.608c-0.438,1.026-0.67,2.127-0.683,3.242
				c-0.038,2.248,0.858,4.412,2.475,5.975C149.115,203.903,151.312,204.83,153.6,204.8z"/>
			<path d="M187.733,204.754c2.273,0,4.453-0.904,6.058-2.512c1.614-1.565,2.51-3.727,2.475-5.975
				c-0.014-1.115-0.246-2.216-0.683-3.242c-0.411-1.045-1.02-2.001-1.791-2.817c-0.407-0.367-0.836-0.709-1.283-1.025
				c-0.474-0.324-0.99-0.582-1.533-0.767c-0.51-0.259-1.059-0.433-1.625-0.517c-1.094-0.25-2.231-0.25-3.325,0
				c-0.534,0.096-1.05,0.27-1.533,0.517c-0.546,0.184-1.065,0.442-1.542,0.767c-0.445,0.316-0.871,0.658-1.276,1.025
				c-0.772,0.816-1.38,1.772-1.792,2.817c-0.48,1.012-0.714,2.123-0.683,3.242c-0.038,2.248,0.858,4.412,2.475,5.975
				C183.281,203.85,185.46,204.754,187.733,204.754z"/>
			<path d="M170.667,162.133c14.138,0,25.6-11.462,25.6-25.6s-11.461-25.6-25.6-25.6s-25.6,11.461-25.6,25.6
				C145.082,150.665,156.535,162.118,170.667,162.133z M170.667,128c4.713,0,8.533,3.82,8.533,8.533s-3.82,8.533-8.533,8.533
				s-8.533-3.82-8.533-8.533C162.136,131.822,165.955,128.003,170.667,128z"/>
			<path d="M68.267,221.867c14.138,0,25.6-11.462,25.6-25.6s-11.462-25.6-25.6-25.6s-25.6,11.461-25.6,25.6
				C42.682,210.399,54.135,221.851,68.267,221.867z M68.267,187.733c4.713,0,8.533,3.82,8.533,8.533s-3.82,8.533-8.533,8.533
				s-8.533-3.82-8.533-8.533C59.737,191.555,63.555,187.737,68.267,187.733z"/>
			<path d="M110.933,256c0.015,14.132,11.468,25.585,25.6,25.6c14.138,0,25.6-11.462,25.6-25.6s-11.462-25.6-25.6-25.6
				S110.933,241.862,110.933,256z M136.533,247.467c4.713,0,8.533,3.82,8.533,8.533s-3.82,8.533-8.533,8.533S128,260.713,128,256
				C128.003,251.289,131.822,247.47,136.533,247.467z"/>
			<path d="M238.933,221.867c14.138,0,25.6-11.462,25.6-25.6s-11.461-25.6-25.6-25.6s-25.6,11.461-25.6,25.6
				C213.349,210.399,224.801,221.851,238.933,221.867z M238.933,187.733c4.713,0,8.533,3.82,8.533,8.533s-3.82,8.533-8.533,8.533
				s-8.533-3.82-8.533-8.533C230.403,191.555,234.222,187.737,238.933,187.733z"/>
			<path d="M290.133,204.8c4.699-0.032,8.501-3.834,8.533-8.533c-0.014-1.115-0.246-2.216-0.683-3.242
				c-0.412-1.045-1.02-2.001-1.792-2.817c-0.831-0.752-1.783-1.358-2.817-1.792c-3.177-1.342-6.849-0.634-9.3,1.792
				c-1.561,1.634-2.445,3.799-2.475,6.058c-0.038,2.248,0.858,4.412,2.475,5.975C285.649,203.903,287.845,204.83,290.133,204.8z"/>
			<path d="M321.025,204.117c2.065,0.911,4.418,0.911,6.483,0c1.054-0.433,2.011-1.07,2.817-1.875
				c1.614-1.565,2.509-3.727,2.475-5.975c-0.033-2.259-0.917-4.422-2.475-6.059c-2.455-2.417-6.122-3.124-9.3-1.792
				c-1.035,0.432-1.987,1.038-2.817,1.792c-0.772,0.816-1.38,1.772-1.792,2.817c-0.438,1.026-0.67,2.127-0.683,3.242
				c-0.038,2.248,0.858,4.412,2.475,5.975C319.013,203.048,319.97,203.686,321.025,204.117z"/>
			<path d="M355.158,204.117c2.065,0.911,4.418,0.911,6.483,0c1.054-0.433,2.011-1.07,2.817-1.875
				c1.614-1.565,2.509-3.727,2.475-5.975c0.027-1.119-0.207-2.229-0.683-3.242c-0.411-1.045-1.02-2.001-1.791-2.817
				c-0.419-0.387-0.877-0.731-1.367-1.025c-0.434-0.339-0.925-0.599-1.45-0.767c-0.51-0.259-1.059-0.433-1.625-0.517
				c-1.094-0.25-2.231-0.25-3.325,0c-0.534,0.096-1.05,0.27-1.533,0.517c-0.546,0.184-1.065,0.442-1.542,0.767
				c-0.445,0.316-0.871,0.658-1.276,1.025c-0.772,0.816-1.38,1.772-1.792,2.817c-0.48,1.012-0.714,2.123-0.683,3.242
				c-0.038,2.248,0.858,4.412,2.475,5.975C353.131,203.066,354.093,203.706,355.158,204.117z"/>
			<path d="M409.6,221.867c14.138,0,25.6-11.462,25.6-25.6s-11.461-25.6-25.6-25.6s-25.6,11.461-25.6,25.6
				C384.015,210.399,395.468,221.851,409.6,221.867z M409.6,187.733c4.713,0,8.533,3.82,8.533,8.533s-3.82,8.533-8.533,8.533
				s-8.533-3.82-8.533-8.533C401.07,191.555,404.888,187.737,409.6,187.733z"/>
			<path d="M179.792,259.242c0.5,1.018,1.133,1.966,1.883,2.817c2.441,2.444,6.125,3.154,9.3,1.792
				c2.143-0.777,3.831-2.465,4.608-4.608c0.911-2.065,0.911-4.418,0-6.483c-0.411-1.045-1.019-2.002-1.791-2.818
				c-0.831-0.752-1.783-1.358-2.817-1.792c-2.059-0.942-4.425-0.942-6.483,0c-2.143,0.777-3.831,2.465-4.608,4.608
				c-0.481,1.012-0.715,2.123-0.684,3.243C179.182,257.109,179.383,258.211,179.792,259.242z"/>
			<path d="M215.808,262.059c2.441,2.444,6.125,3.154,9.3,1.792c2.143-0.777,3.831-2.465,4.608-4.608
				c0.911-2.065,0.911-4.418,0-6.483c-0.412-1.045-1.02-2.001-1.792-2.817c-2.455-2.417-6.122-3.124-9.3-1.792
				c-2.143,0.777-3.831,2.465-4.608,4.608c-0.48,1.011-0.714,2.122-0.683,3.241c-0.018,1.109,0.183,2.211,0.592,3.242
				C214.425,260.26,215.058,261.207,215.808,262.059z"/>
			<path d="M254.375,247.633c-0.563,0.083-1.109,0.258-1.617,0.517c-0.546,0.184-1.065,0.442-1.542,0.767
				c-0.445,0.316-0.871,0.658-1.275,1.025c-0.772,0.816-1.38,1.772-1.792,2.817c-0.48,1.012-0.714,2.123-0.683,3.242
				c-0.018,1.109,0.183,2.211,0.592,3.242c0.5,1.018,1.133,1.966,1.883,2.817c2.441,2.444,6.125,3.154,9.3,1.792
				c2.143-0.777,3.831-2.465,4.608-4.608c0.911-2.065,0.911-4.418,0-6.483c-0.412-1.045-1.02-2.001-1.792-2.817
				C260.034,247.953,257.16,247.089,254.375,247.633z"/>
			<path d="M307.2,281.6c14.138,0,25.6-11.462,25.6-25.6s-11.461-25.6-25.6-25.6s-25.6,11.461-25.6,25.6
				C281.615,270.132,293.068,281.585,307.2,281.6z M307.2,247.467c4.713,0,8.533,3.82,8.533,8.533s-3.82,8.533-8.533,8.533
				s-8.533-3.82-8.533-8.533C298.67,251.289,302.488,247.47,307.2,247.467z"/>
			<path d="M364.459,249.941c-2.05-2.002-4.956-2.866-7.767-2.308c-0.534,0.096-1.05,0.27-1.533,0.517
				c-0.546,0.184-1.065,0.442-1.542,0.767c-0.445,0.316-0.871,0.658-1.276,1.025c-0.772,0.816-1.38,1.772-1.792,2.817
				c-0.48,1.012-0.714,2.123-0.683,3.242c-0.018,1.109,0.183,2.211,0.592,3.242c0.5,1.018,1.133,1.966,1.883,2.817
				c0.816,0.772,1.772,1.38,2.817,1.792c3.175,1.362,6.859,0.652,9.301-1.792c0.752-0.831,1.358-1.783,1.792-2.817
				c0.911-2.065,0.911-4.418,0-6.483C365.839,251.714,365.231,250.757,364.459,249.941z"/>
			<path d="M386.475,262.059c0.829,0.754,1.782,1.36,2.817,1.792c3.175,1.362,6.859,0.652,9.301-1.792
				c0.752-0.831,1.358-1.783,1.792-2.817c0.911-2.065,0.911-4.418,0-6.483c-1.464-3.851-5.54-6.037-9.558-5.125
				c-0.534,0.096-1.05,0.271-1.533,0.517c-0.546,0.184-1.065,0.442-1.542,0.767c-0.445,0.316-0.871,0.658-1.276,1.024
				c-0.772,0.816-1.38,1.772-1.792,2.817c-0.48,1.012-0.714,2.123-0.683,3.242c-0.018,1.109,0.183,2.211,0.592,3.242
				C385.092,260.26,385.725,261.207,386.475,262.059z"/>
			<path d="M423.425,248.15c-0.546,0.184-1.065,0.442-1.542,0.767c-0.445,0.316-0.871,0.658-1.275,1.025
				c-0.77,0.836-1.405,1.786-1.883,2.817c-0.789,2.089-0.789,4.394,0,6.483c0.47,1.036,1.106,1.987,1.883,2.817
				c3.365,3.3,8.752,3.3,12.117,0c0.752-0.831,1.358-1.783,1.792-2.817c0.911-2.065,0.911-4.418,0-6.483
				c-1.464-3.851-5.54-6.037-9.558-5.125v0C424.425,247.73,423.908,247.904,423.425,248.15z"/>
			<path d="M238.933,341.333c14.138,0,25.6-11.462,25.6-25.6s-11.461-25.6-25.6-25.6s-25.6,11.461-25.6,25.6
				C213.349,329.865,224.801,341.318,238.933,341.333z M238.933,307.2c4.713,0,8.533,3.82,8.533,8.533s-3.82,8.533-8.533,8.533
				s-8.533-3.82-8.533-8.533C230.403,311.022,234.222,307.203,238.933,307.2z"/>
			<path d="M290.133,324.267c2.27,0.022,4.453-0.87,6.058-2.475c1.605-1.605,2.497-3.788,2.475-6.058
				c-0.033-2.259-0.917-4.422-2.475-6.059c-0.831-0.752-1.783-1.358-2.817-1.792c-1.556-0.684-3.286-0.865-4.95-0.517
				c-0.534,0.096-1.05,0.27-1.533,0.517c-0.546,0.184-1.065,0.442-1.542,0.767l-1.276,1.025c-1.561,1.634-2.445,3.799-2.475,6.059
				c-0.022,2.27,0.87,4.453,2.475,6.058C285.68,323.397,287.863,324.289,290.133,324.267z"/>
			<path d="M327.508,307.883c-0.484-0.245-1-0.419-1.533-0.517c-1.664-0.348-3.394-0.167-4.95,0.517
				c-1.045,0.412-2.001,1.02-2.817,1.792c-1.561,1.634-2.445,3.798-2.475,6.058c-0.023,2.27,0.869,4.454,2.475,6.059
				c0.829,0.754,1.782,1.36,2.817,1.792c2.065,0.911,4.418,0.911,6.483,0c1.034-0.434,1.986-1.04,2.817-1.792
				c1.603-1.607,2.495-3.789,2.475-6.059c-0.033-2.259-0.917-4.422-2.475-6.059c-0.425-0.341-0.858-0.683-1.367-1.025
				C328.524,308.311,328.033,308.051,327.508,307.883z"/>
			<path d="M361.642,307.883c-1.556-0.684-3.286-0.865-4.95-0.517c-0.534,0.096-1.05,0.27-1.533,0.517
				c-0.546,0.184-1.065,0.442-1.542,0.767l-1.275,1.025c-1.561,1.634-2.445,3.799-2.475,6.059c0,4.713,3.82,8.533,8.533,8.533
				s8.533-3.82,8.533-8.533c-0.033-2.259-0.917-4.422-2.475-6.059C363.628,308.922,362.675,308.317,361.642,307.883z"/>
			<path d="M409.6,341.333c14.138,0,25.6-11.462,25.6-25.6s-11.461-25.6-25.6-25.6s-25.6,11.461-25.6,25.6
				C384.015,329.865,395.468,341.318,409.6,341.333z M409.6,307.2c4.713,0,8.533,3.82,8.533,8.533s-3.82,8.533-8.533,8.533
				s-8.533-3.82-8.533-8.533C401.07,311.022,404.888,307.203,409.6,307.2z"/>
			<path d="M460.8,324.267c2.855,0.03,5.531-1.385,7.115-3.761c1.584-2.376,1.86-5.39,0.735-8.014
				c-0.412-1.045-1.02-2.001-1.792-2.817c-0.425-0.341-0.858-0.683-1.367-1.025c-0.434-0.339-0.925-0.599-1.45-0.767
				c-0.51-0.259-1.059-0.433-1.625-0.517c-1.633-0.343-3.334-0.162-4.858,0.517c-1.045,0.412-2.001,1.02-2.817,1.792
				c-1.561,1.634-2.445,3.798-2.475,6.058c-0.022,2.27,0.87,4.453,2.475,6.058C456.347,323.397,458.53,324.289,460.8,324.267z"/>
			<path d="M68.267,341.333c14.138,0,25.6-11.462,25.6-25.6s-11.462-25.6-25.6-25.6s-25.6,11.461-25.6,25.6
				C42.682,329.865,54.135,341.318,68.267,341.333z M68.267,307.2c4.713,0,8.533,3.82,8.533,8.533s-3.82,8.533-8.533,8.533
				s-8.533-3.82-8.533-8.533C59.737,311.022,63.555,307.203,68.267,307.2z"/>
			<path d="M124.238,322.847c2.375-1.583,3.79-4.259,3.762-7.113c-0.033-2.259-0.917-4.422-2.475-6.059
				c-0.425-0.341-0.858-0.683-1.367-1.025c-0.434-0.339-0.925-0.599-1.45-0.767c-0.51-0.259-1.059-0.433-1.625-0.517
				c-2.783-0.558-5.662,0.308-7.676,2.308c-1.561,1.634-2.445,3.799-2.475,6.059c-0.023,2.27,0.869,4.454,2.475,6.059
				c0.816,0.772,1.772,1.38,2.817,1.791C118.849,324.707,121.863,324.43,124.238,322.847z"/>
			<path d="M156.842,307.883c-1.556-0.684-3.287-0.864-4.95-0.516c-0.534,0.096-1.05,0.27-1.533,0.517
				c-0.546,0.184-1.065,0.442-1.542,0.767l-1.275,1.025c-1.561,1.634-2.445,3.799-2.475,6.059c-0.03,2.855,1.385,5.532,3.761,7.115
				c2.376,1.584,5.39,1.86,8.014,0.735c1.034-0.434,1.986-1.04,2.817-1.792c1.603-1.607,2.494-3.789,2.475-6.058
				c-0.033-2.259-0.917-4.422-2.475-6.059C158.828,308.922,157.876,308.316,156.842,307.883z"/>
			<path d="M181.675,321.792c0.829,0.754,1.782,1.36,2.817,1.792c2.065,0.911,4.418,0.911,6.483,0
				c1.034-0.434,1.986-1.04,2.817-1.792c1.603-1.607,2.495-3.789,2.475-6.059c-0.033-2.259-0.917-4.422-2.475-6.059
				c-0.425-0.341-0.859-0.683-1.367-1.025c-0.434-0.339-0.925-0.599-1.45-0.767c-0.484-0.245-1-0.419-1.533-0.517
				c-1.664-0.348-3.394-0.167-4.95,0.517c-1.045,0.412-2.001,1.02-2.817,1.792c-1.561,1.634-2.445,3.798-2.475,6.058
				C179.177,318.003,180.069,320.187,181.675,321.792z"/>
			<path d="M238.933,460.8c14.138,0,25.6-11.462,25.6-25.6s-11.461-25.6-25.6-25.6s-25.6,11.461-25.6,25.6
				C213.349,449.332,224.801,460.785,238.933,460.8z M238.933,426.667c4.713,0,8.533,3.82,8.533,8.533s-3.82,8.533-8.533,8.533
				s-8.533-3.82-8.533-8.533C230.403,430.489,234.222,426.67,238.933,426.667z"/>
			<path d="M290.133,443.733c2.27,0.022,4.453-0.87,6.058-2.475c1.605-1.605,2.497-3.788,2.475-6.058
				c-0.033-2.259-0.917-4.422-2.475-6.059c-2.05-2.002-4.956-2.866-7.767-2.308c-0.534,0.096-1.05,0.27-1.533,0.517
				c-0.546,0.184-1.065,0.442-1.542,0.767c-0.445,0.316-0.871,0.658-1.276,1.025c-1.561,1.634-2.445,3.799-2.475,6.059
				c-0.022,2.27,0.87,4.453,2.475,6.058C285.68,442.863,287.863,443.755,290.133,443.733z"/>
			<path d="M327.539,427.269c-3.202-1.329-6.89-0.59-9.331,1.872c-0.754,0.829-1.36,1.782-1.792,2.817
				c-1.336,3.189-0.613,6.869,1.83,9.316c2.443,2.446,6.122,3.174,9.313,1.843c3.191-1.332,5.261-4.459,5.24-7.917
				C332.82,431.733,330.741,428.599,327.539,427.269z"/>
			<path d="M364.459,429.141c-0.419-0.387-0.877-0.731-1.367-1.025c-0.434-0.339-0.925-0.599-1.45-0.767
				c-0.484-0.245-1-0.419-1.533-0.517c-1.097-0.25-2.236-0.25-3.333,0c-0.563,0.083-1.109,0.258-1.617,0.517
				c-0.546,0.184-1.065,0.442-1.542,0.767c-0.445,0.316-0.871,0.658-1.276,1.025c-1.561,1.634-2.445,3.799-2.475,6.059
				c-0.043,3.475,2.025,6.629,5.23,7.975c3.204,1.345,6.905,0.613,9.355-1.851c2.451-2.464,3.162-6.169,1.799-9.365
				C365.819,430.924,365.213,429.971,364.459,429.141z"/>
			<path d="M409.6,460.8c14.138,0,25.6-11.462,25.6-25.6s-11.461-25.6-25.6-25.6S384,421.062,384,435.2
				C384.015,449.332,395.468,460.785,409.6,460.8z M409.6,426.667c4.713,0,8.533,3.82,8.533,8.533s-3.82,8.533-8.533,8.533
				s-8.533-3.82-8.533-8.533C401.07,430.489,404.888,426.67,409.6,426.667z"/>
			<path d="M460.8,443.733c2.27,0.022,4.453-0.87,6.058-2.475c1.605-1.605,2.497-3.788,2.475-6.058
				c-0.033-2.259-0.917-4.422-2.475-6.059c-0.419-0.387-0.877-0.731-1.367-1.025c-0.434-0.339-0.925-0.599-1.45-0.767
				c-0.51-0.259-1.059-0.433-1.625-0.517c-3.192-0.635-6.466,0.602-8.443,3.187s-2.31,6.07-0.859,8.983
				C454.565,441.916,457.546,443.751,460.8,443.733z"/>
			<path d="M68.267,460.8c14.138,0,25.6-11.462,25.6-25.6s-11.462-25.6-25.6-25.6s-25.6,11.461-25.6,25.6
				C42.682,449.332,54.135,460.785,68.267,460.8z M68.267,426.667c4.713,0,8.533,3.82,8.533,8.533s-3.82,8.533-8.533,8.533
				s-8.533-3.82-8.533-8.533C59.737,430.489,63.555,426.67,68.267,426.667z"/>
			<path d="M125.525,429.142c-2.441-2.461-6.129-3.201-9.33-1.871c-3.202,1.329-5.281,4.463-5.261,7.93
				c-0.022,2.27,0.87,4.453,2.475,6.058c1.605,1.605,3.788,2.497,6.058,2.475c2.855,0.03,5.532-1.385,7.115-3.761
				c1.584-2.376,1.86-5.39,0.735-8.014C126.885,430.924,126.279,429.971,125.525,429.142z"/>
			<path d="M158.292,428.117c-0.434-0.339-0.925-0.599-1.45-0.767c-0.51-0.259-1.059-0.433-1.625-0.517
				c-3.551-0.696-7.155,0.915-9.005,4.025c-1.85,3.109-1.546,7.046,0.759,9.834c2.305,2.789,6.114,3.827,9.516,2.595
				c3.402-1.232,5.662-4.469,5.646-8.088c-0.033-2.259-0.917-4.422-2.475-6.059C159.239,428.754,158.781,428.411,158.292,428.117z"
				/>
			<path d="M193.792,429.141c-3.421-3.158-8.695-3.158-12.117,0c-0.754,0.829-1.36,1.782-1.792,2.817
				c-1.362,3.175-0.653,6.859,1.791,9.301c0.816,0.772,1.772,1.38,2.817,1.792c3.175,1.362,6.859,0.652,9.301-1.792
				c0.752-0.831,1.358-1.783,1.792-2.817c0.911-2.065,0.911-4.418,0-6.483C195.152,430.924,194.546,429.971,193.792,429.141z"/>
			<path d="M218.625,144.383c2.065,0.911,4.418,0.911,6.483,0c1.034-0.434,1.986-1.04,2.817-1.792
				c2.444-2.441,3.154-6.125,1.792-9.3c-0.432-1.035-1.038-1.987-1.792-2.817c-0.407-0.367-0.836-0.709-1.283-1.025
				c-0.474-0.324-0.99-0.582-1.533-0.767c-0.51-0.259-1.059-0.433-1.625-0.517c-2.783-0.557-5.661,0.308-7.675,2.308
				c-0.754,0.829-1.36,1.782-1.792,2.817c-1.362,3.175-0.652,6.859,1.792,9.301C216.624,143.364,217.58,143.972,218.625,144.383z"/>
			<path d="M252.758,144.383c2.065,0.911,4.418,0.911,6.483,0c1.034-0.434,1.986-1.04,2.817-1.792
				c2.444-2.441,3.154-6.125,1.792-9.3c-0.432-1.035-1.038-1.987-1.792-2.817c-2.05-2.002-4.956-2.866-7.767-2.308
				c-0.534,0.096-1.05,0.271-1.533,0.517c-0.546,0.184-1.065,0.442-1.542,0.767c-0.445,0.316-0.871,0.658-1.275,1.025
				c-0.754,0.829-1.36,1.782-1.792,2.817c-1.362,3.175-0.652,6.859,1.792,9.301C250.757,143.364,251.713,143.972,252.758,144.383z"
				/>
			<path d="M286.892,144.383c2.065,0.911,4.418,0.911,6.483,0c1.034-0.434,1.986-1.04,2.817-1.792
				c2.444-2.441,3.154-6.125,1.792-9.3c-0.432-1.035-1.038-1.987-1.792-2.817c-2.05-2.002-4.956-2.866-7.767-2.308
				c-0.534,0.096-1.05,0.271-1.533,0.517c-0.546,0.184-1.065,0.442-1.542,0.767c-0.445,0.316-0.871,0.658-1.275,1.025
				c-0.754,0.829-1.36,1.782-1.792,2.817c-0.48,1.012-0.714,2.123-0.683,3.242c-0.023,2.27,0.869,4.454,2.475,6.059
				C284.904,143.346,285.857,143.952,286.892,144.383z"/>
			<path d="M341.333,162.133c14.138,0,25.6-11.462,25.6-25.6s-11.462-25.6-25.6-25.6c-14.138,0-25.6,11.461-25.6,25.6
				C315.749,150.665,327.201,162.118,341.333,162.133z M341.333,128c4.713,0,8.533,3.82,8.533,8.533s-3.82,8.533-8.533,8.533
				s-8.533-3.82-8.533-8.533C332.803,131.822,336.622,128.003,341.333,128z"/>
			<path d="M389.292,144.383c3.175,1.362,6.859,0.653,9.302-1.79c2.443-2.443,3.152-6.127,1.79-9.302
				c-0.432-1.035-1.038-1.987-1.792-2.817c-0.831-0.752-1.783-1.358-2.817-1.792c-2.059-0.942-4.425-0.942-6.483,0
				c-2.143,0.777-3.831,2.465-4.608,4.608c-0.48,1.012-0.715,2.123-0.683,3.242c-0.023,2.27,0.869,4.454,2.475,6.059
				C387.304,143.346,388.257,143.952,389.292,144.383z"/>
			<path d="M420.608,142.592c0.829,0.754,1.782,1.36,2.817,1.792c1.026,0.437,2.127,0.669,3.242,0.683
				c4.699-0.032,8.501-3.834,8.533-8.533c-0.014-1.115-0.246-2.216-0.683-3.242c-0.411-1.065-1.051-2.027-1.875-2.817
				c-0.372-0.406-0.805-0.752-1.283-1.025c-0.434-0.339-0.925-0.599-1.45-0.767c-0.484-0.245-1-0.419-1.533-0.517
				c-1.664-0.348-3.394-0.167-4.95,0.517c-2.143,0.777-3.831,2.465-4.608,4.608c-0.438,1.026-0.67,2.127-0.684,3.242
				c-0.018,1.109,0.183,2.211,0.592,3.242C419.225,140.793,419.858,141.741,420.608,142.592z"/>
			<path d="M457.558,144.383c3.175,1.362,6.859,0.653,9.302-1.79c2.443-2.443,3.152-6.127,1.79-9.302
				c-0.432-1.035-1.038-1.987-1.792-2.817c-2.451-2.425-6.123-3.133-9.3-1.792c-1.045,0.412-2.001,1.02-2.817,1.792
				c-0.754,0.829-1.36,1.782-1.792,2.817c-1.362,3.175-0.652,6.859,1.792,9.3C455.571,143.346,456.524,143.952,457.558,144.383z"/>
			<path d="M55.975,248.916c-0.474-0.324-0.99-0.582-1.533-0.767c-0.484-0.245-1-0.419-1.533-0.517
				c-1.664-0.348-3.394-0.167-4.95,0.517c-2.143,0.777-3.831,2.465-4.608,4.608c-0.911,2.065-0.911,4.418,0,6.483
				c0.433,1.034,1.039,1.987,1.791,2.818c2.441,2.444,6.125,3.154,9.3,1.792c1.034-0.434,1.986-1.04,2.817-1.792
				c0.752-0.831,1.358-1.783,1.792-2.817c0.911-2.065,0.911-4.418,0-6.483c-0.412-1.045-1.02-2.002-1.792-2.817
				C56.852,249.575,56.423,249.232,55.975,248.916z"/>
			<path d="M91.392,249.942c-0.407-0.367-0.836-0.709-1.283-1.025c-0.474-0.324-0.99-0.582-1.533-0.767
				c-0.51-0.259-1.059-0.433-1.625-0.517c-1.633-0.343-3.334-0.162-4.858,0.517c-2.143,0.777-3.831,2.465-4.608,4.608
				c-0.911,2.065-0.911,4.418,0,6.483c0.434,1.034,1.04,1.986,1.792,2.817c0.829,0.754,1.782,1.36,2.817,1.792
				c2.065,0.911,4.418,0.911,6.483,0c2.143-0.777,3.831-2.465,4.608-4.608c0.911-2.065,0.911-4.418,0-6.483
				C92.772,251.714,92.164,250.758,91.392,249.942z"/>
			<path d="M136.533,349.867c-14.138,0-25.6,11.461-25.6,25.6c0.015,14.132,11.468,25.585,25.6,25.6c14.138,0,25.6-11.462,25.6-25.6
				S150.672,349.867,136.533,349.867z M136.533,384c-4.713,0-8.533-3.82-8.533-8.533c0.003-4.711,3.822-8.53,8.533-8.533
				c4.713,0,8.533,3.82,8.533,8.533S141.246,384,136.533,384z"/>
			<path d="M184.43,383.441c3.204,1.345,6.905,0.613,9.355-1.851c2.451-2.464,3.162-6.169,1.799-9.365
				c-0.411-1.045-1.02-2.001-1.791-2.817c-3.421-3.158-8.695-3.158-12.117,0c-0.772,0.816-1.38,1.772-1.792,2.817
				c-0.48,1.012-0.715,2.123-0.683,3.242C179.157,378.942,181.225,382.096,184.43,383.441z"/>
			<path d="M221.867,384c1.115-0.014,2.216-0.246,3.242-0.683c1.034-0.434,1.986-1.04,2.817-1.792
				c2.444-2.441,3.154-6.125,1.792-9.3c-0.412-1.045-1.02-2.001-1.792-2.817c-3.421-3.158-8.695-3.158-12.117,0
				c-0.772,0.816-1.38,1.772-1.792,2.817c-0.48,1.012-0.714,2.123-0.683,3.242c-0.022,2.27,0.87,4.453,2.475,6.058
				C217.413,383.13,219.597,384.022,221.867,384z"/>
			<path d="M249.941,369.408c-0.772,0.816-1.38,1.772-1.792,2.817c-0.48,1.012-0.714,2.123-0.683,3.242
				c-0.03,2.855,1.385,5.532,3.761,7.115c2.376,1.584,5.39,1.86,8.014,0.735c1.034-0.434,1.986-1.04,2.817-1.792
				c2.444-2.441,3.154-6.125,1.792-9.3c-0.412-1.045-1.02-2.001-1.792-2.817C258.637,366.249,253.363,366.249,249.941,369.408z"/>
			<path d="M307.2,401.067c14.138,0,25.6-11.462,25.6-25.6s-11.461-25.6-25.6-25.6s-25.6,11.461-25.6,25.6
				C281.615,389.599,293.068,401.051,307.2,401.067z M307.2,366.933c4.713,0,8.533,3.82,8.533,8.533S311.913,384,307.2,384
				s-8.533-3.82-8.533-8.533C298.67,370.755,302.488,366.937,307.2,366.933z"/>
			<path d="M355.158,383.317c3.175,1.362,6.859,0.653,9.302-1.79c2.443-2.443,3.152-6.127,1.79-9.302
				c-0.411-1.045-1.019-2.002-1.791-2.818c-2.441-2.461-6.129-3.201-9.331-1.872c-3.202,1.329-5.281,4.464-5.261,7.931
				c-0.023,2.27,0.869,4.454,2.475,6.059C353.171,382.28,354.123,382.886,355.158,383.317z"/>
			<path d="M389.292,383.317c2.065,0.911,4.418,0.911,6.483,0c1.044-0.414,2-1.022,2.817-1.792c2.444-2.441,3.154-6.125,1.792-9.3
				c-0.412-1.045-1.02-2.001-1.792-2.817c-2.441-2.461-6.129-3.201-9.331-1.872c-3.202,1.329-5.281,4.464-5.261,7.93
				c-0.023,2.27,0.869,4.454,2.475,6.059C387.304,382.279,388.257,382.885,389.292,383.317z"/>
			<path d="M420.608,369.408c-1.561,1.634-2.445,3.799-2.475,6.059c-0.023,2.27,0.869,4.454,2.475,6.059
				c0.829,0.754,1.782,1.36,2.817,1.792c3.155,1.29,6.775,0.586,9.217-1.792c1.658-1.576,2.585-3.771,2.559-6.059
				c-0.014-1.115-0.246-2.216-0.683-3.242c-0.39-1.076-1.033-2.042-1.875-2.817C429.252,366.249,423.997,366.249,420.608,369.408z"
				/>
			<path d="M51.2,384c2.27,0.022,4.453-0.87,6.058-2.475c1.605-1.605,2.497-3.788,2.475-6.058c0.02-3.467-2.059-6.601-5.261-7.931
				c-3.202-1.329-6.89-0.59-9.331,1.872c-1.594,1.613-2.484,3.791-2.475,6.059c-0.022,2.27,0.87,4.453,2.475,6.058
				C46.747,383.13,48.93,384.022,51.2,384z"/>
			<path d="M79.275,369.408c-0.772,0.816-1.38,1.772-1.792,2.817c-0.48,1.012-0.714,2.123-0.683,3.242
				c-0.043,3.475,2.025,6.629,5.23,7.975c3.204,1.345,6.905,0.613,9.355-1.851c2.451-2.464,3.162-6.169,1.799-9.365
				c-0.391-1.055-1.002-2.015-1.792-2.817C87.97,366.25,82.696,366.25,79.275,369.408z"/>
			<path d="M460.8,204.8c4.699-0.032,8.501-3.834,8.533-8.533c-0.033-2.259-0.917-4.422-2.475-6.059
				c-2.455-2.417-6.122-3.124-9.3-1.792c-2.143,0.777-3.831,2.465-4.608,4.608c-0.438,1.026-0.67,2.128-0.684,3.243
				c-0.038,2.248,0.858,4.412,2.475,5.975C456.315,203.903,458.512,204.83,460.8,204.8z"/>
		</g>
	</g>
</g>
<g>
</g>
<g>
</g>
<g>
</g>
<g>
</g>
<g>
</g>
<g>
</g>
<g>
</g>
<g>
</g>
<g>
</g>
<g>
</g>
<g>
</g>
<g>
</g>
<g>
</g>
<g>
</g>
<g>
</g>
</svg>
