<?xml version="1.0" encoding="iso-8859-1"?>
<!-- Generator: Adobe Illustrator 19.0.0, SVG Export Plug-In . SVG Version: 6.00 Build 0)  -->
<svg version="1.1" id="Capa_1" xmlns="http://www.w3.org/2000/svg" xmlns:xlink="http://www.w3.org/1999/xlink" x="0px" y="0px"
	 viewBox="0 0 512 512" style="enable-background:new 0 0 512 512;" xml:space="preserve">
<g>
	<g>
		<g>
			<path d="M506.181,359.108c-0.178-0.312-0.376-0.613-0.592-0.9c-8.258-10.968-22.589-15.45-35.625-11.142l-158.008,52.667
				c-2.603,0.885-5.334,1.335-8.083,1.333h-4.87c4.054-11.114,2.883-23.463-3.188-33.617l-0.758-1.258
				c-9.288-15.384-25.93-24.808-43.9-24.858h-44.633c-15.744-0.019-31.016-5.378-43.321-15.2
				c-14.691-12.196-33.173-18.891-52.267-18.933c-11.354,0-110.933,1.434-110.933,51.2v119.467c0,3.848,2.575,7.22,6.288,8.233
				c67.758,16.74,137.253,25.433,207.046,25.9h87.892c12.521,0.004,24.802-3.435,35.5-9.941L496.619,404.7
				c7.563-4.566,12.888-12.069,14.701-20.715C513.133,375.339,511.272,366.328,506.181,359.108z M238.935,358.4h12.221
				c11.984,0.035,23.081,6.322,29.271,16.583l0.758,1.258c4.657,7.764,4.158,17.573-1.263,24.825h-27.446
				c-4.244-2.564-8.793-4.586-13.541-6.018V358.4z M17.069,384.846c0.072-0.279,0.129-0.561,0.171-0.846h16.896v51.2H17.069V384.846
				z M17.069,471.225v-18.958h93.867c23.564,0,42.667-19.102,42.667-42.667s-19.103-42.667-42.667-42.667H17.069V358.4
				c0-27.817,69.517-34.116,93.867-34.133c15.226-0.002,29.962,5.383,41.6,15.2c15.337,12.235,34.368,18.91,53.988,18.933h15.346
				v34.133c-24.078-0.02-45.81,14.43-55.106,36.641c-9.296,22.211-4.336,47.832,12.578,64.969
				C124.661,491.506,70.34,483.834,17.069,471.225z M51.202,435.2V384h17.067v51.2H51.202z M85.335,435.2V384h17.067v51.2H85.335z
				 M119.469,433.628v-48.055c10.22,3.565,17.067,13.204,17.067,24.028S129.689,430.063,119.469,433.628z M221.869,494.933
				c-23.564,0-42.667-19.102-42.667-42.667c0-23.564,19.103-42.667,42.667-42.667s42.667,19.102,42.667,42.667
				C264.508,475.819,245.421,494.906,221.869,494.933z M327.852,487.475c-8.021,4.885-17.233,7.465-26.625,7.458h-37.635
				c20.93-20.358,23.991-52.896,7.226-76.8h33.055c4.605,0.004,9.178-0.75,13.538-2.233l18.657-6.219l27.927,55.788L327.852,487.475
				z M378.617,456.566l-26.199-52.335l82.39-27.462l17.496,34.932L378.617,456.566z M494.657,380.265
				c-0.798,4.109-3.302,7.686-6.888,9.843l-20.835,12.685l-15.766-31.477l24.176-8.058c5.847-1.923,12.274-0.064,16.192,4.683
				c0.129,0.213,0.27,0.419,0.421,0.617C494.474,371.902,495.455,376.156,494.657,380.265z"/>
			<path d="M221.869,426.667c-14.138,0-25.6,11.462-25.6,25.6c0,14.138,11.462,25.6,25.6,25.6s25.6-11.462,25.6-25.6
				C247.453,438.135,236.001,426.682,221.869,426.667z M221.869,460.8c-4.713,0-8.533-3.821-8.533-8.533
				c0-4.713,3.82-8.533,8.533-8.533s8.533,3.821,8.533,8.533C230.397,456.978,226.58,460.795,221.869,460.8z"/>
			<path d="M170.785,246.154c-0.031,0.439-0.116,0.87-0.116,1.313V281.6c0,29.317,66.35,42.667,128,42.667s128-13.35,128-42.667
				v-34.133c0-13.84-14.859-25.052-42.866-32.742c0.035-0.471,0.199-0.911,0.199-1.391V179.2c0-0.443-0.085-0.874-0.116-1.313
				c25.296-6.99,42.783-17.794,42.783-32.821v-34.133c0-10.937-9.145-20.115-26.993-27.409c0.874-2.137,1.347-4.416,1.393-6.724
				V42.667c0-29.317-66.35-42.667-128-42.667s-128,13.35-128,42.667V76.8c0,11.607,10.498,20.672,26.889,27.435
				c-0.829,2.137-1.266,4.406-1.289,6.698v34.133c0,0.48,0.164,0.92,0.2,1.391c-28.007,7.691-42.866,18.902-42.866,32.742v34.133
				C128.002,228.361,145.489,239.165,170.785,246.154z M204.802,293.54c-11.283-4.429-17.067-8.961-17.067-11.94v-11.379
				c5.442,3.004,11.156,5.486,17.067,7.41V293.54z M179.202,230.649v-16.485c8.005,1.835,16.637,3.306,25.6,4.476v16.929
				C196.186,234.392,187.64,232.75,179.202,230.649z M247.469,303.835c-8.616-1.177-17.162-2.819-25.6-4.919V282.43
				c8.005,1.835,16.637,3.306,25.6,4.476V303.835z M290.135,307.07c-9.13-0.181-17.664-0.619-25.6-1.316v-17.006
				c8.438,0.694,17.029,1.099,25.6,1.27V307.07z M332.802,305.754c-7.928,0.685-16.461,1.124-25.6,1.316v-17.052
				c8.571-0.171,17.162-0.576,25.6-1.27V305.754z M375.469,298.916c-8.438,2.101-16.984,3.743-25.6,4.919v-16.929
				c8.964-1.17,17.596-2.641,25.6-4.476V298.916z M409.602,281.6c0,2.979-5.784,7.51-17.067,11.94v-15.908
				c5.91-1.925,11.625-4.406,17.067-7.41V281.6z M409.602,247.467c0,7.658-37.742,25.6-110.933,25.6
				c-65.098,0-102.074-14.178-109.474-22.705c22.058,3.858,44.415,5.745,66.807,5.638c48.29,0,99.315-8.235,119.227-25.875
				C400.909,236.544,409.602,244.459,409.602,247.467z M221.869,237.487v-17.006c8.438,0.694,17.029,1.099,25.6,1.27v17.052
				C238.339,238.623,229.805,238.184,221.869,237.487z M264.535,238.803v-17.052c8.571-0.171,17.162-0.576,25.6-1.27v17.006
				C282.208,238.172,273.674,238.611,264.535,238.803z M307.202,235.568V218.64c8.964-1.17,17.596-2.641,25.6-4.476v16.485
				C324.364,232.75,315.818,234.392,307.202,235.568z M349.869,225.273v-15.908c5.91-1.925,11.625-4.406,17.067-7.41v11.379
				c-0.057,0.672-0.293,1.317-0.683,1.868c-0.281,0.316-0.536,0.654-0.764,1.01C360.991,220.316,355.664,223.406,349.869,225.273z
				 M349.869,167.302v-16.929c8.964-1.17,17.596-2.641,25.6-4.476v16.485C367.03,164.483,358.485,166.125,349.869,167.302z
				 M409.602,145.067c0,2.979-5.784,7.51-17.067,11.94v-15.908c5.91-1.925,11.625-4.406,17.067-7.41V145.067z M409.602,110.933
				c0,7.658-37.742,25.6-110.933,25.6s-110.933-17.942-110.933-25.6c0.054-0.437,0.204-0.857,0.441-1.228
				c27.77,6.834,56.296,10.114,84.892,9.761c44.857,0,92.077-7.109,114.542-22.252C405.289,103.319,409.602,109.233,409.602,110.933
				z M332.802,152.215v17.006c-7.928,0.685-16.461,1.124-25.6,1.316v-17.052C315.773,153.314,324.364,152.909,332.802,152.215z
				 M290.135,153.484v17.052c-9.13-0.181-17.664-0.619-25.6-1.316v-17.006C272.973,152.909,281.564,153.314,290.135,153.484z
				 M247.469,150.373v16.929c-8.616-1.177-17.162-2.819-25.6-4.919v-16.485C229.873,147.732,238.506,149.203,247.469,150.373z
				 M204.802,141.098v15.908c-5.796-1.866-11.123-4.957-15.62-9.061c-0.228-0.355-0.483-0.692-0.763-1.008
				c-0.391-0.551-0.627-1.197-0.684-1.87v-11.379C193.177,136.692,198.892,139.173,204.802,141.098z M196.269,94.116V77.63
				c8.005,1.835,16.637,3.306,25.6,4.476v16.929C213.253,97.858,204.707,96.216,196.269,94.116z M238.935,100.954V83.948
				c8.438,0.694,17.029,1.099,25.6,1.27v17.052C255.405,102.089,246.872,101.651,238.935,100.954z M281.602,102.27V85.218
				c8.571-0.171,17.162-0.576,25.6-1.27v17.006C299.274,101.639,290.741,102.078,281.602,102.27z M324.269,99.035V82.106
				c8.964-1.17,17.596-2.641,25.6-4.476v16.485C341.43,96.216,332.885,97.858,324.269,99.035z M366.935,88.74V72.831
				c5.91-1.925,11.625-4.406,17.067-7.41V76.8c0,1.237-1.092,2.76-3.053,4.415c-0.455,0.299-0.879,0.642-1.267,1.024
				C375.711,84.912,371.431,87.095,366.935,88.74z M273.069,17.067c73.192,0,110.933,17.942,110.933,25.6s-37.742,25.6-110.933,25.6
				s-110.933-17.942-110.933-25.6S199.877,17.067,273.069,17.067z M162.135,76.8V65.421c5.442,3.004,11.156,5.486,17.067,7.41V88.74
				C167.919,84.31,162.135,79.779,162.135,76.8z M179.443,161.859c19.912,17.639,70.936,25.875,119.226,25.875
				c22.392,0.107,44.75-1.78,66.807-5.638c-7.4,8.527-44.376,22.705-109.474,22.705c-73.192,0-110.933-17.942-110.933-25.6
				C145.069,176.192,153.762,168.277,179.443,161.859z M145.069,201.954c5.442,3.004,11.156,5.486,17.067,7.41v15.908
				c-11.283-4.429-17.067-8.961-17.067-11.94V201.954z"/>
		</g>
	</g>
</g>
<g>
</g>
<g>
</g>
<g>
</g>
<g>
</g>
<g>
</g>
<g>
</g>
<g>
</g>
<g>
</g>
<g>
</g>
<g>
</g>
<g>
</g>
<g>
</g>
<g>
</g>
<g>
</g>
<g>
</g>
</svg>
