<?xml version="1.0" encoding="iso-8859-1"?>
<!-- Generator: Adobe Illustrator 19.0.0, SVG Export Plug-In . SVG Version: 6.00 Build 0)  -->
<svg version="1.1" id="Capa_1" xmlns="http://www.w3.org/2000/svg" xmlns:xlink="http://www.w3.org/1999/xlink" x="0px" y="0px"
	 viewBox="0 0 512 512" style="enable-background:new 0 0 512 512;" xml:space="preserve">
<g>
	<g>
		<g>
			<path d="M221.867,102.801c14.138,0,25.6-11.462,25.6-25.6s-11.461-25.6-25.6-25.6s-25.6,11.461-25.6,25.6
				C196.282,91.333,207.735,102.786,221.867,102.801z M221.867,68.668c4.713,0,8.533,3.82,8.533,8.533s-3.82,8.533-8.533,8.533
				s-8.533-3.82-8.533-8.533C213.338,72.49,217.156,68.673,221.867,68.668z"/>
			<path d="M76.8,85.735c14.138,0,25.6-11.461,25.6-25.6s-11.462-25.6-25.6-25.6s-25.6,11.461-25.6,25.6
				C51.215,74.267,62.668,85.719,76.8,85.735z M76.8,51.601c4.713,0,8.533,3.82,8.533,8.533s-3.82,8.533-8.533,8.533
				s-8.533-3.82-8.533-8.533C68.271,55.424,72.089,51.606,76.8,51.601z"/>
			<path d="M0.657,165.954c0.37,0.823,0.87,1.581,1.48,2.245c0.138,0.161,0.19,0.366,0.342,0.519l0.014,0.009
				c3.321,3.315,8.694,3.33,12.035,0.035l0.017-0.011l0-0.001l0.034-0.034l50.362-50.039c30.521,6.19,60.669-12.133,69.229-42.076
				h27.961c-0.002,16.07,6.494,31.458,18.01,42.667H179.2c-4.713,0-8.533,3.82-8.533,8.533c0,4.713,3.82,8.533,8.533,8.533h17.067
				v59.733c0.011,9.421,7.646,17.056,17.067,17.067v42.667c0,4.713,3.82,8.533,8.533,8.533s8.533-3.82,8.533-8.533v-42.667
				c9.421-0.011,17.056-7.646,17.067-17.067v-59.733h17.067c4.713,0,8.533-3.82,8.533-8.533c0-4.713-3.821-8.533-8.533-8.533h-0.943
				c17.384-16.955,22.761-42.753,13.598-65.241c-9.163-22.488-31.039-37.182-55.322-37.159H117.864
				C99.414-0.923,71.645-4.9,48.944,6.998s-35.232,36.996-31.101,62.29L2.512,84.543l-0.007,0.01
				c-1.594,1.603-2.493,3.769-2.503,6.03L0,90.593v72.108c0,0.163,0.084,0.299,0.093,0.459
				C0.122,164.117,0.313,165.061,0.657,165.954z M213.333,196.068v-59.733H230.4l0.012,59.733H213.333z M221.867,33.935
				c23.564,0,42.667,19.102,42.667,42.667s-19.102,42.667-42.667,42.667S179.2,100.166,179.2,76.601
				C179.228,53.049,198.314,33.962,221.867,33.935z M180.143,33.935c-7.252,7.081-12.583,15.891-15.494,25.6h-28.146
				c-0.09-8.883-2.177-17.632-6.105-25.6H180.143z M76.8,17.468c23.564,0,42.667,19.103,42.667,42.667s-19.103,42.667-42.667,42.667
				S34.133,83.699,34.133,60.135C34.161,36.582,53.247,17.496,76.8,17.468z M17.067,94.143l6.691-6.658
				c5.34,10.304,13.55,18.841,23.637,24.581l-30.328,30.133V94.143z"/>
			<path d="M469.333,289.935v-17.067c-0.011-9.421-7.646-17.056-17.067-17.067h-76.8c-14.132,0.015-25.585,11.468-25.6,25.6v8.533
				h-307.2C19.114,289.962,0.028,309.049,0,332.601v34.133c0.015,14.132,11.468,25.585,25.6,25.6h204.8v25.6h-8.533
				c-14.132,0.015-25.585,11.468-25.6,25.6v8.533h-20.374c-13.529-11.849-33.945-11.119-46.593,1.667s-13.157,33.208-1.162,46.608
				l0.068,0.062l0.041,0.054l0.082,0.059c12.38,13.895,33.679,15.126,47.577,2.749h160.157
				c13.723,12.103,34.548,11.233,47.214-1.973c12.665-13.206,12.665-34.049,0-47.255c-12.665-13.206-33.491-14.076-47.214-1.973
				h-20.328v-8.533c-0.015-14.132-11.468-25.585-25.6-25.6H281.6v-25.6h204.8c14.132-0.015,25.585-11.468,25.6-25.6v-34.133
				C511.972,309.049,492.886,289.962,469.333,289.935z M166.196,489.126c-3.308,3.456-7.891,5.401-12.675,5.379
				c-4.784-0.022-9.349-2.009-12.625-5.496c-5.858-6.487-5.811-16.369,0.108-22.8c3.233-3.59,7.845-5.63,12.676-5.608
				c4.831,0.022,9.424,2.105,12.624,5.725C172.162,472.814,172.115,482.695,166.196,489.126z M358.4,460.601
				c9.426,0,17.067,7.641,17.067,17.067s-7.641,17.067-17.067,17.067s-17.067-7.641-17.067-17.067
				C341.344,468.247,348.979,460.612,358.4,460.601z M366.933,281.401c0.005-4.711,3.822-8.529,8.533-8.533h76.8v17.067h-85.333
				V281.401z M325.478,469.135c-1.615,5.574-1.615,11.492,0,17.067H186.51c1.63-5.572,1.631-11.494,0.004-17.067H325.478z
				 M290.133,435.001c4.711,0.005,8.529,3.822,8.533,8.533v8.533h-85.333v-8.533c0.005-4.711,3.822-8.529,8.533-8.533H290.133z
				 M247.467,417.935v-25.6h17.067v25.6H247.467z M494.933,366.735c-0.005,4.711-3.822,8.529-8.533,8.533H25.6
				c-4.711-0.005-8.529-3.822-8.533-8.533v-17.067h477.867V366.735z M17.067,332.601c0.015-14.132,11.468-25.585,25.6-25.6h426.667
				c14.132,0.015,25.585,11.468,25.6,25.6H17.067z"/>
		</g>
	</g>
</g>
<g>
</g>
<g>
</g>
<g>
</g>
<g>
</g>
<g>
</g>
<g>
</g>
<g>
</g>
<g>
</g>
<g>
</g>
<g>
</g>
<g>
</g>
<g>
</g>
<g>
</g>
<g>
</g>
<g>
</g>
</svg>
