<?xml version="1.0" encoding="iso-8859-1"?>
<!-- Generator: Adobe Illustrator 19.0.0, SVG Export Plug-In . SVG Version: 6.00 Build 0)  -->
<svg version="1.1" id="Capa_1" xmlns="http://www.w3.org/2000/svg" xmlns:xlink="http://www.w3.org/1999/xlink" x="0px" y="0px"
	 viewBox="0 0 512.037 512.037" style="enable-background:new 0 0 512.037 512.037;" xml:space="preserve">
<g>
	<g>
		<g>
			<path d="M221.867,102.816c14.138,0,25.6-11.462,25.6-25.6s-11.461-25.6-25.6-25.6s-25.6,11.461-25.6,25.6
				C196.282,91.349,207.735,102.801,221.867,102.816z M221.867,68.683c4.713,0,8.533,3.82,8.533,8.533s-3.82,8.533-8.533,8.533
				s-8.533-3.82-8.533-8.533C213.338,72.506,217.156,68.688,221.867,68.683z"/>
			<path d="M76.8,34.55c-14.138,0-25.6,11.461-25.6,25.6c0.015,14.132,11.468,25.585,25.6,25.6c14.138,0,25.6-11.461,25.6-25.6
				S90.938,34.55,76.8,34.55z M76.8,68.683c-4.713,0-8.533-3.82-8.533-8.533c0.005-4.711,3.822-8.529,8.533-8.533
				c4.713,0,8.533,3.82,8.533,8.533S81.513,68.683,76.8,68.683z"/>
			<path d="M507.042,166.908l-12.071-12.067c-6.67-6.65-17.463-6.65-24.133,0L242.167,383.516c-6.654,6.668-6.654,17.465,0,24.133
				l12.067,12.066c3.2,3.201,7.54,5,12.067,5c4.526,0,8.867-1.799,12.067-5l50.167-50.166l12.066,12.066
				c6.669,6.656,17.468,6.656,24.138,0l10.729-10.728v11.439c-0.426,1.503-0.426,3.095,0,4.598v2.152l-74.621,82.914
				c-0.399,0.442-0.751,0.926-1.05,1.442c-4.556,7.914-4.554,17.654,0.005,25.566c4.559,7.912,12.985,12.798,22.116,12.826
				c2.247-0.002,4.483-0.297,6.654-0.875c6.24-1.654,11.618-5.619,15.042-11.092l31.854-35.503v21.861
				c0,9.146,4.879,17.597,12.8,22.17c7.921,4.573,17.679,4.573,25.6,0c7.921-4.573,12.8-13.024,12.8-22.17v-21.861l31.854,35.503
				c3.424,5.473,8.802,9.438,15.042,11.092c2.171,0.578,4.408,0.873,6.654,0.875c9.133-0.023,17.563-4.909,22.122-12.822
				c4.56-7.914,4.559-17.657-0.001-25.569c-0.298-0.516-0.65-0.999-1.05-1.442l-74.621-82.915V319.69l36.933-36.932
				c6.658-6.67,6.658-17.472,0-24.142l-12.065-12.065l55.503-55.502C513.703,184.383,513.704,173.577,507.042,166.908z
				 M375.467,438.8l-45.092,50.258c-0.396,0.44-0.743,0.92-1.037,1.434c-2.285,3.946-7.27,5.395-11.313,3.289
				s-5.714-7.021-3.791-11.155l61.233-68.039V438.8z M409.6,486.216c0,4.713-3.82,8.533-8.533,8.533s-8.533-3.82-8.533-8.533
				V353.822l17.067-17.066V486.216z M487.9,482.625c1.858,4.006,0.357,8.768-3.463,10.983c-4.076,2.349-9.284,0.955-11.642-3.117
				c-0.294-0.513-0.642-0.994-1.037-1.434L426.667,438.8v-24.214L487.9,482.625z M352.675,369.558L340.6,357.483l98.868-98.865
				l12.065,12.073L352.675,369.558z M433.447,240.508l-0.014,0.009L322.5,351.45l-0.025,0.038l-56.167,56.172l-12.075-12.075
				l228.671-228.676l12.071,12.067L433.447,240.508z"/>
			<path d="M255.975,324.783c0.495-9.236-2.759-18.28-9.025-25.083c-0.61-0.633-1.314-1.282-2.074-1.931
				c0.414-0.396,0.905-0.7,1.298-1.119c5.821-6.093,8.831-14.34,8.304-22.75l-1.648-26.375l56.073-42.058
				c4.289-3.229,6.816-8.281,6.829-13.65V136.35c0.006-6.779-2.701-13.279-7.517-18.05l-28.176-28.329
				c4.14-17.73-0.059-36.379-11.397-50.624c-11.338-14.245-28.57-22.521-46.777-22.464H117.864
				C99.414-0.908,71.645-4.885,48.944,7.013s-35.232,36.996-31.101,62.29L2.512,84.558l-0.007,0.01
				c-1.594,1.603-2.493,3.769-2.503,6.03L0,90.608v72.108c0,0.163,0.084,0.299,0.093,0.459c0.029,0.956,0.22,1.901,0.564,2.793
				c0.37,0.823,0.87,1.581,1.48,2.245c0.138,0.161,0.19,0.366,0.342,0.519l0.014,0.009c3.321,3.315,8.694,3.33,12.035,0.035
				l0.017-0.011l0-0.001l0.034-0.034l50.362-50.039c30.521,6.19,60.669-12.133,69.229-42.076h27.961
				c0.014,4.496,0.537,8.977,1.559,13.355l-28.08,28.237c-4.867,4.782-7.61,11.318-7.612,18.141v55.467
				c0.013,5.367,2.539,10.419,6.825,13.65l56.078,42.058l-1.648,26.375c-0.527,8.41,2.484,16.657,8.304,22.75
				c0.242,0.258,0.549,0.44,0.799,0.689c-5.879,4.237-9.426,10.99-9.579,18.236c0.259,5.818,2.774,11.306,7.013,15.3
				c0.758,0.858,1.55,1.75,2.292,2.742c5.158,6.892,0.467,19.508-6.842,27.267l-0.017,0.009c-2.979,3.157-3.113,8.047-0.313,11.363
				c2.8,3.316,7.644,4.003,11.255,1.595c0.787-0.275,1.833-0.517,2.738-0.758c1.354-0.35,2.546-0.692,3.208-0.933
				c5.442-2.015,10.75-4.375,15.892-7.067C249.704,351.541,255.575,335.691,255.975,324.783z M273.092,107.182l23.121,23.243
				c1.577,1.568,2.461,3.701,2.454,5.925v55.467l-47.11,35.332l-1.271-20.34l24.49-18.409c4.287-3.226,6.814-8.276,6.825-13.641
				V146.95c0.013-4.508-1.772-8.836-4.958-12.025l-14.354-14.458C266.506,116.577,270.144,112.104,273.092,107.182z M221.867,33.95
				c23.564,0,42.667,19.102,42.667,42.667s-19.102,42.667-42.667,42.667S179.2,100.181,179.2,76.616
				C179.228,53.064,198.314,33.977,221.867,33.95z M17.067,142.214V94.158l6.691-6.658c5.34,10.304,13.55,18.841,23.637,24.581
				L17.067,142.214z M76.8,102.816c-23.564,0-42.667-19.103-42.667-42.667C34.161,36.597,53.247,17.511,76.8,17.483
				c23.564,0,42.667,19.103,42.667,42.667S100.364,102.816,76.8,102.816z M136.503,59.55c-0.09-8.883-2.177-17.632-6.105-25.6
				h49.745c-7.252,7.081-12.583,15.891-15.494,25.6H136.503z M192.177,227.149l-47.11-35.332V136.35
				c0.002-2.268,0.922-4.438,2.55-6.017l23.025-23.15c2.948,4.921,6.586,9.394,10.803,13.283l-14.357,14.459
				c-3.184,3.191-4.966,7.518-4.954,12.025v27.809c0.012,5.364,2.534,10.412,6.817,13.642l24.498,18.41L192.177,227.149z
				 M238.917,324.166c-0.421,11.525-12.5,20.325-22.662,25.717c2.614-9.059,0.953-18.816-4.513-26.5
				c-1.017-1.358-2.088-2.592-3.129-3.775c-2.108-2.4-2.767-3.275-2.767-4.033c0-3.958,6.9-8.558,15.8-8.558
				c4.777-0.351,9.487,1.287,13.017,4.525C237.672,315.035,239.198,319.565,238.917,324.166z M237.316,272.883l0.13,2.083
				c0.212,3.705-1.132,7.329-3.708,10c-6.647,6.333-17.095,6.333-23.742,0c-2.576-2.671-3.92-6.295-3.708-10l0.13-2.083H237.316z
				 M207.484,255.816l4.832-77.308c0.811-4.64,4.84-8.025,9.55-8.025s8.739,3.385,9.55,8.025l4.832,77.308H207.484z
				 M221.867,153.416c-13.714,0-25.201,10.382-26.583,24.025l-0.561,8.977l-15.522-11.66v-27.817l16.561-16.681
				c16.456,8.119,35.753,8.119,52.209,0l16.563,16.689v27.8l-15.522,11.665l-0.561-8.973
				C247.067,163.798,235.58,153.416,221.867,153.416z"/>
		</g>
	</g>
</g>
<g>
</g>
<g>
</g>
<g>
</g>
<g>
</g>
<g>
</g>
<g>
</g>
<g>
</g>
<g>
</g>
<g>
</g>
<g>
</g>
<g>
</g>
<g>
</g>
<g>
</g>
<g>
</g>
<g>
</g>
</svg>
