<?xml version="1.0" encoding="iso-8859-1"?>
<!-- Generator: Adobe Illustrator 19.0.0, SVG Export Plug-In . SVG Version: 6.00 Build 0)  -->
<svg version="1.1" id="Capa_1" xmlns="http://www.w3.org/2000/svg" xmlns:xlink="http://www.w3.org/1999/xlink" x="0px" y="0px"
	 viewBox="0 0 512 512" style="enable-background:new 0 0 512 512;" xml:space="preserve">
<g>
	<g>
		<g>
			<path d="M136.451,398.02c0.313-2.241-0.278-4.515-1.642-6.32c-1.361-1.809-3.386-3.002-5.629-3.315
				c-2.242-0.313-4.517,0.281-6.321,1.648c-2.587,2.467-6.404,3.134-9.675,1.692c-4.176-2.482-6.714-7.001-6.658-11.858
				c-0.609-9.067-3.071-17.913-7.233-25.992c-5.733-13.175-7.55-19.125-2.408-24.95c9.525-10.75,25.242,0.617,26,1.183
				c3.77,2.8,9.094,2.029,11.915-1.725c2.821-3.754,2.081-9.082-1.657-11.925c-9.967-7.517-33.033-16.942-49.05,1.167
				c-12.85,14.55-5.975,30.358-0.45,43.058c3.149,5.963,5.123,12.475,5.817,19.183c-0.061,11.327,6.135,21.763,16.108,27.133
				c3.389,1.709,7.13,2.602,10.925,2.608c6.053-0.109,11.902-2.202,16.65-5.958C134.948,402.286,136.138,400.261,136.451,398.02z"/>
			<path d="M477.867,0H34.133C15.29,0.019,0.019,15.29,0,34.133v256c0.047,0.354,0.118,0.704,0.211,1.049
				c0.035,9.14,0.837,18.262,2.397,27.268c5.778,32.351,16.929,63.506,32.992,92.175c2.815,5.318,5.181,9.89,6.971,13.947
				c-1.179,17.382-23.501,66.022-30.446,71.936c-3.029,2.15-4.319,6.013-3.19,9.552c1.129,3.539,4.417,5.941,8.132,5.94H358.4
				c2.264,0.001,4.435-0.897,6.035-2.498c1.601-1.601,2.499-3.772,2.498-6.035c-0.028-23.553-19.114-42.639-42.667-42.667h-8.533
				v-25.6h162.133c18.844-0.019,34.115-15.29,34.133-34.133V34.133C511.981,15.29,496.71,0.019,477.867,0z M236.667,165.275
				c-13.286-9.161-27.862-16.293-43.248-21.162l44.958-8.975c0.359,3.297,0.545,6.612,0.556,9.929
				C238.917,151.865,238.157,158.642,236.667,165.275z M248.018,197.028c-6.847,5.053-14.181,9.411-21.893,13.008
				c-20.931-31.121-44.2-38.657-60.59-39.182c0.862-5.169,2.31-10.222,4.315-15.064c3.862,0.698,7.773,1.507,11.725,2.543
				c19.648,5.157,37.998,14.372,53.869,27.051c0.294,0.273,0.608,0.525,0.939,0.753C240.482,189.523,244.368,193.16,248.018,197.028
				z M169.967,131.392l45.89-47.931c8.843,10.127,15.389,22.047,19.19,34.943L169.967,131.392z M153.6,123.811V51.605
				c18.257,1.618,35.632,8.586,49.948,20.031L153.6,123.811z M157.467,188.325c11.16-1.585,32.122,0.237,52.185,27.876
				c-12.05,3.716-24.584,5.625-37.193,5.666h-40.192c-0.41,0-0.798,0.105-1.206,0.118c-1.321-3.654-2.86-7.705-4.71-12.043
				c-0.606-1.397-1.477-2.934-2.331-4.459c4.037-1.798,7.95-3.86,11.715-6.174c1.783-1.1,3.492-2.225,5.158-3.317
				C145.738,192.17,151.416,189.543,157.467,188.325z M148.249,172.959c-5.966,2.111-11.601,5.062-16.732,8.766
				c-1.533,1.017-3.1,2.042-4.742,3.058c-4.061,2.565-8.35,4.749-12.812,6.525c-8.02-9.383-17.223-17.686-27.378-24.703
				c20.665-9.354,43.232-13.746,65.897-12.826C150.307,159.98,148.886,166.419,148.249,172.959z M136.533,136.98
				c-23.585,1.488-46.575,8.023-67.417,19.162c-1.779,0.95-3.425,2.043-5.131,3.07c-0.175,0.13-0.388,0.188-0.553,0.332
				c-3.373,2.052-6.634,4.284-9.768,6.687c-6.184-26.417-0.605-54.217,15.293-76.203c15.898-21.985,40.551-35.993,67.576-38.395
				V136.98z M69.308,175.903c8.877,5.087,17.049,11.315,24.308,18.524c-4.645-0.033-9.272,0.592-13.742,1.856
				c-15.6,4.85-22.325,19.183-28.258,31.825c-2.048,4.763-4.502,9.341-7.333,13.684c-3.894,5.399-9.123,7.907-20.598,3.052
				c0.925-3.177,1.889-6.367,3.031-9.585C33.948,211.302,48.929,190.425,69.308,175.903z M34.558,264.492
				c9.509,0.043,18.387-4.751,23.567-12.725c3.47-5.188,6.463-10.68,8.942-16.408c4.867-10.367,9.458-20.158,17.883-22.783
				c3.698-0.889,7.499-1.27,11.3-1.133c2.758-0.05,5.525-0.1,8.258-0.375c0.894-0.09,1.796-0.324,2.692-0.459
				c1.32,1.925,2.482,3.954,3.475,6.067c1.456,3.418,2.727,6.701,3.84,9.727c-3.43,1.741-6.57,4.003-9.306,6.706
				c-7.297,7.147-11.389,16.944-11.342,27.158c-0.011,11.778-9.556,21.323-21.333,21.333H42.667
				c-9.197-0.094-18.156,2.917-25.428,8.547c-0.019-9.6,0.846-19.181,2.585-28.622C24.529,263.35,29.513,264.353,34.558,264.492z
				 M165.463,494.933H33.658c12.217-21.275,26.092-57.175,26.092-71.8l-0.026-0.121c0.017-1.153-0.202-2.297-0.642-3.362
				c-2.125-5.142-5.033-10.642-8.4-17.008c-15.278-27.099-25.852-56.592-31.275-87.225c-0.129-0.716-0.162-1.448-0.28-2.166
				c4.57-8.818,13.608-14.418,23.538-14.584h29.867c21.198-0.023,38.377-17.202,38.4-38.4c0.081-11.748,9.585-21.252,21.333-21.333
				h40.192c31.138-0.064,61.432-10.135,86.409-28.729c9.534,13.352,16.412,28.412,20.257,44.362
				c2.542,9.031,3.617,18.411,3.183,27.783c-0.23,2.964-0.65,5.91-1.256,8.82c-7.95-4.425-16.579-7.501-25.535-9.103
				c-9.88-0.91-19.836,0.452-29.108,3.983c-2.258,0.683-4.492,1.358-6.7,1.933c-4.549,1.202-7.267,5.859-6.077,10.411
				c1.19,4.552,5.838,7.283,10.394,6.106c2.4-0.633,4.842-1.367,7.308-2.108c6.863-2.689,14.224-3.869,21.583-3.458
				c8.528,1.705,16.692,4.891,24.121,9.412c-1.551,6.941-2.255,14.044-2.096,21.155c1.693,13.993,7.205,27.249,15.933,38.317
				c3.07,4.222,5.656,8.776,7.708,13.575c-1.171,0.538-2.402,0.935-3.667,1.183c-5.433,0.076-10.607,2.33-14.363,6.257
				c-3.755,3.926-5.777,9.196-5.612,14.627c0.424,6.979,0.019,13.983-1.208,20.867c-0.436,1.523-1.294,2.893-2.475,3.95
				c-0.617,0.608-1.008,0.733-2.717,1.142c-6.033,1.408-12.2,4.567-12.2,17.217c0,2.8,0.267,5.6,0.542,8.342
				c0.958,9.45,1.183,11.7-7.175,14.458c-14.708,4.933-85.642-11.975-102.25-34.067c-1.827-2.449-4.824-3.735-7.858-3.37
				c-3.034,0.364-5.642,2.322-6.837,5.134c-1.196,2.812-0.797,6.049,1.045,8.486h0c10.769,11.732,24.263,20.629,39.29,25.904
				C169.542,478.958,166.975,486.829,165.463,494.933z M372.634,314.658l-18.1-17.158c-5.959-5.605-14.943-6.501-21.892-2.183
				l-15.934,10.175c-0.295,0.167-0.655,0.167-0.95,0l-18.12-10.274c0.825-3.83,1.389-7.711,1.686-11.618
				c0.049-0.652,0.019-1.341,0.052-2h14.906c2.651,0.009,5.269-0.593,7.65-1.758l29.442-13.908c0.262-0.135,0.574-0.132,0.833,0.009
				l20.417,12.95c2.857,1.76,6.144,2.697,9.5,2.708h39.767c3.094-0.001,6.135-0.796,8.833-2.308l30.075-17.138v31.882
				L372.634,314.658z M460.8,311.588v38.279H299.696c-4.255-6.182-6.898-13.329-7.688-20.792c-0.13-5.554,0.401-11.103,1.582-16.531
				l13.726,7.781c5.757,3.281,12.851,3.133,18.467-0.383l15.933-10.175c0.31-0.192,0.707-0.176,1,0.042L360.85,327
				c3.304,3.141,7.691,4.89,12.25,4.883c1.404,0.001,2.804-0.17,4.167-0.508L460.8,311.588z M421.892,264.533l-40.233-0.125
				l-20.35-12.908c-5.191-3.255-11.684-3.632-17.217-1l-29.808,14.033H298.44c-0.674-4.727-1.591-9.417-2.748-14.05
				c-1.529-6.254-3.474-12.399-5.82-18.395l43.153-17.555c0.299-0.12,0.635-0.108,0.925,0.033l45.292,28.658
				c5.56,3.594,12.709,3.601,18.275,0.017l63.283-40.021v39.27L421.892,264.533z M287.408,435.2h11.258v25.6h-24.339
				c-0.022-2.52-0.176-5.038-0.461-7.542c-0.217-2.175-0.458-4.4-0.458-6.625c0-0.317,0.009-0.592,0.017-0.842
				c3.732-0.844,7.151-2.721,9.867-5.417C284.86,438.815,286.241,437.078,287.408,435.2z M324.267,477.867
				c10.846,0.013,20.511,6.846,24.142,17.067H182.821c1.433-6.06,3.572-11.932,6.375-17.493c17.007,5.804,34.765,9.117,52.721,9.834
				c4.451,0.138,8.896-0.419,13.175-1.65c4.94-1.451,9.436-4.119,13.078-7.758H324.267z M494.933,401.067
				c-0.012,9.421-7.646,17.054-17.067,17.067H291.782c0.217-4.049,0.226-8.778,0.226-14.675c0-1.383,0-3.692,3.925-3.842
				c0.562-0.001,1.123-0.057,1.675-0.167c7.152-0.776,13.481-4.981,16.967-11.275c2.179-7.322,0.659-15.246-4.075-21.242h184.433
				V401.067z M494.933,349.867h-17.067V153.6c0-4.713-3.82-8.533-8.533-8.533s-8.533,3.821-8.533,8.533v29.439l-72.4,45.786
				l-45.325-28.683c-4.922-3.063-11.006-3.604-16.392-1.458l-44.006,17.899c-8.043-15.018-18.671-28.5-31.396-39.827
				c3.123-10.273,4.713-20.951,4.719-31.689c-0.002-7.291-0.717-14.565-2.133-21.717c-4.419-22.312-15.617-42.716-32.067-58.425
				l-0.006-0.006l-0.002-0.003l-0.004-0.003C185.1,29.715,129.176,23.976,86.104,50.989
				c-43.072,27.013-62.255,79.856-46.543,128.209c-9.254,10.358-16.843,22.09-22.495,34.778V34.133
				c0.012-9.421,7.646-17.054,17.067-17.067h443.733c9.421,0.012,17.054,7.646,17.067,17.067V349.867z"/>
			<path d="M371.067,64.542c-0.042-0.093-0.125-0.148-0.17-0.239c-9.723-21.586-32.983-33.685-56.239-29.252
				s-40.435,24.239-41.536,47.888c-1.101,23.649,14.165,44.966,36.908,51.539c0.076,0.024,0.126,0.083,0.203,0.105
				c0.148,0.042,0.294,0.028,0.442,0.061c19.038,5.287,39.418-0.871,52.342-15.817c12.924-14.946,16.076-36.001,8.096-54.077
				C371.085,64.683,371.097,64.61,371.067,64.542z M315.733,84.142l-8.69,30.494c-11.935-6.917-18.492-20.373-16.584-34.035
				c1.908-13.662,11.9-24.807,25.274-28.189V84.142z M332.8,52.412c7.134,1.864,13.469,5.996,18.05,11.773l-18.05,8.018V52.412z
				 M324.267,119.467c-0.282,0-0.544-0.077-0.825-0.083l7.94-27.871l26.456-11.752c0.342,1.839,0.53,3.703,0.563,5.573
				C358.381,104.177,343.11,119.448,324.267,119.467z"/>
			<path d="M469.333,42.667h-68.267c-4.713,0-8.533,3.82-8.533,8.533s3.821,8.533,8.533,8.533h68.267
				c4.713,0,8.533-3.82,8.533-8.533S474.046,42.667,469.333,42.667z"/>
			<path d="M401.067,93.867h17.067c4.713,0,8.533-3.821,8.533-8.533s-3.82-8.533-8.533-8.533h-17.067
				c-4.713,0-8.533,3.82-8.533,8.533S396.354,93.867,401.067,93.867z"/>
			<path d="M443.733,110.933h-42.667c-4.713,0-8.533,3.82-8.533,8.533s3.821,8.533,8.533,8.533h42.667
				c4.713,0,8.533-3.82,8.533-8.533S448.446,110.933,443.733,110.933z"/>
		</g>
	</g>
</g>
<g>
</g>
<g>
</g>
<g>
</g>
<g>
</g>
<g>
</g>
<g>
</g>
<g>
</g>
<g>
</g>
<g>
</g>
<g>
</g>
<g>
</g>
<g>
</g>
<g>
</g>
<g>
</g>
<g>
</g>
</svg>
