<?xml version="1.0" encoding="iso-8859-1"?>
<!-- Generator: Adobe Illustrator 19.0.0, SVG Export Plug-In . SVG Version: 6.00 Build 0)  -->
<svg version="1.1" id="Capa_1" xmlns="http://www.w3.org/2000/svg" xmlns:xlink="http://www.w3.org/1999/xlink" x="0px" y="0px"
	 viewBox="0 0 512 512" style="enable-background:new 0 0 512 512;" xml:space="preserve">
<g>
	<g>
		<g>
			<path d="M136.533,332.8c-2.264-0.001-4.435,0.897-6.035,2.498c-1.601,1.601-2.499,3.772-2.498,6.035V358.4
				c0,4.713,3.82,8.533,8.533,8.533s8.533-3.82,8.533-8.533v-17.067c0.001-2.264-0.897-4.435-2.498-6.035
				C140.968,333.697,138.797,332.799,136.533,332.8z"/>
			<path d="M273.067,332.8c-2.264-0.001-4.435,0.897-6.035,2.498c-1.601,1.601-2.499,3.772-2.498,6.035V358.4
				c0,4.713,3.82,8.533,8.533,8.533s8.533-3.82,8.533-8.533v-17.067c0.001-2.264-0.897-4.435-2.498-6.035
				C277.501,333.697,275.33,332.799,273.067,332.8z"/>
			<path d="M307.2,324.267c-2.264-0.001-4.435,0.897-6.035,2.498c-1.601,1.601-2.499,3.772-2.498,6.035v34.133
				c0,4.713,3.82,8.533,8.533,8.533s8.533-3.82,8.533-8.533V332.8c0.001-2.264-0.897-4.435-2.498-6.035
				C311.635,325.164,309.464,324.265,307.2,324.267z"/>
			<path d="M170.667,324.267c-2.264-0.001-4.435,0.897-6.035,2.498c-1.601,1.601-2.499,3.772-2.498,6.035v34.133
				c0,4.713,3.82,8.533,8.533,8.533s8.533-3.82,8.533-8.533V332.8c0.001-2.264-0.897-4.435-2.498-6.035
				C175.102,325.164,172.93,324.265,170.667,324.267z"/>
			<path d="M238.933,324.267c-2.264-0.001-4.435,0.897-6.035,2.498c-1.601,1.601-2.499,3.772-2.498,6.035v34.133
				c0,4.713,3.82,8.533,8.533,8.533s8.533-3.82,8.533-8.533V332.8c0.001-2.264-0.897-4.435-2.498-6.035
				C243.368,325.164,241.197,324.265,238.933,324.267z"/>
			<path d="M204.8,307.2c-2.264-0.001-4.435,0.897-6.035,2.498s-2.499,3.772-2.498,6.035V384c0,4.713,3.82,8.533,8.533,8.533
				s8.533-3.82,8.533-8.533v-68.267c0.001-2.264-0.897-4.435-2.498-6.035S207.064,307.199,204.8,307.2z"/>
			<path d="M341.333,332.8c-2.264-0.001-4.435,0.897-6.035,2.498c-1.601,1.601-2.499,3.772-2.498,6.035V358.4
				c0,4.713,3.821,8.533,8.533,8.533c4.713,0,8.533-3.82,8.533-8.533v-17.067c0.001-2.264-0.897-4.435-2.498-6.035
				C345.768,333.697,343.597,332.799,341.333,332.8z"/>
			<path d="M418.133,204.8c14.132-0.015,25.585-11.468,25.6-25.6v-8.533c-0.015-14.132-11.468-25.585-25.6-25.6H409.6
				c-0.047-32.646-26.274-59.218-58.917-59.692c-6.014-19.61-9.08-40.005-9.1-60.516C341.195,11.04,329.898,0.031,316.075,0H161.792
				c-13.829,0.033-25.128,11.051-25.509,24.875c-0.02,20.506-3.087,40.895-9.1,60.499c-32.643,0.474-58.87,27.046-58.917,59.693
				v221.867c0.047,32.646,26.274,59.218,58.917,59.692c6.014,19.61,9.08,40.005,9.1,60.516
				c0.388,13.818,11.685,24.827,25.509,24.858h154.283c13.829-0.033,25.127-11.051,25.508-24.875
				c0.02-20.506,3.087-40.895,9.1-60.499c32.643-0.474,58.87-27.046,58.917-59.693V358.4h8.533
				c14.132-0.015,25.585-11.468,25.6-25.6v-59.733c-0.015-14.132-11.468-25.585-25.6-25.6H409.6V204.8H418.133z M409.6,162.133
				h8.533c4.711,0.003,8.53,3.822,8.533,8.533v8.533c-0.003,4.712-3.822,8.53-8.533,8.533H409.6V162.133z M153.333,25.492
				c0.082-4.632,3.827-8.362,8.459-8.425h154.283c4.626,0.061,8.37,3.782,8.458,8.408c0.247,20.216,3.005,40.322,8.208,59.858
				H145.126C150.328,65.803,153.085,45.702,153.333,25.492z M324.533,486.508c-0.082,4.632-3.827,8.362-8.459,8.425H161.792
				c-4.626-0.061-8.37-3.782-8.458-8.408c-0.247-20.216-3.005-40.322-8.208-59.858h187.616
				C327.538,446.197,324.781,466.298,324.533,486.508z M392.533,153.6v213.333c-0.028,23.553-19.114,42.639-42.667,42.667H128
				c-23.553-0.028-42.639-19.114-42.667-42.667V145.067c0.028-23.553,19.114-42.639,42.667-42.667h221.867
				c23.553,0.028,42.639,19.114,42.667,42.667V153.6z M418.133,264.533c4.711,0.003,8.53,3.822,8.533,8.533V332.8
				c-0.003,4.712-3.822,8.53-8.533,8.533H409.6v-76.8H418.133z"/>
			<path d="M264.533,262.158c5.261-3.025,8.513-8.623,8.533-14.692l0.317-19.517c20.194-14.235,29.532-39.44,23.487-63.396
				c-6.045-23.956-26.223-41.713-50.753-44.663c-27.226-3.323-53.211,12.337-62.992,37.962c-9.781,25.624-0.839,54.617,21.676,70.28
				v19.333c0.021,6.069,3.272,11.667,8.533,14.692v10.908c0,14.138,11.462,25.6,25.6,25.6s25.6-11.462,25.6-25.6V262.158z
				 M247.467,273.067c0,4.713-3.82,8.533-8.533,8.533s-8.533-3.821-8.533-8.533v-8.533h17.067V273.067z M256,228.158v19.308h-34.133
				v-19.333c-0.071-5.649-2.88-10.913-7.533-14.117c-10.644-7.499-17.275-19.453-18-32.453c-0.726-13,4.533-25.618,14.275-34.255
				c7.765-6.964,17.836-10.803,28.267-10.775c1.755,0,3.508,0.103,5.25,0.308c18.757,2.408,33.741,16.784,36.925,35.425
				c2.653,16.116-4.146,32.33-17.5,41.733C258.886,217.215,256.071,222.494,256,228.158z"/>
			<path d="M238.933,153.6c-14.132,0.015-25.585,11.468-25.6,25.6c0,4.713,3.821,8.533,8.533,8.533c4.713,0,8.533-3.82,8.533-8.533
				c0.003-4.712,3.822-8.53,8.533-8.533c4.713,0,8.533-3.82,8.533-8.533S243.646,153.6,238.933,153.6z"/>
		</g>
	</g>
</g>
<g>
</g>
<g>
</g>
<g>
</g>
<g>
</g>
<g>
</g>
<g>
</g>
<g>
</g>
<g>
</g>
<g>
</g>
<g>
</g>
<g>
</g>
<g>
</g>
<g>
</g>
<g>
</g>
<g>
</g>
</svg>
