<?xml version="1.0" encoding="iso-8859-1"?>
<!-- Generator: Adobe Illustrator 19.0.0, SVG Export Plug-In . SVG Version: 6.00 Build 0)  -->
<svg version="1.1" id="Capa_1" xmlns="http://www.w3.org/2000/svg" xmlns:xlink="http://www.w3.org/1999/xlink" x="0px" y="0px"
	 viewBox="0 0 512 512" style="enable-background:new 0 0 512 512;" xml:space="preserve">
<g>
	<g>
		<g>
			<path d="M477.867,187.733h-34.133V153.6c-0.031-28.264-22.936-51.169-51.2-51.2h-0.771
				c-3.659-21.441-20.455-38.237-41.896-41.896V34.133C349.847,15.29,334.576,0.02,315.733,0H76.8
				C57.957,0.02,42.687,15.29,42.667,34.133v26.371C18.038,64.64,0,85.96,0,110.933s18.038,46.293,42.667,50.429v9.304
				c0.02,18.843,15.29,34.113,34.133,34.133h13.281c-3.074,5.164-4.713,11.056-4.747,17.067V256H76.8
				c-18.843,0.02-34.113,15.29-34.133,34.133v0.771C18.061,295.079,0.042,316.376,0,341.333V486.4
				c-0.001,2.263,0.898,4.434,2.499,6.035c1.6,1.6,3.771,2.499,6.035,2.499h34.133v8.533c-0.001,2.263,0.898,4.434,2.499,6.035
				c1.6,1.6,3.771,2.499,6.035,2.499h426.667c18.844-0.019,34.115-15.29,34.133-34.133v-256
				C511.981,203.023,496.71,187.752,477.867,187.733z M42.667,143.855c-15.059-3.827-25.601-17.384-25.601-32.922
				s10.542-29.094,25.601-32.922V143.855z M42.667,477.867h-25.6V341.333c0.046-15.521,10.568-29.054,25.6-32.922V477.867z
				 M59.733,494.933v-204.8c0.011-9.421,7.645-17.056,17.067-17.067h8.533v204.8c0.034,6.01,1.673,11.902,4.747,17.067H59.733z
				 M349.867,78.012c15.059,3.827,25.601,17.384,25.601,32.922s-10.542,29.094-25.601,32.922V78.012z M349.867,170.667v-9.304
				c21.441-3.659,38.237-20.455,41.896-41.896h0.771c18.844,0.019,34.115,15.29,34.133,34.133v34.133h-81.547
				C348.194,182.569,349.833,176.677,349.867,170.667z M93.867,145.067v42.667H76.8c-9.421-0.011-17.056-7.645-17.067-17.067V34.133
				c0.011-9.421,7.645-17.056,17.067-17.067h238.933c9.421,0.011,17.056,7.646,17.067,17.067v136.533
				c-0.011,9.421-7.645,17.056-17.067,17.067h-17.067v-42.667c-0.015-14.132-11.468-25.585-25.6-25.6h-153.6
				C105.335,119.482,93.882,130.935,93.867,145.067z M110.933,153.6v-8.533c0.005-4.711,3.822-8.529,8.533-8.533h153.6
				c4.711,0.005,8.529,3.822,8.533,8.533v8.533H110.933z M281.6,170.667v17.067H110.933v-17.067H281.6z M494.933,341.333H486.4
				c-4.713,0-8.533,3.82-8.533,8.533s3.82,8.533,8.533,8.533h8.533v119.467c-0.012,9.421-7.646,17.054-17.067,17.067h-358.4
				c-9.421-0.011-17.056-7.645-17.067-17.067v-256c0.011-9.421,7.645-17.056,17.067-17.067h358.4
				c9.421,0.012,17.054,7.646,17.067,17.067V341.333z"/>
			<path d="M443.733,221.867h-307.2c-9.421,0.011-17.056,7.645-17.067,17.067V460.8c0.011,9.421,7.645,17.056,17.067,17.067h307.2
				c9.421-0.012,17.055-7.646,17.067-17.067V238.933C460.788,229.513,453.154,221.879,443.733,221.867z M443.733,460.8l-307.2,0.008
				V238.933h307.2V460.8z"/>
			<path d="M136.533,102.4c14.132-0.015,25.585-11.468,25.6-25.6V59.733c-0.015-14.132-11.468-25.585-25.6-25.6h-17.067
				c-14.132,0.015-25.585,11.468-25.6,25.6V76.8c0.015,14.132,11.468,25.585,25.6,25.6H136.533z M110.933,76.8V59.733
				c0.005-4.711,3.822-8.529,8.533-8.533h17.067c4.711,0.005,8.529,3.822,8.533,8.533V76.8c-0.005,4.711-3.822,8.529-8.533,8.533
				h-17.067C114.756,85.329,110.938,81.511,110.933,76.8z"/>
			<path d="M256,102.4h17.067c14.132-0.015,25.585-11.468,25.6-25.6V59.733c-0.015-14.132-11.468-25.585-25.6-25.6H256
				c-14.132,0.015-25.585,11.468-25.6,25.6V76.8C230.415,90.932,241.868,102.385,256,102.4z M247.467,59.733
				c0.005-4.711,3.822-8.529,8.533-8.533h17.067c4.711,0.005,8.529,3.822,8.533,8.533V76.8c-0.005,4.711-3.823,8.529-8.533,8.533
				H256c-4.711-0.005-8.529-3.822-8.533-8.533V59.733z"/>
			<path d="M162.133,443.733c2.263,0.001,4.434-0.898,6.035-2.499c1.6-1.6,2.499-3.771,2.499-6.035V264.533
				c0-4.713-3.82-8.533-8.533-8.533s-8.533,3.82-8.533,8.533V435.2c-0.001,2.263,0.898,4.434,2.499,6.035
				C157.699,442.835,159.87,443.734,162.133,443.733z"/>
			<path d="M196.267,307.2h25.6c4.713,0,8.533-3.82,8.533-8.533s-3.82-8.533-8.533-8.533h-25.6c-4.713,0-8.533,3.82-8.533,8.533
				S191.554,307.2,196.267,307.2z"/>
			<path d="M256,307.2h8.533c4.713,0,8.533-3.82,8.533-8.533s-3.821-8.533-8.533-8.533H256c-4.713,0-8.533,3.82-8.533,8.533
				S251.287,307.2,256,307.2z"/>
			<path d="M256,324.267h-51.2c-4.713,0-8.533,3.821-8.533,8.533c0,4.713,3.82,8.533,8.533,8.533H256
				c4.713,0,8.533-3.821,8.533-8.533C264.533,328.087,260.713,324.267,256,324.267z"/>
			<path d="M290.133,341.333h25.6c4.713,0,8.533-3.821,8.533-8.533c0-4.713-3.82-8.533-8.533-8.533h-25.6
				c-4.713,0-8.533,3.821-8.533,8.533C281.6,337.513,285.421,341.333,290.133,341.333z"/>
			<path d="M204.8,409.6h17.067c4.713,0,8.533-3.82,8.533-8.533s-3.82-8.533-8.533-8.533H204.8c-4.713,0-8.533,3.821-8.533,8.533
				S200.087,409.6,204.8,409.6z"/>
			<path d="M249.965,395.032c-1.6,1.6-2.499,3.771-2.499,6.035c-0.001,2.263,0.898,4.434,2.499,6.035
				c1.6,1.6,3.771,2.499,6.035,2.499h59.733c4.713,0,8.533-3.82,8.533-8.533s-3.82-8.533-8.533-8.533H256
				C253.737,392.533,251.566,393.432,249.965,395.032z"/>
			<path d="M256,426.667h-51.2c-4.713,0-8.533,3.82-8.533,8.533s3.82,8.533,8.533,8.533H256c4.713,0,8.533-3.82,8.533-8.533
				S260.713,426.667,256,426.667z"/>
			<path d="M358.4,426.667h-68.267c-4.713,0-8.533,3.82-8.533,8.533s3.82,8.533,8.533,8.533H358.4c4.713,0,8.533-3.82,8.533-8.533
				S363.113,426.667,358.4,426.667z"/>
			<path d="M349.867,341.333h42.667c4.713,0,8.533-3.821,8.533-8.533c0-4.713-3.821-8.533-8.533-8.533h-42.667
				c-4.713,0-8.533,3.821-8.533,8.533C341.333,337.513,345.154,341.333,349.867,341.333z"/>
			<path d="M307.2,358.4h-93.867c-4.713,0-8.533,3.82-8.533,8.533s3.821,8.533,8.533,8.533H307.2c4.713,0,8.533-3.82,8.533-8.533
				S311.913,358.4,307.2,358.4z"/>
			<path d="M341.333,375.467h25.6c4.713,0,8.533-3.82,8.533-8.533s-3.82-8.533-8.533-8.533h-25.6c-4.713,0-8.533,3.82-8.533,8.533
				S336.621,375.467,341.333,375.467z"/>
			<path d="M395.032,360.899c-1.6,1.6-2.499,3.771-2.499,6.035c-0.001,2.263,0.898,4.434,2.499,6.035
				c1.6,1.6,3.771,2.499,6.035,2.499h17.067c4.713,0,8.533-3.82,8.533-8.533s-3.82-8.533-8.533-8.533h-17.067
				C398.803,358.399,396.633,359.298,395.032,360.899z"/>
		</g>
	</g>
</g>
<g>
</g>
<g>
</g>
<g>
</g>
<g>
</g>
<g>
</g>
<g>
</g>
<g>
</g>
<g>
</g>
<g>
</g>
<g>
</g>
<g>
</g>
<g>
</g>
<g>
</g>
<g>
</g>
<g>
</g>
</svg>
