<?xml version="1.0" encoding="iso-8859-1"?>
<!-- Generator: Adobe Illustrator 19.0.0, SVG Export Plug-In . SVG Version: 6.00 Build 0)  -->
<svg version="1.1" id="Capa_1" xmlns="http://www.w3.org/2000/svg" xmlns:xlink="http://www.w3.org/1999/xlink" x="0px" y="0px"
	 viewBox="0 0 512.066 512.066" style="enable-background:new 0 0 512.066 512.066;" xml:space="preserve">
<g transform="translate(-1)">
	<g>
		<g>
			<path d="M180.266,34.166c-14.138,0-25.6,11.461-25.6,25.6s11.461,25.6,25.6,25.6s25.6-11.461,25.6-25.6
				C205.851,45.634,194.398,34.182,180.266,34.166z M180.266,68.3c-4.713,0-8.533-3.82-8.533-8.533s3.82-8.533,8.533-8.533
				s8.533,3.82,8.533,8.533C188.796,64.478,184.978,68.296,180.266,68.3z"/>
			<path d="M248.533,34.166c-14.138,0-25.6,11.461-25.6,25.6s11.461,25.6,25.6,25.6c14.139,0,25.6-11.461,25.6-25.6
				C274.118,45.634,262.665,34.182,248.533,34.166z M248.533,68.3c-4.713,0-8.533-3.82-8.533-8.533s3.82-8.533,8.533-8.533
				s8.533,3.82,8.533,8.533C257.063,64.478,253.244,68.296,248.533,68.3z"/>
			<path d="M513.066,25.633c-0.015-14.132-11.468-25.585-25.6-25.6H146.133c-14.132,0.015-25.585,11.468-25.6,25.6V93.9
				c0.02,6.319,2.394,12.404,6.658,17.067c-4.265,4.663-6.639,10.748-6.658,17.067V196.3c0.02,6.319,2.394,12.404,6.658,17.067
				c-4.265,4.663-6.639,10.748-6.658,17.067v41.588c-2.621-0.399-5.266-0.614-7.917-0.644c-0.163-0.009-0.301-0.094-0.467-0.094
				c-2.083,0.006-4.164,0.125-6.233,0.356c-0.775,0.082-1.556,0.241-2.335,0.353c-1.634,0.246-3.246,0.553-4.831,0.934
				c-0.977,0.217-1.945,0.302-2.925,0.566c-19.111,5.324-33.862,20.546-38.583,39.814c-0.383,1.463-0.719,2.941-0.983,4.446
				c-0.077,0.445-0.225,0.866-0.292,1.314c-25.47,1.865-46.892,19.816-53.183,44.567c-6.56,26.038,5.4,53.205,29.033,65.95
				c3.56,21.563,22.279,37.33,44.133,37.175c7.604,0.015,15.087-1.899,21.749-5.563c4.612,6.608,10.363,12.345,16.982,16.941
				c0.383,0.268,0.773,0.524,1.161,0.784c1.784,1.187,3.625,2.291,5.522,3.311c0.41,0.22,0.805,0.459,1.219,0.671
				c2.258,1.162,4.578,2.199,6.95,3.105c0.306,0.116,0.625,0.199,0.933,0.311c2.029,0.736,4.101,1.377,6.215,1.923
				c0.742,0.193,1.49,0.358,2.242,0.526c1.8,0.405,3.625,0.733,5.477,0.996c0.748,0.107,1.487,0.23,2.243,0.313
				c2.567,0.295,5.148,0.45,7.732,0.464c2.347-0.011,4.691-0.142,7.025-0.391c0.835-0.084,1.657-0.213,2.486-0.327
				c1.439-0.2,2.866-0.435,4.278-0.722c1.021-0.205,2.034-0.42,3.042-0.669c1.125-0.282,2.228-0.616,3.333-0.952
				c4.455-1.344,8.761-3.138,12.853-5.353c0.486-0.263,0.974-0.521,1.453-0.795c1.365-0.782,2.7-1.604,4.008-2.478
				c0.439-0.292,0.86-0.603,1.292-0.905c2.849-1.976,5.544-4.166,8.06-6.552l0.037-0.032c0.823-0.79,1.595-1.633,2.38-2.466
				c0.868-0.914,1.719-1.842,2.535-2.803c0.322-0.381,0.685-0.717,1-1.106c3.879,1.093,7.891,1.644,11.921,1.637
				c0.225,0.018,0.417,0.13,0.646,0.13c0.514,0,0.992-0.133,1.5-0.15c2.105-0.069,4.202-0.279,6.279-0.628
				c1.146-0.201,2.244-0.494,3.358-0.78c1.511-0.383,3.002-0.841,4.468-1.373c0.897-0.332,1.796-0.635,2.664-1.021
				c2.099-0.923,4.122-2.01,6.05-3.251c0.352-0.226,0.707-0.436,1.052-0.671c0.38-0.258,0.792-0.472,1.163-0.742l17.417,44.633
				c1.496,3.802,4.517,6.804,8.329,8.277s8.066,1.282,11.73-0.527l29.325-14.45c11.128-5.5,16.934-17.999,13.958-30.05
				l-8.158-32.142c0.157-0.048,0.297-0.131,0.454-0.181c2.79-0.909,5.518-1.995,8.169-3.252c0.888-0.411,1.775-0.811,2.641-1.258
				c1.48-0.77,2.904-1.622,4.318-2.493h83.76v17.067c0.012,9.421,7.646,17.055,17.067,17.067H470.4
				c9.421-0.012,17.054-7.646,17.067-17.067V426.7c14.132-0.015,25.585-11.468,25.6-25.6v-68.267
				c-0.02-6.319-2.394-12.404-6.658-17.067c4.265-4.663,6.639-10.748,6.658-17.067v-68.267c-0.02-6.319-2.394-12.404-6.658-17.067
				c4.265-4.663,6.639-10.748,6.658-17.067v-68.267c-0.02-6.319-2.394-12.404-6.658-17.067c4.265-4.663,6.639-10.748,6.658-17.067
				V25.633z M350.183,377.321c-0.071,0.42-0.116,0.847-0.196,1.264c-0.484,2.44-1.148,4.842-1.988,7.183
				c-0.224,0.63-0.451,1.258-0.7,1.877c-0.847,2.128-1.838,4.196-2.967,6.189c-0.413,0.724-0.866,1.42-1.312,2.121
				c-1.055,1.672-2.207,3.281-3.45,4.819c-0.666,0.819-1.376,1.598-2.092,2.374c-1.15,1.25-2.362,2.442-3.631,3.571
				c-0.757,0.675-1.512,1.35-2.309,1.981c-1.637,1.285-3.351,2.47-5.132,3.547c-0.654,0.4-1.303,0.809-1.977,1.182
				c-2.154,1.183-4.39,2.21-6.69,3.075c-0.478,0.182-0.96,0.354-1.445,0.521c-5.519,1.906-11.313,2.896-17.152,2.931
				c-4.713,0-8.533,3.82-8.533,8.533c0,4.713,3.82,8.533,8.533,8.533c1.302,0,2.575-0.122,3.86-0.193l8.473,33.393
				c1.07,4.246-1.01,8.657-4.966,10.533l-26.925,13.275l-19.72-50.54c3.61-6.397,5.532-13.607,5.585-20.952
				c0-4.713-3.82-8.533-8.533-8.533c-4.713,0-8.533,3.82-8.533,8.533c-0.023,6.939-2.745,13.598-7.589,18.567
				c-6.121,6.07-14.624,9.106-23.206,8.285c1.878-4.248,3.306-8.682,4.261-13.228c0.953-4.616-2.017-9.131-6.633-10.083
				c-4.616-0.953-9.131,2.017-10.083,6.633c-1.78,8.56-5.765,16.507-11.56,23.053c-0.235,0.269-0.501,0.506-0.742,0.77
				c-1.612,1.759-3.344,3.405-5.183,4.925c-0.353,0.293-0.71,0.581-1.071,0.864c-4.32,3.389-9.148,6.077-14.304,7.965
				c-0.339,0.122-0.69,0.213-1.031,0.328c-2.202,0.742-4.45,1.336-6.731,1.778c-0.648,0.127-1.294,0.262-1.95,0.365
				c-2.706,0.451-5.443,0.689-8.185,0.71c-2.949-0.025-5.891-0.295-8.796-0.807c-0.866-0.145-1.712-0.349-2.565-0.535
				c-2.035-0.445-4.042-1.011-6.01-1.696c-0.832-0.29-1.672-0.557-2.487-0.888c-2.348-0.947-4.623-2.065-6.807-3.344
				c-0.496-0.293-0.979-0.599-1.465-0.909c-1.987-1.268-3.885-2.672-5.679-4.201c-0.933-0.795-1.802-1.665-2.677-2.528
				c-1.026-1.005-2.007-2.051-2.944-3.138c-0.937-1.095-1.86-2.206-2.708-3.386c-0.696-0.964-1.302-1.993-1.93-3.007
				c-0.807-1.306-1.653-2.579-2.349-3.97l-0.04-0.047c-2.731-5.44-4.451-11.331-5.077-17.386c-0.474-4.69-4.66-8.107-9.35-7.633
				c-4.69,0.474-8.107,4.66-7.633,9.35c0.59,5.694,1.901,11.291,3.901,16.655c-4.203,2.411-8.964,3.681-13.809,3.686
				c-14.699,0.167-26.895-11.326-27.6-26.009c-0.01-0.259-0.104-0.496-0.138-0.75c0.006-0.137,0.079-0.253,0.079-0.392
				c0.024-9.132,4.661-17.634,12.325-22.6c2.549-1.67,4.012-4.573,3.84-7.615c-0.172-3.042-1.954-5.761-4.675-7.133
				c-2.721-1.372-5.967-1.188-8.515,0.482c-8.661,5.669-15.055,14.202-18.065,24.107c-12.325-10.232-17.696-26.622-13.819-42.165
				c4.446-17.144,19.137-29.678,36.767-31.369c1.069,6.786,3.389,13.314,6.842,19.252c1.542,2.629,4.37,4.235,7.418,4.214
				c3.048-0.021,5.853-1.667,7.358-4.317c1.506-2.65,1.483-5.902-0.059-8.531c-4.793-8.121-6.401-17.732-4.513-26.971
				c0.071-0.372,0.19-0.728,0.271-1.097c3.468-14.613,14.943-25.982,29.586-29.317c0.982-0.203,1.96-0.381,2.934-0.519
				c6.299-0.966,12.737-0.468,18.813,1.456c-2.043,6.174-3.087,12.635-3.092,19.139c0,4.713,3.82,8.533,8.533,8.533
				s8.533-3.82,8.533-8.533c0.018-11.851,4.768-23.204,13.196-31.536c0.204-0.204,0.419-0.393,0.627-0.592
				c1.896-1.831,3.946-3.495,6.127-4.974c0.128-0.086,0.247-0.183,0.376-0.267c2.389-1.579,4.919-2.931,7.559-4.039
				c0.112-0.047,0.233-0.078,0.347-0.124c2.375-0.949,4.825-1.698,7.324-2.24c0.621-0.138,1.241-0.278,1.871-0.391
				c14.69-2.852,29.84,1.745,40.469,12.279c-6.396,6.606-11.158,14.618-13.904,23.393c-1.4,4.501,1.11,9.285,5.608,10.692
				c0.824,0.253,1.68,0.382,2.542,0.383c3.734-0.001,7.035-2.428,8.15-5.992c2.596-8.302,7.716-15.589,14.646-20.846
				c0.05-0.036,0.115-0.042,0.163-0.079c5.359-4.088,11.617-6.836,18.253-8.015c0.27-0.048,0.52-0.147,0.791-0.191
				c2.319-0.374,4.665-0.562,7.014-0.561c16.624-0.098,31.775,9.517,38.763,24.602c-14.706,0.031-29.016,4.773-40.829,13.532
				c-3.788,2.807-4.583,8.154-1.775,11.942c2.807,3.788,8.154,4.583,11.942,1.775c8.994-6.676,19.908-10.26,31.108-10.217
				c3.41,0.002,6.811,0.336,10.156,0.996c2.557,0.519,5.071,1.229,7.521,2.125c0.533,0.191,1.073,0.368,1.598,0.576
				c2.258,0.898,4.45,1.954,6.56,3.159c0.567,0.322,1.122,0.659,1.675,1.002c2.039,1.252,3.989,2.643,5.835,4.164
				c0.415,0.343,0.8,0.718,1.202,1.075c1.841,1.608,3.565,3.344,5.16,5.195c0.122,0.144,0.248,0.284,0.369,0.429
				c1.632,1.985,3.112,4.09,4.429,6.296c0.194,0.322,0.406,0.633,0.594,0.96c1.265,2.219,2.359,4.531,3.273,6.916
				c0.156,0.401,0.307,0.805,0.452,1.211c0.877,2.437,1.563,4.939,2.053,7.482c0.07,0.365,0.112,0.739,0.172,1.106
				c0.475,2.722,0.723,5.479,0.742,8.242C350.912,371.806,350.661,374.581,350.183,377.321z M436.266,443.766V426.7h34.142
				l0.009,17.067H436.266z M496,401.1c-0.003,4.711-3.822,8.53-8.533,8.533H354.423c0.427-0.566,0.755-1.197,1.164-1.776
				c1.507-2.108,2.892-4.301,4.148-6.567c0.491-0.902,0.901-1.84,1.351-2.765c0.998-2.035,1.892-4.12,2.678-6.246
				c0.297-0.809,0.63-1.594,0.897-2.417c0.928-2.874,1.66-5.808,2.191-8.782c0.134-0.743,0.237-1.489,0.347-2.24
				c0.508-3.248,0.776-6.529,0.802-9.816c0-2.147-0.127-4.268-0.327-6.371c-0.068-0.716-0.18-1.417-0.271-2.127
				c-0.175-1.377-0.377-2.745-0.635-4.098c-0.154-0.814-0.331-1.618-0.516-2.421c-0.286-1.244-0.608-2.475-0.964-3.692
				c-0.229-0.789-0.452-1.577-0.71-2.354c-0.435-1.317-0.929-2.605-1.443-3.887c-0.245-0.611-0.461-1.236-0.724-1.839
				c-0.806-1.852-1.691-3.662-2.654-5.431c-0.183-0.335-0.396-0.651-0.583-0.983c-0.835-1.469-1.715-2.909-2.654-4.31
				c-0.314-0.466-0.648-0.914-0.973-1.371c-0.898-1.271-1.838-2.511-2.819-3.72c-0.327-0.4-0.658-0.797-0.994-1.19
				c-0.263-0.308-0.508-0.628-0.777-0.931h136.51c4.712,0.003,8.53,3.822,8.533,8.533V401.1z M496,298.7
				c-0.003,4.712-3.822,8.53-8.533,8.533H327.883c-0.433-0.196-0.885-0.362-1.323-0.55c-0.454-0.196-0.91-0.383-1.369-0.569
				c-1.506-0.608-3.04-1.164-4.602-1.666c-0.523-0.171-1.042-0.349-1.571-0.507c-0.399-0.119-0.782-0.271-1.185-0.383
				c-6.952-26.215-30.78-44.391-57.9-44.167c-2.971,0.018-5.936,0.252-8.873,0.701c-0.982,0.143-1.929,0.372-2.896,0.562
				c-1.859,0.366-3.697,0.791-5.503,1.33c-1.216,0.358-2.401,0.761-3.585,1.194c-1.353,0.501-2.676,1.063-3.991,1.662
				c-1.452,0.653-2.888,1.312-4.277,2.075c-0.146,0.081-0.304,0.135-0.45,0.218c-13.64-14.414-33.29-21.532-52.996-19.198
				c-0.881,0.098-1.741,0.261-2.612,0.395c-1.417,0.221-2.824,0.463-4.208,0.776c-1.107,0.246-2.196,0.532-3.282,0.836
				c-1.036,0.294-2.055,0.618-3.069,0.962c-1.269,0.426-2.529,0.859-3.763,1.364c-0.535,0.221-1.049,0.48-1.577,0.715
				c-4.907,2.163-9.513,4.953-13.703,8.299c-0.271,0.216-0.548,0.423-0.816,0.644c-1.29,1.066-2.535,2.185-3.735,3.355
				c-0.397,0.384-0.777,0.782-1.165,1.177c-0.606,0.622-1.249,1.203-1.831,1.852v-37.875c0.003-4.712,3.822-8.53,8.533-8.533
				h341.333c4.712,0.003,8.53,3.822,8.533,8.533V298.7z M496,196.3c-0.003,4.712-3.822,8.53-8.533,8.533H146.133
				c-4.711-0.003-8.53-3.822-8.533-8.533v-68.267c0.003-4.711,3.822-8.53,8.533-8.533h341.333c4.712,0.003,8.53,3.822,8.533,8.533
				V196.3z M496,93.9c-0.003,4.711-3.822,8.53-8.533,8.533H146.133c-4.711-0.003-8.53-3.822-8.533-8.533V25.633
				c0.003-4.711,3.822-8.53,8.533-8.533h341.333c4.712,0.003,8.53,3.822,8.533,8.533V93.9z"/>
			<path d="M402.133,34.166c-2.264-0.001-4.435,0.897-6.035,2.498c-1.601,1.601-2.499,3.772-2.498,6.035v34.133
				c0,4.713,3.821,8.533,8.533,8.533s8.533-3.82,8.533-8.533V42.7c0.001-2.264-0.897-4.435-2.498-6.035
				C406.568,35.064,404.397,34.165,402.133,34.166z"/>
			<path d="M436.266,34.166c-2.264-0.001-4.435,0.897-6.035,2.498s-2.499,3.772-2.498,6.035v34.133c0,4.713,3.82,8.533,8.533,8.533
				s8.533-3.82,8.533-8.533V42.7c0.001-2.264-0.897-4.435-2.498-6.035S438.53,34.165,436.266,34.166z"/>
			<path d="M470.4,34.166c-2.264-0.001-4.435,0.897-6.035,2.498c-1.601,1.601-2.499,3.772-2.498,6.035v34.133
				c0,4.713,3.82,8.533,8.533,8.533s8.533-3.82,8.533-8.533V42.7c0.001-2.264-0.897-4.435-2.498-6.035
				C474.834,35.064,472.663,34.165,470.4,34.166z"/>
			<path d="M402.133,238.966c-2.264-0.001-4.435,0.897-6.035,2.498c-1.601,1.601-2.499,3.772-2.498,6.035v34.133
				c0,4.713,3.821,8.533,8.533,8.533s8.533-3.82,8.533-8.533V247.5c0.001-2.264-0.897-4.435-2.498-6.035
				C406.568,239.864,404.397,238.965,402.133,238.966z"/>
			<path d="M436.266,238.966c-2.264-0.001-4.435,0.897-6.035,2.498s-2.499,3.772-2.498,6.035v34.133c0,4.713,3.82,8.533,8.533,8.533
				s8.533-3.82,8.533-8.533V247.5c0.001-2.264-0.897-4.435-2.498-6.035S438.53,238.965,436.266,238.966z"/>
			<path d="M470.4,238.966c-2.264-0.001-4.435,0.897-6.035,2.498c-1.601,1.601-2.499,3.772-2.498,6.035v34.133
				c0,4.713,3.82,8.533,8.533,8.533s8.533-3.82,8.533-8.533V247.5c0.001-2.264-0.897-4.435-2.498-6.035
				C474.834,239.864,472.663,238.965,470.4,238.966z"/>
			<path d="M402.133,341.366c-2.264-0.001-4.435,0.897-6.035,2.498c-1.601,1.601-2.499,3.772-2.498,6.035v34.133
				c0,4.713,3.821,8.533,8.533,8.533s8.533-3.82,8.533-8.533V349.9c0.001-2.264-0.897-4.435-2.498-6.035
				C406.568,342.264,404.397,341.365,402.133,341.366z"/>
			<path d="M436.266,341.366c-2.264-0.001-4.435,0.897-6.035,2.498c-1.601,1.601-2.499,3.772-2.498,6.035v34.133
				c0,4.713,3.82,8.533,8.533,8.533s8.533-3.82,8.533-8.533V349.9c0.001-2.264-0.897-4.435-2.498-6.035
				C440.701,342.264,438.53,341.365,436.266,341.366z"/>
			<path d="M470.4,341.366c-2.264-0.001-4.435,0.897-6.035,2.498c-1.601,1.601-2.499,3.772-2.498,6.035v34.133
				c0,4.713,3.82,8.533,8.533,8.533s8.533-3.82,8.533-8.533V349.9c0.001-2.264-0.897-4.435-2.498-6.035
				C474.834,342.264,472.663,341.365,470.4,341.366z"/>
			<path d="M180.266,136.566c-14.138,0-25.6,11.462-25.6,25.6s11.461,25.6,25.6,25.6s25.6-11.461,25.6-25.6
				C205.851,148.034,194.398,136.582,180.266,136.566z M180.266,170.7c-4.713,0-8.533-3.82-8.533-8.533s3.82-8.533,8.533-8.533
				s8.533,3.82,8.533,8.533C188.796,166.878,184.978,170.696,180.266,170.7z"/>
			<path d="M248.533,136.566c-14.138,0-25.6,11.462-25.6,25.6s11.461,25.6,25.6,25.6c14.139,0,25.6-11.461,25.6-25.6
				C274.118,148.034,262.665,136.582,248.533,136.566z M248.533,170.7c-4.713,0-8.533-3.82-8.533-8.533s3.82-8.533,8.533-8.533
				s8.533,3.82,8.533,8.533C257.063,166.878,253.244,170.696,248.533,170.7z"/>
			<path d="M402.133,136.566c-2.264-0.001-4.435,0.897-6.035,2.498c-1.601,1.601-2.499,3.772-2.498,6.035v34.133
				c0,4.713,3.821,8.533,8.533,8.533s8.533-3.82,8.533-8.533V145.1c0.001-2.264-0.897-4.435-2.498-6.035
				C406.568,137.464,404.397,136.565,402.133,136.566z"/>
			<path d="M436.266,136.566c-2.264-0.001-4.435,0.897-6.035,2.498s-2.499,3.772-2.498,6.035v34.133c0,4.713,3.82,8.533,8.533,8.533
				s8.533-3.82,8.533-8.533V145.1c0.001-2.264-0.897-4.435-2.498-6.035S438.53,136.565,436.266,136.566z"/>
			<path d="M470.4,136.566c-2.264-0.001-4.435,0.897-6.035,2.498c-1.601,1.601-2.499,3.772-2.498,6.035v34.133
				c0,4.713,3.82,8.533,8.533,8.533s8.533-3.82,8.533-8.533V145.1c0.001-2.264-0.897-4.435-2.498-6.035
				C474.834,137.464,472.663,136.565,470.4,136.566z"/>
		</g>
	</g>
</g>
<g>
</g>
<g>
</g>
<g>
</g>
<g>
</g>
<g>
</g>
<g>
</g>
<g>
</g>
<g>
</g>
<g>
</g>
<g>
</g>
<g>
</g>
<g>
</g>
<g>
</g>
<g>
</g>
<g>
</g>
</svg>
