<?xml version="1.0" encoding="iso-8859-1"?>
<!-- Generator: Adobe Illustrator 19.0.0, SVG Export Plug-In . SVG Version: 6.00 Build 0)  -->
<svg version="1.1" id="Capa_1" xmlns="http://www.w3.org/2000/svg" xmlns:xlink="http://www.w3.org/1999/xlink" x="0px" y="0px"
	 viewBox="0 0 511.752 511.752" style="enable-background:new 0 0 511.752 511.752;" xml:space="preserve">
<g>
	<g>
		<path d="M490.239,290.093c-12.907-11.412-29.629-17.558-46.854-17.223c0.4-34.365-8.363-68.215-25.387-98.069
			c-45.25-72.433-109.617-56.15-144.2-47.417l-2.583,0.658c-16.148,4.597-32.765,7.345-49.533,8.192
			c-0.24,0.017-0.481,0.02-0.722,0.01c-0.855-6.014-2.509-11.888-4.918-17.465l28.509-30.792c0.151,0.123,0.341,0.217,0.493,0.339
			c0.045,0.047,0.058,0.111,0.105,0.158c0.817,0.816,1.793,1.457,2.866,1.883c12.833,8.125,27.802,12.225,42.984,11.775
			c8.963-0.035,17.892-1.106,26.608-3.191c39.117-9.242,78.825-75.35,83.225-82.859c1.478-2.528,1.557-5.638,0.21-8.238
			c-1.348-2.6-3.934-4.328-6.852-4.578l-0.395-0.034c-1.01-0.275-2.062-0.359-3.103-0.249c-31.498-2.514-63.103-3.418-94.693-2.709
			c-21.313,0.605-41.227,10.753-54.242,27.642c-9.197,10.942-13.05,25.408-10.517,39.475c0.6,2.443,1.46,4.814,2.565,7.074
			l-26.948,29.106c-2.421-3.098-5.106-5.98-8.025-8.614l-18.35-16.308c-2.278-2.024-5.462-2.68-8.354-1.72
			c-2.892,0.96-5.052,3.39-5.667,6.375s0.41,6.07,2.688,8.095l18.342,16.308c4.197,3.745,7.749,8.156,10.511,13.056l0.036,0.07
			c2.397,4.252,4.175,8.824,5.279,13.579c-7.826-1.194-18.104-3.14-31.043-6.38l-2.583-0.65
			c-34.592-8.75-98.967-25.008-144.208,47.417c-44.233,70.892-24.017,192.267,8.767,241.442
			c25.558,38.35,60.65,72.108,91.608,88.108c9.435,4.826,19.886,7.331,30.483,7.308c8.589-0.009,17.102-1.608,25.108-4.717
			c12.785-5.458,26.415-8.672,40.292-9.5c13.871,0.825,27.495,4.036,40.275,9.492c18.065,7.114,38.308,6.171,55.633-2.592
			c9.392-4.977,18.315-10.793,26.66-17.377c12.909,9.47,25.292,17.491,35.131,23.485c2.73,1.656,6.154,1.656,8.883,0
			c29.858-18.192,83.042-54.75,103.642-95.092C518.972,366.043,518.272,315.701,490.239,290.093z M313.681,82.335L313.681,82.335
			c-15.831,4.175-32.542,3.592-48.043-1.677c11.864-10.936,26.105-18.969,41.601-23.465c20.93-3.761,41.089-10.973,59.655-21.342
			C351.616,56.071,331.169,78.205,313.681,82.335z M255.331,38.26c9.998-12.735,25.118-20.396,41.3-20.925
			c6.375-0.233,12.983-0.333,19.625-0.333c16.635,0,33.374,0.637,46.98,1.347c-18.493,10.948-38.804,18.48-59.964,22.236
			c-19.494,5.635-37.323,15.931-51.949,29.997c-1.639-2.104-2.821-4.527-3.468-7.114C246.599,54.381,249.324,45.193,255.331,38.26
			L255.331,38.26z M309.831,489.176c-12.992,6.533-28.157,7.203-41.675,1.842c-14.721-6.262-30.437-9.863-46.417-10.633
			c-15.985,0.773-31.707,4.376-46.433,10.642c-13.504,5.358-28.655,4.688-41.633-1.842c-28.517-14.742-61.175-46.317-85.225-82.4
			c-30.7-46.05-47.783-159.95-8.483-222.942c38.65-61.867,90.95-48.65,125.542-39.908l2.617,0.658
			c12.042,3.088,24.247,5.503,36.558,7.232v34.951c-9.45-0.555-18.257-4.97-24.358-12.208c-1.548-2.626-4.38-4.226-7.428-4.199
			s-5.85,1.68-7.35,4.333c-1.5,2.654-1.47,5.906,0.078,8.532c7.608,12.917,26.292,21.267,47.592,21.267
			c21.3,0,39.983-8.35,47.592-21.267c2.393-4.059,1.043-9.29-3.017-11.683c-4.059-2.393-9.29-1.043-11.683,3.017
			c-6.101,7.239-14.908,11.653-24.358,12.208v-33.477c18.144-0.867,36.131-3.788,53.617-8.706l2.617-0.658
			c34.608-8.75,86.883-21.975,125.533,39.9c15.552,27.813,23.451,59.253,22.891,91.114c-17.075,4.35-32.107,14.499-42.524,28.711
			c-11.52-15.824-28.742-26.549-48.025-29.908c-15.688-2.663-31.817-0.037-45.85,7.466c-0.055-9.386-7.673-16.969-17.059-16.983
			v-17.067c0-4.713-3.821-8.533-8.533-8.533s-8.533,3.82-8.533,8.533v17.067h-25.6v-17.067c0-4.713-3.82-8.533-8.533-8.533
			s-8.533,3.82-8.533,8.533v17.067h-25.6v-17.067c0-4.713-3.82-8.533-8.533-8.533s-8.533,3.82-8.533,8.533v17.067
			c-9.421,0.012-17.054,7.646-17.067,17.067h-17.067c-4.713,0-8.533,3.82-8.533,8.533s3.82,8.533,8.533,8.533h17.067v25.6h-17.067
			c-4.713,0-8.533,3.821-8.533,8.533c0,4.713,3.82,8.533,8.533,8.533h17.067v25.6h-17.067c-4.713,0-8.533,3.82-8.533,8.533
			s3.82,8.533,8.533,8.533h17.067c0.012,9.421,7.646,17.055,17.067,17.067v17.067c0,4.713,3.82,8.533,8.533,8.533
			s8.533-3.82,8.533-8.533v-17.067h25.6v17.067c0,4.713,3.82,8.533,8.533,8.533s8.533-3.82,8.533-8.533v-17.067h38.395
			c2.099,4.791,4.381,9.591,7.005,14.383c13.917,23.816,32.487,44.586,54.603,61.071C323.82,481.075,316.98,485.406,309.831,489.176
			z M262.277,383.701h-91.73v-102.4h102.4v13.505C254.847,315.47,251.295,348.436,262.277,383.701z M476.881,407.385
			c-18.333,35.9-68.15,70.233-93,85.758c-24.85-15.525-74.675-49.867-93.117-85.975c-22.539-41.175-23.732-81.997-3.365-102.769
			l0.214-0.222c0.484-0.486,0.918-1.02,1.426-1.484c9.679-8.432,22.123-13.006,34.958-12.85c3.035,0.001,6.065,0.252,9.058,0.75
			c18.789,3.588,34.822,15.749,43.342,32.875c1.631,2.554,4.453,4.1,7.483,4.1c3.031,0,5.852-1.546,7.483-4.1
			c8.52-17.126,24.553-29.287,43.342-32.875c15.744-2.759,31.895,1.681,44.017,12.1
			C500.847,322.893,500.148,364.877,476.881,407.385z"/>
	</g>
</g>
<g>
</g>
<g>
</g>
<g>
</g>
<g>
</g>
<g>
</g>
<g>
</g>
<g>
</g>
<g>
</g>
<g>
</g>
<g>
</g>
<g>
</g>
<g>
</g>
<g>
</g>
<g>
</g>
<g>
</g>
</svg>
