<?xml version="1.0" encoding="iso-8859-1"?>
<!-- Generator: Adobe Illustrator 19.0.0, SVG Export Plug-In . SVG Version: 6.00 Build 0)  -->
<svg version="1.1" id="Capa_1" xmlns="http://www.w3.org/2000/svg" xmlns:xlink="http://www.w3.org/1999/xlink" x="0px" y="0px"
	 viewBox="0 0 512 512" style="enable-background:new 0 0 512 512;" xml:space="preserve">
<g>
	<g>
		<path d="M404.428,221.975l-67.058-75.283c-6.065-6.504-14.566-10.185-23.458-10.159c-5.337,0.057-10.576,1.435-15.25,4.011
			v-21.078c-0.021-6.069-3.272-11.667-8.533-14.692V79.2c0.03-25.685-12.811-49.678-34.2-63.9l-20.8-13.867
			c-2.618-1.746-5.985-1.909-8.76-0.424c-2.775,1.485-4.507,4.377-4.507,7.524v96.242c-5.261,3.025-8.513,8.623-8.533,14.692v21.078
			c-12.854-7.163-28.946-4.546-38.867,6.322l-66.775,74.967c-13.493,14.614-17.466,35.646-10.233,54.175l37.483,95.267
			c7.51,19.04,24.183,32.957,44.258,36.942V435.2c0.045,15.522,10.568,29.054,25.6,32.922v35.345
			c-0.001,2.264,0.897,4.435,2.498,6.035c1.601,1.601,3.772,2.499,6.035,2.498h85.333c2.264,0.001,4.435-0.897,6.035-2.498
			c1.601-1.601,2.499-3.772,2.498-6.035v-35.345c15.032-3.867,25.555-17.4,25.6-32.922v-26.983
			c20.079-3.987,36.755-17.907,44.267-36.95l37.475-95.258C421.762,257.545,417.84,236.578,404.428,221.975z M303.161,158.042
			c6.108-5.694,15.602-5.617,21.617,0.175l67.025,75.25c1.531,1.681,2.888,3.513,4.052,5.467h-41.693
			c-2.547-6.319-6.352-12.055-11.183-16.858l-39.817-42.183C297.178,173.837,297.178,164.096,303.161,158.042z M238.928,24.475
			l7.533,5.025c16.636,11.062,26.623,29.722,26.6,49.7l0,23.2h-34.133V24.475z M230.395,119.467h51.2v96.483l-51.2,19.2V119.467z
			 M281.595,268.317l0,13.283c0.013,13.032-9.776,23.989-22.727,25.441c-12.951,1.451-24.922-7.067-27.794-19.779L281.595,268.317z
			 M230.395,253.383l51.2-19.2v15.9l-51.2,19.2V253.383z M255.995,324.267c23.553-0.028,42.639-19.114,42.667-42.667v-81.614
			l32.125,34.031c4.093,4.08,7.09,9.128,8.714,14.674c0.101,0.868,0.337,1.714,0.7,2.509c1.378,6.151,1.054,12.561-0.939,18.541
			l-14.075,41.783c-6.04,17.689-22.708,29.539-41.4,29.433h-55.583c-18.695,0.104-35.366-11.749-41.408-29.442l-14.067-41.775
			c-1.999-5.994-2.314-12.423-0.91-18.584c0.309-0.711,0.519-1.461,0.623-2.23c1.661-5.727,4.753-10.937,8.986-15.136l31.9-33.81
			V281.6C213.355,305.153,232.442,324.239,255.995,324.267z M120.311,233.325l66.742-74.933c2.847-3.064,6.843-4.801,11.025-4.792
			c4.03-0.001,7.896,1.597,10.75,4.442c6.016,6.124,5.949,15.959-0.15,22l-39.442,41.808c-4.907,4.868-8.777,10.679-11.376,17.083
			h-41.702C117.35,236.929,118.741,235.05,120.311,233.325z M150.811,365.017l-37.475-95.258c-1.706-4.379-2.499-9.061-2.329-13.758
			h43.054c-0.391,6.498,0.457,13.011,2.5,19.191l14.058,41.767c3.125,9.254,8.47,17.601,15.568,24.31l-25.931,38.134
			C156.178,375.286,152.966,370.395,150.811,365.017z M290.128,494.933h-68.267v-25.6h68.267V494.933z M315.728,435.2
			c-0.012,9.421-7.646,17.054-17.067,17.067h-85.333c-9.421-0.012-17.054-7.646-17.067-17.067v-25.6h119.467V435.2z
			 M320.478,392.533H191.511c-5.891-0.022-11.718-1.224-17.136-3.535l25.721-37.826c8.685,4.5,18.324,6.85,28.106,6.852h55.583
			c9.782-0.002,19.421-2.352,28.106-6.852l25.721,37.824C332.195,391.309,326.369,392.511,320.478,392.533z M398.653,269.758
			l-37.467,95.25c-2.158,5.381-5.372,10.275-9.454,14.393l-25.93-38.133c7.095-6.707,12.437-15.051,15.559-24.302l14.067-41.775
			c2.042-6.181,2.893-12.693,2.509-19.191h43.051C401.153,260.697,400.359,265.379,398.653,269.758z"/>
	</g>
</g>
<g>
</g>
<g>
</g>
<g>
</g>
<g>
</g>
<g>
</g>
<g>
</g>
<g>
</g>
<g>
</g>
<g>
</g>
<g>
</g>
<g>
</g>
<g>
</g>
<g>
</g>
<g>
</g>
<g>
</g>
</svg>
