<?xml version="1.0" encoding="iso-8859-1"?>
<!-- Generator: Adobe Illustrator 19.0.0, SVG Export Plug-In . SVG Version: 6.00 Build 0)  -->
<svg version="1.1" id="Capa_1" xmlns="http://www.w3.org/2000/svg" xmlns:xlink="http://www.w3.org/1999/xlink" x="0px" y="0px"
	 viewBox="0 0 512.001 512.001" style="enable-background:new 0 0 512.001 512.001;" xml:space="preserve">
<g>
	<g>
		<g>
			<path d="M421.493,221.976l-67.063-75.283c-6.062-6.502-14.56-10.184-23.45-10.159c-5.338,0.057-10.579,1.435-15.254,4.011V51.201
				h8.533c6.757,0.053,13.247-2.635,17.987-7.45c4.901-4.763,7.65-11.317,7.613-18.15c-0.015-14.132-11.468-25.585-25.6-25.6
				H187.727c-6.757-0.053-13.247,2.635-17.987,7.45c-4.901,4.763-7.65,11.316-7.613,18.15c0.015,14.132,11.468,25.585,25.6,25.6
				h8.533v89.345c-4.675-2.576-9.916-3.954-15.254-4.011c-8.969-0.01-17.531,3.738-23.608,10.333l-66.775,74.967
				c-13.495,14.613-17.468,35.646-10.233,54.175l37.479,95.275c9.136,23.23,31.614,38.453,56.575,38.317h4.75v25.6
				c0.045,15.521,10.568,29.054,25.6,32.922v35.345c-0.001,2.263,0.898,4.434,2.499,6.035c1.6,1.6,3.771,2.499,6.035,2.499h85.333
				c2.263,0.001,4.434-0.898,6.035-2.499c1.6-1.6,2.499-3.771,2.499-6.035v-35.345c15.032-3.868,25.555-17.4,25.6-32.922v-25.6h4.75
				c24.967,0.136,47.448-15.095,56.579-38.333l37.479-95.258C438.828,257.546,434.905,236.579,421.493,221.976z M320.222,158.042
				c6.111-5.694,15.607-5.617,21.625,0.175l67.021,75.25c1.531,1.681,2.888,3.513,4.052,5.467h-41.694
				c-2.547-6.319-6.351-12.055-11.182-16.858l-39.821-42.183C314.243,173.836,314.243,164.099,320.222,158.042z M187.727,34.134
				c-4.711-0.005-8.529-3.823-8.533-8.533c-0.006-2.301,0.939-4.503,2.612-6.083c1.56-1.586,3.697-2.47,5.921-2.45H324.26
				c4.711,0.005,8.529,3.822,8.533,8.533c0.006,2.302-0.939,4.503-2.612,6.083c-1.56,1.586-3.697,2.47-5.921,2.45h-17.067
				c-2.263-0.001-4.434,0.898-6.035,2.499c-1.6,1.6-2.499,3.771-2.499,6.035v37.482c-13.559,6.945-20.544,8.386-43.938-2.557
				c-12.916-6.003-27.3-8.112-41.396-6.07V42.667c0.001-2.263-0.898-4.434-2.499-6.035c-1.6-1.6-3.771-2.499-6.035-2.499H187.727z
				 M298.66,98.856v165.678c0,23.564-19.103,42.667-42.667,42.667s-42.667-19.102-42.667-42.667V88.767
				c11.564-2.207,23.53-0.702,34.188,4.301c10.411,5.628,21.925,8.918,33.738,9.641C287.255,102.607,293.175,101.297,298.66,98.856z
				 M255.993,324.267c32.974-0.038,59.695-26.759,59.733-59.733v-64.551l32.125,34.034c4.085,4.071,7.078,9.105,8.703,14.638
				c0.101,0.882,0.341,1.743,0.711,2.551c1.375,6.15,1.049,12.558-0.943,18.536l-14.067,41.783
				c-6.044,17.69-22.715,29.54-41.408,29.433h-89.713c-18.695,0.106-35.366-11.748-41.404-29.442l-14.067-41.775
				c-1.999-5.992-2.316-12.418-0.916-18.577c0.319-0.727,0.534-1.495,0.638-2.281c1.661-5.709,4.746-10.902,8.965-15.092
				l31.908-33.816v64.557C196.298,297.508,223.019,324.229,255.993,324.267z M103.239,233.326l66.742-74.933
				c2.848-3.062,6.843-4.799,11.025-4.792c4.032,0,7.9,1.597,10.758,4.442c6.012,6.125,5.945,15.957-0.15,22l-39.454,41.808
				c-4.904,4.869-8.772,10.68-11.37,17.083H99.089C100.28,236.93,101.67,235.051,103.239,233.326z M133.743,365.017l-37.471-95.258
				c-1.707-4.379-2.501-9.061-2.331-13.758h43.05c-0.392,6.498,0.456,13.01,2.497,19.191l14.067,41.767
				c3.124,9.253,8.468,17.599,15.565,24.308l-25.932,38.134C139.11,375.286,135.898,370.395,133.743,365.017z M290.127,494.934
				H221.86v-25.6h68.267V494.934z M315.727,435.201c-0.011,9.421-7.646,17.056-17.067,17.067h-85.333
				c-9.421-0.011-17.056-7.645-17.067-17.067v-25.6h119.467V435.201z M337.543,392.534h-163.1
				c-5.891-0.022-11.717-1.224-17.135-3.536l25.721-37.825c8.685,4.501,18.324,6.851,28.106,6.853h89.713
				c9.783-0.002,19.423-2.353,28.109-6.854l25.722,37.826C349.26,391.31,343.434,392.512,337.543,392.534z M415.718,269.759
				l-37.475,95.25c-2.155,5.381-5.367,10.274-9.446,14.392l-25.93-38.133c7.095-6.707,12.439-15.05,15.564-24.301l14.067-41.775
				c2.042-6.181,2.892-12.693,2.506-19.191h43.049C418.219,260.698,417.424,265.38,415.718,269.759z"/>
			<path d="M244.985,142.593c2.444-2.441,3.154-6.125,1.792-9.3c-1.251-3.247-4.372-5.389-7.852-5.389
				c-3.48,0-6.601,2.142-7.852,5.389c-1.539,3.757-0.219,8.078,3.156,10.335C237.604,145.884,242.102,145.451,244.985,142.593z"/>
			<path d="M279.119,147.543c-3.421-3.158-8.695-3.158-12.117,0c-0.773,0.815-1.383,1.772-1.796,2.817
				c-1.122,2.625-0.843,5.638,0.741,8.013c1.584,2.375,4.259,3.789,7.113,3.762c2.27,0.021,4.453-0.871,6.059-2.475
				c0.751-0.832,1.357-1.784,1.792-2.817c0.911-2.065,0.911-4.418,0-6.483C280.477,149.326,279.871,148.373,279.119,147.543z"/>
			<path d="M238.927,187.734c0,4.713,3.82,8.533,8.533,8.533s8.533-3.82,8.533-8.533c-0.016-0.573-0.073-1.144-0.171-1.708
				c-0.095-0.533-0.268-1.05-0.513-1.533c-0.187-0.546-0.447-1.064-0.771-1.542c-0.313-0.446-0.654-0.872-1.021-1.275
				c-3.4-3.211-8.716-3.211-12.117,0C239.842,183.311,238.958,185.475,238.927,187.734z"/>
			<path d="M253.519,249.942c-0.816-0.771-1.772-1.379-2.817-1.792c-3.181-1.299-6.829-0.596-9.3,1.792
				c-0.773,0.815-1.383,1.772-1.796,2.817c-1.524,3.574-0.442,7.726,2.632,10.102c3.074,2.376,7.365,2.376,10.44,0
				c3.074-2.376,4.156-6.528,2.632-10.102C254.877,251.725,254.271,250.773,253.519,249.942z"/>
			<path d="M269.814,222.55c-1.033,0.433-1.984,1.039-2.813,1.792c-1.56,1.635-2.444,3.799-2.475,6.059
				c-0.029,1.119,0.204,2.229,0.679,3.242c0.435,1.034,1.042,1.986,1.795,2.817c2.441,2.444,6.125,3.154,9.3,1.792
				c1.034-0.433,1.987-1.039,2.817-1.792c0.751-0.832,1.357-1.784,1.792-2.817c0.438-1.026,0.67-2.127,0.683-3.242
				c-0.033-2.259-0.917-4.422-2.475-6.059C276.646,221.955,272.997,221.252,269.814,222.55z"/>
		</g>
	</g>
</g>
<g>
</g>
<g>
</g>
<g>
</g>
<g>
</g>
<g>
</g>
<g>
</g>
<g>
</g>
<g>
</g>
<g>
</g>
<g>
</g>
<g>
</g>
<g>
</g>
<g>
</g>
<g>
</g>
<g>
</g>
</svg>
