<?xml version="1.0" encoding="iso-8859-1"?>
<!-- Generator: Adobe Illustrator 19.0.0, SVG Export Plug-In . SVG Version: 6.00 Build 0)  -->
<svg version="1.1" id="Capa_1" xmlns="http://www.w3.org/2000/svg" xmlns:xlink="http://www.w3.org/1999/xlink" x="0px" y="0px"
	 viewBox="0 0 512 512" style="enable-background:new 0 0 512 512;" xml:space="preserve">
<g>
	<g>
		<g>
			<path d="M421.49,221.975l-67.058-75.283c-6.062-6.502-14.56-10.184-23.45-10.159c-5.338,0.057-10.579,1.435-15.254,4.011V59.733
				C315.689,26.759,288.968,0.038,255.995,0c-32.974,0.038-59.695,26.759-59.733,59.733v80.811
				c-12.852-7.163-28.943-4.546-38.862,6.322l-66.775,74.967c-13.495,14.613-17.468,35.646-10.233,54.175l37.479,95.275
				c9.136,23.23,31.614,38.453,56.575,38.317h4.75v25.6c0.045,15.521,10.568,29.054,25.6,32.922v35.345
				c-0.001,2.263,0.898,4.434,2.499,6.035c1.6,1.6,3.771,2.499,6.035,2.499h85.333c2.263,0.001,4.434-0.898,6.035-2.499
				c1.6-1.6,2.499-3.771,2.499-6.035v-35.345c15.032-3.868,25.555-17.4,25.6-32.922v-25.6h4.75
				c24.967,0.136,47.448-15.095,56.579-38.333l37.475-95.258C438.826,257.545,434.903,236.577,421.49,221.975z M320.224,158.042
				c6.111-5.694,15.607-5.617,21.625,0.175l67.025,75.25c1.53,1.682,2.886,3.513,4.049,5.467h-41.696
				c-2.547-6.319-6.351-12.055-11.182-16.858l-39.821-42.183C314.245,173.835,314.245,164.098,320.224,158.042z M213.328,59.733
				c0-23.564,19.103-42.667,42.667-42.667s42.667,19.103,42.667,42.667v76.8h-85.333V59.733z M213.328,153.6h85.333v76.8
				c0,23.564-19.103,42.667-42.667,42.667s-42.667-19.102-42.667-42.667V153.6z M255.995,290.133
				c32.99,0,59.733-26.744,59.733-59.733v-30.418l32.125,34.034c4.085,4.071,7.078,9.105,8.703,14.638
				c0.101,0.882,0.341,1.743,0.711,2.551c1.375,6.15,1.049,12.558-0.943,18.536l-14.067,41.783
				c-6.044,17.69-22.715,29.54-41.408,29.433h-89.713c-18.695,0.106-35.366-11.748-41.404-29.442l-14.067-41.775
				c-1.999-5.992-2.316-12.418-0.916-18.577c0.319-0.727,0.534-1.495,0.638-2.281c1.661-5.709,4.746-10.902,8.965-15.092
				l31.908-33.816V230.4C196.261,263.39,223.005,290.133,255.995,290.133z M103.24,233.325l66.742-74.933
				c2.848-3.062,6.843-4.799,11.025-4.792c4.032,0,7.9,1.597,10.758,4.442c6.012,6.125,5.945,15.957-0.15,22l-39.454,41.808
				c-4.904,4.869-8.772,10.68-11.37,17.083H99.09C100.281,236.929,101.672,235.05,103.24,233.325z M133.745,365.017l-37.471-95.258
				c-1.707-4.379-2.501-9.061-2.331-13.758h43.05c-0.392,6.498,0.456,13.01,2.497,19.191l14.067,41.767
				c3.124,9.253,8.468,17.599,15.565,24.308l-25.932,38.134C139.111,375.286,135.9,370.395,133.745,365.017z M290.128,494.933
				h-68.267v-25.6h68.267V494.933z M315.728,435.2c-0.011,9.421-7.646,17.056-17.067,17.067h-85.333
				c-9.421-0.011-17.056-7.645-17.067-17.067v-25.6h119.467V435.2z M337.545,392.533h-163.1c-5.891-0.022-11.717-1.224-17.135-3.536
				l25.721-37.825c8.685,4.501,18.324,6.851,28.106,6.853h89.713c9.783-0.002,19.423-2.353,28.109-6.854l25.722,37.826
				C349.262,391.309,343.435,392.512,337.545,392.533z M415.715,269.758l-37.471,95.25c-2.155,5.381-5.367,10.274-9.446,14.392
				l-25.93-38.133c7.095-6.707,12.439-15.05,15.564-24.301l14.067-41.775c2.042-6.181,2.892-12.693,2.506-19.191h43.047
				C418.218,260.697,417.423,265.379,415.715,269.758z"/>
			<path d="M255.995,34.133c-14.132,0.015-25.585,11.468-25.6,25.6v34.133c0,4.713,3.82,8.533,8.533,8.533s8.533-3.821,8.533-8.533
				V59.733c0.005-4.711,3.822-8.529,8.533-8.533c4.713,0,8.533-3.82,8.533-8.533S260.707,34.133,255.995,34.133z"/>
		</g>
	</g>
</g>
<g>
</g>
<g>
</g>
<g>
</g>
<g>
</g>
<g>
</g>
<g>
</g>
<g>
</g>
<g>
</g>
<g>
</g>
<g>
</g>
<g>
</g>
<g>
</g>
<g>
</g>
<g>
</g>
<g>
</g>
</svg>
