<?xml version="1.0" encoding="iso-8859-1"?>
<!-- Generator: Adobe Illustrator 19.0.0, SVG Export Plug-In . SVG Version: 6.00 Build 0)  -->
<svg version="1.1" id="Capa_1" xmlns="http://www.w3.org/2000/svg" xmlns:xlink="http://www.w3.org/1999/xlink" x="0px" y="0px"
	 viewBox="0 0 512 512" style="enable-background:new 0 0 512 512;" xml:space="preserve">
<g>
	<g>
		<g>
			<path d="M503.467,110.933H366.933c-4.713,0-8.533,3.82-8.533,8.533s3.82,8.533,8.533,8.533H409.6v25.6h-8.533
				c-9.421,0.011-17.056,7.646-17.067,17.067v51.2h-17.929c-4.08-19.85-21.539-34.106-41.804-34.133h-0.862
				c-4.08-19.85-21.539-34.105-41.804-34.133h-51.2c-20.265,0.028-37.724,14.284-41.804,34.133h-0.862
				c-20.265,0.028-37.724,14.283-41.804,34.133H128v-51.2c-0.011-9.421-7.645-17.056-17.067-17.067H102.4V128h42.667
				c4.713,0,8.533-3.821,8.533-8.533s-3.821-8.533-8.533-8.533H8.533c-4.713,0-8.533,3.82-8.533,8.533S3.82,128,8.533,128H51.2v25.6
				h-8.533c-9.421,0.011-17.056,7.646-17.067,17.067V281.6c0.015,14.132,11.468,25.585,25.6,25.6h51.2
				c10.813-0.033,20.435-6.868,24.028-17.067h19.502c4.08,19.85,21.539,34.106,41.804,34.133h26.462
				C218.251,344.132,235.725,358.4,256,358.4c20.275,0,37.749-14.268,41.804-34.133h26.462
				c20.265-0.028,37.724-14.284,41.804-34.133h19.502c3.592,10.199,13.214,17.033,24.027,17.067h51.2
				c14.132-0.015,25.585-11.468,25.6-25.6V170.667c-0.011-9.421-7.645-17.056-17.067-17.067H460.8V128h42.667
				c4.713,0,8.533-3.821,8.533-8.533S508.18,110.933,503.467,110.933z M68.267,128h17.067v25.6H68.267V128z M110.933,230.4v51.2
				c-0.005,4.711-3.822,8.529-8.533,8.533H51.2c-4.711-0.005-8.529-3.822-8.533-8.533v-68.267h68.267V230.4z M110.933,196.267
				H42.667v-25.6h68.267V196.267z M230.4,170.667h51.2c10.845,0.012,20.51,6.846,24.137,17.067h-99.475
				C209.89,177.513,219.555,170.679,230.4,170.667z M187.733,204.8h136.533c11.41,0.039,21.412,7.636,24.51,18.618
				c-11.443,3.382-20.281,12.505-23.299,24.049H186.522c-3.017-11.544-11.856-20.667-23.298-24.049
				C166.321,212.436,176.323,204.838,187.733,204.8z M153.6,273.067H128v-34.133h25.6c9.426,0,17.067,7.641,17.067,17.067
				S163.026,273.067,153.6,273.067z M256,341.333c-10.813-0.033-20.435-6.868-24.027-17.067h48.055
				C276.435,334.466,266.813,341.3,256,341.333z M324.267,307.2H187.733c-11.41-0.039-21.412-7.636-24.51-18.618
				c11.443-3.382,20.281-12.505,23.298-24.049h138.957c3.017,11.544,11.856,20.667,23.298,24.049
				C345.679,299.564,335.677,307.161,324.267,307.2z M384,273.067h-25.6c-9.426,0-17.067-7.641-17.067-17.067
				s7.641-17.067,17.067-17.067H384V273.067z M426.667,128h17.067v25.6h-17.067V128z M469.333,281.6
				c-0.005,4.711-3.822,8.529-8.533,8.533h-51.2c-4.711-0.005-8.529-3.822-8.533-8.533v-68.267h68.267V281.6z M469.333,170.667v25.6
				h-68.267v-25.6H469.333z"/>
			<path d="M256,392.533c2.27,0.021,4.453-0.871,6.059-2.475c0.751-0.832,1.357-1.784,1.792-2.817c0.911-2.065,0.911-4.418,0-6.483
				c-0.413-1.044-1.021-2-1.792-2.817c-2.457-2.418-6.125-3.125-9.304-1.792c-2.141,0.78-3.828,2.467-4.608,4.608
				c-0.906,2.066-0.906,4.417,0,6.483c0.435,1.034,1.042,1.986,1.795,2.817C251.547,391.663,253.73,392.554,256,392.533z"/>
			<path d="M235.917,399.808L235.917,399.808c-2.909-3.707-8.272-4.355-11.979-1.446s-4.355,8.272-1.446,11.979
				c8.065,10.304,20.423,16.325,33.508,16.325c13.085,0,25.443-6.021,33.508-16.325c1.882-2.398,2.341-5.618,1.205-8.446
				c-1.136-2.829-3.695-4.836-6.713-5.267c-3.018-0.43-6.036,0.782-7.917,3.18c-4.831,6.18-12.239,9.791-20.083,9.791
				S240.748,405.988,235.917,399.808z"/>
			<path d="M209.037,420.892c-2.913-3.694-8.266-4.334-11.967-1.43c-3.701,2.904-4.353,8.256-1.458,11.963
				C210.164,449.97,232.428,460.8,256,460.8s45.837-10.831,60.388-29.375c2.895-3.708,2.243-9.06-1.458-11.963
				c-3.701-2.904-9.054-2.264-11.967,1.43c-11.317,14.42-28.632,22.842-46.963,22.842S220.355,435.312,209.037,420.892z"/>
			<path d="M341.838,440.617c-3.7-2.918-9.065-2.284-11.983,1.417c-17.829,22.628-45.047,35.833-73.854,35.833
				c-28.807,0-56.025-13.206-73.854-35.833c-2.918-3.7-8.283-4.335-11.983-1.417c-3.7,2.918-4.335,8.283-1.417,11.983
				c21.064,26.732,53.22,42.333,87.254,42.333c34.034,0,66.19-15.601,87.254-42.333C346.172,448.9,345.538,443.535,341.838,440.617z
				"/>
			<path d="M249.941,121.941c-0.773,0.815-1.383,1.772-1.796,2.817c-1.336,3.19-0.612,6.87,1.832,9.317
				c2.444,2.447,6.124,3.175,9.315,1.843s5.262-4.46,5.241-7.918c0.02-3.467-2.059-6.601-5.261-7.931
				C256.071,118.74,252.383,119.48,249.941,121.941z"/>
			<path d="M276.083,112.192L276.083,112.192c1.882,2.398,4.9,3.61,7.918,3.18c3.018-0.43,5.576-2.438,6.713-5.267
				c1.136-2.829,0.677-6.048-1.205-8.447C281.443,91.354,269.085,85.333,256,85.333c-13.085,0-25.443,6.021-33.508,16.325
				c-2.909,3.707-2.261,9.07,1.446,11.979s9.07,2.261,11.979-1.446c4.831-6.18,12.239-9.791,20.083-9.791
				C263.844,102.4,271.252,106.012,276.083,112.192z"/>
			<path d="M302.963,91.108c2.913,3.694,8.266,4.334,11.967,1.43c3.701-2.904,4.353-8.256,1.458-11.963
				C301.837,62.03,279.572,51.2,256,51.2s-45.836,10.83-60.388,29.375c-2.895,3.708-2.243,9.06,1.458,11.963
				c3.701,2.904,9.054,2.264,11.967-1.43c11.317-14.42,28.632-22.842,46.963-22.842S291.645,76.688,302.963,91.108z"/>
			<path d="M174.22,73.127c3.017,0.438,6.038-0.767,7.926-3.161C199.975,47.339,227.193,34.133,256,34.133
				c28.808,0,56.025,13.206,73.854,35.833c2.918,3.7,8.283,4.335,11.983,1.417c3.7-2.918,4.335-8.283,1.417-11.983
				C322.19,32.668,290.034,17.067,256,17.067c-34.034,0-66.19,15.601-87.254,42.333c-1.888,2.394-2.355,5.612-1.226,8.444
				C168.65,70.676,171.204,72.69,174.22,73.127z"/>
		</g>
	</g>
</g>
<g>
</g>
<g>
</g>
<g>
</g>
<g>
</g>
<g>
</g>
<g>
</g>
<g>
</g>
<g>
</g>
<g>
</g>
<g>
</g>
<g>
</g>
<g>
</g>
<g>
</g>
<g>
</g>
<g>
</g>
</svg>
