<?xml version="1.0" encoding="iso-8859-1"?>
<!-- Generator: Adobe Illustrator 19.0.0, SVG Export Plug-In . SVG Version: 6.00 Build 0)  -->
<svg version="1.1" id="Capa_1" xmlns="http://www.w3.org/2000/svg" xmlns:xlink="http://www.w3.org/1999/xlink" x="0px" y="0px"
	 viewBox="0 0 512.2 512.2" style="enable-background:new 0 0 512.2 512.2;" xml:space="preserve">
<g>
	<g>
		<path d="M322.9,191.05c3.1-14-5.1-28-18.9-32.1c-2.3-10.1-9.8-18.2-19.8-21.2c-9.9-2.9-20.7-0.2-28.1,7c-7.4-7.3-18.1-10-28.1-7
			c-9.9,2.9-17.5,11-19.8,21.2c-13.7,4.1-22,18.1-18.9,32.1c-12,10.6-13.5,28.8-3.3,41.2c-2.9,7.1-2.7,15.1,0.4,22.2
			s8.9,12.5,16.2,15.2v0.1c0.3,0.7,0.6,1.4,0.9,2.1c0.1,0.2,0.2,0.4,0.3,0.6c0.2,0.5,0.5,0.9,0.7,1.4c0.1,0.1,0.5,0.8,0.6,1
			c0.5,0.9,1.1,1.8,1.8,2.6l1.1,1.5c1.6,1.9,3.3,3.5,5.3,5l1.3,0.9c1.2,0.8,2.6,1.6,3.9,2.2c1,0.5,1.9,0.9,2.9,1.3l1.7,0.6
			c0.5,0.2,1,0.3,1.2,0.3c1.1,0.3,2.2,0.5,3.3,0.7c0.5,0.1,1,0.1,1.1,0.1c1.3,0.2,2.6,0.3,3.9,0.2c8.9,0,17.5-3.7,23.5-10.3
			c6,6.5,14.5,10.2,23.4,10.2c1.1,0,2.2,0,3.3-0.2c0.5,0,1.1-0.1,1.6-0.2c1-0.1,2-0.3,3-0.6c0.5-0.1,1.1-0.3,1.6-0.4l1.8-0.6
			c0.9-0.3,1.8-0.7,2.7-1.2c1.4-0.7,2.8-1.5,4.1-2.4l1.2-0.8c2-1.5,3.9-3.3,5.5-5.2l1-1.3c0.7-1,1.4-2,2-3c0.4-0.6,0.7-1.3,1.1-1.9
			c0.1-0.2,0.2-0.4,0.3-0.6c0.3-0.6,0.6-1.2,0.8-1.8l0.1-0.3c7.2-2.7,13-8.2,16.2-15.2c3.1-7,3.3-15,0.4-22.2
			C336.4,219.85,334.9,201.65,322.9,191.05z M309.9,223.85c-1.9,1.4-3.1,3.4-3.5,5.7c-0.4,2.3,0.3,4.6,1.7,6.5
			c1.5,2,2.4,4.4,2.4,6.9c0,5.7-4.1,10.5-9.7,11.3c-3.8,1.1-6.7,4.2-7.4,8.1c0,0.1-0.3,1-0.4,1.1l-0.3,0.9c-0.2,0.3-0.3,0.5-0.4,0.8
			l-0.4,0.8c-0.2,0.4-0.5,0.8-0.8,1.2l-0.6,0.7c-0.9,1.1-2,2-3.1,2.8c-0.6,0.4-1.3,0.8-2,1.1c-0.4,0.2-0.8,0.4-1.1,0.5l-1.7,0.5
			c-0.7,0.2-1.4,0.3-2,0.3c-0.5,0.1-1,0.1-1.5,0.1c-8.3,0-15-6.7-15-15c0-4.7-3.8-8.5-8.5-8.5c-4.3-0.1-8.1,3.7-8.1,8.5
			c0,8.3-6.7,15-15,15c-0.8,0-1.5-0.1-2.3-0.2c-0.7-0.1-1.3-0.2-2-0.4l-0.9-0.3c-0.5-0.2-0.9-0.4-1.4-0.6c-0.9-0.4-1.7-0.9-2.5-1.5
			c-0.9-0.6-1.7-1.4-2.4-2.2l-0.7-0.9c-0.3-0.4-0.6-0.9-0.9-1.3c-0.1-0.2-0.3-0.6-0.5-0.8c-0.1-0.3-0.4-0.9-0.5-1.2
			c0-0.1-0.4-0.8-0.4-0.9c-0.1-0.4-0.3-1.4-0.4-1.7c-0.6-3.6-3.5-6.4-7.1-6.9c-5.6-0.9-9.7-5.7-9.7-11.3c0-2.5,0.8-5,2.4-6.9
			c1.4-1.8,2-4.2,1.7-6.5s-1.6-4.4-3.5-5.7c-3.6-2.6-5.6-6.9-5.3-11.3c0.4-4.4,3-8.4,7-10.3c2.1-1,3.7-2.9,4.4-5.2
			c0.7-2.3,0.4-4.7-0.8-6.7c-0.9-1.5-1.3-3.2-1.3-5c0-5.7,4.6-10.3,10.3-10.3c2.4-0.1,4.6-1.2,6.2-3s2.4-4.3,2.3-6.7
			c0-4.1,2.2-7.9,5.7-10c3.6-2.1,7.9-2.1,11.5,0c3.6,2.1,5.7,5.9,5.7,10c0,4.7,3.8,8.5,8.5,8.5c4.7,0,8.5-3.8,8.5-8.5
			c0-6.3,5.1-11.5,11.5-11.5c3.1,0,6.1,1.4,8.3,3.6c2.2,2.3,3.3,5.3,3.2,8.5c-0.1,2.4,0.7,4.7,2.3,6.4c1.6,1.7,3.9,2.7,6.2,2.7
			c5.7,0,10.3,4.6,10.3,10.3c0,1.8-0.4,3.5-1.3,5c-1.2,2-1.4,4.5-0.8,6.7c0.7,2.3,2.3,4.1,4.4,5.2c4,2,6.7,5.9,7,10.3
			C315.6,216.95,313.6,221.25,309.9,223.85z"/>
	</g>
</g>
<g>
	<g>
		<path d="M452.5,392.85v-17.3c0-14.1-11.5-25.6-25.6-25.6H264.5v-25.8c73.5-1.8,128-26.8,128-59.6V59.75c0-34-58.7-59.7-136.5-59.7
			s-136.5,25.7-136.5,59.7v204.8c0,32.8,54.5,57.7,128,59.6v25.8H85.3c-14.1,0-25.6,11.5-25.6,25.6v17.3
			c-30.9,1.8-59.7,13.3-59.7,33.9v51.2c0,22.4,34.3,34.1,68.3,34.1c33.9,0,68.3-11.7,68.3-34.1v-51.2c0-20.5-28.8-32.1-59.7-33.9
			v-17.3c0-4.7,3.8-8.5,8.5-8.5h162.1v25.9c-30.9,1.8-59.7,13.3-59.7,33.9v51.2c0,22.4,34.3,34.1,68.3,34.1s68.3-11.7,68.3-34.1
			v-51.2c0-20.5-28.8-32.1-59.7-33.9v-25.9h162.1c4.7,0,8.5,3.8,8.5,8.5v17.3c-30.9,1.8-59.7,13.3-59.7,33.9v51.2
			c0,22.4,34.3,34.1,68.3,34.1c34,0,68.3-11.7,68.3-34.1v-51.2C512.2,406.25,483.4,394.65,452.5,392.85z M119.5,477.95
			c0,6-19.4,17.1-51.2,17.1s-51.2-11-51.2-17.1v-27.9c16,7.6,33.5,11.3,51.2,10.8c17.7,0.5,35.2-3.2,51.2-10.8V477.95z
			 M119.5,426.75c0,6.1-19.4,17.1-51.2,17.1s-51.2-11.1-51.2-17.1s19.4-17.1,51.2-17.1C100.1,409.65,119.5,420.65,119.5,426.75z
			 M256,17.15c70.4,0,119.5,22.5,119.5,42.7s-49.1,42.7-119.5,42.7s-119.5-22.6-119.5-42.8S185.6,17.15,256,17.15z M136.5,264.55
			v-38.4c4.8,3.7,9.9,6.9,15.3,9.5c4.2,2.1,9.3,0.4,11.4-3.8s0.4-9.3-3.8-11.4c-14.6-7.3-22.9-16.1-22.9-24.1v-38.5
			c8.4,6.3,17.6,11.4,27.5,15c2.8,1.1,6.1,0.6,8.4-1.3c2.4-1.9,3.5-5,3.1-8c-0.5-3-2.5-5.5-5.4-6.6c-21-8.1-33.6-18.9-33.6-28.8
			v-38.6c22.9,18.2,66.7,30,119.5,30s96.6-11.8,119.5-30v38.5c0,9.9-12.6,20.7-33.6,28.8c-2.9,1.1-4.9,3.6-5.4,6.6s0.7,6.1,3.1,8
			c2.4,1.9,5.6,2.4,8.4,1.3c9.9-3.6,19.1-8.7,27.5-15v38.5c0,8-8.4,16.8-22.9,24.1c-4.2,2.1-5.9,7.2-3.8,11.4
			c2.1,4.2,7.2,5.9,11.4,3.8c5.4-2.7,10.5-5.9,15.3-9.5v38.4c0,20.2-49.1,42.7-119.5,42.7S136.5,284.75,136.5,264.55z M307.2,477.95
			c0,6-19.4,17.1-51.2,17.1c-31.8,0-51.2-11-51.2-17.1v-27.9c16,7.6,33.5,11.3,51.2,10.8c17.7,0.5,35.2-3.2,51.2-10.8V477.95z
			 M307.2,426.75c0,6.1-19.4,17.1-51.2,17.1c-31.8,0-51.2-11.1-51.2-17.1s19.4-17.1,51.2-17.1S307.2,420.65,307.2,426.75z
			 M494.9,477.95c0,6-19.4,17.1-51.2,17.1c-31.8,0-51.2-11-51.2-17.1v-27.9c16,7.6,33.5,11.3,51.2,10.8c17.7,0.5,35.2-3.2,51.2-10.8
			V477.95z M443.7,443.85c-31.8,0-51.2-11.1-51.2-17.1s19.4-17.1,51.2-17.1c31.8,0,51.2,11.1,51.2,17.1S475.5,443.85,443.7,443.85z"
			/>
	</g>
</g>
<g>
</g>
<g>
</g>
<g>
</g>
<g>
</g>
<g>
</g>
<g>
</g>
<g>
</g>
<g>
</g>
<g>
</g>
<g>
</g>
<g>
</g>
<g>
</g>
<g>
</g>
<g>
</g>
<g>
</g>
</svg>
