<?xml version="1.0" encoding="iso-8859-1"?>
<!-- Generator: Adobe Illustrator 19.0.0, SVG Export Plug-In . SVG Version: 6.00 Build 0)  -->
<svg version="1.1" id="Capa_1" xmlns="http://www.w3.org/2000/svg" xmlns:xlink="http://www.w3.org/1999/xlink" x="0px" y="0px"
	 viewBox="0 0 504.279 504.279" style="enable-background:new 0 0 504.279 504.279;" xml:space="preserve">
<g>
	<g>
		<g>
			<path d="M284.951,176.262h-82.41c-4.636,0-8.393,3.758-8.393,8.393s3.758,8.393,8.393,8.393h82.41
				c2.226,0.001,4.362-0.884,5.936-2.458c1.574-1.574,2.458-3.709,2.458-5.936c0.001-2.226-0.884-4.362-2.458-5.936
				C289.312,177.146,287.177,176.262,284.951,176.262z"/>
			<path d="M289,277.73c-3.093-1.314-6.67-0.679-9.123,1.619c-5.517,4.264-12.382,6.404-19.344,6.029
				c-2.938,0.286-5.898-0.259-8.541-1.574c-0.756-3.957-4.217-6.82-8.246-6.82c-4.029,0-7.49,2.862-8.246,6.82
				c-2.643,1.315-5.603,1.86-8.541,1.574c-6.916,0.368-13.738-1.735-19.246-5.934c-2.4-2.401-6.01-3.119-9.146-1.82
				c-3.136,1.299-5.181,4.359-5.181,7.754v41.967c0.016,3.585,0.378,7.161,1.082,10.676c0.013,0.067,0.06,0.114,0.074,0.18
				c0.014,0.064-0.008,0.125,0.008,0.189c6.975,28.721,42.935,53.594,44.459,54.635c2.856,1.956,6.62,1.956,9.475,0
				c1.525-1.041,37.484-25.914,44.459-54.635c0.014-0.059-0.006-0.115,0.007-0.174c0.015-0.07,0.062-0.124,0.076-0.195
				c0.704-3.516,1.066-7.091,1.082-10.676v-41.967C294.081,282.038,292.075,279.032,289,277.73z M277.32,327.344
				c-0.021,2.44-0.272,4.873-0.751,7.266c-3.961,15.873-22.084,32.7-32.831,41.07c-10.738-8.346-28.837-25.14-32.815-41.07
				c-0.479-2.393-0.73-4.826-0.751-7.266v-27.82c5.415,1.787,11.085,2.678,16.787,2.639c5.825,0.269,11.617-1.009,16.787-3.705
				c5.17,2.696,10.962,3.974,16.787,3.705c5.702,0.039,11.372-0.852,16.787-2.639V327.344z"/>
			<path d="M201.779,159.475c2.226,0.001,4.362-0.884,5.936-2.458c1.574-1.574,2.458-3.709,2.458-5.936v-16.787
				c0-4.636-3.758-8.393-8.393-8.393s-8.393,3.758-8.393,8.393v16.787c-0.001,2.226,0.884,4.362,2.458,5.936
				C197.417,158.592,199.552,159.476,201.779,159.475z"/>
			<path d="M285.713,125.902c-4.636,0-8.393,3.758-8.393,8.393v16.787c-0.001,2.226,0.884,4.362,2.458,5.936
				c1.574,1.574,3.709,2.458,5.936,2.458c2.226,0.001,4.361-0.884,5.936-2.458c1.574-1.574,2.458-3.709,2.458-5.936v-16.787
				C294.107,129.66,290.349,125.902,285.713,125.902z"/>
			<path d="M503.943,134.295V41.967C503.915,18.801,485.142,0.027,461.975,0H42.303C19.137,0.027,0.363,18.801,0.336,41.967v92.328
				c0.036,13.261,6.362,25.719,17.047,33.574c-10.685,7.855-17.01,20.312-17.047,33.574v100.721
				c0.03,13.451,6.524,26.068,17.454,33.909c-10.93,7.841-17.424,20.458-17.454,33.91v92.328
				c0.027,23.167,18.801,41.94,41.967,41.967h419.672c23.167-0.027,41.94-18.801,41.967-41.967v-92.328
				c-0.03-13.451-6.524-26.068-17.454-33.909c10.93-7.841,17.424-20.458,17.454-33.91V201.443
				c-0.036-13.261-6.362-25.719-17.047-33.574C497.581,160.014,503.906,147.556,503.943,134.295z M17.123,302.164V201.443
				c0.015-13.9,11.28-25.165,25.18-25.18h87.492c5.471,12.496,16.659,21.565,30.016,24.332v0.848
				c0.015,13.9,11.28,25.165,25.18,25.18h25.18v16.787h-50.361c-18.534,0.02-33.554,15.04-33.574,33.574v50.361H42.303
				C28.403,327.329,17.138,316.064,17.123,302.164z M143.025,159.475c0.012-10.667,6.734-20.174,16.787-23.742v47.484
				C149.758,179.649,143.037,170.143,143.025,159.475z M218.566,209.836h-33.574c-4.634-0.005-8.389-3.76-8.393-8.393v-83.934
				c0.005-4.634,3.76-8.389,8.393-8.393H302.5c4.634,0.005,8.389,3.76,8.393,8.393v83.934c-0.005,4.634-3.76,8.389-8.393,8.393
				H218.566z M260.533,226.623v16.787h-33.574v-16.787H260.533z M159.811,260.197v125.902h-16.787V276.984
				C143.035,267.717,150.545,260.207,159.811,260.197z M176.598,487.492H42.303c-13.9-0.015-25.165-11.28-25.18-25.18v-92.328
				c0.015-13.9,11.28-25.165,25.18-25.18h83.934v41.295c0.011,9.267,7.52,16.776,16.787,16.787h16.787v16.787
				c-0.001,2.226,0.884,4.362,2.458,5.936c1.574,1.574,3.709,2.458,5.936,2.458h8.393V487.492z M176.598,411.279V260.197h134.295
				v151.082H184.992H176.598z M235.352,486.82h-41.967v-58.754h41.967V486.82z M294.107,486.82h-41.967v-58.754h41.967V486.82z
				 M487.156,369.984v92.328c-0.015,13.9-11.28,25.165-25.18,25.18H310.893v-59.426h8.393c2.226,0.001,4.362-0.884,5.936-2.458
				c1.574-1.574,2.458-3.709,2.458-5.936v-16.787h16.787c9.267-0.011,16.776-7.52,16.787-16.787v-41.295h100.721
				C475.876,344.818,487.141,356.083,487.156,369.984z M327.68,386.098V260.197c9.267,0.011,16.776,7.52,16.787,16.787v109.115
				H327.68z M487.156,201.443v100.721c-0.015,13.9-11.28,25.165-25.18,25.18H361.254v-50.361
				c-0.02-18.534-15.04-33.554-33.574-33.574H277.32v-16.787h25.18c13.9-0.015,25.165-11.28,25.18-25.18v-0.848
				c13.357-2.767,24.545-11.836,30.016-24.332h104.279C475.876,176.277,487.141,187.542,487.156,201.443z M327.68,183.217v-47.484
				c10.061,3.558,16.787,13.07,16.787,23.742C344.467,170.147,337.741,179.659,327.68,183.217z M487.156,134.295
				c-0.015,13.9-11.28,25.165-25.18,25.18H361.254c-0.027-19.933-14.049-37.106-33.574-41.119v-0.848
				c-0.015-13.9-11.28-25.165-25.18-25.18h-38.492l10.853-10.853c1.828-1.829,2.71-4.398,2.393-6.964
				c-0.317-2.566-1.799-4.843-4.016-6.172L251.63,55.401c2.675-12.22-3.864-24.585-15.469-29.253s-24.885-0.273-31.415,10.396
				c-6.53,10.669-4.403,24.494,5.034,32.706c9.436,8.212,23.423,8.41,33.087,0.468l12.518,7.495L240.27,92.328h-55.279
				c-13.9,0.015-25.165,11.28-25.18,25.18v0.848c-19.524,4.013-33.546,21.186-33.574,41.119H42.303
				c-13.9-0.015-25.165-11.28-25.18-25.18V41.967c0.015-13.9,11.28-25.165,25.18-25.18h419.672c13.9,0.015,25.165,11.28,25.18,25.18
				V134.295z M235.352,50.361c0,4.636-3.758,8.393-8.393,8.393c-4.636,0-8.393-3.758-8.393-8.393s3.758-8.393,8.393-8.393
				C231.593,41.972,235.348,45.727,235.352,50.361z"/>
			<path d="M461.975,50.361c-2.226-0.001-4.362,0.884-5.936,2.458c-1.574,1.574-2.458,3.709-2.458,5.936v50.361
				c0,4.636,3.758,8.393,8.393,8.393s8.393-3.758,8.393-8.393V58.754c0.001-2.226-0.884-4.361-2.458-5.936
				S464.202,50.36,461.975,50.361z"/>
			<path d="M428.402,50.361c-2.226-0.001-4.361,0.884-5.936,2.458s-2.458,3.709-2.458,5.936v50.361c0,4.636,3.758,8.393,8.393,8.393
				s8.393-3.758,8.393-8.393V58.754c0.001-2.226-0.884-4.361-2.458-5.936C432.763,51.244,430.628,50.36,428.402,50.361z"/>
			<path d="M394.828,50.361c-2.226-0.001-4.362,0.884-5.936,2.458c-1.574,1.574-2.458,3.709-2.458,5.936v50.361
				c0,4.636,3.758,8.393,8.393,8.393c4.636,0,8.393-3.758,8.393-8.393V58.754c0.001-2.226-0.884-4.361-2.458-5.936
				S397.054,50.36,394.828,50.361z"/>
			<path d="M59.09,58.754c-13.907,0-25.18,11.274-25.18,25.18c0,13.907,11.274,25.18,25.18,25.18c13.907,0,25.18-11.274,25.18-25.18
				C84.255,70.034,72.991,58.769,59.09,58.754z M59.09,92.328c-4.636,0-8.393-3.758-8.393-8.393s3.758-8.393,8.393-8.393
				c4.636,0,8.393,3.758,8.393,8.393C67.479,88.568,63.724,92.323,59.09,92.328z"/>
			<path d="M126.238,58.754c-13.907,0-25.18,11.274-25.18,25.18c0,13.907,11.274,25.18,25.18,25.18
				c13.907,0,25.18-11.274,25.18-25.18C151.403,70.034,140.138,58.769,126.238,58.754z M126.238,92.328
				c-4.636,0-8.393-3.758-8.393-8.393s3.758-8.393,8.393-8.393c4.636,0,8.393,3.758,8.393,8.393
				C134.627,88.568,130.871,92.323,126.238,92.328z"/>
			<path d="M461.975,218.229c-2.226-0.001-4.362,0.884-5.936,2.458c-1.574,1.574-2.458,3.709-2.458,5.936v50.361
				c0,4.636,3.758,8.393,8.393,8.393s8.393-3.758,8.393-8.393v-50.361c0.001-2.226-0.884-4.361-2.458-5.936
				S464.202,218.229,461.975,218.229z"/>
			<path d="M428.402,218.229c-2.226-0.001-4.361,0.884-5.936,2.458s-2.458,3.709-2.458,5.936v50.361
				c0,4.636,3.758,8.393,8.393,8.393s8.393-3.758,8.393-8.393v-50.361c0.001-2.226-0.884-4.361-2.458-5.936
				C432.763,219.113,430.628,218.229,428.402,218.229z"/>
			<path d="M394.828,218.229c-2.226-0.001-4.362,0.884-5.936,2.458c-1.574,1.574-2.458,3.709-2.458,5.936v50.361
				c0,4.636,3.758,8.393,8.393,8.393c4.636,0,8.393-3.758,8.393-8.393v-50.361c0.001-2.226-0.884-4.361-2.458-5.936
				S397.054,218.229,394.828,218.229z"/>
			<path d="M59.09,276.984c13.907,0,25.18-11.274,25.18-25.18c0-13.907-11.274-25.18-25.18-25.18
				c-13.907,0-25.18,11.274-25.18,25.18C33.925,265.704,45.19,276.968,59.09,276.984z M59.09,243.41
				c4.636,0,8.393,3.758,8.393,8.393c0,4.636-3.758,8.393-8.393,8.393c-4.636,0-8.393-3.758-8.393-8.393
				C50.701,247.17,54.457,243.414,59.09,243.41z"/>
			<path d="M461.975,386.098c-2.226-0.001-4.362,0.884-5.936,2.458c-1.574,1.574-2.458,3.709-2.458,5.936v50.361
				c0,4.636,3.758,8.393,8.393,8.393s8.393-3.758,8.393-8.393v-50.361c0.001-2.226-0.884-4.362-2.458-5.936
				C466.337,386.982,464.202,386.098,461.975,386.098z"/>
			<path d="M428.402,386.098c-2.226-0.001-4.361,0.884-5.936,2.458c-1.574,1.574-2.458,3.709-2.458,5.936v50.361
				c0,4.636,3.758,8.393,8.393,8.393s8.393-3.758,8.393-8.393v-50.361c0.001-2.226-0.884-4.362-2.458-5.936
				C432.763,386.982,430.628,386.098,428.402,386.098z"/>
			<path d="M394.828,386.098c-2.226-0.001-4.362,0.884-5.936,2.458c-1.574,1.574-2.458,3.709-2.458,5.936v50.361
				c0,4.636,3.758,8.393,8.393,8.393c4.636,0,8.393-3.758,8.393-8.393v-50.361c0.001-2.226-0.884-4.362-2.458-5.936
				C399.189,386.982,397.054,386.098,394.828,386.098z"/>
			<path d="M59.09,394.492c-13.907,0-25.18,11.274-25.18,25.18s11.274,25.18,25.18,25.18c13.907,0,25.18-11.274,25.18-25.18
				C84.255,405.772,72.991,394.507,59.09,394.492z M59.09,428.066c-4.636,0-8.393-3.758-8.393-8.393s3.758-8.393,8.393-8.393
				c4.636,0,8.393,3.758,8.393,8.393C67.479,424.306,63.724,428.061,59.09,428.066z"/>
		</g>
	</g>
</g>
<g>
</g>
<g>
</g>
<g>
</g>
<g>
</g>
<g>
</g>
<g>
</g>
<g>
</g>
<g>
</g>
<g>
</g>
<g>
</g>
<g>
</g>
<g>
</g>
<g>
</g>
<g>
</g>
<g>
</g>
</svg>
