<?xml version="1.0" encoding="iso-8859-1"?>
<!-- Generator: Adobe Illustrator 19.0.0, SVG Export Plug-In . SVG Version: 6.00 Build 0)  -->
<svg version="1.1" id="Capa_1" xmlns="http://www.w3.org/2000/svg" xmlns:xlink="http://www.w3.org/1999/xlink" x="0px" y="0px"
	 viewBox="0 0 512 512" style="enable-background:new 0 0 512 512;" xml:space="preserve">
<g>
	<g>
		<g>
			<path d="M477.867,0H315.075c-12.97-0.029-25.243,5.868-33.325,16.012l-47.758,59.712c-4.852,6.086-12.217,9.624-20,9.609H34.133
				C15.29,85.354,0.02,100.624,0,119.467v358.4C0.02,496.71,15.29,511.98,34.133,512h443.733
				c18.843-0.02,34.113-15.29,34.133-34.133V34.133C511.98,15.29,496.71,0.02,477.867,0z M494.933,477.867
				c-0.011,9.421-7.645,17.056-17.067,17.067H34.133c-9.421-0.011-17.056-7.645-17.067-17.067V179.2
				c0.011-9.421,7.646-17.056,17.067-17.067h460.8V477.867z M494.933,145.067h-460.8c-6.01,0.034-11.902,1.673-17.067,4.747v-30.347
				c0.011-9.421,7.646-17.056,17.067-17.067h179.858c12.97,0.029,25.243-5.868,33.325-16.012l47.758-59.712
				c4.852-6.086,12.217-9.624,20-9.609h162.792c9.421,0.011,17.056,7.646,17.067,17.067V145.067z"/>
			<path d="M93.867,238.933h17.067c9.421-0.011,17.056-7.646,17.067-17.067V204.8c-0.011-9.421-7.645-17.056-17.067-17.067H93.867
				c-9.421,0.011-17.056,7.646-17.067,17.067v17.067C76.811,231.288,84.446,238.923,93.867,238.933z M93.867,204.8h17.067
				l0.009,17.067H93.867V204.8z"/>
			<path d="M110.933,358.4v17.067c0.011,9.421,7.645,17.056,17.067,17.067h17.067c9.421-0.011,17.056-7.645,17.067-17.067V358.4
				c-0.011-9.421-7.646-17.056-17.067-17.067H128C118.579,341.344,110.944,348.979,110.933,358.4z M145.075,375.467H128V358.4
				h17.067L145.075,375.467z"/>
			<path d="M59.733,469.333H76.8c9.421-0.011,17.056-7.646,17.067-17.067V435.2c-0.011-9.421-7.646-17.056-17.067-17.067H59.733
				c-9.421,0.011-17.056,7.645-17.067,17.067v17.067C42.677,461.688,50.312,469.323,59.733,469.333z M59.733,435.2H76.8
				l0.009,17.067H59.733V435.2z"/>
			<path d="M51.2,238.933c2.263,0.001,4.434-0.898,6.035-2.499c1.6-1.6,2.499-3.771,2.499-6.035v-34.133
				c0-4.713-3.82-8.533-8.533-8.533s-8.533,3.82-8.533,8.533V230.4c-0.001,2.263,0.898,4.434,2.499,6.035
				C46.766,238.035,48.937,238.934,51.2,238.933z"/>
			<path d="M153.6,238.933c2.263,0.001,4.434-0.898,6.035-2.499c1.6-1.6,2.499-3.771,2.499-6.035v-34.133
				c0-4.713-3.821-8.533-8.533-8.533c-4.713,0-8.533,3.82-8.533,8.533V230.4c-0.001,2.263,0.898,4.434,2.499,6.035
				C149.166,238.035,151.337,238.934,153.6,238.933z"/>
			<path d="M187.733,238.933c2.263,0.001,4.434-0.898,6.035-2.499c1.6-1.6,2.499-3.771,2.499-6.035v-34.133
				c0-4.713-3.82-8.533-8.533-8.533s-8.533,3.82-8.533,8.533V230.4c-0.001,2.263,0.898,4.434,2.499,6.035
				C183.299,238.035,185.47,238.934,187.733,238.933z"/>
			<path d="M51.2,392.533c2.263,0.001,4.434-0.898,6.035-2.499c1.6-1.6,2.499-3.771,2.499-6.035v-34.133
				c0-4.713-3.82-8.533-8.533-8.533s-8.533,3.82-8.533,8.533V384c-0.001,2.263,0.898,4.434,2.499,6.035
				C46.766,391.635,48.937,392.534,51.2,392.533z"/>
			<path d="M85.333,341.333c-2.263-0.001-4.434,0.898-6.035,2.499c-1.6,1.6-2.499,3.771-2.499,6.035V384
				c0,4.713,3.82,8.533,8.533,8.533s8.533-3.82,8.533-8.533v-34.133c0.001-2.263-0.898-4.434-2.499-6.035
				C89.768,342.232,87.597,341.333,85.333,341.333z"/>
			<path d="M119.467,418.133c-2.263-0.001-4.434,0.898-6.035,2.499c-1.6,1.6-2.499,3.771-2.499,6.035V460.8
				c0,4.713,3.82,8.533,8.533,8.533S128,465.513,128,460.8v-34.133c0.001-2.263-0.898-4.434-2.499-6.035
				C123.901,419.032,121.73,418.133,119.467,418.133z"/>
			<path d="M153.6,418.133c-2.263-0.001-4.434,0.898-6.035,2.499c-1.6,1.6-2.499,3.771-2.499,6.035V460.8
				c0,4.713,3.821,8.533,8.533,8.533c4.713,0,8.533-3.82,8.533-8.533v-34.133c0.001-2.263-0.898-4.434-2.499-6.035
				C158.034,419.032,155.863,418.133,153.6,418.133z"/>
			<path d="M256,341.333c-2.263-0.001-4.434,0.898-6.035,2.499c-1.6,1.6-2.499,3.771-2.499,6.035V384
				c0,4.713,3.82,8.533,8.533,8.533c4.713,0,8.533-3.82,8.533-8.533v-34.133c0.001-2.263-0.898-4.434-2.499-6.035
				C260.434,342.232,258.263,341.333,256,341.333z"/>
			<path d="M298.667,238.933h17.067c9.421-0.011,17.056-7.646,17.067-17.067V204.8c-0.011-9.421-7.645-17.056-17.067-17.067h-17.067
				c-9.421,0.011-17.056,7.646-17.067,17.067v17.067C281.611,231.288,289.246,238.923,298.667,238.933z M298.667,204.8h17.067
				l0.009,17.067h-17.075V204.8z"/>
			<path d="M401.067,238.933h17.067c9.421-0.011,17.056-7.646,17.067-17.067V204.8c-0.011-9.421-7.645-17.056-17.067-17.067h-17.067
				c-9.421,0.011-17.056,7.646-17.067,17.067v17.067C384.011,231.288,391.646,238.923,401.067,238.933z M401.067,204.8h17.067
				l0.009,17.067h-17.075V204.8z"/>
			<path d="M230.4,238.933h17.067c9.421-0.011,17.056-7.646,17.067-17.067V204.8c-0.011-9.421-7.645-17.056-17.067-17.067H230.4
				c-9.421,0.011-17.056,7.646-17.067,17.067v17.067C213.344,231.288,220.979,238.923,230.4,238.933z M230.4,204.8h17.067
				l0.009,17.067H230.4V204.8z"/>
			<path d="M179.2,358.4v17.067c0.011,9.421,7.645,17.056,17.067,17.067h17.067c9.421-0.011,17.056-7.645,17.067-17.067V358.4
				c-0.011-9.421-7.646-17.056-17.067-17.067h-17.067C186.846,341.344,179.211,348.979,179.2,358.4z M213.342,375.467h-17.075V358.4
				h17.067L213.342,375.467z"/>
			<path d="M213.333,418.133h-17.067c-9.421,0.011-17.056,7.645-17.067,17.067v17.067c0.011,9.421,7.645,17.056,17.067,17.067
				h17.067c9.421-0.011,17.056-7.646,17.067-17.067V435.2C230.389,425.779,222.755,418.144,213.333,418.133z M196.267,452.267V435.2
				h17.067l0.008,17.067H196.267z"/>
			<path d="M298.667,392.533h17.067c9.421-0.011,17.056-7.645,17.067-17.067V358.4c-0.011-9.421-7.645-17.056-17.067-17.067h-17.067
				c-9.421,0.011-17.056,7.645-17.067,17.067v17.067C281.611,384.888,289.246,392.523,298.667,392.533z M298.667,358.4h17.067
				l0.009,17.067h-17.075V358.4z"/>
			<path d="M315.733,435.2v17.067c0.011,9.421,7.646,17.056,17.067,17.067h17.067c9.421-0.011,17.056-7.646,17.067-17.067V435.2
				c-0.011-9.421-7.645-17.056-17.067-17.067H332.8C323.379,418.144,315.744,425.779,315.733,435.2z M349.875,452.267H332.8V435.2
				h17.067L349.875,452.267z"/>
			<path d="M452.267,418.133H435.2c-9.421,0.011-17.056,7.645-17.067,17.067v17.067c0.011,9.421,7.645,17.056,17.067,17.067h17.067
				c9.421-0.011,17.056-7.646,17.067-17.067V435.2C469.323,425.779,461.688,418.144,452.267,418.133z M435.2,452.267V435.2h17.067
				l0.009,17.067H435.2z"/>
			<path d="M358.4,238.933c2.263,0.001,4.434-0.898,6.035-2.499c1.6-1.6,2.499-3.771,2.499-6.035v-34.133
				c0-4.713-3.82-8.533-8.533-8.533s-8.533,3.82-8.533,8.533V230.4c-0.001,2.263,0.898,4.434,2.499,6.035
				C353.966,238.035,356.137,238.934,358.4,238.933z"/>
			<path d="M358.4,392.533c2.263,0.001,4.434-0.898,6.035-2.499c1.6-1.6,2.499-3.771,2.499-6.035v-34.133
				c0-4.713-3.82-8.533-8.533-8.533s-8.533,3.82-8.533,8.533V384c-0.001,2.263,0.898,4.434,2.499,6.035
				C353.966,391.635,356.137,392.534,358.4,392.533z"/>
			<path d="M392.533,469.333c2.263,0.001,4.434-0.898,6.035-2.499c1.6-1.6,2.499-3.771,2.499-6.035v-34.133
				c0-4.713-3.821-8.533-8.533-8.533c-4.713,0-8.533,3.82-8.533,8.533V460.8c-0.001,2.263,0.898,4.434,2.499,6.035
				C388.099,468.435,390.27,469.334,392.533,469.333z"/>
			<path d="M392.533,392.533c2.263,0.001,4.434-0.898,6.035-2.499c1.6-1.6,2.499-3.771,2.499-6.035v-34.133
				c0-4.713-3.821-8.533-8.533-8.533c-4.713,0-8.533,3.82-8.533,8.533V384c-0.001,2.263,0.898,4.434,2.499,6.035
				C388.099,391.635,390.27,392.534,392.533,392.533z"/>
			<path d="M256,418.133c-2.263-0.001-4.434,0.898-6.035,2.499c-1.6,1.6-2.499,3.771-2.499,6.035V460.8
				c0,4.713,3.82,8.533,8.533,8.533c4.713,0,8.533-3.82,8.533-8.533v-34.133c0.001-2.263-0.898-4.434-2.499-6.035
				C260.434,419.032,258.263,418.133,256,418.133z"/>
			<path d="M290.133,469.333c2.263,0.001,4.434-0.898,6.035-2.499c1.6-1.6,2.499-3.771,2.499-6.035v-34.133
				c0-4.713-3.82-8.533-8.533-8.533s-8.533,3.82-8.533,8.533V460.8c-0.001,2.263,0.898,4.434,2.499,6.035
				C285.699,468.435,287.87,469.334,290.133,469.333z"/>
			<path d="M418.133,281.6v17.067c0.011,9.421,7.645,17.056,17.067,17.067h17.067c9.421-0.011,17.056-7.645,17.067-17.067V281.6
				c-0.011-9.421-7.646-17.056-17.067-17.067H435.2C425.779,264.544,418.144,272.179,418.133,281.6z M452.267,298.667H435.2V281.6
				h17.067V298.667z"/>
			<path d="M392.533,315.733c2.263,0.001,4.434-0.898,6.035-2.499c1.6-1.6,2.499-3.771,2.499-6.035v-34.133
				c0-4.713-3.821-8.533-8.533-8.533c-4.713,0-8.533,3.821-8.533,8.533V307.2c-0.001,2.263,0.898,4.434,2.499,6.035
				C388.099,314.835,390.27,315.734,392.533,315.733z"/>
			<path d="M358.4,315.733c2.263,0.001,4.434-0.898,6.035-2.499c1.6-1.6,2.499-3.771,2.499-6.035v-34.133
				c0-4.713-3.82-8.533-8.533-8.533s-8.533,3.821-8.533,8.533V307.2c-0.001,2.263,0.898,4.434,2.499,6.035
				C353.966,314.835,356.137,315.734,358.4,315.733z"/>
			<path d="M298.667,315.733h17.067c9.421-0.011,17.056-7.645,17.067-17.067V281.6c-0.011-9.421-7.645-17.056-17.067-17.067h-17.067
				c-9.421,0.011-17.056,7.646-17.067,17.067v17.067C281.611,308.088,289.246,315.723,298.667,315.733z M298.667,281.6h17.067
				v17.067h-17.067V281.6z"/>
			<path d="M162.133,315.733H179.2c9.421-0.011,17.056-7.645,17.067-17.067V281.6c-0.011-9.421-7.645-17.056-17.067-17.067h-17.067
				c-9.421,0.011-17.056,7.646-17.067,17.067v17.067C145.077,308.088,152.712,315.723,162.133,315.733z M162.133,281.6H179.2v17.067
				h-17.067V281.6z"/>
			<path d="M59.733,315.733H76.8c9.421-0.011,17.056-7.645,17.067-17.067V281.6c-0.011-9.421-7.646-17.056-17.067-17.067H59.733
				c-9.421,0.011-17.056,7.646-17.067,17.067v17.067C42.677,308.088,50.312,315.723,59.733,315.733z M59.733,281.6H76.8v17.067
				H59.733V281.6z"/>
			<path d="M128,307.2v-34.133c0-4.713-3.82-8.533-8.533-8.533s-8.533,3.821-8.533,8.533V307.2c0,4.713,3.82,8.533,8.533,8.533
				S128,311.913,128,307.2z"/>
			<path d="M256,264.533c-2.263-0.001-4.434,0.898-6.035,2.499c-1.6,1.6-2.499,3.771-2.499,6.035V307.2
				c0,4.713,3.82,8.533,8.533,8.533c4.713,0,8.533-3.82,8.533-8.533v-34.133c0.001-2.263-0.898-4.434-2.499-6.035
				C260.434,265.432,258.263,264.533,256,264.533z"/>
			<path d="M221.867,315.733c2.263,0.001,4.434-0.898,6.035-2.499c1.6-1.6,2.499-3.771,2.499-6.035v-34.133
				c0-4.713-3.82-8.533-8.533-8.533s-8.533,3.821-8.533,8.533V307.2c-0.001,2.263,0.898,4.434,2.499,6.035
				C217.433,314.835,219.603,315.734,221.867,315.733z"/>
			<path d="M435.2,384v-34.133c0-4.713-3.82-8.533-8.533-8.533s-8.533,3.82-8.533,8.533V384c0,4.713,3.82,8.533,8.533,8.533
				S435.2,388.713,435.2,384z"/>
			<path d="M460.8,341.333c-2.263-0.001-4.434,0.898-6.035,2.499c-1.6,1.6-2.499,3.771-2.499,6.035V384
				c0,4.713,3.821,8.533,8.533,8.533s8.533-3.82,8.533-8.533v-34.133c0.001-2.263-0.898-4.434-2.499-6.035
				C465.234,342.232,463.063,341.333,460.8,341.333z"/>
			<path d="M460.8,238.933c2.263,0.001,4.434-0.898,6.035-2.499c1.6-1.6,2.499-3.771,2.499-6.035v-34.133
				c0-4.713-3.82-8.533-8.533-8.533s-8.533,3.82-8.533,8.533V230.4c-0.001,2.263,0.898,4.434,2.499,6.035
				C456.366,238.035,458.537,238.934,460.8,238.933z"/>
		</g>
	</g>
</g>
<g>
</g>
<g>
</g>
<g>
</g>
<g>
</g>
<g>
</g>
<g>
</g>
<g>
</g>
<g>
</g>
<g>
</g>
<g>
</g>
<g>
</g>
<g>
</g>
<g>
</g>
<g>
</g>
<g>
</g>
</svg>
