<?xml version="1.0" encoding="iso-8859-1"?>
<!-- Generator: Adobe Illustrator 19.0.0, SVG Export Plug-In . SVG Version: 6.00 Build 0)  -->
<svg version="1.1" id="Capa_1" xmlns="http://www.w3.org/2000/svg" xmlns:xlink="http://www.w3.org/1999/xlink" x="0px" y="0px"
	 viewBox="0 0 512.001 512.001" style="enable-background:new 0 0 512.001 512.001;" xml:space="preserve">
<g>
	<g>
		<g>
			<path d="M494.301,213.333h-40.558c-5.013-28.916-16.045-56.455-32.383-80.833l22.15-22.154c6.917-6.931,6.917-18.153,0-25.083
				l-25.933-25.929c-3.315-3.337-7.829-5.207-12.533-5.192h-0.009c-4.705-0.017-9.221,1.849-12.542,5.183l-22.117,22.109
				c-23.981-16.232-51.102-27.248-79.608-32.337V17.7c-0.012-9.77-7.93-17.688-17.7-17.7h-33.5c-9.77,0.012-17.688,7.93-17.7,17.7
				v31.396c-28.708,5.058-56.034,16.089-80.208,32.379l-22.15-22.15c-3.32-3.334-7.836-5.201-12.542-5.183h-0.008
				c-4.7-0.016-9.211,1.85-12.525,5.183L68.493,85.263c-6.917,6.931-6.917,18.153,0,25.083l22.108,22.117
				c-16.325,24.394-27.344,51.946-32.342,80.871H17.701c-9.77,0.012-17.688,7.93-17.7,17.7v33.5c0.012,9.77,7.93,17.688,17.7,17.7
				h46.919c3.144,13.998,7.835,27.603,13.987,40.564c-0.106,0.433-0.278,0.9-0.364,1.315c-0.267,1.2-0.542,2.471-0.817,4.242
				c-0.125,0.95-0.25,1.904-0.233,2.113c-0.165,1.008-0.251,2.028-0.258,3.05c-0.067,1.138-0.133,2.342-0.133,3.55
				c0.054,16.618,7.036,32.461,19.267,43.712c-0.886,1.526-1.714,3.125-2.485,4.798l-0.048,0.085l-0.057,0.145
				c-0.625,1.407-1.222,2.869-1.56,3.922l-0.061,0.207l-0.089,0.226l-0.015,0.125c-0.607,1.629-1.1,3.298-1.476,4.995
				c-0.367,1.379-0.675,2.75-0.867,3.958c-0.563,3.152-0.845,6.348-0.842,9.55c0.07,26.381,18.163,49.297,43.808,55.484
				c0.083,0.254,0.158,0.492,0.233,0.692c0.485,1.724,1.081,3.415,1.783,5.063c0.496,1.319,1.069,2.607,1.717,3.858
				c0.295,0.722,0.635,1.424,1.017,2.104c0.455,0.959,0.967,1.89,1.533,2.787c0.275,0.496,0.583,0.996,0.925,1.533
				c1.133,1.83,2.36,3.601,3.675,5.304l2.433,3.033c3.321,3.829,7.067,7.266,11.167,10.246c0.883,0.65,1.75,1.246,2.708,1.888
				c2.675,1.761,5.474,3.326,8.375,4.683c1.9,0.921,3.867,1.721,5.9,2.471c1.175,0.425,2.333,0.787,3.8,1.237
				c0.95,0.283,1.975,0.567,2.533,0.683c2.199,0.583,4.431,1.034,6.683,1.35c0.933,0.146,1.933,0.292,2.483,0.321
				c2.59,0.325,5.198,0.482,7.808,0.471c24.263,0.087,46.717-12.822,58.85-33.834c12.133,21.012,34.587,33.92,58.85,33.833
				c2.459,0.017,4.917-0.125,7.358-0.425c1-0.075,2-0.221,2.842-0.354c2.154-0.294,4.288-0.717,6.391-1.267
				c0.942-0.212,1.967-0.496,3.217-0.87c1.167-0.358,2.325-0.721,3.575-1.171c1.958-0.725,3.925-1.525,5.708-2.392
				c2.971-1.386,5.837-2.988,8.575-4.792c0.875-0.588,1.742-1.183,2.525-1.766c4.353-3.167,8.311-6.844,11.792-10.95l1.892-2.367
				c1.335-1.736,2.581-3.538,3.733-5.4c0.308-0.487,0.617-0.975,0.883-1.467c0.566-0.898,1.078-1.829,1.533-2.788
				c0.38-0.679,0.719-1.381,1.017-2.1c0.608-1.164,1.145-2.363,1.608-3.592c0.693-1.602,1.283-3.247,1.766-4.925
				c0.125-0.367,0.242-0.733,0.358-1.1c25.645-6.187,43.739-29.103,43.808-55.484c0.005-3.175-0.273-6.345-0.833-9.471
				c-0.195-1.228-0.454-2.445-0.775-3.646c-0.386-1.876-0.918-3.719-1.592-5.513c-0.5-1.521-1.125-3.042-1.766-4.488l-0.028-0.057
				l-0.039-0.097c-0.068-0.146-0.152-0.28-0.221-0.425c-0.672-1.478-1.419-2.922-2.238-4.324
				c12.225-11.251,19.205-27.09,19.259-43.705c0-1.208-0.067-2.412-0.117-3.042c0.014-0.941-0.05-1.882-0.192-2.813
				c-0.067-0.954-0.192-1.908-0.392-3.362c-0.2-1.267-0.475-2.537-0.717-3.621c-0.106-0.507-0.23-0.993-0.351-1.482
				c6.135-12.946,10.814-26.534,13.948-40.514h46.92c9.771-0.012,17.688-7.93,17.7-17.7v-33.5
				C511.989,221.263,504.071,213.345,494.301,213.333z M247.467,446.088c-0.444,27.367-22.949,49.214-50.317,48.846
				c-2.026,0.006-4.049-0.12-6.059-0.375c-0.533-0.042-1.067-0.129-1.642-0.221c-1.733-0.24-3.45-0.585-5.142-1.033
				c-0.575-0.129-1.2-0.308-1.917-0.525c-0.925-0.283-1.85-0.567-2.708-0.875c-1.442-0.533-2.892-1.117-4.408-1.85
				c-2.166-1.009-4.257-2.17-6.258-3.475c-0.658-0.446-1.308-0.883-2.058-1.442c-3.148-2.288-6.018-4.936-8.55-7.892l-1.667-2.092
				c-0.956-1.233-1.844-2.519-2.658-3.85l-0.466-0.741c-0.15-0.292-0.317-0.574-0.5-0.846c-0.283-0.454-0.533-0.927-0.75-1.417
				c-0.142-0.292-0.467-1.008-0.633-1.283c-0.116-0.287-0.25-0.567-0.4-0.838c-0.426-0.818-0.799-1.663-1.117-2.529
				c-0.517-1.215-0.957-2.462-1.317-3.733l-0.242-0.742c-0.059-0.322-0.134-0.64-0.225-0.954c-0.267-0.925-0.5-1.813-0.683-2.783
				l-0.025-0.071v-0.07c-0.603-3.032-0.902-6.117-0.892-9.208c-0.032-10.579,3.483-20.863,9.983-29.209
				c1.865-2.411,2.302-5.635,1.146-8.456c-1.156-2.821-3.729-4.811-6.75-5.221c-3.021-0.41-6.031,0.824-7.896,3.235
				c-8.625,11.108-13.361,24.742-13.481,38.804c-14.607-6.245-24.114-20.564-24.202-36.45c-0.001-2.241,0.2-4.478,0.6-6.683
				c0.161-0.946,0.37-1.883,0.625-2.808c0.266-1.291,0.636-2.557,1.108-3.787c0.32-0.962,0.728-1.915,1.134-2.848
				c0.936-2.017,2.034-3.954,3.282-5.794c0.483-0.742,1.011-1.441,1.555-2.142c0.124-0.152,0.161-0.239,0.303-0.408
				c5.23-6.709,12.436-11.605,20.6-13.996c4.52-1.339,7.098-6.089,5.758-10.608s-6.089-7.098-10.608-5.758
				c-8.686,2.558-16.648,7.122-23.245,13.325c-8.17-7.939-12.81-18.824-12.881-30.216c0-0.858,0.05-1.721,0.117-3.042
				c0.018-0.557,0.071-1.112,0.158-1.662c0.033-0.567,0.117-1.133,0.208-1.804c0.15-0.908,0.341-1.821,0.567-2.804
				c0.198-0.961,0.463-1.908,0.792-2.833c1.915-6.434,5.354-12.312,10.025-17.133c0.353-0.404,0.732-0.785,1.133-1.142
				c3.442-3.384,7.421-6.173,11.775-8.254l0.006-0.004c6.135-2.934,12.852-4.448,19.652-4.429c4.713,0,8.533-3.82,8.533-8.533
				c0-4.713-3.82-8.533-8.533-8.533c-6.418,0.011-12.796,1.013-18.908,2.97c-1.301-3.747-1.971-7.683-1.984-11.65
				c0.36-20.973,17.635-37.694,38.608-37.371c6.533-0.03,12.968,1.59,18.708,4.708c4.144,2.246,9.325,0.707,11.571-3.438
				c2.246-4.144,0.707-9.325-3.438-11.571c-5.571-2.997-11.613-5.02-17.866-5.982c2.825-20.416,20.374-35.557,40.983-35.36
				c20.117,0,41.492,11.588,41.492,33.067c0,0.189,0.096,0.347,0.108,0.533c-0.012,0.186-0.108,0.344-0.108,0.533v8.533h-25.6
				v-8.533c0-4.713-3.821-8.533-8.533-8.533c-4.713,0-8.533,3.821-8.533,8.533V230.4c-0.001,2.263,0.898,4.434,2.499,6.035
				c1.6,1.6,3.771,2.499,6.035,2.499h34.133V256h-34.133c-4.713,0-8.533,3.82-8.533,8.533s3.821,8.533,8.533,8.533h34.133v25.6
				h-42.667c-2.263-0.001-4.434,0.898-6.035,2.499c-1.6,1.6-2.499,3.771-2.499,6.035v8.533h-34.133c-4.713,0-8.533,3.82-8.533,8.533
				s3.82,8.533,8.533,8.533h42.667c2.263,0.001,4.434-0.898,6.035-2.499c1.6-1.6,2.499-3.771,2.499-6.035v-8.533h34.133V358.4
				h-34.133c-4.713,0-8.533,3.82-8.533,8.533s3.821,8.533,8.533,8.533h34.133v42.667h-34.133v-17.067
				c0-4.713-3.821-8.533-8.533-8.533s-8.533,3.821-8.533,8.533v25.6c-0.001,2.263,0.898,4.434,2.499,6.035
				c1.6,1.6,3.771,2.499,6.035,2.499h42.667v9.417c0,0.261,0.126,0.481,0.148,0.735
				C247.593,445.607,247.467,445.827,247.467,446.088z M256.001,185.259c-12.159-15.084-30.657-23.635-50.025-23.125
				c-30.013-0.247-55.284,22.387-58.333,52.246c-6.347,0.947-12.484,2.98-18.142,6.01c9.127-62.844,63.004-109.459,126.507-109.456
				s117.375,46.625,126.495,109.47c-5.659-3.03-11.796-5.065-18.144-6.016c-3.044-29.863-28.317-52.502-58.333-52.254
				C286.658,161.624,268.16,170.175,256.001,185.259z M405.248,367.289c-6.592-6.207-14.553-10.774-23.239-13.331
				c-4.52-1.339-9.269,1.239-10.609,5.758s1.239,9.269,5.758,10.608c8.219,2.434,15.467,7.386,20.723,14.157
				c0.616,0.783,1.199,1.565,1.827,2.527c0.982,1.493,1.865,3.049,2.642,4.658c0.147,0.307,0.363,0.576,0.499,0.887
				c0.384,0.867,0.754,1.77,1.07,2.677c0.089,0.245,0.171,0.441,0.263,0.715c0.45,1.219,0.803,2.472,1.058,3.746
				c0.217,0.804,0.392,1.61,0.525,2.417l0.025,0.167c0.387,2.151,0.579,4.332,0.575,6.517c-0.088,15.886-9.595,30.205-24.202,36.45
				c-0.12-14.063-4.857-27.696-13.481-38.804c-1.865-2.411-4.875-3.645-7.896-3.235c-3.021,0.41-5.594,2.4-6.75,5.221
				c-1.156,2.821-0.719,6.044,1.146,8.456c6.5,8.346,10.015,18.629,9.984,29.208c0.01,3.091-0.289,6.176-0.892,9.208v0.071
				l-0.025,0.071c-0.183,0.971-0.417,1.858-0.683,2.783c-0.042,0.138-0.175,0.738-0.208,0.875l-0.4,1.279
				c-0.353,1.208-0.782,2.392-1.283,3.546c-0.287,0.774-0.624,1.528-1.008,2.258c-0.15,0.271-0.45,0.987-0.567,1.275
				c-0.173,0.272-0.328,0.555-0.467,0.846c-0.217,0.489-0.467,0.962-0.75,1.417c-0.133,0.196-0.367,0.612-0.483,0.817l-0.483,0.771
				c-0.821,1.34-1.714,2.635-2.675,3.879l-1.8,2.25c-2.523,2.91-5.376,5.518-8.5,7.771c-0.65,0.492-1.3,0.929-1.875,1.321
				c-2.064,1.348-4.222,2.545-6.458,3.583c-1.4,0.679-2.85,1.263-4.217,1.771c-0.933,0.333-1.858,0.617-2.917,0.946
				c-0.583,0.171-1.208,0.35-2.167,0.575c-1.596,0.414-3.216,0.731-4.85,0.95c-0.483,0.079-1.017,0.167-2,0.254
				c-1.86,0.231-3.734,0.341-5.609,0.329c-27.368,0.368-49.873-21.479-50.317-48.846c0-0.261-0.125-0.481-0.148-0.735
				c0.023-0.255,0.148-0.474,0.148-0.735V435.2h25.6v17.067c0,4.713,3.82,8.533,8.533,8.533s8.533-3.821,8.533-8.533v-25.6
				c0.001-2.263-0.898-4.434-2.499-6.035c-1.6-1.6-3.771-2.499-6.035-2.499h-34.133v-17.067h34.133c4.713,0,8.533-3.821,8.533-8.533
				c0-4.713-3.82-8.533-8.533-8.533h-34.133v-25.6h42.667c2.263,0.001,4.434-0.898,6.035-2.499c1.6-1.6,2.499-3.771,2.499-6.035
				V332.8h34.133c4.713,0,8.533-3.82,8.533-8.533s-3.82-8.533-8.533-8.533h-42.667c-2.263-0.001-4.434,0.898-6.035,2.499
				c-1.6,1.6-2.499,3.771-2.499,6.035v17.067h-34.133v-42.667h34.133c4.713,0,8.533-3.82,8.533-8.533s-3.82-8.533-8.533-8.533
				h-34.133v-42.667h25.6v8.533c0,4.713,3.82,8.533,8.533,8.533s8.533-3.82,8.533-8.533V230.4c0.001-2.263-0.898-4.434-2.499-6.035
				c-1.6-1.6-3.771-2.499-6.035-2.499h-34.133v-8.533c0-0.189-0.096-0.347-0.108-0.533c0.012-0.186,0.108-0.344,0.108-0.533
				c0-21.479,21.375-33.067,41.492-33.067c20.61-0.196,38.158,14.946,40.983,35.362c-6.562,1.019-12.889,3.202-18.683,6.446
				c-4.095,2.317-5.543,7.511-3.237,11.612c2.306,4.101,7.496,5.563,11.603,3.267c5.882-3.331,12.532-5.07,19.292-5.046l0.034-0.007
				l0.033,0.007c20.951-0.294,38.19,16.42,38.542,37.371c-0.013,3.966-0.683,7.902-1.984,11.649
				c-6.112-1.957-12.49-2.959-18.908-2.97c-4.713,0-8.533,3.82-8.533,8.533s3.82,8.533,8.533,8.533
				c6.8-0.019,13.518,1.495,19.652,4.429l0.006,0.004c4.506,2.174,8.618,5.085,12.167,8.612c0.267,0.237,0.5,0.517,0.9,0.954
				c4.703,4.923,8.143,10.912,10.025,17.454c0.277,0.803,0.497,1.624,0.658,2.458c0.2,0.867,0.392,1.779,0.55,2.792
				c0.083,0.567,0.167,1.133,0.283,2.446c0.066,0.472,0.097,0.948,0.092,1.425c0.05,0.812,0.1,1.675,0.1,2.533
				C418.064,348.461,413.421,359.35,405.248,367.289z M494.934,264.533c-0.012,0.345-0.288,0.622-0.633,0.633h-47.842
				c-0.685,0.051-1.361,0.187-2.012,0.406c-0.698-0.407-1.452-0.709-2.238-0.898c-2.226-0.412-4.525,0.078-6.39,1.362
				c-1.865,1.284-3.142,3.257-3.552,5.483c-1.947,10.409-4.823,20.622-8.594,30.517c-1.457-1.997-3.04-3.898-4.74-5.692
				c-0.564-0.648-1.165-1.263-1.8-1.842c-2.75-2.711-5.756-5.15-8.975-7.283c6.534-17.024,3.805-36.216-7.216-50.744
				c-1.281-79.126-65.787-142.601-144.923-142.608c-79.136-0.007-143.653,63.457-144.948,142.583
				c-11.027,14.53-13.764,33.727-7.238,50.76c-3.079,2.025-5.951,4.347-8.575,6.933c-0.719,0.634-1.398,1.312-2.033,2.029
				c-1.748,1.847-3.377,3.802-4.878,5.854c-3.782-9.89-6.665-20.1-8.614-30.508c-0.405-2.229-1.682-4.205-3.547-5.49
				c-1.866-1.285-4.167-1.773-6.394-1.356c-0.786,0.189-1.54,0.491-2.238,0.898c-0.651-0.219-1.327-0.356-2.012-0.406H17.701
				c-0.345-0.012-0.622-0.289-0.633-0.634v-33.5c0.012-0.345,0.288-0.622,0.633-0.633h47.842c4.255,0.001,7.86-3.133,8.45-7.346
				c4.235-31.217,16.117-60.904,34.592-86.421c2.535-3.396,2.19-8.139-0.808-11.133L80.559,98.279c-0.242-0.271-0.242-0.679,0-0.95
				L106.5,71.392h0.108c0.233-0.004,0.825-0.009,0.833,0l27.225,27.221c3.07,2.912,7.769,3.25,11.225,0.808
				c25.279-18.419,54.719-30.303,85.7-34.596c4.211-0.594,7.342-4.197,7.342-8.45V17.7c0.012-0.345,0.288-0.622,0.633-0.633h33.5
				c0.345,0.012,0.622,0.288,0.633,0.633v38.675c0,4.255,3.136,7.86,7.35,8.45c30.802,4.332,60.054,16.217,85.15,34.596
				c3.399,2.526,8.135,2.182,11.133-0.808l27.225-27.221h0.108c0.25-0.004,0.833-0.009,0.833,0l25.941,25.938
				c0.242,0.271,0.242,0.679,0,0.95L404.226,125.5c-1.603,1.636-2.501,3.835-2.5,6.125c-0.001,1.838,0.593,3.627,1.692,5.1
				c18.464,25.49,30.346,55.146,34.592,86.334c0.595,4.21,4.198,7.341,8.45,7.342h47.842c0.345,0.012,0.622,0.288,0.633,0.633
				V264.533z"/>
			<path d="M179.201,358.4h-8.533c-4.713,0-8.533,3.82-8.533,8.533s3.82,8.533,8.533,8.533h8.533c4.713,0,8.533-3.82,8.533-8.533
				S183.914,358.4,179.201,358.4z"/>
			<path d="M170.667,273.067h8.533c4.713,0,8.533-3.82,8.533-8.533s-3.82-8.533-8.533-8.533h-8.533c-4.713,0-8.533,3.82-8.533,8.533
				S165.955,273.067,170.667,273.067z"/>
			<path d="M341.334,281.6h-8.533c-4.713,0-8.533,3.82-8.533,8.533s3.821,8.533,8.533,8.533h8.533c4.713,0,8.533-3.82,8.533-8.533
				S346.047,281.6,341.334,281.6z"/>
			<path d="M341.334,384h-8.533c-4.713,0-8.533,3.821-8.533,8.533c0,4.713,3.821,8.533,8.533,8.533h8.533
				c4.713,0,8.533-3.821,8.533-8.533C349.867,387.821,346.047,384,341.334,384z"/>
		</g>
	</g>
</g>
<g>
</g>
<g>
</g>
<g>
</g>
<g>
</g>
<g>
</g>
<g>
</g>
<g>
</g>
<g>
</g>
<g>
</g>
<g>
</g>
<g>
</g>
<g>
</g>
<g>
</g>
<g>
</g>
<g>
</g>
</svg>
