<?xml version="1.0" encoding="iso-8859-1"?>
<!-- Generator: Adobe Illustrator 19.0.0, SVG Export Plug-In . SVG Version: 6.00 Build 0)  -->
<svg version="1.1" id="Capa_1" xmlns="http://www.w3.org/2000/svg" xmlns:xlink="http://www.w3.org/1999/xlink" x="0px" y="0px"
	 viewBox="0 0 503.847 503.847" style="enable-background:new 0 0 503.847 503.847;" xml:space="preserve">
<g>
	<g>
		<path d="M486.955,294.01h-25.18V100.961c-0.027-23.167-18.801-41.94-41.967-41.967H213.243
			c-4.503-11.164-11.075-21.377-19.37-30.102C166.356,3.305,127.512-6.129,91.324,3.986c-26.191,6.623-48.979,22.757-63.926,45.26
			c-0.387,0.348-0.738,0.733-1.05,1.15c-0.12,0.284-0.223,0.574-0.309,0.87c-5.461,8.755-9.524,18.308-12.043,28.314
			c-2.095,7.589-2.961,15.465-2.566,23.328c0.431,4.856,1.323,9.661,2.664,14.348c1.611,5.278,2.413,10.769,2.377,16.287
			c-1.273,6.804-4.229,13.181-8.598,18.549c-5.115,7.697-9.943,14.963-6.738,22.631c2.705,5.137,7.786,8.594,13.557,9.225
			c0.587,0.102,1.182,0.152,1.779,0.152c0,13.516,0,20.299,6.787,26.967c1.696,1.677,3.746,2.953,6,3.734
			c-0.057,0.975-0.164,1.943-0.271,2.902c-1.403,5.225-0.639,10.794,2.12,15.448s7.279,7.997,12.536,9.273
			c3.021,0.845,6.151,1.227,9.287,1.135c12.043-0.452,23.966-2.554,35.437-6.248c1.511,3.227,2.68,6.602,3.489,10.072
			c0.226,1.009,0.545,1.995,0.953,2.945c-0.178,0.557-0.293,1.133-0.346,1.715v134.295c0.027,23.167,18.801,41.94,41.967,41.967
			h109.115v50.361c0.015,13.9,11.28,25.165,25.18,25.18h209.836c13.9-0.015,25.165-11.28,25.18-25.18V310.797
			C503.732,301.531,496.222,294.021,486.955,294.01z M260.333,75.781h159.475c13.9,0.015,25.165,11.28,25.18,25.18v151.082h-16.787
			V109.355c-0.011-9.267-7.52-16.776-16.787-16.787H260.333V75.781z M444.988,268.83v25.18h-16.787v-25.18H444.988z M243.546,75.781
			v16.787h-21.842c-0.588-5.656-1.566-11.265-2.925-16.787H243.546z M149.625,21.577c12.143,3.646,23.216,10.19,32.265,19.07
			c5.065,5.304,9.316,11.329,12.616,17.878c-4.762-1.542-9.289-3.734-13.452-6.513c-11.359-8.78-24.678-14.673-38.815-17.174
			C144.814,29.944,147.349,25.42,149.625,21.577z M137.109,51.16c12.68,1.703,24.656,6.829,34.641,14.826
			c9.021,5.96,19.292,9.768,30.018,11.13c1.475,5.404,2.528,10.915,3.149,16.483c-7.253,0.924-14.425,2.401-21.453,4.416
			c-4.948-19.837-23.798-27.233-55.033-29.464c1.565-5.796,3.53-11.477,5.88-17.001C135.259,51.586,136.207,51.454,137.109,51.16z
			 M205.604,110.425c-0.155,4.501-0.624,8.985-1.403,13.421c-1.202,6.517-2.626,12.372-4.159,17.786
			c-13.738-3.093-15.1-10.595-15.231-26.515C191.593,112.953,198.55,111.383,205.604,110.425z M95.66,20.203
			c12-3.164,24.495-4.003,36.81-2.47c-2.741,4.809-5.642,10.231-8.526,16.089c-1.278-0.006-2.567-0.008-3.948-0.008h-2.352
			l-0.019,0.004l-0.178,0c-30.534,0.706-45.474,15.579-52.341,26.43c-6.632-2.362-13.102-5.155-19.37-8.359
			C58.486,36.175,76.014,25.05,95.66,20.203z M116.573,50.696c-2.165,5.576-3.93,11.3-5.284,17.127
			c-3.373-0.065-6.84-0.099-10.432-0.099c-6.287-0.142-12.539-0.962-18.65-2.445C90.963,55.604,103.531,50.271,116.573,50.696z
			 M104.201,231.551c9.81-3.605,18.621-9.494,25.705-17.18c2.816-3.68,2.115-8.947-1.566-11.762
			c-3.68-2.816-8.947-2.115-11.762,1.566c-10.672,13.955-58.262,25.389-67.721,22.291c-3.771-1.234-3.771-1.234-3.172-7.025
			c0.237-1.984,0.371-3.978,0.402-5.975c1.017-6.796-3.613-13.149-10.393-14.262c-0.262-0.061-0.557-0.098-0.672-0.115
			c-1.566-1.533-1.763-3.217-1.763-14.988c0.176-8.726-6.509-16.062-15.213-16.697c1.049-1.869,2.623-4.238,3.811-6.021
			c6.292-7.892,10.243-17.392,11.402-27.418c0.114-5.21-0.429-10.413-1.615-15.488c1.011-0.194,2.028-0.425,3.033-0.545
			c5.71-0.281,11.424,0.44,16.885,2.131c1.893,0.455,3.771,0.902,5.615,1.287c0.566,0.117,1.143,0.176,1.721,0.176
			c4.299-0.007,7.899-3.26,8.338-7.537c0.439-4.277-2.424-8.194-6.633-9.074c-1.689-0.353-3.402-0.762-5.131-1.176
			c-7.399-2.218-15.143-3.055-22.844-2.467c-1.465,0.175-2.937,0.499-4.407,0.787c-0.01-0.123-0.043-0.233-0.052-0.357
			c-0.248-6.102,0.468-12.204,2.123-18.082c1.548-6.035,3.759-11.88,6.593-17.429c9.274,4.81,18.94,8.824,28.893,11.998l0.014,0.01
			l0.059,0.012c11.288,3.839,23.089,5.962,35.007,6.299c62.475,0,67.148,9.971,67.148,25.18c0,20.139,0.087,40.848,26.716,47.828
			c-3.402,8.502-7.331,16.783-11.765,24.795c-2.361,4.393-4.385,8.184-5.902,11.807c-0.44,1.05-0.66,2.179-0.646,3.317l-0.01,0.049
			c2.183,16.07,7.008,31.668,14.279,46.164l-55.82,0.086c-0.149-0.008-0.275-0.086-0.426-0.086c-0.154,0-0.281,0.079-0.433,0.088
			l-25.747,0.039C107.294,239.582,105.938,235.488,104.201,231.551z M126.037,260.437v25.18h-16.787v-25.18H126.037z
			 M201.578,411.519h-67.148c-13.9-0.015-25.165-11.28-25.18-25.18v-83.934h16.787v75.541c0.011,9.267,7.52,16.776,16.787,16.787
			h58.754V411.519z M243.546,411.519h-25.18v-16.787h25.18V411.519z M243.546,352.765v25.18H142.824V260.437h47.852
			c5.763,0.006,11.125-2.949,14.199-7.824c3.074-4.875,3.429-10.987,0.94-16.185c-5.8-11.892-10.002-24.498-12.495-37.492
			c1.177-2.545,2.652-5.384,4.43-8.693c11.165-19.676,18.927-41.096,22.959-63.357c1.006-5.793,1.569-11.654,1.682-17.533h189.023
			V294.01h-11.27c-11.138-0.031-21.826,4.395-29.68,12.291l-13.902,13.91c-4.714,4.737-11.128,7.392-17.811,7.373h-70.025
			C254.826,327.599,243.561,338.864,243.546,352.765z M486.955,478.666c-0.005,4.634-3.76,8.389-8.393,8.393H268.726
			c-4.634-0.005-8.389-3.76-8.393-8.393v-92.328c0.005-4.634,3.76-8.389,8.393-8.393h218.229V478.666z M486.955,361.158H268.726
			c-2.866,0.028-5.706,0.552-8.393,1.547v-9.94c0.005-4.634,3.76-8.389,8.393-8.393h70.025c11.138,0.031,21.825-4.395,29.68-12.291
			l13.902-13.91c4.714-4.737,11.128-7.392,17.811-7.373l86.811,0.025V361.158z"/>
	</g>
</g>
<g>
</g>
<g>
</g>
<g>
</g>
<g>
</g>
<g>
</g>
<g>
</g>
<g>
</g>
<g>
</g>
<g>
</g>
<g>
</g>
<g>
</g>
<g>
</g>
<g>
</g>
<g>
</g>
<g>
</g>
</svg>
