<?xml version="1.0" encoding="iso-8859-1"?>
<!-- Generator: Adobe Illustrator 19.0.0, SVG Export Plug-In . SVG Version: 6.00 Build 0)  -->
<svg version="1.1" id="Capa_1" xmlns="http://www.w3.org/2000/svg" xmlns:xlink="http://www.w3.org/1999/xlink" x="0px" y="0px"
	 viewBox="0 0 503.851 503.851" style="enable-background:new 0 0 503.851 503.851;" xml:space="preserve">
<g>
	<g>
		<path d="M419.81,253.617V100.966c-0.027-23.167-18.801-41.94-41.967-41.967H213.247c-4.505-11.165-11.079-21.378-19.375-30.102
			C166.363,3.303,127.519-6.132,91.335,3.991C65.147,10.611,42.36,26.74,27.41,49.237c-0.392,0.353-0.748,0.744-1.063,1.167
			c-0.121,0.285-0.224,0.577-0.311,0.875c-5.46,8.755-9.522,18.308-12.042,28.313c-2.089,7.589-2.955,15.462-2.566,23.324
			c0.436,4.85,1.328,9.649,2.664,14.332c1.613,5.282,2.416,10.777,2.381,16.299c-1.273,6.806-4.231,13.184-8.602,18.553
			c-5.111,7.693-9.934,14.959-6.738,22.627c2.706,5.138,7.789,8.596,13.562,9.225c0.357,0.07,1.032,0.127,1.393,0.152
			c0.123,0.008,0.279,0.033,0.381,0.049c0,13.484,0.008,20.262,6.791,26.914c1.695,1.679,3.746,2.956,6,3.738
			c-0.062,0.975-0.168,1.943-0.266,2.902c-1.406,5.224-0.644,10.794,2.113,15.448c2.758,4.654,7.277,7.998,12.534,9.273
			c3.021,0.845,6.152,1.228,9.287,1.135c12.042-0.453,23.966-2.556,35.437-6.25c1.512,3.229,2.681,6.608,3.489,10.081
			c0.227,1.001,0.549,1.978,0.961,2.919c-0.18,0.563-0.297,1.144-0.349,1.733v134.295c0.027,23.167,18.801,41.94,41.967,41.967
			h151.082v16.787c0,32.947,47.93,58.754,109.115,58.754c61.188,0,109.115-25.807,109.115-58.754V310.802
			C503.745,282.545,468.448,259.594,419.81,253.617z M260.335,75.786h117.508c13.9,0.015,25.165,11.28,25.18,25.18v109.115h-16.787
			V109.359c-0.009-9.267-7.52-16.778-16.787-16.787H260.335V75.786z M403.024,226.868v25.401c-2.778-0.109-5.555-0.221-8.393-0.221
			c-2.839,0-5.616,0.112-8.393,0.221v-25.401H403.024z M243.548,75.786v16.787h-21.839c-0.588-5.656-1.566-11.265-2.926-16.787
			H243.548z M205.611,110.428c-0.155,4.5-0.624,8.984-1.403,13.419c-1.202,6.518-2.627,12.376-4.161,17.79
			c-13.739-3.093-15.103-10.596-15.233-26.516C191.597,112.957,198.556,111.387,205.611,110.428L205.611,110.428z M149.626,21.582
			c12.141,3.643,23.213,10.188,32.259,19.068c5.067,5.303,9.321,11.327,12.623,17.877c-4.762-1.541-9.288-3.733-13.451-6.512
			c-11.359-8.781-24.679-14.675-38.818-17.174C144.816,29.943,147.352,25.42,149.626,21.582z M137.069,51.161L137.069,51.161
			c12.697,1.695,24.69,6.822,34.688,14.829c9.003,6.001,19.283,9.816,30.02,11.143c1.474,5.4,2.525,10.906,3.145,16.469
			c-7.254,0.925-14.426,2.402-21.455,4.418c-4.948-19.837-23.797-27.233-55.032-29.464c1.572-5.799,3.544-11.481,5.902-17.007
			C135.263,51.575,136.187,51.443,137.069,51.161z M95.671,20.208c11.997-3.163,24.488-4,36.799-2.468
			c-2.738,4.801-5.638,10.221-8.522,16.087c-1.279-0.006-2.568-0.008-3.953-0.008h-2.348l-0.019,0.004l-0.178,0
			c-30.545,0.706-45.479,15.58-52.34,26.43c-6.632-2.362-13.103-5.154-19.372-8.357C58.49,36.181,76.022,25.055,95.671,20.208z
			 M116.574,50.701L116.574,50.701c-2.166,5.576-3.932,11.299-5.286,17.126c-3.372-0.065-6.838-0.099-10.428-0.099
			c-6.286-0.142-12.538-0.962-18.649-2.445C90.965,55.608,103.533,50.275,116.574,50.701z M104.204,231.556
			c9.811-3.605,18.622-9.494,25.705-17.18c1.821-2.382,2.234-5.555,1.081-8.324c-1.152-2.769-3.694-4.712-6.668-5.098
			c-2.974-0.386-5.928,0.843-7.749,3.226c-10.664,13.947-58.279,25.373-67.713,22.291c-3.771-1.23-3.771-1.23-3.168-7.025
			c0.236-1.984,0.368-3.978,0.398-5.975c1.018-6.795-3.609-13.148-10.389-14.262c-0.266-0.061-0.557-0.098-0.68-0.119
			c-1.566-1.537-1.763-3.217-1.763-14.984c0.176-8.726-6.509-16.062-15.213-16.697c1.053-1.869,2.627-4.234,3.811-6.021
			c6.292-7.89,10.241-17.389,11.398-27.414c0.118-5.211-0.422-10.415-1.607-15.491c1.012-0.194,2.029-0.426,3.033-0.546
			c5.711-0.276,11.426,0.445,16.889,2.131c1.889,0.455,3.762,0.902,5.611,1.287c0.566,0.117,1.143,0.176,1.721,0.176
			c4.301-0.003,7.904-3.258,8.343-7.536c0.439-4.279-2.427-8.197-6.638-9.074c-1.689-0.352-3.398-0.762-5.127-1.176
			c-7.4-2.217-15.145-3.054-22.848-2.467c-1.463,0.175-2.934,0.499-4.404,0.786c-0.01-0.123-0.043-0.233-0.051-0.356
			c-0.251-6.101,0.463-12.204,2.115-18.082c1.549-6.035,3.761-11.881,6.596-17.43c9.278,4.812,18.949,8.827,28.907,12.002
			l0.009,0.006l0.037,0.008c11.292,3.841,23.097,5.966,35.02,6.304c62.475,0,67.148,9.971,67.148,25.18
			c0,20.138,0.087,40.846,26.716,47.827c-3.402,8.498-7.331,16.775-11.765,24.784c-2.357,4.398-4.39,8.197-5.906,11.82
			c-0.439,1.052-0.658,2.183-0.643,3.323l-0.009,0.042c2.187,16.068,7.01,31.666,14.275,46.164l-55.802,0.089
			c-0.154-0.008-0.284-0.089-0.44-0.089c-0.158,0-0.291,0.081-0.447,0.09l-25.738,0.041
			C107.295,239.589,105.94,235.494,104.204,231.556z M126.04,260.441v25.18h-16.787v-25.18H126.04z M243.548,411.523H134.433
			c-13.9-0.015-25.165-11.28-25.18-25.18v-83.934h16.787v75.541c0.009,9.267,7.52,16.778,16.787,16.787h100.721V411.523z
			 M285.515,411.523h-25.18v-16.787h25.18V411.523z M285.515,310.802v67.148H142.827V260.441h47.848
			c5.763,0.006,11.125-2.947,14.2-7.821s3.433-10.984,0.948-16.183c-5.799-11.892-10.002-24.499-12.499-37.492
			c1.176-2.549,2.654-5.395,4.433-8.713c11.161-19.672,18.922-41.086,22.959-63.34c1.006-5.793,1.568-11.654,1.682-17.533H369.45
			v144.258C320.814,259.594,285.515,282.545,285.515,310.802z M486.958,445.097c0,19.848-37.918,41.967-92.328,41.967
			c-54.41,0-92.328-22.119-92.328-41.967v-35.516c19.155,16.401,52.953,27.122,92.328,27.122c39.377,0,73.174-10.722,92.328-27.122
			V445.097z M486.958,377.95c0,19.848-37.918,41.967-92.328,41.967c-54.41,0-92.328-22.119-92.328-41.967v-35.516
			c19.155,16.401,52.953,27.122,92.328,27.122c39.377,0,73.174-10.722,92.328-27.122V377.95z M394.63,352.769
			c-54.41,0-92.328-22.119-92.328-41.967s37.918-41.967,92.328-41.967c54.41,0,92.328,22.119,92.328,41.967
			S449.04,352.769,394.63,352.769z"/>
	</g>
</g>
<g>
</g>
<g>
</g>
<g>
</g>
<g>
</g>
<g>
</g>
<g>
</g>
<g>
</g>
<g>
</g>
<g>
</g>
<g>
</g>
<g>
</g>
<g>
</g>
<g>
</g>
<g>
</g>
<g>
</g>
</svg>
