<?xml version="1.0" encoding="iso-8859-1"?>
<!-- Generator: Adobe Illustrator 19.0.0, SVG Export Plug-In . SVG Version: 6.00 Build 0)  -->
<svg version="1.1" id="Capa_1" xmlns="http://www.w3.org/2000/svg" xmlns:xlink="http://www.w3.org/1999/xlink" x="0px" y="0px"
	 viewBox="0 0 512.219 512.219" style="enable-background:new 0 0 512.219 512.219;" xml:space="preserve">
<g transform="translate(-1 -1)">
	<g>
		<g>
			<path d="M504.576,359.511h-8.533c-4.713,0-8.533,3.82-8.533,8.533s3.82,8.533,8.533,8.533h8.533c4.713,0,8.533-3.82,8.533-8.533
				S509.289,359.511,504.576,359.511z"/>
			<path d="M430.644,282.711h32.839c4.156,11.755,16.176,18.806,28.465,16.698c12.289-2.108,21.271-12.763,21.271-25.231
				c0-12.468-8.982-23.123-21.271-25.231c-12.289-2.108-24.309,4.943-28.465,16.698h-27.847c0.425-2.825,0.65-5.677,0.674-8.533
				c0-1.225-0.067-2.454-0.117-3.121c0.013-0.955-0.051-1.91-0.192-2.854c-0.067-0.971-0.192-1.946-0.383-3.408
				c-0.208-1.292-0.475-2.588-0.717-3.696c-0.274-1.397-0.636-2.774-1.084-4.125c-0.033-0.12-0.089-0.232-0.123-0.352l-0.035-0.132
				l-0.026-0.044c-2.613-8.874-7.241-17.024-13.524-23.815c-0.563-0.658-1.161-1.285-1.792-1.879
				c-2.782-2.812-5.832-5.345-9.108-7.563c4.23-10.985,4.705-23.062,1.351-34.346h40.233l12.712,8.457
				c-1.028,2.756-1.568,5.669-1.596,8.61c0.015,14.132,11.468,25.585,25.6,25.6c14.138,0,25.6-11.462,25.6-25.6
				s-11.462-25.6-25.6-25.6c-4.632,0.021-9.17,1.313-13.119,3.734l-16.29-10.838c-1.399-0.933-3.043-1.43-4.725-1.429h-50.859
				c-8.655-12.47-22.037-20.854-37.033-23.204c-2.314-26.604-22.311-48.285-48.641-52.738v-28.03
				c11.756-4.156,18.808-16.176,16.7-28.465C331.435,9.984,320.78,1,308.311,1c-12.469,0-23.124,8.982-25.233,21.271
				c-2.109,12.289,4.943,24.31,16.698,28.466v27.58c-16.858,1.38-32.351,9.81-42.667,23.214
				c-10.316-13.404-25.809-21.834-42.667-23.214v-34.54c0-4.713-3.821-8.533-8.533-8.533s-8.533,3.82-8.533,8.533v34.991
				c-26.328,4.453-46.323,26.129-48.642,52.73c-24.81,3.851-43.958,23.857-46.717,48.812H64.376l-14.631-14.632
				c1.668-3.417,2.544-7.166,2.565-10.968c0-14.139-11.462-25.6-25.6-25.6s-25.6,11.461-25.6,25.6c0,14.138,11.461,25.6,25.6,25.6
				c3.803-0.02,7.552-0.897,10.969-2.565l17.132,17.132c1.6,1.601,3.77,2.5,6.033,2.5h41.732c0.563,2.977,1.378,5.902,2.434,8.742
				c-3.144,2.105-6.07,4.52-8.733,7.208c-0.71,0.653-1.383,1.344-2.017,2.071c-6.389,6.822-11.082,15.053-13.7,24.025
				c-0.503,1.469-0.909,2.969-1.217,4.492c-0.267,1.225-0.533,2.521-0.808,4.3c-0.125,0.975-0.25,1.95-0.233,2.192
				c-0.166,1.021-0.252,2.053-0.258,3.087c-0.067,1.163-0.133,2.392-0.133,3.617c0.024,2.857,0.249,5.708,0.674,8.533H50.737
				c-4.156-11.755-16.176-18.806-28.465-16.698c-12.289,2.108-21.271,12.763-21.271,25.231c0,12.468,8.982,23.123,21.271,25.231
				c12.289,2.108,24.309-4.943,28.465-16.698h32.838c3.292,7.21,7.945,13.718,13.702,19.167c-0.95,1.663-1.836,3.404-2.658,5.225
				c-0.642,1.483-1.267,3.042-1.617,4.171l-0.046,0.156c-0.03,0.093-0.075,0.18-0.104,0.273c-0.016,0.049-0.002,0.097-0.017,0.146
				c-0.598,1.658-1.088,3.353-1.467,5.074c-0.367,1.4-0.658,2.796-0.85,4.029c-0.563,3.21-0.845,6.462-0.842,9.721
				c0.011,6.3,1.031,12.557,3.021,18.534l-17.154,10.303H52.31c-4.713,0-8.533,3.82-8.533,8.533s3.82,8.533,8.533,8.533h25.6
				c1.547,0,3.065-0.42,4.392-1.217l18.17-10.914c7.915,11.312,19.601,19.434,32.963,22.909c0.092,0.308,0.183,0.588,0.267,0.821
				c0.478,1.755,1.07,3.477,1.775,5.154c0.489,1.345,1.057,2.659,1.7,3.938c0.298,0.734,0.637,1.451,1.017,2.146
				c0.455,0.976,0.964,1.927,1.525,2.846c0.275,0.504,0.583,1.017,0.925,1.571c1.122,1.869,2.344,3.677,3.658,5.417l2.433,3.104
				c3.292,3.904,7.022,7.416,11.117,10.467c0.892,0.688,1.775,1.304,2.742,1.975c2.674,1.802,5.476,3.406,8.383,4.8
				c1.9,0.946,3.867,1.766,5.917,2.546c1.25,0.454,2.483,0.85,3.817,1.271c0.95,0.292,1.975,0.579,2.525,0.7
				c2.201,0.596,4.435,1.058,6.692,1.383c0.308,0.051,0.612,0.094,0.917,0.138v27.851c-11.755,4.156-18.806,16.176-16.698,28.465
				s12.763,21.271,25.231,21.271s23.123-8.982,25.231-21.271s-4.943-24.309-16.698-28.465v-27.699
				c21.551-2.46,40.603-15.135,51.2-34.061c10.597,18.926,29.649,31.601,51.2,34.061v34.66c0,4.713,3.82,8.533,8.533,8.533
				s8.533-3.82,8.533-8.533v-34.83c0.263-0.039,0.577-0.064,0.817-0.103c2.157-0.305,4.295-0.739,6.4-1.3
				c0.942-0.221,1.967-0.508,3.017-0.829c1.233-0.392,2.467-0.788,3.808-1.279c1.958-0.742,3.925-1.563,5.7-2.45
				c2.981-1.424,5.852-3.066,8.592-4.913c0.883-0.617,1.766-1.233,2.525-1.817c4.35-3.249,8.295-7.008,11.75-11.196l1.917-2.45
				c1.336-1.773,2.577-3.616,3.717-5.521c0.308-0.496,0.617-0.996,0.883-1.496c0.561-0.919,1.07-1.869,1.525-2.846
				c0.382-0.692,0.718-1.407,1.008-2.142c0.606-1.189,1.141-2.413,1.6-3.667c0.696-1.635,1.286-3.314,1.766-5.025
				c0.133-0.408,0.258-0.817,0.383-1.225c13.362-3.475,25.048-11.597,32.963-22.909l18.171,10.914
				c1.326,0.797,2.844,1.217,4.391,1.217h25.6c4.713,0,8.533-3.82,8.533-8.533s-3.82-8.533-8.533-8.533h-23.233l-17.154-10.303
				c1.99-5.977,3.009-12.235,3.021-18.534c0-3.178-0.271-6.349-0.811-9.481l0.003-0.073l-0.017-0.077v-0.007
				c-0.196-1.254-0.454-2.497-0.775-3.725l-0.073-0.302l-0.019-0.086l-0.006-0.011c-0.369-1.769-0.862-3.51-1.477-5.209
				c-0.5-1.558-1.125-3.117-1.75-4.567c-0.786-1.805-1.679-3.561-2.675-5.259C422.7,296.429,427.352,289.921,430.644,282.711z
				 M487.51,265.644c4.713,0,8.533,3.821,8.533,8.533c0,4.713-3.82,8.533-8.533,8.533s-8.533-3.821-8.533-8.533
				C478.981,269.466,482.799,265.649,487.51,265.644z M487.51,180.311c4.713,0,8.533,3.82,8.533,8.533s-3.82,8.533-8.533,8.533
				s-8.533-3.82-8.533-8.533C478.981,184.133,482.799,180.315,487.51,180.311z M32.805,160.647l-0.096,0.064l-0.063,0.095
				c-3.39,3.311-8.816,3.266-12.15-0.102c-3.333-3.368-3.323-8.795,0.023-12.15c3.346-3.355,8.773-3.38,12.15-0.056
				S36.108,157.249,32.805,160.647z M26.71,282.711c-4.713,0-8.533-3.821-8.533-8.533c0-4.713,3.82-8.533,8.533-8.533
				s8.533,3.821,8.533,8.533C35.238,278.888,31.42,282.706,26.71,282.711z M308.31,18.177c4.713,0,8.533,3.82,8.533,8.533
				s-3.82,8.533-8.533,8.533s-8.533-3.821-8.533-8.533C299.781,22,303.599,18.182,308.31,18.177z M197.376,496.044
				c-4.713,0-8.533-3.82-8.533-8.533s3.82-8.533,8.533-8.533s8.533,3.82,8.533,8.533
				C205.905,492.221,202.087,496.039,197.376,496.044z M406.358,288.257c-6.544-6.3-14.488-10.958-23.181-13.592
				c-2.919-0.898-6.097-0.167-8.33,1.917s-3.182,5.203-2.488,8.178c0.694,2.975,2.926,5.351,5.851,6.231
				c8.253,2.538,15.495,7.615,20.693,14.509c0.631,0.817,1.221,1.628,1.865,2.633c1.206,1.829,2.264,3.75,3.167,5.746
				c0.406,0.94,0.804,1.927,1.131,2.915c0.069,0.198,0.131,0.35,0.202,0.565c0.459,1.264,0.816,2.562,1.067,3.883
				c0.222,0.827,0.4,1.666,0.533,2.513l0.033,0.167c0.387,2.231,0.579,4.49,0.575,6.754c0.033,16.194-9.434,30.901-24.188,37.578
				c-0.071-14.362-4.785-28.315-13.438-39.778c-1.836-2.436-4.832-3.706-7.859-3.332s-5.624,2.335-6.812,5.145
				c-1.188,2.809-0.786,6.039,1.055,8.471c6.561,8.686,10.089,19.285,10.042,30.171c0.012,3.197-0.289,6.387-0.9,9.525v0.069
				l-0.025,0.073c-0.181,0.975-0.412,1.94-0.691,2.892c-0.042,0.154-0.167,0.725-0.2,0.883c-0.072,0.275-0.158,0.547-0.258,0.813
				l-0.01,0.074l-0.14,0.438c-0.359,1.248-0.791,2.473-1.292,3.671c-0.289,0.803-0.631,1.585-1.025,2.342
				c-0.142,0.275-0.45,1.029-0.567,1.321c-0.173,0.276-0.326,0.564-0.458,0.862c-0.225,0.508-0.484,1.001-0.775,1.475
				c-0.133,0.204-0.35,0.608-0.467,0.821l-0.492,0.804c-0.829,1.378-1.728,2.713-2.692,4l-1.8,2.313
				c-2.531,2.991-5.4,5.678-8.55,8.008c-0.642,0.496-1.275,0.937-1.842,1.325c-2.056,1.384-4.212,2.612-6.45,3.675
				c-1.4,0.696-2.85,1.292-4.2,1.804c-1,0.371-2,0.683-2.9,0.971c-0.583,0.175-1.208,0.362-2.175,0.592
				c-1.592,0.424-3.209,0.75-4.842,0.975c-0.475,0.079-0.992,0.167-2.008,0.258c-1.843,0.237-3.7,0.348-5.559,0.333
				c-27.776-0.032-50.284-22.541-50.317-50.317c0-4.713-3.82-8.533-8.533-8.533c-4.713,0-8.533,3.82-8.533,8.533
				c-0.032,27.776-22.541,50.284-50.317,50.317c-2.026,0.008-4.05-0.121-6.059-0.388c-0.517-0.037-1.033-0.125-1.608-0.221
				c-1.732-0.245-3.446-0.598-5.133-1.058c-0.575-0.129-1.2-0.317-1.683-0.462c-1-0.317-2-0.629-2.908-0.967
				c-1.442-0.546-2.892-1.142-4.417-1.896c-2.165-1.033-4.251-2.224-6.242-3.562c-0.65-0.442-1.283-0.883-2.058-1.483
				c-3.161-2.35-6.033-5.065-8.558-8.087l-1.675-2.158c-0.959-1.277-1.852-2.602-2.675-3.971l-0.475-0.779
				c-0.15-0.292-0.308-0.575-0.483-0.846c-0.291-0.474-0.55-0.967-0.775-1.475c-0.133-0.296-0.467-1.058-0.633-1.337
				c-0.117-0.288-0.25-0.571-0.392-0.846c-0.435-0.846-0.813-1.721-1.133-2.617c-0.515-1.256-0.954-2.542-1.317-3.85
				c-0.1-0.292-0.208-0.579-0.267-0.812c-0.049-0.318-0.118-0.633-0.208-0.942c-0.279-0.952-0.51-1.917-0.692-2.892l-0.025-0.073
				v-0.069c-0.611-3.138-0.912-6.328-0.9-9.525c-0.047-10.885,3.481-21.485,10.042-30.171c1.841-2.432,2.243-5.662,1.055-8.471
				c-1.188-2.809-3.785-4.771-6.812-5.145c-3.027-0.374-6.023,0.897-7.859,3.332c-8.653,11.463-13.367,25.416-13.438,39.778
				c-14.753-6.677-24.22-21.384-24.188-37.578c-0.003-2.32,0.201-4.636,0.608-6.92c0.159-0.977,0.368-1.945,0.625-2.9
				c0.265-1.338,0.641-2.651,1.125-3.925c0.327-1.013,0.744-2.025,1.175-3.021c0.933-2.057,2.028-4.037,3.275-5.921
				c0.521-0.823,1.088-1.597,1.685-2.374c0.078-0.097,0.096-0.147,0.181-0.25c5.174-6.844,12.383-11.875,20.592-14.371
				c2.925-0.88,5.157-3.256,5.851-6.231c0.694-2.975-0.254-6.094-2.488-8.178c-2.233-2.084-5.411-2.815-8.33-1.917
				c-8.693,2.635-16.638,7.291-23.185,13.587c-8.215-8.287-12.842-19.472-12.882-31.141c0-0.892,0.05-1.779,0.117-3.121
				c0.016-0.579,0.069-1.157,0.158-1.729c0.042-0.596,0.125-1.196,0.217-1.892c0.142-0.942,0.341-1.888,0.567-2.896
				c0.199-0.995,0.466-1.975,0.8-2.933c1.905-6.612,5.359-12.674,10.075-17.683c0.353-0.418,0.735-0.812,1.142-1.179
				c8.294-8.352,19.588-13.033,31.358-13c4.713,0,8.533-3.82,8.533-8.533s-3.82-8.533-8.533-8.533
				c-6.408,0.012-12.774,1.032-18.865,3.023c-1.331-3.911-2.015-8.013-2.027-12.144c0.031-21.3,17.309-38.549,38.609-38.546
				c6.519-0.028,12.934,1.628,18.625,4.808c4.118,2.281,9.305,0.798,11.594-3.316c2.289-4.114,0.815-9.304-3.294-11.601
				c-5.585-3.087-11.668-5.173-17.973-6.161c2.388-20.86,20.01-36.63,41.006-36.697c20.117,0,41.492,11.963,41.492,34.133
				c0,4.713,3.82,8.533,8.533,8.533c4.713,0,8.533-3.82,8.533-8.533c0-22.171,21.375-34.133,41.492-34.133
				c20.996,0.067,38.619,15.838,41.006,36.698c-6.613,1.048-12.978,3.298-18.781,6.639c-2.652,1.516-4.29,4.334-4.297,7.388
				c-0.006,3.054,1.621,5.879,4.266,7.406c2.645,1.527,5.905,1.523,8.547-0.01c5.835-3.392,12.468-5.171,19.217-5.154l0.033-0.007
				l0.033,0.007c21.277,0.026,38.518,17.269,38.542,38.546c-0.012,4.131-0.697,8.233-2.027,12.144
				c-6.091-1.991-12.457-3.011-18.864-3.023c-4.713,0-8.533,3.821-8.533,8.533s3.82,8.533,8.533,8.533
				c6.793-0.018,13.498,1.535,19.591,4.537c4.514,2.237,8.62,5.219,12.143,8.821c0.325,0.31,0.631,0.64,0.917,0.987
				c4.747,5.111,8.204,11.282,10.083,18c0.279,0.84,0.502,1.697,0.667,2.567c0.2,0.892,0.4,1.837,0.558,2.879
				c0.075,0.596,0.158,1.196,0.283,2.521c0.048,0.323,0.072,0.648,0.073,0.974c0.006,0.165,0.015,0.29,0.019,0.522
				c0.05,0.846,0.1,1.733,0.1,2.625C419.204,268.782,414.576,279.97,406.358,288.257z"/>
			<path d="M18.176,359.511H9.643c-4.713,0-8.533,3.82-8.533,8.533s3.82,8.533,8.533,8.533h8.533c4.713,0,8.533-3.82,8.533-8.533
				S22.889,359.511,18.176,359.511z"/>
			<path d="M320.085,496.723c-3.179-1.33-6.846-0.622-9.301,1.796c-1.561,1.634-2.445,3.799-2.475,6.059
				c0.014,1.115,0.246,2.216,0.683,3.242c0.433,1.034,1.039,1.987,1.792,2.817c0.403,0.367,0.829,0.708,1.275,1.021
				c0.477,0.324,0.996,0.583,1.542,0.771c0.483,0.245,1,0.418,1.533,0.513c0.565,0.098,1.136,0.155,1.708,0.171
				c1.119,0.029,2.229-0.205,3.242-0.683c1.033-0.435,1.985-1.041,2.817-1.792c0.753-0.83,1.359-1.783,1.792-2.817
				c0.437-1.025,0.669-2.127,0.683-3.241c-0.033-2.259-0.917-4.422-2.475-6.059C322.071,497.765,321.119,497.158,320.085,496.723z"
				/>
			<path d="M205.91,18.177c4.699-0.032,8.501-3.834,8.533-8.533c-0.026-2.277-0.945-4.452-2.558-6.059
				c-3.389-3.159-8.644-3.159-12.034,0c-1.561,1.634-2.445,3.799-2.475,6.059c0.03,2.26,0.914,4.424,2.475,6.059
				C201.487,17.26,203.651,18.144,205.91,18.177z"/>
		</g>
	</g>
</g>
<g>
</g>
<g>
</g>
<g>
</g>
<g>
</g>
<g>
</g>
<g>
</g>
<g>
</g>
<g>
</g>
<g>
</g>
<g>
</g>
<g>
</g>
<g>
</g>
<g>
</g>
<g>
</g>
<g>
</g>
</svg>
