<?xml version="1.0" encoding="iso-8859-1"?>
<!-- Generator: Adobe Illustrator 19.0.0, SVG Export Plug-In . SVG Version: 6.00 Build 0)  -->
<svg version="1.1" id="Capa_1" xmlns="http://www.w3.org/2000/svg" xmlns:xlink="http://www.w3.org/1999/xlink" x="0px" y="0px"
	 viewBox="0 0 512.034 512.034" style="enable-background:new 0 0 512.034 512.034;" xml:space="preserve">
<g transform="translate(0 -1)">
	<g>
		<g>
			<path d="M503.406,453.3h-8.533V274.1c-0.015-14.132-11.468-25.585-25.6-25.6h-93.867v-4.267c0.008-7.066,5.734-12.792,12.8-12.8
				h68.267c16.495,0,29.867-13.372,29.867-29.867c0-16.495-13.372-29.867-29.867-29.867h-25.6c-7.069,0-12.8-5.731-12.8-12.8
				c0-7.069,5.731-12.8,12.8-12.8h42.667c16.495,0,29.867-13.372,29.867-29.867c0-16.495-13.372-29.867-29.867-29.867H345.856
				c-7.625-18.358-20.043-34.33-35.954-46.246C272.731,11.217,237.948-0.804,197.294,1.217c-21.27,1.488-42.405,4.504-63.242,9.025
				c-7.782,1.505-15.454,3.534-22.962,6.075c-16.356,4.925-31.236,13.824-43.313,25.904C56.039,54.598,46.981,69.264,41.169,85.3
				c-2.573,7.421-4.681,14.996-6.312,22.679l-0.229,0.983c-1.335,4.969-3.161,9.792-5.45,14.4c-1.338,2.95-2.675,5.904-3.938,9.2
				c-1.525,3.723-2.124,7.761-1.746,11.767c1.385,6.232,4.975,11.755,10.108,15.55c1.85,1.687,4.646,4.242,4.688,5.183
				c-0.252,0.656-0.551,1.292-0.896,1.904c-7.675,16.148-17.095,31.407-28.092,45.504l-0.567,0.704
				c-5.394,5.288-8.497,12.481-8.641,20.033c1.381,5.758,5.082,10.69,10.225,13.625c2.246,1.555,4.617,2.922,7.088,4.087
				c2.436,1.048,4.713,2.433,6.762,4.117c0.357,1.727,0.174,3.522-0.525,5.142c-0.942,1.971-1.917,3.675-2.763,5.163
				c-2.367,4.167-7.296,12.838-0.05,18.75c1.179,1.067,3.033,2.554,4.896,3.996c-1.339,2.801-1.885,5.915-1.579,9.004
				c0.424,3.098,2.11,5.883,4.658,7.696c1.513,1.071,3.129,2.004,4.738,2.921c3.521,1.996,4.588,2.758,4.904,3.971
				c0.231,2.267-0.013,4.557-0.717,6.725c-0.4,1.779-0.787,3.558-1.017,5.292c-0.728,6.238,0.054,12.56,2.279,18.433
				c3.332,11.124,13.489,18.806,25.1,18.983c1.877-0.003,3.749-0.195,5.587-0.575c18.271-4.372,36.299-9.704,54.009-15.972
				c13.687,8.536,22.49,33.128,24.803,42.502c0.94,3.814,4.36,6.495,8.288,6.5h0.025l47.933-0.145V453.3h-8.533
				c-4.713,0-8.533,3.821-8.533,8.533V478.9c0.022,18.842,15.291,34.112,34.133,34.133h256
				c18.842-0.022,34.112-15.291,34.133-34.133v-17.067C511.94,457.121,508.119,453.3,503.406,453.3z M469.273,265.567
				c4.71,0.006,8.527,3.823,8.533,8.533v179.2h-85.333c-4.713,0-8.533,3.821-8.533,8.533h-68.267c0-4.713-3.82-8.533-8.533-8.533
				h-85.333V274.1c0.006-4.71,3.823-8.527,8.533-8.533h59.62l0.026,0.004l0.03-0.004H469.273z M356.461,152.455
				c0.255-16.498-1.538-32.964-5.336-49.021H473.54c7.069,0,12.8,5.731,12.8,12.8c0,7.069-5.731,12.8-12.8,12.8h-42.667
				c-16.495,0-29.867,13.372-29.867,29.867c0,16.495,13.372,29.867,29.867,29.867h25.6c7.069,0,12.8,5.731,12.8,12.8
				c0,7.069-5.731,12.8-12.8,12.8h-68.267c-16.487,0.02-29.847,13.38-29.867,29.867v4.267H312.03
				c4.61-8.842,10.064-17.219,16.284-25.012c4.004-5.346,8.142-10.871,11.875-16.742
				C350.686,190.574,356.332,171.734,356.461,152.455z M122.183,30.786c4.833-1.435,9.801-2.74,15.198-3.807
				c20.026-4.351,40.338-7.264,60.779-8.717c36.337-1.8,67.554,9.108,101.25,35.321c11.571,8.723,21.043,19.925,27.723,32.784
				h-37.831c-4.436-26.245-28.242-44.713-54.766-42.487S187.618,68.283,187.618,94.9c0,26.617,20.394,48.795,46.918,51.021
				s50.329-16.243,54.766-42.487h44.287c4.154,15.917,6.108,32.328,5.805,48.775c-0.106,16.112-4.826,31.857-13.6,45.371
				c-3.388,5.325-7.154,10.354-11.142,15.679c-7.623,9.437-14.13,19.723-19.392,30.654c-0.129,0.306-0.227,0.62-0.354,0.926
				c-20.011-52.286-76.059-79.295-117.659-99.313c-5.05-2.429-9.921-4.775-14.537-7.067
				C123.592,119.027,121.828,50.858,122.183,30.786z M238.873,103.434h32.922c-4.297,16.643-20.299,27.494-37.35,25.328
				c-17.051-2.166-29.832-16.673-29.832-33.861c0-17.188,12.781-31.695,29.832-33.861c17.051-2.166,33.053,8.685,37.35,25.328
				h-32.922c-4.713,0-8.533,3.821-8.533,8.533C230.34,99.613,234.16,103.434,238.873,103.434z M163.219,376.48
				c-4.14-14.106-11.182-27.191-20.675-38.417c5.671-1.971,9.975-3.467,12.129-4.117c10.707-3.067,20.794-7.986,29.804-14.533
				c3.677-2.948,4.269-8.319,1.321-11.996s-8.319-4.269-11.996-1.321c-7.348,5.189-15.524,9.093-24.179,11.546
				c-2.292,0.692-7.279,2.421-13.829,4.696l-13.858,4.787l-0.013,0.007l-0.012,0.002c-18.253,6.536-36.837,12.107-55.675,16.689
				c-5.095,0.975-10.038-2.289-11.142-7.358c-1.312-3.32-1.816-6.905-1.471-10.458c0.171-1.292,0.471-2.575,0.758-3.858
				c1.423-4.801,1.622-9.882,0.579-14.779c-1.927-6.364-6.525-11.575-12.6-14.279c0.407-0.672,0.849-1.321,1.325-1.946
				c1.427-1.818,2.056-4.138,1.742-6.428s-1.544-4.355-3.409-5.722c-1.712-1.254-4.267-3.167-6.479-4.9l0.179-0.313
				c1.021-1.796,2.192-3.867,3.3-6.192c2.301-4.922,2.97-10.45,1.908-15.779c-1.658-8.954-9.842-13.096-15.821-16.117
				c-1.818-0.841-3.557-1.843-5.196-2.996c-0.654-0.483-1.821-1.35-2.583-2.054c1.358-2.407,2.94-4.681,4.725-6.792l0.517-0.646
				C34.311,208.227,44.365,192,52.548,174.817c1.781-2.949,2.739-6.322,2.775-9.767c-0.656-7.126-4.382-13.614-10.207-17.771
				c-1.921-1.754-4.554-4.158-4.713-5.258c0.117-1.236,0.409-2.45,0.867-3.604c1.046-2.713,2.25-5.358,3.45-8.008
				c2.777-5.631,4.968-11.533,6.537-17.613l0.221-0.942c1.472-6.984,3.374-13.871,5.695-20.621
				c5.007-13.855,12.818-26.527,22.946-37.225c7.125-7.243,15.592-13.029,24.929-17.035c0.185,28.335,5.538,94.651,50.067,116.768
				c4.675,2.325,9.617,4.7,14.733,7.162c40.336,19.411,89.756,43.258,108.125,87.596H230.34c-14.132,0.015-25.585,11.468-25.6,25.6
				v102.255L163.219,376.48z M494.873,478.9c-0.009,9.422-7.645,17.057-17.067,17.067h-256c-9.422-0.009-17.057-7.645-17.067-17.067
				v-8.533h93.867c0,4.713,3.82,8.533,8.533,8.533h85.333c4.713,0,8.533-3.82,8.533-8.533h93.867V478.9z"/>
			<path d="M255.256,304.988c-0.188-0.543-0.448-1.058-0.771-1.533c-0.337-0.429-0.679-0.854-1.021-1.279
				c-3.346-3.346-8.771-3.346-12.117,0c-3.346,3.346-3.346,8.771,0,12.117c0.404,0.368,0.831,0.709,1.279,1.021
				c0.475,0.323,0.991,0.582,1.533,0.771c0.51,0.258,1.059,0.431,1.625,0.513c0.535,0.098,1.077,0.155,1.621,0.17
				c2.259-0.034,4.422-0.918,6.059-2.475c0.341-0.429,0.683-0.854,1.021-1.279c0.324-0.476,0.583-0.993,0.771-1.538
				c0.245-0.485,0.418-1.003,0.513-1.537c0.228-1.126,0.228-2.286,0-3.413C255.674,305.991,255.502,305.473,255.256,304.988z"/>
			<path d="M273.007,308.234c0,4.713,3.82,8.533,8.533,8.533h34.133c4.713,0,8.533-3.82,8.533-8.533s-3.82-8.533-8.533-8.533H281.54
				C276.827,299.7,273.007,303.521,273.007,308.234z"/>
			<path d="M349.806,316.767h102.4c4.713,0,8.533-3.82,8.533-8.533s-3.821-8.533-8.533-8.533h-102.4
				c-4.713,0-8.533,3.82-8.533,8.533S345.094,316.767,349.806,316.767z"/>
			<path d="M253.465,336.309c-2.044-1.953-4.898-2.809-7.679-2.304c-0.566,0.078-1.115,0.25-1.625,0.508
				c-0.543,0.188-1.058,0.448-1.533,0.771c-0.448,0.314-0.876,0.656-1.28,1.025c-0.773,0.814-1.383,1.769-1.796,2.813
				c-0.436,1.027-0.667,2.13-0.679,3.246c0.032,2.259,0.916,4.423,2.475,6.059c0.425,0.341,0.85,0.683,1.279,1.021
				c0.475,0.323,0.991,0.582,1.533,0.771c0.51,0.258,1.059,0.431,1.625,0.513c0.535,0.098,1.077,0.155,1.621,0.171
				c2.27,0.022,4.453-0.87,6.058-2.475c1.605-1.605,2.497-3.788,2.475-6.058c-0.013-1.116-0.245-2.219-0.683-3.246
				C254.843,338.078,254.235,337.124,253.465,336.309z"/>
			<path d="M315.673,333.834H281.54c-4.713,0-8.533,3.821-8.533,8.533s3.82,8.533,8.533,8.533h34.133
				c4.713,0,8.533-3.82,8.533-8.533S320.386,333.834,315.673,333.834z"/>
			<path d="M349.806,350.9h102.4c4.713,0,8.533-3.82,8.533-8.533s-3.821-8.533-8.533-8.533h-102.4c-4.713,0-8.533,3.821-8.533,8.533
				S345.094,350.9,349.806,350.9z"/>
			<path d="M253.465,370.442c-2.044-1.953-4.898-2.809-7.679-2.304c-0.566,0.078-1.115,0.25-1.625,0.508
				c-0.543,0.188-1.058,0.448-1.533,0.771c-0.429,0.341-0.854,0.683-1.279,1.025c-0.773,0.814-1.383,1.769-1.796,2.813
				c-0.437,1.027-0.668,2.13-0.68,3.246c0.032,2.259,0.916,4.423,2.475,6.059c0.425,0.341,0.85,0.683,1.279,1.021
				c0.475,0.323,0.991,0.582,1.533,0.771c0.51,0.258,1.059,0.431,1.625,0.513c0.535,0.098,1.077,0.155,1.621,0.17
				c2.27,0.022,4.453-0.87,6.058-2.475c1.605-1.605,2.497-3.788,2.475-6.058c-0.013-1.116-0.245-2.219-0.683-3.246
				C254.822,372.223,254.217,371.272,253.465,370.442z"/>
			<path d="M315.673,367.967H281.54c-4.713,0-8.533,3.82-8.533,8.533s3.82,8.533,8.533,8.533h34.133c4.713,0,8.533-3.82,8.533-8.533
				S320.386,367.967,315.673,367.967z"/>
			<path d="M349.806,385.034h102.4c4.713,0,8.533-3.82,8.533-8.533s-3.821-8.533-8.533-8.533h-102.4
				c-4.713,0-8.533,3.82-8.533,8.533S345.094,385.034,349.806,385.034z"/>
			<path d="M250.648,402.78c-3.182-1.294-6.828-0.59-9.3,1.796c-3.3,3.365-3.3,8.752,0,12.117c0.404,0.368,0.831,0.709,1.279,1.021
				c0.475,0.323,0.991,0.582,1.533,0.771c0.51,0.258,1.059,0.431,1.625,0.513c0.535,0.098,1.077,0.156,1.621,0.171
				c2.259-0.034,4.422-0.918,6.059-2.475c0.341-0.429,0.683-0.854,1.021-1.279c0.324-0.476,0.583-0.993,0.771-1.537
				c0.245-0.485,0.418-1.003,0.513-1.537c0.094-0.564,0.151-1.133,0.17-1.705c-0.033-2.259-0.917-4.422-2.475-6.059
				C252.635,403.821,251.682,403.214,250.648,402.78z"/>
			<path d="M315.673,402.1H281.54c-4.713,0-8.533,3.82-8.533,8.533s3.82,8.533,8.533,8.533h34.133c4.713,0,8.533-3.82,8.533-8.533
				S320.386,402.1,315.673,402.1z"/>
			<path d="M349.806,419.167h102.4c4.713,0,8.533-3.82,8.533-8.533s-3.821-8.533-8.533-8.533h-102.4
				c-4.713,0-8.533,3.82-8.533,8.533S345.094,419.167,349.806,419.167z"/>
		</g>
	</g>
</g>
<g>
</g>
<g>
</g>
<g>
</g>
<g>
</g>
<g>
</g>
<g>
</g>
<g>
</g>
<g>
</g>
<g>
</g>
<g>
</g>
<g>
</g>
<g>
</g>
<g>
</g>
<g>
</g>
<g>
</g>
</svg>
