<?xml version="1.0" encoding="iso-8859-1"?>
<!-- Generator: Adobe Illustrator 19.0.0, SVG Export Plug-In . SVG Version: 6.00 Build 0)  -->
<svg version="1.1" id="Capa_1" xmlns="http://www.w3.org/2000/svg" xmlns:xlink="http://www.w3.org/1999/xlink" x="0px" y="0px"
	 viewBox="0 0 512.099 512.099" style="enable-background:new 0 0 512.099 512.099;" xml:space="preserve">
<g transform="translate(-1 -1)">
	<g>
		<g>
			<path d="M248.489,334.036c0.056-4.659-3.606-8.517-8.262-8.704c-7.729-1.171-15.175-3.76-21.963-7.637
				c-9.009-5.233-19.045-8.452-29.417-9.434c-4.627,0.008-8.388,3.732-8.442,8.358c-0.056,4.659,3.606,8.517,8.262,8.704
				c7.729,1.171,15.175,3.76,21.963,7.637c9.009,5.233,19.045,8.452,29.417,9.434C244.674,342.386,248.435,338.662,248.489,334.036z
				"/>
			<path d="M325.38,308.261c-10.372,0.982-20.408,4.2-29.417,9.433c-6.743,3.834-14.122,6.42-21.783,7.633
				c-4.713,0-8.533,3.821-8.533,8.533c0,4.713,3.821,8.533,8.533,8.533c10.372-0.982,20.408-4.2,29.417-9.433
				c6.787-3.861,14.224-6.448,21.942-7.633c4.68-0.089,8.415-3.931,8.372-8.612C333.867,312.035,330.061,308.263,325.38,308.261z"/>
			<path d="M268.172,396.069c-2.987,3.093-6.843,5.206-11.058,6.059c-4.211-0.851-8.064-2.961-11.05-6.05
				c-3.341-3.3-8.721-3.279-12.037,0.046c-3.316,3.325-3.322,8.705-0.013,12.037c6.169,6.271,14.345,10.176,23.1,11.034
				c8.755-0.857,16.931-4.762,23.1-11.034c3.31-3.33,3.307-8.709-0.006-12.035C276.894,392.798,271.516,392.773,268.172,396.069z"/>
			<path d="M509.685,127.352l-13.654-18.202V18.127c-0.009-9.422-7.645-17.057-17.067-17.067h-102.4
				c-9.422,0.009-17.057,7.645-17.067,17.067v8.533h-76.783c-9.003,0.001-17.842,2.411-25.6,6.978
				c-7.758-4.568-16.597-6.977-25.6-6.978H158.85c-2.268-5.302-5.602-10.082-9.794-14.042
				c-10.373-9.297-24.437-13.323-38.158-10.925C99.699,3.601,89.532,9.393,82.18,18.052C74.828,9.393,64.659,3.601,53.46,1.694
				c-13.72-2.399-27.783,1.627-38.154,10.925C-3.107,29.665-3.778,61.461,13.48,93.415c12.942,25.683,45.792,48.6,64.217,59.975
				c2.749,1.694,6.218,1.694,8.967,0c18.425-11.375,51.275-34.292,64.104-59.762c2.702-5.075,5.019-10.345,6.932-15.767h73.813
				v42.667c-14.132,0.015-25.585,11.468-25.6,25.6v18.336c-27.546,12.333-59.733,41.335-59.733,109.664
				c0,2.277,0.023,4.618,0.052,6.984c-1.656-0.5-3.349-0.864-5.065-1.088c-7.63-1.003-15.34,1.132-21.367,5.917
				c-7.092,6.704-9.765,16.852-6.896,26.179c2.194,9.192,5.326,18.135,9.346,26.688l1.4,3.262c0.946,2.221,1.746,4.571,2.554,6.929
				c1.967,7.117,5.345,13.765,9.933,19.55c4.162,4.972,10.271,7.901,16.754,8.033c0.569,0,1.135-0.108,1.704-0.156
				c0.745,4.774,1.504,9.543,2.163,14.344c1.878,15.973,5.795,31.639,11.654,46.617c3.201,8.05,7.507,15.616,12.793,22.479
				c1.141,9.612,2.146,31.866-12.097,36.558c-2.922,0.934-5.117,3.363-5.751,6.364c-0.634,3.001,0.391,6.111,2.685,8.147
				c2.294,2.036,5.504,2.684,8.408,1.697c14.206-4.679,22.666-17.903,24.195-36.731c2.894,2.18,5.807,4.307,8.68,6.364l1.837,1.313
				c2.992,2.129,5.854,4.454,8.713,6.767c3.901,3.263,7.963,6.328,12.171,9.183c6.658,3.885,14.358,5.607,22.037,4.929
				c1.567,0.017,3.104-0.009,5.408,0.062c1.554-0.067,3.108-0.058,4.65-0.062c7.669,0.733,15.374-0.985,22.004-4.908
				c4.22-2.861,8.293-5.933,12.204-9.204c2.859-2.313,5.721-4.638,8.746-6.788l1.804-1.292c2.878-2.06,5.794-4.19,8.692-6.372
				c1.527,18.833,9.987,32.059,24.196,36.739c4.46,1.425,9.236-1.01,10.702-5.457c1.466-4.447-0.926-9.245-5.36-10.751
				c-14.255-4.697-13.237-26.982-12.095-36.582c5.269-6.839,9.562-14.379,12.753-22.401c5.875-15.002,9.801-30.695,11.683-46.696
				c0.655-4.78,1.414-9.549,2.158-14.319c0.572,0.049,1.141,0.157,1.713,0.157c6.492-0.137,12.608-3.074,16.775-8.054
				c4.581-5.786,7.955-12.433,9.921-19.546c0.808-2.354,1.604-4.696,2.546-6.912l1.404-3.267c4.011-8.541,7.14-17.469,9.337-26.646
				c2.883-9.347,0.202-19.521-6.912-26.233c-6.027-4.766-13.723-6.895-21.342-5.904c-1.72,0.225-3.418,0.59-5.077,1.093
				c0.03-2.366,0.053-4.708,0.053-6.985c0-68.329-32.187-97.33-59.733-109.664v-18.336c-0.015-14.132-11.468-25.585-25.6-25.6
				V77.861h76.783v31.291l-13.65,18.201c-3.881,5.171-4.506,12.09-1.616,17.873s8.801,9.436,15.266,9.435h136.533
				c6.465,0.001,12.376-3.652,15.267-9.434C514.189,139.444,513.564,132.524,509.685,127.352z M135.639,85.732
				c-10.35,20.542-38.142,40.45-53.458,50.308c-15.317-9.858-43.121-29.787-53.571-50.521C15.268,60.811,14.58,36.548,26.901,25.144
				c5.212-4.601,11.948-7.1,18.9-7.013c1.63,0,3.258,0.134,4.867,0.4c10.522,1.95,19.459,8.853,24.004,18.542
				c1.627,2.576,4.461,4.138,7.508,4.138s5.881-1.562,7.508-4.138c4.544-9.687,13.479-16.59,24-18.542
				c8.516-1.486,17.249,0.943,23.775,6.613C149.781,36.548,149.093,60.811,135.639,85.732z M148.901,357.219
				c-3.021-4.139-5.244-8.805-6.554-13.758c-0.946-2.754-1.892-5.488-2.996-8.083l-1.425-3.321
				c-3.552-7.509-6.337-15.357-8.312-23.425c-1.083-3.13-0.741-6.578,0.938-9.433c2.461-1.896,5.593-2.699,8.662-2.221
				c2.768,0.314,5.384,1.432,7.525,3.215c0.135,3.448,0.292,7.023,0.48,10.797c0.542,10.9,1.358,21.375,2.433,31.192
				c0.663,5.731,1.476,11.443,2.328,17.115C150.766,358.932,149.692,358.208,148.901,357.219z M364.576,342.198
				c1.346-11.438,2.008-22.688,2.433-31.212c0.187-3.768,0.344-7.339,0.479-10.782c2.143-1.79,4.763-2.913,7.538-3.231
				c3.059-0.456,6.173,0.34,8.638,2.208c1.702,2.865,2.053,6.336,0.958,9.483c-1.98,8.055-4.764,15.89-8.312,23.388l-1.429,3.329
				c-1.1,2.588-2.042,5.316-2.983,8.063c-1.308,4.952-3.528,9.616-6.546,13.754c-0.798,0.998-1.88,1.731-3.103,2.101
				C363.1,353.628,363.913,347.92,364.576,342.198z M376.563,69.245V35.276l0.017-0.082l-0.017-0.082V18.127h102.4v85.333h-102.4
				l0-34.051l0.017-0.082L376.563,69.245z M180.314,60.794h-18.089c0.924-5.639,1.164-11.37,0.717-17.067h17.372V60.794z
				 M349.968,310.14c-0.417,8.254-1.054,19.129-2.342,30.075c-1.092,9.421-2.604,19.021-4.063,28.304
				c-1.046,6.633-2.088,13.258-2.996,19.875c-1.694,14.548-5.232,28.82-10.529,42.475c-3.186,8.624-8.155,16.478-14.583,23.05
				c-5.84,5.221-12.015,10.054-18.487,14.467l-1.787,1.283c-3.283,2.333-6.433,4.871-9.567,7.408
				c-3.696,2.992-7.187,5.817-10.85,8.217c-3.9,1.922-8.28,2.651-12.592,2.096c-1.775,0.017-3.621,0-4.679,0.079
				c-1.521-0.067-3.046-0.079-4.575-0.079h-0.862c-4.325,0.57-8.722-0.167-12.625-2.116c-3.629-2.379-7.121-5.204-10.817-8.196
				c-3.133-2.537-6.283-5.075-9.533-7.387l-1.821-1.304c-6.477-4.417-12.659-9.254-18.504-14.479
				c-6.432-6.587-11.404-14.455-14.592-23.091c-5.281-13.63-8.809-27.876-10.5-42.396c-0.912-6.642-1.954-13.267-3-19.9
				c-1.458-9.283-2.971-18.883-4.054-28.246c-1.029-9.429-1.821-19.567-2.35-30.129c-0.629-12.72-0.938-23.297-0.991-33.088
				c7.838-9.623,26.548-28.53,42.645-28.53c9.605,0.199,18.939,3.222,26.837,8.692c7.18,5.01,15.619,7.911,24.363,8.375
				c8.743-0.464,17.182-3.365,24.363-8.375c7.898-5.47,17.232-8.493,26.837-8.692c16.097,0,34.807,18.906,42.645,28.529
				C350.906,286.847,350.597,297.423,349.968,310.14z M301.897,180.26L301.897,180.26c26.825,12.219,42.568,35.964,47.356,70.408
				c-7.038-6.476-15.106-11.734-23.873-15.557v-12.184c-0.001-2.263-0.9-4.433-2.5-6.033l-6.033-6.033v-5.001
				c0-4.713-3.82-8.533-8.533-8.533s-8.533,3.82-8.533,8.533v8.533c0.001,2.263,0.9,4.433,2.5,6.033l6.033,6.033v5.001
				c-5.78-0.024-11.532,0.812-17.067,2.479v-11.012c-0.001-2.263-0.9-4.433-2.5-6.033l-6.033-6.033v-13.534
				c0-4.713-3.821-8.533-8.533-8.533c-4.713,0-8.533,3.82-8.533,8.533v17.067c0.001,2.263,0.9,4.433,2.5,6.033l6.033,6.033v15.273
				c-0.415,0.239-0.849,0.484-1.254,0.719c-4.643,3.384-10.098,5.48-15.812,6.075c-5.714-0.595-11.169-2.691-15.812-6.075
				c-0.405-0.234-0.84-0.48-1.254-0.719v-15.273l6.033-6.033c1.6-1.6,2.5-3.77,2.5-6.034v-17.067c0-4.713-3.82-8.533-8.533-8.533
				s-8.533,3.82-8.533,8.533v13.533l-6.033,6.033c-1.6,1.6-2.5,3.77-2.5,6.034v11.012c-5.535-1.667-11.286-2.502-17.067-2.479v-5
				l6.033-6.033c1.6-1.6,2.5-3.77,2.5-6.034v-8.533c0-4.713-3.821-8.533-8.533-8.533s-8.533,3.82-8.533,8.533v5l-6.033,6.033
				c-1.6,1.6-2.5,3.77-2.5,6.034v12.184c-8.767,3.823-16.835,9.08-23.873,15.557c4.788-34.444,20.531-58.189,47.356-70.408H301.897z
				 M291.247,146.127v17.067H222.98v-17.067c0.006-4.71,3.823-8.527,8.533-8.533h51.2
				C287.424,137.6,291.241,141.417,291.247,146.127z M248.58,120.527v-17.067h17.067v17.067H248.58z M325.38,60.794h-42.667
				c-9.422,0.009-17.057,7.645-17.067,17.067v8.533H248.58v-8.533c-0.009-9.422-7.645-17.057-17.067-17.067H197.38V43.727h34.133
				c7.376-0.045,14.561,2.344,20.442,6.796c0.318,0.197,0.649,0.372,0.991,0.523c0.278,0.169,0.566,0.321,0.863,0.455
				c1.036,0.472,2.157,0.73,3.296,0.759l0.009-0.002l0.009,0.002c1.138-0.029,2.259-0.287,3.296-0.759
				c0.297-0.134,0.585-0.286,0.863-0.455c0.342-0.151,0.673-0.326,0.991-0.523c5.881-4.452,13.066-6.841,20.442-6.796h42.667V60.794
				z M342.447,60.794V43.727h17.05v17.067H342.447z M427.763,137.594h-68.267l12.8-17.067H483.23l12.8,17.067H427.763z"/>
			<path d="M402.18,52.261h17.067c4.713,0,8.533-3.82,8.533-8.533s-3.82-8.533-8.533-8.533H402.18c-4.713,0-8.533,3.82-8.533,8.533
				S397.468,52.261,402.18,52.261z"/>
			<path d="M444.847,52.261h8.533c4.713,0,8.533-3.82,8.533-8.533s-3.821-8.533-8.533-8.533h-8.533c-4.713,0-8.533,3.82-8.533,8.533
				S440.134,52.261,444.847,52.261z"/>
		</g>
	</g>
</g>
<g>
</g>
<g>
</g>
<g>
</g>
<g>
</g>
<g>
</g>
<g>
</g>
<g>
</g>
<g>
</g>
<g>
</g>
<g>
</g>
<g>
</g>
<g>
</g>
<g>
</g>
<g>
</g>
<g>
</g>
</svg>
