<?xml version="1.0" encoding="iso-8859-1"?>
<!-- Generator: Adobe Illustrator 19.0.0, SVG Export Plug-In . SVG Version: 6.00 Build 0)  -->
<svg version="1.1" id="Capa_1" xmlns="http://www.w3.org/2000/svg" xmlns:xlink="http://www.w3.org/1999/xlink" x="0px" y="0px"
	 viewBox="0 0 512 512" style="enable-background:new 0 0 512 512;" xml:space="preserve">
<g>
	<g>
		<g>
			<path d="M511.985,392.458c-0.02-1.016-0.223-2.021-0.599-2.966c-0.127-0.285-0.269-0.562-0.428-0.83
				c-0.167-0.398-0.365-0.782-0.592-1.15l-11.976-16.466c3.082-1.362,5.072-4.414,5.076-7.784V162.133
				c0-2.875-1.448-5.557-3.852-7.135c-2.404-1.578-5.44-1.839-8.078-0.695l-8.069,3.499l-26.081-19.561
				c-2.45-1.839-5.697-2.224-8.509-1.009l-87.033,37.629c-4.383,1.927-8.427,4.546-11.979,7.757v-46.086
				c-0.022-18.842-15.291-34.112-34.133-34.133h-79.914l9.756-7.096c2.018-1.468,3.293-3.745,3.488-6.233
				c0.195-2.488-0.71-4.936-2.475-6.7l-50.555-50.555c-1.198-18.188-16.505-32.208-34.728-31.807
				c-18.223,0.401-32.899,15.08-33.296,33.303c-0.397,18.223,13.627,33.528,31.815,34.721l19.365,19.309l-20.99,15.058H76.8
				c-18.842,0.022-34.112,15.291-34.133,34.133v26.371C18.038,167.04,0,188.36,0,213.333c0,24.973,18.038,46.293,42.667,50.429
				v9.304c0.022,18.842,15.291,34.112,34.133,34.133h52.772c-3.296,8.807-1.326,18.721,5.086,25.6
				c-6.413,6.879-8.382,16.793-5.085,25.6H76.8c-18.842,0.022-34.112,15.291-34.133,34.133v0.771
				C18.061,397.479,0.042,418.776,0,443.733v59.733c0,2.263,0.899,4.434,2.499,6.034C4.1,511.101,6.27,512,8.533,512h332.8
				c4.713,0,8.533-3.821,8.533-8.533v-57.15l18.5,27.75c0.126,0.19,0.299,0.332,0.439,0.509c0.144,0.183,0.291,0.35,0.451,0.522
				c0.662,0.735,1.448,1.348,2.322,1.813l0.071,0.056c0.347,0.152,0.703,0.281,1.067,0.385c0.246,0.084,0.478,0.203,0.732,0.265
				c0.657,0.163,1.331,0.247,2.008,0.25l0.004-0.001l0.004,0.001v25.6c0,4.713,3.82,8.533,8.533,8.533h59.733
				c4.713,0,8.533-3.821,8.533-8.533v-25.6l0.005-0.001l0.003,0.001l0.03-0.005c0.803-0.013,1.6-0.139,2.367-0.377
				c0.231-0.068,0.447-0.173,0.674-0.261c0.58-0.225,1.134-0.514,1.651-0.861c0.126-0.084,0.269-0.113,0.392-0.205
				c0.071-0.054,0.102-0.136,0.171-0.192c0.698-0.535,1.308-1.176,1.808-1.9l51.2-76.8c0.282-0.607,0.564-1.214,0.845-1.822
				c0.305-0.822,0.48-1.687,0.518-2.563c0.005-0.122,0.07-0.225,0.07-0.349L511.985,392.458z M42.667,246.255
				c-15.059-3.827-25.601-17.384-25.601-32.922c0-15.537,10.542-29.094,25.601-32.922V246.255z M42.667,494.933h-25.6v-51.2
				c0.047-15.521,10.569-29.052,25.6-32.922V494.933z M425.404,324.054c-2.168-3.315-1.26-7.758,2.033-9.958
				c3.219-2.014,7.443-1.237,9.733,1.792L486.706,384h-21.34L425.404,324.054z M450.238,392.075l-27.671,34.592h-25.779
				l-6.555-8.705l59.914-26.023L450.238,392.075z M368.613,190.533l82.496-35.67l14.34,10.756l-93.552,40.569
				c-3.423,1.492-7.116,2.269-10.85,2.283h-8.73C355.086,200.526,360.969,194.05,368.613,190.533z M191.436,51.353l36.022,36.022
				L206.804,102.4h-19.331l9.844-7.063c2.036-1.462,3.327-3.746,3.529-6.244s-0.704-4.96-2.479-6.73l-18.994-18.937
				C184.35,60.487,188.501,56.333,191.436,51.353z M162.133,51.2c-9.426,0-17.067-7.641-17.067-17.067s7.641-17.067,17.067-17.067
				S179.2,24.708,179.2,34.133C179.191,43.555,171.555,51.191,162.133,51.2z M93.867,247.467v42.667H76.8
				c-9.422-0.009-17.057-7.645-17.067-17.067V136.533c0.009-9.422,7.645-17.057,17.067-17.067h238.933
				c9.422,0.009,17.057,7.645,17.067,17.067v46.084c-3.549-3.208-7.591-5.825-11.971-7.751l-87.042-37.634
				c-2.811-1.216-6.059-0.831-8.508,1.008l-26.081,19.562l-8.069-3.499c-2.638-1.144-5.674-0.883-8.078,0.695
				c-2.404,1.578-3.852,4.259-3.851,7.135v59.733h-59.733C105.335,221.882,93.882,233.335,93.867,247.467z M179.2,238.933V256
				h-68.267v-8.533c0.006-4.71,3.823-8.527,8.533-8.533H179.2z M110.933,290.133v-17.067H179.2v17.067H110.933z M153.6,324.267
				c-4.713,0-8.533-3.82-8.533-8.533s3.821-8.533,8.533-8.533h25.6v51.2h-25.6c-4.713,0-8.533-3.82-8.533-8.533
				s3.821-8.533,8.533-8.533c4.713,0,8.533-3.821,8.533-8.533C162.133,328.087,158.313,324.267,153.6,324.267z M76.8,418.133v76.8
				H59.733v-102.4c0.009-9.422,7.645-17.057,17.067-17.067h117.63l39.351,17.067H102.4C88.268,392.549,76.815,404.001,76.8,418.133z
				 M298.667,494.933h-204.8v-76.8c0.006-4.71,3.823-8.527,8.533-8.533h170.732l25.535,11.074V494.933z M307.2,405.823
				l-28.687-12.453c-0.167-0.078-0.326-0.15-0.5-0.217l-78.502-34.077l-0.013-0.005l-3.232-1.403V175.133l107.704,46.713
				c1.036,0.45,2.159,0.655,3.229,1.025V405.823z M217.219,165.618l14.34-10.755l82.504,35.675
				c7.641,3.516,13.521,9.99,16.288,17.933h-8.73c-3.736-0.015-7.429-0.792-10.854-2.283L217.219,165.618z M332.8,494.933h-17.067
				v-68.779c0.121,0,0.221-0.063,0.341-0.069c1.835,0.312,3.687,0.506,5.547,0.581H332.8V494.933z M324.267,409.6V225.538H358.4
				V409.6H324.267z M374.409,452.364l-17.132-25.697h3.768c1.862-0.075,3.716-0.268,5.553-0.58c0.118,0.005,0.216,0.068,0.334,0.068
				c0.355-0.047,0.706-0.118,1.052-0.212c1.972-0.34,3.92-0.812,5.828-1.415l8.723,11.583L374.409,452.364z M375.467,405.789V222.87
				c1.068-0.37,2.19-0.574,3.225-1.024L486.4,175.133V354.56L451,305.888c-7.833-10.231-22.169-12.813-33.079-5.958
				c-11.116,7.431-14.121,22.457-6.717,33.592l29.327,43.993L375.467,405.789z M435.2,494.933h-42.667v-17.067H435.2V494.933z
				 M389.275,460.8l8.533-17.067h24.593l12.8,17.067H389.275z M451.856,454.565l-14.398-19.197l27.441-34.301h22.621
				L451.856,454.565z"/>
			<path d="M136.533,204.8c14.132-0.015,25.585-11.468,25.6-25.6v-17.067c-0.015-14.132-11.468-25.585-25.6-25.6h-17.067
				c-14.132,0.015-25.585,11.468-25.6,25.6V179.2c0.015,14.132,11.468,25.585,25.6,25.6H136.533z M110.933,179.2v-17.067
				c0.006-4.71,3.823-8.527,8.533-8.533h17.067c4.71,0.006,8.527,3.823,8.533,8.533V179.2c-0.006,4.71-3.823,8.527-8.533,8.533
				h-17.067C114.756,187.727,110.94,183.91,110.933,179.2z"/>
		</g>
	</g>
</g>
<g>
</g>
<g>
</g>
<g>
</g>
<g>
</g>
<g>
</g>
<g>
</g>
<g>
</g>
<g>
</g>
<g>
</g>
<g>
</g>
<g>
</g>
<g>
</g>
<g>
</g>
<g>
</g>
<g>
</g>
</svg>
