<?xml version="1.0" encoding="iso-8859-1"?>
<!-- Generator: Adobe Illustrator 19.0.0, SVG Export Plug-In . SVG Version: 6.00 Build 0)  -->
<svg version="1.1" id="Capa_1" xmlns="http://www.w3.org/2000/svg" xmlns:xlink="http://www.w3.org/1999/xlink" x="0px" y="0px"
	 viewBox="0 0 512 512" style="enable-background:new 0 0 512 512;" xml:space="preserve">
<g>
	<g>
		<g>
			<path d="M260.683,280.2c13.208-8.663,36.775-26.15,46.042-45.683c12.625-24.854,11.992-49.571-1.625-62.967
				c-7.671-7.395-18.39-10.722-28.9-8.971c-7.751,1.298-14.854,5.127-20.2,10.888c-5.349-5.761-12.455-9.589-20.208-10.888
				c-10.508-1.759-21.228,1.569-28.892,8.971c-13.617,13.396-14.25,38.112-1.725,62.758c9.367,19.742,32.933,37.229,46.142,45.892
				C254.16,282.067,257.84,282.067,260.683,280.2z M220.492,226.783L220.492,226.783c-8.909-17.529-9.575-35.242-1.625-43.067
				c3.091-2.931,7.199-4.548,11.458-4.513c0.913-0.001,1.824,0.073,2.725,0.221c6.909,1.403,12.663,6.158,15.342,12.679
				c1.609,2.665,4.495,4.294,7.608,4.294c3.113,0,5.999-1.629,7.608-4.294c2.677-6.522,8.432-11.279,15.342-12.679
				c5.138-0.849,10.378,0.736,14.183,4.292c7.95,7.825,7.283,25.537-1.725,43.275c-8.793,14.571-20.931,26.838-35.408,35.784
				C241.46,253.785,229.284,241.444,220.492,226.783z"/>
			<path d="M477.867,409.6h-25.6V379l11.034,11.034c3.338,3.296,8.711,3.279,12.029-0.038c3.317-3.317,3.334-8.69,0.038-12.029
				l-23.1-23.1v-14.396c21.461-4.381,36.119-24.3,33.917-46.093C483.982,272.585,465.637,256,443.733,256
				s-40.249,16.586-42.451,38.378c-2.201,21.793,12.456,41.712,33.917,46.093v14.396l-23.1,23.1
				c-3.296,3.338-3.28,8.711,0.038,12.029c3.317,3.317,8.69,3.334,12.029,0.038L435.2,379v30.6h-25.6
				c-9.421,0.011-17.056,7.645-17.067,17.067v17.067h-22.067l-23.1-23.1c-3.338-3.296-8.711-3.28-12.029,0.038
				c-3.317,3.317-3.334,8.69-0.038,12.029l11.033,11.034h-35.6l-46.2-46.2v-27.067l23.1-23.1c3.296-3.338,3.28-8.711-0.038-12.029
				c-3.317-3.317-8.69-3.334-12.029-0.038l-11.034,11.033v-31.032c49.75-4.219,89.215-43.684,93.434-93.434H384
				c14.132-0.015,25.585-11.468,25.6-25.6v-39.133l23.1-23.1c2.178-2.151,3.037-5.304,2.251-8.262
				c-0.786-2.958-3.097-5.269-6.055-6.055c-2.958-0.786-6.111,0.073-8.262,2.251L409.6,133V85.333h25.6
				c9.421-0.011,17.056-7.645,17.067-17.067v-51.2C452.256,7.645,444.621,0.011,435.2,0h-68.267
				c-9.421,0.011-17.056,7.645-17.067,17.067v51.2c0.011,9.421,7.646,17.056,17.067,17.067h25.6V133L381.5,121.966
				c-3.338-3.296-8.711-3.279-12.029,0.038c-3.317,3.317-3.334,8.691-0.038,12.029l23.1,23.1v39.133
				c-0.005,4.711-3.822,8.529-8.533,8.533h-26.032c-4.219-49.75-43.684-89.215-93.434-93.434V85.333h25.6
				c9.421-0.011,17.056-7.645,17.067-17.067v-51.2C307.189,7.645,299.554,0.011,290.133,0h-68.267
				c-9.421,0.011-17.056,7.645-17.067,17.067v51.2c0.011,9.421,7.646,17.056,17.067,17.067h25.6v26.032
				c-49.75,4.219-89.215,43.684-93.434,93.434H128c-4.711-0.005-8.529-3.822-8.533-8.533v-39.133l23.1-23.1
				c3.296-3.338,3.28-8.711-0.038-12.029c-3.317-3.317-8.69-3.334-12.029-0.038L119.467,133V85.333h25.6
				c9.421-0.011,17.056-7.645,17.067-17.067v-51.2C162.122,7.645,154.488,0.011,145.067,0H76.8
				c-9.421,0.011-17.056,7.645-17.067,17.067v51.2c0.011,9.421,7.645,17.056,17.067,17.067h25.6V133l-11.034-11.034
				c-3.338-3.296-8.711-3.279-12.029,0.038c-3.317,3.317-3.334,8.691-0.038,12.029l23.1,23.1v39.133
				c0.015,14.132,11.468,25.585,25.6,25.6h26.032c4.219,49.75,43.684,89.215,93.434,93.434v31.032L236.433,335.3
				c-3.338-3.296-8.711-3.279-12.029,0.038c-3.317,3.317-3.334,8.69-0.038,12.029l23.1,23.1v27.067l-46.2,46.2h-35.6L176.7,432.7
				c3.296-3.338,3.279-8.711-0.038-12.029c-3.317-3.317-8.69-3.334-12.029-0.038l-23.1,23.1h-22.067v-17.067
				c-0.011-9.421-7.646-17.056-17.067-17.067H76.8V379l11.034,11.034c2.151,2.178,5.304,3.037,8.262,2.251
				c2.958-0.786,5.269-3.097,6.055-6.055s-0.073-6.111-2.251-8.262l-23.1-23.1v-14.396c21.461-4.381,36.119-24.3,33.917-46.093
				C108.516,272.585,90.17,256,68.267,256s-40.249,16.586-42.451,38.378c-2.201,21.793,12.456,41.712,33.917,46.093v14.396
				l-23.1,23.1c-3.281,3.341-3.256,8.701,0.054,12.012s8.671,3.335,12.012,0.054L59.733,379v30.6h-25.6
				c-9.421,0.011-17.056,7.645-17.067,17.067v51.2c0.011,9.421,7.645,17.056,17.067,17.067H102.4
				c9.421-0.011,17.056-7.645,17.067-17.067V460.8h22.067l23.1,23.1c2.151,2.178,5.304,3.037,8.262,2.251
				c2.958-0.786,5.269-3.097,6.055-6.055c0.786-2.958-0.073-6.111-2.251-8.262L165.667,460.8h35.6l48.7,48.7
				c1.6,1.601,3.77,2.5,6.033,2.5c2.263,0,4.433-0.899,6.033-2.5l48.7-48.7h35.6L335.3,471.834
				c-2.178,2.151-3.037,5.304-2.251,8.262c0.786,2.958,3.097,5.269,6.055,6.055c2.958,0.786,6.111-0.073,8.262-2.251l23.1-23.1
				h22.067v17.067c0.011,9.421,7.646,17.056,17.067,17.067h68.267c9.421-0.011,17.056-7.645,17.067-17.067v-51.2
				C494.922,417.245,487.288,409.611,477.867,409.6z M366.933,68.267v-51.2H435.2l0.009,51.2H366.933z M76.8,68.267v-51.2h68.267
				l0.009,51.2H76.8z M42.667,298.667c0-14.138,11.462-25.6,25.6-25.6s25.6,11.462,25.6,25.6s-11.461,25.6-25.6,25.6
				C54.134,324.251,42.682,312.799,42.667,298.667z M34.133,477.867v-51.2H102.4l0.004,25.579l-0.004,0.021l0.004,0.021
				l0.004,25.579H34.133z M221.867,68.267v-51.2h68.267l0.008,51.2H221.867z M170.667,213.333C170.667,166.205,208.872,128,256,128
				s85.333,38.205,85.333,85.333c0,47.128-38.205,85.333-85.333,85.333C208.894,298.613,170.72,260.439,170.667,213.333z M256,491.4
				l-39.133-39.133L256,413.133l39.133,39.133L256,491.4z M418.133,298.667c0-14.138,11.461-25.6,25.6-25.6s25.6,11.462,25.6,25.6
				s-11.461,25.6-25.6,25.6C429.601,324.251,418.149,312.799,418.133,298.667z M477.867,477.867H409.6v-51.2h68.267V477.867z"/>
		</g>
	</g>
</g>
<g>
</g>
<g>
</g>
<g>
</g>
<g>
</g>
<g>
</g>
<g>
</g>
<g>
</g>
<g>
</g>
<g>
</g>
<g>
</g>
<g>
</g>
<g>
</g>
<g>
</g>
<g>
</g>
<g>
</g>
</svg>
