<?xml version="1.0" encoding="iso-8859-1"?>
<!-- Generator: Adobe Illustrator 19.0.0, SVG Export Plug-In . SVG Version: 6.00 Build 0)  -->
<svg version="1.1" id="Capa_1" xmlns="http://www.w3.org/2000/svg" xmlns:xlink="http://www.w3.org/1999/xlink" x="0px" y="0px"
	 viewBox="0 0 512 512" style="enable-background:new 0 0 512 512;" xml:space="preserve">
<g>
	<g>
		<g>
			<path d="M477.867,196.267h-37.275c-4.769-25.917-14.945-50.538-29.867-72.258l20.267-20.263c6.667-6.686,6.667-17.506,0-24.192
				L406.85,55.408c-6.686-6.667-17.506-6.667-24.192,0l-20.229,20.229c-21.736-14.91-46.369-25.073-72.295-29.825V17.067
				C290.124,7.645,282.488,0.009,273.067,0h-34.133c-9.422,0.009-17.057,7.645-17.067,17.067v28.75
				c-25.916,4.765-50.537,14.937-72.258,29.854l-20.267-20.263c-6.684-6.667-17.503-6.667-24.188,0L81.008,79.554
				c-6.671,6.683-6.671,17.505,0,24.188l20.229,20.229c-14.91,21.736-25.073,46.37-29.825,72.296H34.133
				c-9.422,0.009-17.057,7.645-17.067,17.067v34.133c0.009,9.422,7.645,17.057,17.067,17.067h37.288
				c0.505,2.776,1.166,5.462,1.784,8.173c-12.685,13.797-16.791,33.434-10.698,51.157c6.093,17.724,21.406,30.685,39.893,33.765
				v17.837c0.022,18.842,15.291,34.112,34.133,34.133h61.306c-3.296,8.807-1.326,18.721,5.086,25.6
				c-6.413,6.879-8.382,16.793-5.085,25.6h-61.306c-18.842,0.022-34.112,15.291-34.133,34.133v8.533
				c0,4.713,3.821,8.533,8.533,8.533h289.421c0.127,0,0.231-0.067,0.356-0.072c0.125,0.005,0.23,0.072,0.356,0.072
				c2.263,0.001,4.434-0.898,6.035-2.499c1.6-1.6,2.499-3.771,2.499-6.035v-8.533c-0.022-18.842-15.291-34.112-34.133-34.133
				h-61.306c3.296-8.807,1.326-18.721-5.086-25.6c6.412-6.879,8.382-16.793,5.086-25.6h61.306
				c18.842-0.022,34.112-15.291,34.133-34.133v-17.837c18.486-3.08,33.799-16.041,39.893-33.764
				c6.093-17.723,1.987-37.36-10.697-51.157c0.62-2.714,1.283-5.406,1.788-8.175h37.283c9.421-0.011,17.056-7.645,17.067-17.067
				v-34.133C494.923,203.912,487.288,196.277,477.867,196.267z M102.4,340.122c-15.059-3.827-25.601-17.384-25.601-32.922
				s10.542-29.094,25.601-32.922V340.122z M375.467,477.867c9.422,0.009,17.057,7.645,17.067,17.067H119.467
				c0.009-9.422,7.645-17.057,17.067-17.067H375.467z M221.867,426.667c-4.713,0-8.533-3.82-8.533-8.533s3.82-8.533,8.533-8.533
				h68.267c4.713,0,8.533,3.82,8.533,8.533s-3.821,8.533-8.533,8.533c-4.713,0-8.533,3.82-8.533,8.533s3.821,8.533,8.533,8.533
				c4.713,0,8.533,3.821,8.533,8.533c0,4.713-3.821,8.533-8.533,8.533h-68.267c-4.713,0-8.533-3.821-8.533-8.533
				c0-4.713,3.82-8.533,8.533-8.533s8.533-3.82,8.533-8.533S226.579,426.667,221.867,426.667z M341.333,392.533H170.667v-17.067
				h170.667V392.533z M341.333,358.4H170.667v-8.533c0.006-4.71,3.823-8.527,8.533-8.533h153.6c4.71,0.006,8.527,3.823,8.533,8.533
				V358.4z M392.533,375.467c-0.009,9.422-7.645,17.057-17.067,17.067H358.4v-42.667c-0.015-14.132-11.468-25.585-25.6-25.6H179.2
				c-14.132,0.015-25.585,11.468-25.6,25.6v42.667h-17.067c-9.422-0.009-17.057-7.645-17.067-17.067V238.933
				c0.009-9.422,7.645-17.057,17.067-17.067h238.933c9.422,0.009,17.057,7.645,17.067,17.067V375.467z M219.556,170.433
				l19.365,19.309l-20.99,15.058h-52.183c5.172-18.138,15.651-34.314,30.09-46.449C201.764,165.446,210.333,169.811,219.556,170.433
				z M204.8,136.533c0-9.426,7.641-17.067,17.067-17.067c9.426,0,17.067,7.641,17.067,17.067s-7.641,17.067-17.067,17.067
				C212.445,153.591,204.809,145.955,204.8,136.533z M306.321,184.771L306.321,184.771L258.18,136.63
				c41.183,0.804,76.972,28.504,88.077,68.17h-50.705l9.756-7.096c2.018-1.468,3.293-3.745,3.487-6.233
				C308.991,188.983,308.086,186.535,306.321,184.771z M287.192,189.775L266.537,204.8h-19.331l9.844-7.063
				c2.036-1.462,3.327-3.746,3.529-6.244c0.202-2.499-0.704-4.96-2.479-6.731l-18.995-18.938c4.978-2.938,9.129-7.092,12.064-12.072
				L287.192,189.775z M409.6,340.122v-65.843c15.058,3.828,25.599,17.385,25.599,32.922S424.658,336.293,409.6,340.122z
				 M477.867,247.467h-44.542c-4.244,0.003-7.842,3.121-8.45,7.321c-0.314,2.21-0.722,4.396-1.119,6.583
				c-4.467-2.221-9.237-3.771-14.156-4.599v-17.837c-0.022-18.842-15.291-34.112-34.133-34.133h-11.622
				c-11.682-50.093-56.408-85.483-107.845-85.333c-1.553,0-3.073,0.171-4.618,0.239c-8.097-14.599-25.605-21.147-41.294-15.444
				c-15.69,5.703-24.906,21.965-21.739,38.356c-20.071,15.551-34.231,37.489-40.138,62.182h-11.677
				c-18.842,0.022-34.112,15.291-34.133,34.133v17.837c-4.919,0.829-9.689,2.378-14.155,4.599c-0.396-2.183-0.804-4.363-1.12-6.574
				c-0.599-4.204-4.199-7.328-8.446-7.329H34.133v-34.133h44.546c4.254,0,7.858-3.133,8.45-7.346
				c4.016-28.223,15.052-54.986,32.096-77.837c2.532-3.397,2.188-8.138-0.808-11.133L93.075,91.621l24.2-24.146l25.342,25.342
				c3.068,2.912,7.767,3.251,11.221,0.808c22.826-17.032,49.56-28.067,77.754-32.096c4.211-0.594,7.342-4.198,7.342-8.451V17.067
				h34.133v36.012c0,4.254,3.133,7.858,7.346,8.45c28.223,4.016,54.986,15.052,77.838,32.096c3.397,2.533,8.138,2.188,11.133-0.808
				l25.396-25.342l24.146,24.2l-25.342,25.342c-1.603,1.634-2.501,3.832-2.5,6.121c-0.001,1.838,0.593,3.627,1.692,5.1
				c17.034,22.826,28.07,49.56,32.1,77.754c0.595,4.21,4.198,7.341,8.45,7.342h44.542V247.467z"/>
			<path d="M196.267,238.933H179.2c-14.132,0.015-25.585,11.468-25.6,25.6V281.6c0.015,14.132,11.468,25.585,25.6,25.6h17.067
				c14.132-0.015,25.585-11.468,25.6-25.6v-17.067C221.851,250.401,210.399,238.949,196.267,238.933z M204.8,281.6
				c-0.006,4.71-3.823,8.527-8.533,8.533H179.2c-4.71-0.006-8.527-3.823-8.533-8.533v-17.067c0.006-4.71,3.823-8.527,8.533-8.533
				h17.067c4.71,0.006,8.527,3.823,8.533,8.533V281.6z"/>
			<path d="M332.8,238.933h-17.067c-14.132,0.015-25.585,11.468-25.6,25.6V281.6c0.015,14.132,11.468,25.585,25.6,25.6H332.8
				c14.132-0.015,25.585-11.468,25.6-25.6v-17.067C358.385,250.401,346.932,238.949,332.8,238.933z M341.333,281.6
				c-0.006,4.71-3.823,8.527-8.533,8.533h-17.067c-4.71-0.006-8.527-3.823-8.533-8.533v-17.067c0.006-4.71,3.823-8.527,8.533-8.533
				H332.8c4.71,0.006,8.527,3.823,8.533,8.533V281.6z"/>
		</g>
	</g>
</g>
<g>
</g>
<g>
</g>
<g>
</g>
<g>
</g>
<g>
</g>
<g>
</g>
<g>
</g>
<g>
</g>
<g>
</g>
<g>
</g>
<g>
</g>
<g>
</g>
<g>
</g>
<g>
</g>
<g>
</g>
</svg>
