<?xml version="1.0" encoding="iso-8859-1"?>
<!-- Generator: Adobe Illustrator 19.0.0, SVG Export Plug-In . SVG Version: 6.00 Build 0)  -->
<svg version="1.1" id="Capa_1" xmlns="http://www.w3.org/2000/svg" xmlns:xlink="http://www.w3.org/1999/xlink" x="0px" y="0px"
	 viewBox="0 0 512 512" style="enable-background:new 0 0 512 512;" xml:space="preserve">
<g>
	<g>
		<g>
			<path d="M179.2,204.8h17.067c14.132-0.015,25.585-11.468,25.6-25.6v-17.067c-0.015-14.132-11.468-25.585-25.6-25.6H179.2
				c-14.132,0.015-25.585,11.468-25.6,25.6V179.2C153.615,193.332,165.068,204.785,179.2,204.8z M170.667,162.133
				c0.006-4.71,3.823-8.527,8.533-8.533h17.067c4.71,0.006,8.527,3.823,8.533,8.533V179.2c-0.006,4.71-3.823,8.527-8.533,8.533
				H179.2c-4.71-0.006-8.527-3.823-8.533-8.533V162.133z"/>
			<path d="M315.733,204.8H332.8c14.132-0.015,25.585-11.468,25.6-25.6v-17.067c-0.015-14.132-11.468-25.585-25.6-25.6h-17.067
				c-14.132,0.015-25.585,11.468-25.6,25.6V179.2C290.149,193.332,301.601,204.785,315.733,204.8z M307.2,162.133
				c0.006-4.71,3.823-8.527,8.533-8.533H332.8c4.71,0.006,8.527,3.823,8.533,8.533V179.2c-0.006,4.71-3.823,8.527-8.533,8.533
				h-17.067c-4.71-0.006-8.527-3.823-8.533-8.533V162.133z"/>
			<path d="M486.4,444.945V162.133c-0.022-18.842-15.291-34.112-34.133-34.133h-43.878c-3.869-15.031-17.401-25.553-32.922-25.6
				h-79.914l9.756-7.096c2.018-1.468,3.293-3.745,3.488-6.233c0.195-2.488-0.71-4.936-2.475-6.7l-50.555-50.555
				c-1.198-18.188-16.505-32.208-34.728-31.807c-18.223,0.401-32.899,15.08-33.296,33.303s13.627,33.528,31.815,34.721
				l19.365,19.309l-20.99,15.058h-81.398c-15.521,0.047-29.052,10.569-32.922,25.6H59.733
				c-18.842,0.022-34.112,15.291-34.133,34.133v282.812C10.569,448.814,0.047,462.346,0,477.867v17.067
				c0.009,9.422,7.645,17.057,17.067,17.067h477.867c9.422-0.009,17.057-7.645,17.067-17.067v-17.067
				C511.953,462.346,501.431,448.814,486.4,444.945z M409.6,180.412c15.059,3.827,25.601,17.384,25.601,32.922
				c0,15.537-10.542,29.094-25.601,32.922V180.412z M409.6,273.067v-9.304c24.628-4.136,42.667-25.456,42.667-50.429
				c0-24.973-18.038-46.293-42.667-50.429v-17.838h42.667c9.422,0.009,17.057,7.645,17.067,17.067v281.6h-17.067
				c-0.042-24.958-18.061-46.254-42.667-50.429v-0.771c-0.022-18.842-15.291-34.112-34.133-34.133h-61.306
				c3.296-8.807,1.326-18.721-5.086-25.6c6.412-6.879,8.382-16.793,5.086-25.6h61.306
				C394.309,307.179,409.579,291.909,409.6,273.067z M435.2,443.733h-25.6v-32.922C424.631,414.681,435.153,428.212,435.2,443.733z
				 M349.867,392.533H162.133c-14.132,0.015-25.585,11.468-25.6,25.6v25.6h-17.067v-51.2c0.009-9.422,7.645-17.057,17.067-17.067
				h238.933c9.422,0.009,17.057,7.645,17.067,17.067v51.2h-17.067v-25.6C375.451,404.001,363.999,392.549,349.867,392.533z
				 M358.4,418.133v25.6h-34.133c-9.422,0.009-17.057,7.645-17.067,17.067h-93.867c-0.009-9.422-7.645-17.057-17.067-17.067H153.6
				v-25.6c0.006-4.71,3.823-8.527,8.533-8.533h187.733C354.577,409.606,358.394,413.423,358.4,418.133z M341.333,273.067v17.067
				H170.667v-17.067H341.333z M170.667,256v-8.533c0.006-4.71,3.823-8.527,8.533-8.533h153.6c4.71,0.006,8.527,3.823,8.533,8.533
				V256H170.667z M221.867,324.267c-4.713,0-8.533-3.82-8.533-8.533s3.82-8.533,8.533-8.533h68.267c4.713,0,8.533,3.82,8.533,8.533
				s-3.82,8.533-8.533,8.533s-8.533,3.821-8.533,8.533c0,4.713,3.82,8.533,8.533,8.533s8.533,3.82,8.533,8.533
				s-3.82,8.533-8.533,8.533h-68.267c-4.713,0-8.533-3.82-8.533-8.533s3.82-8.533,8.533-8.533s8.533-3.821,8.533-8.533
				C230.4,328.087,226.58,324.267,221.867,324.267z M251.169,51.353l36.022,36.022L266.537,102.4h-19.331l9.844-7.063
				c2.036-1.462,3.327-3.746,3.529-6.244s-0.704-4.96-2.479-6.73l-18.994-18.937C244.083,60.487,248.234,56.333,251.169,51.353z
				 M221.867,51.2c-9.426,0-17.067-7.641-17.067-17.067s7.641-17.067,17.067-17.067s17.067,7.641,17.067,17.067
				C238.924,43.555,231.288,51.191,221.867,51.2z M119.467,136.533c0.009-9.422,7.645-17.057,17.067-17.067h238.933
				c9.422,0.009,17.057,7.645,17.067,17.067v136.533c-0.009,9.422-7.645,17.057-17.067,17.067H358.4v-42.667
				c-0.015-14.132-11.468-25.585-25.6-25.6H179.2c-14.132,0.015-25.585,11.468-25.6,25.6v42.667h-17.067
				c-9.422-0.009-17.057-7.645-17.067-17.067V136.533z M42.667,162.133c0.009-9.422,7.645-17.057,17.067-17.067H102.4v17.838
				c-24.628,4.136-42.667,25.456-42.667,50.429c0,24.973,18.038,46.293,42.667,50.429v9.304
				c0.022,18.842,15.291,34.112,34.133,34.133h61.306c-3.296,8.807-1.326,18.721,5.086,25.6c-6.413,6.879-8.382,16.793-5.085,25.6
				h-61.306c-18.842,0.022-34.112,15.291-34.133,34.133v0.771c-24.606,4.175-42.624,25.472-42.667,50.429H42.667V162.133z
				 M102.4,180.412v65.843c-15.059-3.827-25.601-17.384-25.601-32.922C76.799,197.796,87.341,184.239,102.4,180.412z M102.4,410.812
				v32.922H76.8C76.847,428.212,87.369,414.681,102.4,410.812z M494.933,494.933H17.067v-17.067
				c0.009-9.422,7.645-17.057,17.067-17.067h162.133c0.009,9.422,7.645,17.057,17.067,17.067H307.2
				c9.422-0.009,17.057-7.645,17.067-17.067h153.6c9.422,0.009,17.057,7.645,17.067,17.067V494.933z"/>
		</g>
	</g>
</g>
<g>
</g>
<g>
</g>
<g>
</g>
<g>
</g>
<g>
</g>
<g>
</g>
<g>
</g>
<g>
</g>
<g>
</g>
<g>
</g>
<g>
</g>
<g>
</g>
<g>
</g>
<g>
</g>
<g>
</g>
</svg>
