<?xml version="1.0" encoding="UTF-8"?>
<svg id="Layer_1" xmlns="http://www.w3.org/2000/svg" xmlns:xlink="http://www.w3.org/1999/xlink" version="1.1" viewBox="0 0 285.5 285.5">
  <!-- Generator: Adobe Illustrator 29.5.0, SVG Export Plug-In . SVG Version: 2.1.0 Build 137)  -->
  <defs>
    <style>
      .st0 {
        fill: #231f20;
      }

      .st1 {
        fill: url(#linear-gradient);
      }

      .st2 {
        fill: #fff;
      }
    </style>
    <linearGradient id="linear-gradient" x1="72.6" y1="57.1" x2="294.1" y2="327.4" gradientUnits="userSpaceOnUse">
      <stop offset="0" stop-color="#58595b"/>
      <stop offset="0" stop-color="#414041"/>
      <stop offset=".2" stop-color="#302d2f"/>
      <stop offset=".3" stop-color="#262223"/>
      <stop offset=".4" stop-color="#231f20"/>
      <stop offset="1" stop-color="#000"/>
    </linearGradient>
  </defs>
  <g>
    <circle class="st1" cx="142.7" cy="142.7" r="138.2"/>
    <path class="st0" d="M142.7,285.5C64,285.5,0,221.4,0,142.7S64,0,142.7,0s142.7,64,142.7,142.7-64,142.7-142.7,142.7ZM142.7,9C69,9,9,69,9,142.7s60,133.7,133.7,133.7,133.7-60,133.7-133.7S216.5,9,142.7,9Z"/>
  </g>
  <g>
    <path class="st2" d="M100.1,128.2c0,19.7-10.6,29.5-31.7,29.5h-19.4v50.8h-16.2V77.8h35.3c21.4,0,32.1,9.7,32.1,29.1v21.3ZM83.8,130.1v-24.8c0-4.7-1.1-8.1-3.3-10.3-2.2-2.1-5.6-3.2-10.4-3.2h-21.3v51.9h21.3c4.7,0,8.2-1.1,10.4-3.3s3.3-5.6,3.3-10.4Z"/>
    <path class="st2" d="M172.7,179c0,10.3-2.5,17.8-7.5,22.5-5,4.7-13.1,7-24.3,7h-24.5v-14h26.1c4.7,0,8.2-1.1,10.5-3.3,2.2-2.2,3.4-5.6,3.4-10.4v-23.7c0-4.1-1.2-7.4-3.7-9.8s-5.8-3.6-9.9-3.6h-24.5v-65.9h51.5v14h-35.7v37.9h7.7c9.6,0,17.1,2.4,22.6,7.1,5.5,4.7,8.2,12.1,8.2,22v20.2Z"/>
    <path class="st2" d="M192.1,91.8v-14h60.7v18.1l-32.9,112.6h-16.6l34-116.7h-45.2Z"/>
  </g>
</svg>